<svg width="130" height="130" viewBox="0 0 130 130" fill="none" xmlns="http://www.w3.org/2000/svg">
<path d="M129.95 64.975C129.95 29.0903 100.86 0 64.975 0C29.0903 0 0 29.0903 0 64.975C0 100.86 29.0903 129.95 64.975 129.95C100.86 129.95 129.95 100.86 129.95 64.975Z" fill="#AAB995"/>
<path d="M44.5498 33.42C44.5498 33.42 44.5598 33.42 44.5698 33.43C44.5698 33.43 44.5698 33.43 44.5498 33.42Z" fill="#595280"/>
<path d="M94.0601 45.7701C93.7301 45.7701 93.3901 45.8401 93.0601 45.8101C92.5401 45.7401 92.0401 45.9101 91.5501 46.0701C91.4201 46.1101 91.2801 46.1401 91.1401 46.1701C91.4601 45.9401 91.8101 45.7201 92.0701 45.4301C92.3801 45.0801 92.6201 44.6801 92.8201 44.2601C93.0101 43.8701 93.2201 43.1201 92.6801 42.9201C92.3801 42.8701 92.1101 43.0601 91.8201 43.1201C91.3201 43.2001 90.8401 43.4101 90.4101 43.7001C90.4201 43.6801 90.4401 43.6701 90.4501 43.6501C90.9501 43.1201 92.3001 39.6501 90.9601 39.6601C90.5101 39.6801 90.1101 39.8401 89.7301 40.0601C89.7301 40.0401 89.7401 40.0101 89.7501 39.9901C90.0201 39.1701 89.9701 38.3301 89.9101 37.4801C89.8201 36.9301 89.1101 36.6701 88.6401 36.9401C88.2301 37.1601 87.1001 37.7401 86.6101 38.2901C86.6401 37.7601 86.5501 37.2301 86.4001 36.7201C86.3201 36.3701 86.0501 36.1301 85.8001 35.8901C85.6801 35.7201 85.4901 35.5401 85.2601 35.6301C84.9101 35.7801 84.5301 35.9301 84.2601 36.2101C84.1901 36.2801 84.1401 36.3601 84.0901 36.4401C84.0501 35.7601 83.7401 35.1101 83.3401 34.5501C83.1901 34.3901 83.1101 34.0801 82.8701 34.0501C82.4201 34.1201 82.1001 34.5201 81.7701 34.8101C81.4901 35.0601 81.1201 35.2801 80.8901 35.6001C80.7401 35.8501 80.6401 36.1201 80.5501 36.4001C80.4801 36.2101 80.3901 36.0301 80.1701 36.0301C79.9601 36.1201 79.8101 36.3101 79.6701 36.5001C79.6301 35.7301 78.4901 34.2901 78.0401 34.0601C77.6501 33.8801 77.2301 34.1501 76.9001 34.3601C76.1901 34.7401 75.6701 35.6901 75.5901 36.5801C75.3901 36.2701 75.1201 36.0101 74.8601 35.7601C74.7201 35.6901 74.5701 35.6601 74.4401 35.5801C74.2801 35.4901 74.1001 35.3601 73.9101 35.4001C73.7901 35.4301 73.7301 35.5401 73.6901 35.6501C73.3001 36.4801 73.1801 37.4101 73.2601 38.3201C73.2801 38.4601 73.2601 38.7301 73.3001 38.9601C73.0101 38.5701 72.7001 38.2101 72.3101 37.9101C71.8401 37.4401 71.2301 36.9901 70.5201 37.1401C70.1901 37.2301 70.2101 37.6101 70.2101 37.8801C70.0201 39.1001 70.4401 40.2501 70.6801 41.4401C71.2601 42.6301 71.9501 43.7701 72.5801 44.9501C73.2601 45.7901 73.8901 46.7301 74.8401 47.2901C74.8901 47.3101 74.9401 47.3101 74.9801 47.2901C74.9801 47.6301 75.0001 47.9601 75.0701 48.3001C75.1301 48.5101 75.2001 48.7301 75.2801 48.9401C75.1101 48.7101 74.9501 48.4901 74.7901 48.2601C74.4401 47.6401 73.8901 47.1901 73.4601 46.6201C73.3901 46.5201 73.2701 46.4301 73.1401 46.4801C73.1101 46.5001 73.1001 46.5201 73.0701 46.5301C73.0501 46.5101 73.0301 46.4801 73.0001 46.4701C72.8901 46.4301 72.8001 46.3601 72.7101 46.3001C72.0301 45.8001 71.4701 44.9501 70.9201 44.2801C70.7001 43.8501 70.6801 43.3401 70.4701 42.9001C70.1301 42.0901 69.5001 41.3501 69.5601 40.4301C69.7801 40.5401 70.1501 40.7101 70.2401 40.3601C70.2801 40.2301 70.2601 40.0901 70.1501 40.0001C69.5301 39.4501 69.0501 39.6701 68.9901 40.4901C68.9101 41.5001 69.6101 42.4301 70.1101 43.2701C70.4301 43.9401 70.7401 44.5901 71.2601 45.1301C71.7301 45.7601 72.2001 46.4501 72.9001 46.8401C72.8501 47.0801 72.9001 47.3801 72.8601 47.6101C72.7801 48.3101 72.9301 49.0001 73.0801 49.6901C73.2801 50.2901 73.6901 50.7901 73.9201 51.3801C74.2401 52.3901 74.7001 53.3801 75.1101 54.3601C75.3301 54.9801 75.6601 55.5601 76.2201 55.9301C76.3601 56.0201 76.4901 56.1501 76.6201 56.2501C76.0701 58.2801 75.8901 60.3901 75.8801 62.4801C75.7401 63.7601 75.4001 65.0201 75.3901 66.3201C75.3601 67.3501 75.7201 68.3301 75.7501 69.3501C75.7001 70.2301 75.6601 71.1101 75.7901 71.9901C75.8201 73.0801 75.9301 74.1801 76.0301 75.2601C75.9101 76.7401 75.8301 78.2301 75.9701 79.7201C76.0001 80.0101 75.9701 80.3301 75.9501 80.6501C75.5001 79.6901 74.5901 78.3601 74.3701 77.9001C73.9801 77.3301 73.4701 76.8601 73.1001 76.2801C72.8401 75.8301 72.6401 75.3601 72.3501 74.9401C70.1201 72.1301 68.0301 69.2501 65.7101 66.4901C65.1101 65.7101 64.5801 64.8901 63.9701 64.1201C63.2001 63.0401 62.5501 61.8101 61.7201 60.7601C60.7801 58.9501 59.5701 57.3001 58.5001 55.5801C57.9601 54.8201 57.4601 53.9701 57.0701 53.1001C55.8201 50.9801 54.7601 48.9101 53.3801 46.8401C53.2901 46.7101 53.2301 46.5701 53.1601 46.4401C52.8901 45.6401 52.6501 44.8301 52.5301 43.9901C52.5801 43.8901 52.5301 43.7901 52.4601 43.7201C52.5801 43.1601 52.7701 42.6101 52.9901 42.0601C53.2901 41.2501 53.1601 40.3601 53.3301 39.5301C54.2301 37.4601 54.4801 36.2301 54.1201 34.4501C54.1301 34.4001 54.1501 34.3501 54.1601 34.3101C54.2501 34.0301 54.3801 33.7501 54.5801 33.5201C55.0201 33.2501 55.3901 32.8801 55.8401 32.6101C57.1701 31.5801 58.2801 30.2901 59.3501 29.0001C59.8701 28.4701 60.5701 28.1601 61.0401 27.5901C61.5001 27.0301 62.0701 26.5601 62.4901 25.9701C62.9101 25.1101 63.2801 24.2101 63.5501 23.2901C63.7201 22.5601 63.7101 21.4001 62.8801 21.1101C62.7401 21.1001 62.6201 21.1601 62.5101 21.2201C61.9801 21.5401 61.4901 21.8201 61.0001 22.2501C60.4901 22.7101 59.9501 23.1201 59.4001 23.5201C59.6601 22.9601 59.8101 22.3501 59.9301 21.7501C60.0201 20.5301 60.1101 19.2101 59.7401 18.0301C59.5901 17.7001 59.1601 17.3001 58.8101 17.6001C58.3501 17.9601 58.1101 18.5001 57.6801 18.8901C57.6801 18.8901 57.6701 18.8901 57.6601 18.9001C57.7401 18.5901 57.6701 18.0901 57.6801 17.8901C57.6501 17.1501 57.4201 16.4201 57.0401 15.7801C56.3301 14.6401 55.7101 15.5801 55.2901 16.3601C54.9101 17.3201 54.2601 18.1501 53.9201 19.1201C53.9201 19.1001 53.9001 19.0801 53.9001 19.0601C53.7701 18.7101 53.4201 17.0401 52.8601 17.6901C52.7301 18.0101 52.5601 18.3101 52.3901 18.6001C52.2501 17.1201 51.5901 15.6801 50.6801 14.5201C49.9101 13.5201 48.9501 14.1401 48.3301 14.9301C48.0701 15.3401 47.9701 15.8001 47.7301 16.2301C47.5401 16.6301 47.3001 17.0301 47.2001 17.4701C47.2001 17.6001 47.1401 17.8801 47.0901 18.1801C46.9001 18.1101 46.7201 18.1601 46.5801 18.4201C46.3201 19.1901 45.9101 19.9801 45.7101 20.7901C45.6801 20.5501 45.6301 20.3101 45.5601 20.0701C45.1801 17.8601 44.0701 15.7601 42.3901 14.2201C40.9101 12.9901 41.2201 16.2301 40.8501 16.9801C40.6601 17.5501 40.7401 18.1401 40.8401 18.7201C40.8301 19.5001 40.9001 20.2901 41.1701 21.0201C40.9101 20.8901 40.6601 20.7501 40.4401 20.5601C40.1101 20.2901 39.9201 20.3401 39.8101 20.5401C39.7301 20.3701 39.6401 20.1901 39.5301 20.0201C39.0701 19.2201 38.3601 18.5801 37.5901 18.0901C37.1701 17.8601 36.2001 17.2601 36.1301 18.1201C36.1201 18.7201 36.1601 19.2801 36.0501 19.8801C35.9001 20.6001 35.9701 21.3801 36.2701 22.0701C35.6901 21.8101 35.0901 21.5801 34.5301 21.2901C34.1501 21.1101 33.9901 21.5001 33.8501 21.7701C33.6701 21.9901 33.6901 22.2801 33.7901 22.5301C34.0701 23.6601 34.6101 24.6301 35.0601 25.7101C35.3101 26.1901 35.6401 26.6201 35.9601 27.0501C35.3501 26.5601 34.7101 26.0901 33.9801 25.7401C33.1201 25.4301 32.2001 25.4601 31.3101 25.3201C29.4201 24.3601 30.2001 26.2001 30.6401 27.1501C30.7701 27.4001 30.9201 27.6401 31.0801 27.8801C30.8001 27.6601 30.5201 27.4301 30.2001 27.2601C29.9301 27.1201 29.6201 27.0801 29.3401 26.9601C28.0501 26.2801 26.7001 26.3101 25.6301 27.3601C25.2801 27.7001 25.6301 28.1801 25.7501 28.5501C26.1801 29.5401 26.7301 30.5101 27.4401 31.3301C27.1001 31.2601 26.7601 31.2101 26.4101 31.1901C25.8301 31.1301 25.1901 30.9901 24.6301 31.2401C24.1201 31.5701 23.4701 31.7901 23.1201 32.3101C22.8901 32.9101 23.5901 33.2801 23.9501 33.6701C24.6801 34.4101 25.6401 34.8401 26.5101 35.3801C27.1001 35.7801 27.7201 36.1701 28.3701 36.5101C28.1901 36.4801 28.0101 36.4601 27.8301 36.4401C26.2301 36.3801 24.6401 36.9701 23.2201 37.6601C22.7401 37.8501 21.5901 38.0501 22.2001 38.7701C22.8201 39.2401 23.4901 39.6701 24.1901 40.0101C25.1901 40.4301 26.2901 40.5401 27.3001 40.9301C26.6301 41.0501 25.9701 41.2501 25.3901 41.6001C24.9201 41.8601 24.5801 42.3501 24.1301 42.6501C23.6301 43.0101 23.0301 43.2201 22.5401 43.5901C22.2101 43.8901 22.5001 44.3401 22.7301 44.5901C23.9301 45.8501 25.6701 45.6301 27.2801 45.5001C28.6201 45.4201 30.0001 45.5801 31.3001 45.1801C32.6901 44.8501 33.7701 43.9001 35.0101 43.2401C35.4601 42.9801 35.8701 42.6601 36.3301 42.4201C36.7101 42.2601 37.1501 42.1901 37.5901 42.0601C39.0701 41.5101 39.3201 41.4101 40.7901 41.9301C41.1901 42.2001 41.6601 42.3901 42.0801 42.6201C43.4301 43.3801 44.8501 43.9201 46.3101 44.4401C46.9901 44.7301 47.7301 44.8501 48.3601 45.2501C48.8001 45.5801 49.1701 45.9801 49.5401 46.3901C49.5401 46.4601 49.5401 46.5201 49.5601 46.5801C49.9401 47.6301 50.3101 48.6801 50.8001 49.6901C51.0901 50.3601 51.5101 50.9601 51.9001 51.5701C52.2801 52.2101 52.6201 52.9501 53.0201 53.6601C53.2901 54.1301 53.5901 54.5701 53.8801 55.0201C52.3501 53.6201 50.2901 52.9701 48.3701 52.2601C47.3101 51.8201 46.1901 52.0601 45.0901 51.6901C43.8001 51.2901 42.5101 50.8301 41.1701 50.6701C40.3401 50.6001 39.5601 50.9101 38.7301 50.9501C38.0701 50.9001 37.5201 51.0701 36.8601 51.1601C36.4101 51.1801 35.9701 51.3401 35.5901 51.5901C35.3201 51.8101 35.4801 52.2501 35.6301 52.4901C36.2101 53.2901 37.1501 53.7401 37.9001 54.3701C39.7101 55.8301 41.6701 57.2101 43.9401 57.8501C44.8001 58.0801 45.5501 58.6801 46.3601 59.0401C47.3901 59.4201 48.4601 59.7701 49.5201 60.0501C50.4001 60.2001 51.3101 60.1301 52.1801 59.9801C52.8801 59.8201 53.4501 59.3601 54.0901 59.0601C54.5101 58.8901 54.9701 58.8901 55.4101 58.8801C55.4401 58.8801 55.4701 58.8601 55.5001 58.8501C55.5701 58.8201 55.6201 58.7601 55.6501 58.7001C55.7701 58.9501 55.9101 59.2001 56.1501 59.3301C56.4401 59.7901 56.7801 60.2201 57.1201 60.6401C57.4201 61.1001 57.6901 61.6401 58.0401 62.1201C59.1301 63.7501 60.1001 65.3201 61.3401 66.8901C61.7201 67.5901 61.9401 68.3301 62.3101 69.0301C62.9201 70.0201 63.5201 71.0101 64.3101 71.8701C65.0201 72.6701 65.7901 73.4101 66.4201 74.2701C67.1101 75.2801 67.8401 76.2401 68.7701 77.0401C69.3801 77.6101 70.0501 78.0701 70.5601 78.7601C71.5201 79.7201 72.3601 80.6801 73.1201 81.8201C72.7301 81.6801 72.3901 81.5901 72.1701 81.5501C71.1701 81.3401 70.2601 80.8301 69.3501 80.3901C67.8201 79.3801 66.2001 78.6201 64.5101 77.9201C63.6301 77.5501 62.6601 77.3901 61.8301 76.9101C58.7301 75.2301 55.1901 74.7501 51.8301 73.8001C50.0501 73.0801 48.1301 72.8201 46.2301 72.9801C45.3401 72.9101 44.4401 72.7101 43.5401 72.8701C42.9401 72.9501 41.6901 73.2001 42.1201 74.0401C42.3901 74.4801 42.8501 74.7001 43.3001 74.9601C44.0601 75.4101 44.8001 75.9001 45.5301 76.4001C46.6501 77.2101 47.4801 78.3301 48.4601 79.3001C49.5801 80.4101 51.0301 81.1401 52.4801 81.7101C53.0601 81.8801 53.6601 82.0001 54.2201 82.2101C57.6701 83.7401 58.1201 84.4901 62.1701 84.4101C63.2501 84.4101 64.3101 84.6901 65.3601 84.9601C66.4801 85.2501 67.6301 85.3901 68.7901 85.5201C69.3401 85.5901 69.9001 85.6301 70.4601 85.6701C70.5401 85.6901 70.6101 85.7001 70.6901 85.7301C70.7501 85.7501 70.8001 85.7701 70.8601 85.7801C70.9101 85.8301 70.9601 85.8701 71.0401 85.8801C71.9401 86.2301 72.8401 86.5901 73.7501 86.9401C73.9901 87.0801 74.2601 87.1301 74.5401 87.1801C74.5901 87.2101 74.6401 87.2401 74.7101 87.2501C75.7701 87.3801 76.5401 88.1601 77.2301 88.9101C78.8301 90.4101 79.5801 92.5101 80.4901 94.4601C81.4101 96.6001 82.7301 98.5401 83.6101 100.7C84.4101 102.9 85.6701 104.88 86.8501 106.89C87.6801 108.66 88.2601 110.59 89.1201 112.41C89.5301 113.3 89.5901 114.43 90.3101 115.14C90.4701 115.24 90.5901 115.27 90.6601 115.24C90.7501 115.2 90.7801 115.08 90.7701 114.89C90.8101 115.01 90.8801 115.12 91.0001 115.19C91.1301 115.26 91.2401 115.27 91.3201 115.23C91.5601 115.12 91.6501 114.67 91.6501 114.4C91.7801 112.81 91.9101 111.18 91.6101 109.59C91.2201 107.96 90.3701 106.5 89.7601 104.94C89.3301 103.9 88.6301 103 88.1101 102C87.5601 100.84 86.9901 99.5901 86.3301 98.4701C85.8401 97.5401 85.2301 96.7001 84.8501 95.7201C84.0901 94.1301 83.3001 92.5601 82.4901 90.9901C81.9601 90.0901 81.3801 89.2201 80.9901 88.2401C80.6901 87.4701 80.4801 86.5601 80.3301 85.7301C80.2701 85.4701 80.2301 85.0001 80.0801 84.6701C80.0101 83.9101 79.8401 83.1601 79.7401 82.4101C79.6501 81.6901 79.5701 80.9601 79.5301 80.2401C79.5501 80.1601 79.5601 80.0801 79.5601 80.0001C79.5801 79.6801 79.5401 79.2201 79.5301 78.8701C79.6101 77.8501 79.8801 76.8101 79.7201 75.7801C79.8401 74.9401 80.1401 74.1401 80.5801 73.4101C81.1701 72.4901 82.0301 71.8301 83.0001 71.3301C83.2001 71.2301 83.4201 71.1501 83.6401 71.0501C84.1701 70.8301 84.7201 70.6001 85.1801 70.2601C85.8801 69.8601 86.4701 69.1901 87.1001 68.6401C87.4801 68.2801 87.8701 67.9401 88.2501 67.5801C89.4401 66.3301 89.9801 64.5801 91.3801 63.5001C92.9301 62.1701 94.6701 61.0101 95.9801 59.4201C96.3701 58.7601 96.9501 58.0901 97.0101 57.3001C96.9801 56.6501 96.2101 57.0301 95.8101 57.0501C94.6201 57.1701 93.5501 57.7301 92.4201 58.0701C90.4801 58.5701 88.5001 59.1401 86.8901 60.3801C85.5701 61.3801 83.8001 61.6501 82.7401 63.0001C81.6801 64.0001 81.0901 65.3301 80.5801 66.6701C80.0501 67.7801 79.6101 68.9301 79.3501 70.1201C79.3401 69.7501 79.3201 69.3901 79.3101 69.0201C79.2801 65.2001 79.0301 61.1801 80.6101 57.5901C80.6401 57.5301 80.6501 57.4601 80.6401 57.3901C81.3001 56.5401 82.0601 55.7601 82.8401 55.0201C83.5701 54.3801 84.4201 53.8801 85.1301 53.2001C86.0001 52.4401 86.9901 51.7901 87.5201 50.7101C87.5201 50.6901 87.5301 50.6801 87.5401 50.6601C87.6001 50.6301 87.6701 50.5901 87.7401 50.5701C87.9801 50.4701 88.2101 50.5801 88.4401 50.6401C89.0701 50.6501 89.7301 50.4801 90.3401 50.3101C90.4301 50.2801 90.5201 50.2401 90.6101 50.2001C91.1301 49.9601 91.5601 49.5901 92.0601 49.2801C92.4701 49.0001 92.9901 48.7801 93.3001 48.3501C93.6101 47.9601 93.8301 47.5201 94.0801 47.1001C94.2501 46.7401 94.4901 46.3401 94.4201 45.9401C94.3801 45.8101 94.2701 45.7301 94.1401 45.7201L94.0601 45.7701ZM91.7801 43.9301C91.9601 43.8601 92.1401 43.7901 92.3101 43.7101C91.8801 44.3801 91.3201 44.9401 90.7201 45.4601C90.2501 45.9801 89.8001 46.5401 89.2501 46.9801C88.9501 47.1201 88.6601 47.2801 88.4101 47.4901C88.3601 47.5101 88.3201 47.5301 88.2701 47.5501C87.9801 47.6801 87.6901 47.8101 87.3901 47.9001C86.9601 47.9701 86.5401 48.1001 86.1701 48.3401C85.9201 48.5001 85.7401 48.6901 85.5101 48.8901C85.4901 48.9101 85.4601 48.9301 85.4401 48.9401C85.4201 48.8901 85.4001 48.8501 85.3601 48.8201C85.2501 48.7501 85.1301 48.8201 85.0201 48.8701C84.8901 48.9401 84.7701 49.0101 84.6401 49.0801C85.4501 48.3501 86.3201 47.6801 87.3201 47.2401C87.4201 47.1801 87.5601 47.1401 87.7101 47.1001C88.0301 47.0101 88.3701 46.9101 88.3401 46.6101C88.2801 46.3301 87.9401 46.5101 87.7001 46.6601C87.6101 46.7101 87.5401 46.7601 87.4901 46.7801C86.7501 47.1501 86.0001 47.4701 85.3201 47.9401C85.2401 48.0001 85.0801 48.1101 84.8901 48.2501C85.0201 48.1301 85.1501 48.0301 85.2701 47.9401C86.0101 47.3701 86.5101 46.5001 87.3501 46.0401C87.6601 45.9401 87.9501 45.8001 88.2301 45.6601C88.4901 45.5301 88.7601 45.4001 89.0401 45.3001C89.4101 45.2001 89.8101 45.1301 90.1301 44.9301C90.4201 44.7401 90.6601 44.4901 90.9401 44.2901C91.1801 44.1401 91.4801 44.0201 91.7701 43.9101L91.7801 43.9301ZM79.8001 48.4401C79.8001 48.4401 79.8001 48.4501 79.8001 48.4601C79.8001 48.4601 79.8001 48.4501 79.8001 48.4401ZM80.3201 47.2701C80.4601 46.8801 80.6801 46.5101 80.8701 46.1401C81.3501 44.9301 81.7501 43.6101 81.6901 42.2901C81.7101 42.1001 81.7201 41.9101 81.7201 41.7201C81.7801 41.4801 81.8201 41.2201 81.9301 40.9901C82.4401 39.9401 83.2001 38.9501 84.2301 38.3401C84.5101 39.6201 84.4201 40.9701 84.2501 42.2701C84.2101 42.8501 84.1901 43.4401 83.9301 43.9901C83.8001 44.2101 83.6801 44.4401 83.5301 44.6401C83.0701 44.8601 82.7601 45.3701 82.5101 45.8001C82.4901 45.8301 82.4801 45.8601 82.4601 45.9001C82.4601 45.8701 82.4701 45.8301 82.4801 45.8001C82.5701 44.9701 82.7801 44.1701 83.0201 43.3701C83.2001 42.4701 83.3101 41.5701 83.5201 40.6801C83.5901 40.3401 83.2101 40.2201 83.1001 40.5501C82.7301 42.2001 82.1201 43.8001 81.9401 45.4901C81.9201 45.8201 81.8301 46.2001 81.7601 46.5701C81.7201 46.3901 81.6901 46.2101 81.6501 46.0201C81.6401 45.6801 81.3001 45.4901 81.1301 45.8501C80.8601 46.5201 80.4901 47.1401 80.1401 47.7801C80.2001 47.6101 80.2601 47.4401 80.3201 47.2701ZM85.2301 40.6701C85.2301 40.6701 85.1801 40.7701 85.1601 40.8201C85.1601 40.7601 85.1501 40.7001 85.1401 40.6401C85.1601 40.6601 85.1901 40.6701 85.2301 40.6701ZM84.0201 45.1501C84.0201 45.1501 84.0001 45.1501 83.9901 45.1401C84.1901 44.7901 84.4101 44.4501 84.6001 44.0901C84.8801 43.3901 85.0701 42.6301 85.1501 41.8601C85.1601 41.8201 85.1701 41.7801 85.1901 41.7401C85.4401 41.0801 85.8701 40.5101 86.2101 39.9001C86.4101 39.5701 86.6901 39.3101 87.0201 39.1201C87.4201 40.9401 87.4201 42.9701 86.4601 44.6201C85.5401 45.6401 84.9601 46.8301 84.3601 48.0601C84.3401 48.0801 84.3201 48.0901 84.3101 48.1101C84.5901 47.1201 85.0701 46.1701 85.3301 45.1601C85.5901 44.3301 86.0201 43.5501 86.1901 42.7001C86.2101 42.6001 86.1701 42.4501 86.0601 42.4301C85.9601 42.4101 85.8701 42.5101 85.8401 42.6001C85.7301 42.9801 85.6401 43.3401 85.4601 43.7001C84.9301 44.6501 84.4701 45.6701 84.1701 46.7301C84.1501 46.4501 84.1301 46.1801 84.1301 45.9001C84.1101 45.6601 84.1701 45.3801 84.0201 45.1801V45.1501ZM90.5401 40.2401C90.6601 40.2501 90.8901 40.1801 90.9601 40.2801C90.7501 41.2601 90.5901 42.3001 90.0901 43.1801C89.8301 43.5101 89.5901 43.8201 89.2901 44.1201C89.2001 44.1801 89.0901 44.2401 89.0101 44.3101C88.9101 44.3101 88.8201 44.3901 88.7401 44.4501C88.2401 44.8301 87.8101 45.3101 87.2601 45.6101C87.1901 45.6401 87.1201 45.6801 87.0501 45.7201C87.0001 45.7401 86.9601 45.7701 86.9201 45.8001C86.9201 45.8001 86.9001 45.8001 86.9001 45.8201C86.8401 45.8601 86.7901 45.9101 86.7301 45.9601C86.7301 45.9601 86.7201 45.9401 86.7101 45.9301C86.9901 45.5401 87.2901 45.1601 87.6701 44.8501C88.3401 44.1901 88.7201 43.3001 89.4301 42.6701C89.5201 42.5601 89.5401 42.3701 89.4501 42.2501C89.0901 41.8301 88.3601 43.3401 88.1701 43.6001C87.8501 44.0501 87.4801 44.4701 87.1201 44.9101C87.2501 44.5401 87.3701 44.1601 87.5001 43.7901C87.7601 43.2501 87.9201 42.6801 87.9901 42.1001C88.0701 42.0001 88.1401 41.9001 88.2201 41.8101C88.4901 41.4901 88.8601 41.2601 89.1801 41.0001C89.5801 40.6701 89.9901 40.2901 90.5401 40.2601V40.2401ZM88.9801 37.3301C89.6601 37.2001 89.7101 37.6301 89.6201 38.1801C89.6201 38.5801 89.5201 38.9601 89.3701 39.3401C89.2101 39.7101 89.2501 40.1401 89.1101 40.5101C89.0901 40.5301 89.0701 40.5401 89.0501 40.5601C88.7901 40.7301 88.5501 40.9401 88.3301 41.1701C88.5201 40.5101 88.5901 39.5701 88.6901 39.2801C88.7701 39.0201 88.8601 38.7701 88.9501 38.5101C88.9901 38.4001 88.9601 38.2401 88.8501 38.1901C88.7401 38.1501 88.6501 38.2301 88.6001 38.3201C88.2401 39.0101 88.1101 39.7701 87.9501 40.5301C87.9301 40.4301 87.9201 40.3201 87.8901 40.2201C87.8001 39.7601 87.5601 39.3501 87.4401 38.9001C87.3701 38.4901 87.1701 38.4901 86.9501 38.6101C87.0701 38.4801 87.2001 38.3601 87.3301 38.2401C87.8001 37.7901 88.3701 37.5601 88.9801 37.3401V37.3301ZM85.1201 36.2201C85.1201 36.2201 85.1901 36.1801 85.2301 36.1501C85.3101 36.0901 85.3901 36.0301 85.4801 36.0801C85.6701 36.2401 85.9201 36.3701 86.0601 36.6001C86.2801 37.0501 86.1901 37.5801 86.2801 38.0601C86.2801 38.3401 86.3001 38.6401 86.2601 38.9101C86.2101 38.9901 86.2001 39.0901 86.1701 39.1801C86.1501 39.2201 86.1301 39.2801 86.1201 39.3301C85.9001 39.5801 85.7101 39.8501 85.5301 40.1301C85.6501 39.5301 85.5001 38.9201 85.3901 38.3201C85.3301 38.1501 85.4501 37.6401 85.1801 37.6801C85.1001 37.7101 85.0601 37.8101 85.0601 37.8901C85.0601 38.3101 85.1301 38.7101 85.2001 39.1301C85.2401 39.4801 85.2001 39.8201 85.1001 40.1601C85.1001 40.1601 85.1001 40.1801 85.1001 40.1901C84.9801 39.4401 84.7801 38.7001 84.5901 37.9801C84.4801 37.7201 84.2701 37.6901 84.0201 37.7701C84.2101 37.1301 84.4401 36.4701 85.1301 36.2201H85.1201ZM81.0301 35.8801C81.3201 35.4901 81.7101 35.1801 82.0801 34.8301C82.2801 34.6301 82.5401 34.4901 82.8101 34.4001C83.6301 35.3001 83.8701 36.6501 83.5601 37.8101C83.5501 37.8801 83.5001 37.9701 83.4801 38.0501C83.1401 38.3001 82.8201 38.6301 82.6901 38.7801C82.4501 39.1401 82.2201 39.5101 81.9701 39.8701C81.9901 39.7701 82.0101 39.6801 82.0201 39.5901C82.1001 38.8701 82.2501 38.1501 82.3801 37.4401C82.4001 37.3301 82.3601 37.1601 82.2201 37.1701C82.1101 37.1701 82.0401 37.2801 82.0201 37.3801C81.9401 37.8301 81.8301 38.2801 81.7501 38.7301C81.7001 38.9901 81.6501 39.2601 81.6001 39.5201C81.4501 38.5601 81.1601 37.6201 80.7101 36.7601C80.7701 36.4601 80.9001 36.1601 81.0301 35.8801ZM81.0101 41.0101C81.1001 42.8701 80.5001 44.6401 80.0701 46.4401C80.0101 45.8101 79.7801 45.2001 79.6901 44.5701C79.6701 44.3301 79.6401 44.1701 79.6001 44.0501C79.6601 43.6701 79.7601 43.3001 79.8001 42.9201C79.8301 42.5601 80.2301 40.5601 79.6401 40.6501C79.4801 40.6801 79.3801 40.8601 79.3701 41.0101C79.3501 41.6601 79.3201 42.2801 79.2201 42.9301C79.1601 43.3301 79.0601 43.7701 79.0001 44.2301C78.8601 44.4601 78.7301 44.7501 78.6601 44.9701C78.6601 44.9901 78.6401 45.0101 78.6301 45.0301C78.6301 44.9501 78.6501 44.8701 78.6701 44.8201C78.8101 44.4201 78.8101 44.0001 78.7901 43.5901C78.7601 42.7801 78.6901 42.0101 78.5101 41.1801C78.5101 41.1701 78.5101 41.1501 78.5001 41.1401C78.6201 40.5401 78.7501 39.9401 78.9101 39.3501C79.0401 38.4201 79.3601 37.5401 80.0401 36.8801C80.3101 38.2701 80.8101 39.6001 81.0101 41.0101ZM76.2101 39.9301C75.7501 40.1701 76.0301 40.7801 76.1001 41.1701C76.2001 42.0301 76.4901 42.8401 76.6701 43.6801C76.7801 44.2701 76.8401 44.8701 76.9101 45.4701C76.9701 45.9301 77.0701 46.4101 77.1401 46.8901C77.0501 46.7101 76.9401 46.5501 76.8001 46.3901C76.7301 46.3001 76.6401 46.2301 76.5501 46.1601C76.5901 45.8301 76.2501 45.4901 76.1701 45.1801C76.1601 45.1601 76.1401 45.1401 76.1201 45.1301C76.0301 44.4401 76.1001 43.6901 75.8301 43.0401C75.6401 42.5601 75.4101 42.0901 75.1601 41.6301C75.1601 41.5801 75.1401 41.5401 75.1401 41.4901C75.0801 40.9401 75.1701 40.4201 75.2101 39.8701C75.2601 39.1201 75.2801 38.3501 75.7501 37.7101C76.6501 38.5401 77.4401 39.5701 77.7801 40.7701C77.9001 41.3001 77.9101 41.8401 78.0201 42.3901C78.1401 43.1201 78.4101 43.8201 78.3901 44.5601C78.3401 44.8301 78.3401 45.1301 78.3101 45.4201C78.3001 45.5201 78.2701 45.6601 78.2401 45.7801C78.0601 46.0701 77.8701 46.3701 77.7601 46.6901C77.7101 46.8401 77.6801 46.9901 77.6501 47.1501C77.6501 46.7301 77.6401 46.3101 77.5701 45.9001C77.6001 44.6801 77.4601 43.4801 76.9101 42.3801C76.5901 41.9501 76.8601 39.7501 76.1901 39.9501L76.2101 39.9301ZM76.9901 34.6701C77.2201 34.4401 77.4601 34.1701 77.8301 34.2601C78.1201 34.4901 78.3101 34.8201 78.5801 35.0901C78.8701 35.3801 79.1401 35.7201 79.2401 36.1401C79.2701 36.2801 79.3101 36.4101 79.3501 36.5501C79.3701 36.6301 79.3701 36.7601 79.4301 36.8301C78.8701 37.5001 78.5601 38.3301 78.4001 39.1801C78.3501 38.8901 78.3001 38.6001 78.1801 38.3301C78.0501 37.9701 78.0101 37.5701 77.9201 37.2001C77.9101 37.1401 77.8501 37.0901 77.7901 37.1201C77.7301 37.1501 77.7201 37.2201 77.7201 37.2801C77.7601 37.6801 77.8201 38.1201 77.9301 38.5201C77.9701 38.8701 77.9701 39.2301 78.0001 39.5801C77.6501 38.7001 77.1701 37.8901 76.3601 37.3801C76.2601 37.3101 76.1701 37.2601 76.0901 37.2301C76.0901 37.1601 76.0701 37.0901 76.0201 37.0401C75.9901 36.1501 76.3101 35.2401 76.9901 34.6401V34.6701ZM73.9201 35.7101C74.1101 35.8001 74.2201 35.9801 74.4001 36.0901C74.6601 36.2001 74.7901 36.3701 74.9801 36.5801C75.1901 36.7601 75.4401 36.8801 75.5701 37.1301C75.6101 37.1801 75.6101 37.2401 75.6201 37.3101C75.4901 37.4301 75.4001 37.6301 75.2901 37.9001C75.0001 38.5901 74.8301 39.3401 74.7601 40.1001C74.7001 39.8101 74.6201 39.5101 74.6201 39.1701C74.5501 38.8901 74.4301 38.6401 74.3801 38.3501C74.3301 38.1701 74.1401 38.3001 74.1801 38.4401C74.2401 38.9401 74.4001 39.4101 74.4001 39.9201C74.4301 40.1401 74.5101 40.3401 74.5501 40.5601C74.4201 40.3101 74.2401 40.1001 74.0501 39.8901C74.1001 39.6701 73.8401 39.2401 73.7601 39.1001C73.7301 39.0501 73.7001 39.0301 73.6601 39.0301C73.6501 39.0101 73.6401 38.9901 73.6201 38.9701C73.5401 37.9001 73.4301 36.7201 73.9101 35.7201L73.9201 35.7101ZM73.5501 39.3301C73.5501 39.3301 73.5601 39.3301 73.5701 39.3301C73.5701 39.3501 73.5901 39.3801 73.6001 39.4001C73.5901 39.3801 73.5701 39.3601 73.5501 39.3301ZM73.7801 45.6801C73.2101 45.0101 72.4101 44.5601 72.1501 43.6601C71.9101 42.9301 71.3501 42.3701 71.1001 41.6401C70.9301 40.9701 70.6601 40.3301 70.5101 39.6501C70.3801 39.0001 70.5601 38.3601 70.5901 37.7201C71.2001 37.7401 71.6801 38.1201 72.1501 38.4701C72.5701 38.7401 72.9701 38.9901 73.2001 39.4601C73.4301 39.8601 73.7101 40.2201 73.9101 40.6401C74.1401 41.5001 74.5001 42.3201 74.8401 43.1601C75.0001 43.6001 75.3001 44.1201 75.4801 44.5901C75.6101 44.8401 75.6001 45.1101 75.6301 45.3701C75.5901 45.3301 75.5401 45.3101 75.4801 45.3201C75.3801 45.3501 75.3201 45.4201 75.2801 45.5001C74.9901 45.2601 74.6501 45.0801 74.3901 44.8101C74.0601 44.2201 73.7301 43.6701 73.3801 43.0801C72.9901 42.2901 72.8601 41.3801 72.2501 40.7001C72.0701 40.4701 71.9101 40.2301 71.7601 39.9801C71.6901 39.8601 71.5201 39.8701 71.4301 39.9701C71.1501 40.2801 71.5201 40.6701 71.6401 40.9701C72.3701 42.1301 73.1301 43.2501 73.7801 44.4701C74.0401 45.1201 74.6301 45.4901 75.1501 45.9201C75.1501 45.9201 75.1501 45.9301 75.1501 45.9401C75.0801 46.2101 75.0301 46.4801 75.0001 46.7501C74.5201 46.4701 74.0601 46.1901 73.7801 45.6701V45.6801ZM52.9801 32.0301C52.9601 32.1801 52.9201 32.3501 52.9601 32.5101C52.7301 32.9501 52.5301 33.3901 52.3601 33.8601C52.4801 33.0601 52.7701 32.3001 53.0601 31.5401C53.0201 31.7001 52.9901 31.8701 52.9701 32.0401L52.9801 32.0301ZM63.0301 21.8701C63.6001 22.5901 63.0801 23.5601 62.6501 24.2101C62.4501 24.5601 62.3101 24.9401 62.0901 25.2801C61.7501 25.7301 61.3001 26.0701 60.9301 26.5001C60.4801 27.0701 59.9501 27.5501 59.4501 28.0701C58.8901 28.6301 58.5101 29.3401 57.8801 29.8401C56.6401 30.7801 55.3201 31.6101 54.2401 32.7501C54.0801 32.9901 53.9601 33.2501 53.8601 33.5201C53.8101 33.3301 53.7501 33.1401 53.6801 32.9301C53.6201 32.7401 53.6001 32.5101 53.5001 32.3401C53.7901 30.6301 54.7601 29.1301 55.7701 27.7501C56.7601 26.7001 57.9201 25.8301 59.0401 24.9201C59.5701 24.4701 60.1401 24.0901 60.7501 23.7701C61.6001 23.2601 62.3101 22.5501 63.0201 21.8701H63.0301ZM59.1401 18.2601C59.5301 19.2601 59.6801 20.4301 59.4201 21.4801C59.1301 22.2701 58.8001 23.0401 58.4101 23.7801C58.3801 23.8601 58.3201 23.9601 58.2701 24.0701C58.2401 24.1601 58.2401 24.2601 58.2701 24.3501C57.7801 24.7101 57.2901 25.0701 56.8301 25.4601C56.1601 26.2101 55.6001 27.0701 55.0501 27.9101C54.4801 28.6501 53.9201 29.4201 53.5201 30.2601C53.5801 30.0401 53.6401 29.8201 53.6901 29.6001C53.9001 29.0201 54.2101 28.4201 54.3801 27.8001C54.5101 27.3201 54.5901 26.8501 54.8201 26.3901C55.0501 25.9201 55.4301 25.5501 55.7101 25.1101C56.1801 24.2601 56.6701 23.4801 57.2801 22.7001C57.5001 22.4401 57.1101 21.9001 56.8201 22.1701C56.4501 22.5801 56.0701 22.9901 55.8201 23.4801C55.5301 24.0501 55.3901 24.6801 55.0601 25.2301C54.3401 26.6101 53.6801 28.0501 53.3401 29.5801C53.0701 30.3501 52.8001 31.1101 52.6301 31.9101C52.3901 32.5201 52.1801 33.1401 52.0901 33.7901C52.0501 33.6601 52.0201 33.5301 51.9801 33.4001C52.0201 33.3201 51.9801 33.2301 51.9301 33.1801C51.9301 32.7801 51.9101 32.3701 51.9301 31.9701C52.0401 31.2501 52.4301 30.6201 52.7901 29.9901C53.3101 28.7701 53.9601 27.5601 54.2501 26.2501C54.3301 25.7701 54.3101 25.2801 54.3401 24.8001C54.6201 24.0901 55.0601 23.4301 55.3001 22.6901C55.6701 21.9501 56.3001 21.3901 56.8301 20.7601C57.5601 19.8901 58.2601 18.9501 59.1501 18.2501L59.1401 18.2601ZM54.9901 17.9501C55.2901 17.3601 55.4301 16.6801 55.9301 16.2201C56.1301 16.0601 56.3301 15.7001 56.5001 16.0901C56.8801 16.7701 57.1901 17.5201 57.1401 18.3201C57.1401 18.6101 56.9301 18.9801 57.2701 19.1601C57.3001 19.1701 57.3301 19.1701 57.3501 19.1801C56.4901 19.9201 55.6401 20.7601 55.2201 21.8501C55.0101 22.3201 54.8501 22.8101 54.6301 23.2801C54.8101 22.1501 54.5201 21.0101 54.1401 19.9301C54.2601 19.2201 54.6701 18.6001 54.9801 17.9601L54.9901 17.9501ZM53.1601 18.7801C53.3101 20.2501 54.1301 21.5701 54.2001 23.0401C54.1901 23.5401 53.9801 24.0101 53.8801 24.5001C53.8201 24.7701 53.7901 25.0301 53.7601 25.3001C53.7301 25.4501 53.7101 25.5901 53.7001 25.7101C53.6701 25.8701 53.6401 26.0401 53.5901 26.2001C53.1801 27.2301 52.7201 28.2401 52.4201 29.3101C52.1501 30.4401 51.4701 31.4701 51.4201 32.6601C51.4201 32.7001 51.4201 32.7501 51.4201 32.8001C51.4001 32.7601 51.3701 32.7201 51.3401 32.6801C51.2901 32.6201 51.2301 32.5901 51.1701 32.5701C51.1901 32.3501 51.2201 32.1301 51.2201 31.9101C51.1901 29.8201 51.9101 27.8001 52.3301 25.7701C52.3901 25.5201 52.1301 25.1601 51.8601 25.2801C51.3401 26.1401 51.5501 27.3001 51.1901 28.2401C50.7201 29.2901 50.5901 30.4001 50.6501 31.5401C50.6701 32.1001 50.4601 32.7601 50.6801 33.2901C50.6201 33.5001 50.5701 33.7201 50.5401 33.9301C50.4501 34.3601 50.4301 34.8001 50.4401 35.2501C50.2001 34.7801 49.9401 34.3601 49.7201 34.1101C49.7101 34.0501 49.6901 33.9801 49.6801 33.9201C49.4601 33.0701 49.5501 32.2001 49.6801 31.3501C49.7701 30.4401 49.8801 29.5201 49.9201 28.6001C49.9201 28.6001 49.9201 28.5901 49.9201 28.5801C49.9801 28.4901 49.9801 28.3401 49.9001 28.1601C49.9001 28.0101 49.8901 27.8601 49.8801 27.7101C49.9301 26.9501 50.1001 26.2101 50.2701 25.4501C50.5201 24.6201 50.5401 23.7201 50.9401 22.9401C51.2501 22.3701 51.5701 21.8001 51.8201 21.2001C52.2601 20.3901 52.9001 19.6801 53.1401 18.7701L53.1601 18.7801ZM47.4801 17.5401C47.5501 17.1101 47.7501 16.7201 47.9901 16.3601C48.3601 15.7701 48.7601 15.1901 49.3401 14.8001C49.5701 14.6501 49.8601 14.4101 50.1001 14.6801C50.6901 15.5301 51.1701 16.5201 51.6701 17.4401C51.8601 17.8901 52.0301 18.3901 52.0201 18.8901C52.0301 19.0101 52.0001 19.1601 51.9701 19.3101C51.8601 19.5001 51.7401 19.6801 51.6301 19.8701C51.2301 20.5501 51.1901 21.3601 50.8401 22.0701C50.4001 22.9101 49.9401 23.7501 49.8101 24.7001C49.7801 24.9101 49.7401 25.1201 49.6901 25.3301C49.5401 24.1901 49.3201 23.0601 48.9601 21.9701C48.8501 21.0801 48.5401 20.2501 48.1001 19.4701C47.9901 19.2401 47.6901 18.7401 47.3701 18.4501C47.4001 18.1501 47.4501 17.8501 47.4901 17.5601L47.4801 17.5401ZM47.0401 19.1501C47.8201 20.3501 48.5201 21.6801 48.8901 23.0801C49.0801 24.2801 48.9601 25.5001 49.0201 26.7101C48.9901 27.5201 49.1901 28.3001 49.1701 29.1101C49.0801 29.8201 49.2501 30.4901 49.2401 31.2001C49.2101 31.8101 49.1001 32.4201 49.0701 33.0201C49.0501 33.0401 49.0401 33.0701 49.0401 33.1001C49.0401 33.6301 49.1101 34.1501 48.9301 34.6701C48.8701 34.8701 48.8401 35.0801 48.8201 35.2901C48.8001 34.8401 48.7801 34.3901 48.7101 33.9501C48.5701 33.0301 48.3501 32.1201 48.2501 31.2001C48.2501 30.2001 48.0301 29.2301 47.8601 28.2501C47.8001 27.5601 47.8101 26.8701 47.7601 26.1801C47.7201 25.4901 47.6601 24.8001 47.5301 24.1201C47.5001 23.7601 46.9901 23.3601 46.7301 23.7501C46.5901 24.2601 46.7901 24.8801 46.8501 25.4001C47.1501 26.4401 47.1001 27.5001 47.1401 28.5701C47.3201 29.8201 47.6901 31.1401 48.0201 32.3701C48.2401 33.4701 48.3101 34.5901 48.3801 35.7101C48.3601 35.6901 48.3501 35.6701 48.3301 35.6501C48.3901 35.4001 48.0101 35.1301 47.9101 34.9101C47.7901 34.7301 47.6401 34.5601 47.5401 34.3801C47.5401 34.3501 47.5301 34.3301 47.5201 34.3001C47.5201 34.3001 47.5201 34.3001 47.5201 34.2801C47.3001 33.1601 47.1701 32.0101 47.0201 30.8701C46.7801 29.6701 46.3201 28.5201 45.7501 27.4401C45.7701 27.3401 45.7301 27.2101 45.6401 27.1601C45.4301 26.2201 45.2301 25.2001 45.3201 24.2301C45.4401 23.6001 45.8201 23.0701 45.9801 22.4601C46.2501 21.3301 46.5301 20.2101 47.0301 19.1501H47.0401ZM41.2701 19.6001C41.2801 18.9901 41.0401 18.4201 41.0601 17.8201C41.1901 17.3201 41.4901 16.8901 41.6001 16.3801C41.8301 15.8701 41.7701 15.2701 41.9901 14.7601C42.7701 15.4101 43.0601 16.4901 43.5801 17.3301C44.0901 18.2601 44.6301 19.1701 44.9401 20.1801C45.1001 20.6501 45.2101 21.1201 45.1801 21.6101C45.2101 21.9001 45.1201 22.5301 45.2501 22.9101C45.1201 23.5101 44.9901 24.1101 44.9501 24.7301C44.9501 24.8701 44.9501 25.0101 44.9701 25.1601C44.9601 25.1301 44.9501 25.1001 44.9401 25.0701C44.7401 24.4501 44.6401 23.7901 44.4001 23.1801C44.0601 21.9201 43.7501 20.6301 43.4401 19.3601C43.3601 18.9601 42.7801 18.8901 42.8301 19.3801C43.0501 20.6601 43.8401 21.7701 43.9301 23.0901C44.1101 23.9301 44.3201 24.7701 44.6301 25.5701C44.5901 25.5201 44.5601 25.4601 44.5201 25.4101C43.7601 24.1901 43.4001 22.6001 42.2301 21.6801C42.0401 21.5401 41.8401 21.4301 41.6301 21.3301C41.4201 20.7801 41.2001 20.2101 41.2501 19.6001H41.2701ZM40.2601 21.1501C40.8501 21.5901 41.5101 21.9401 42.0301 22.4601C42.4401 22.9101 42.7801 23.4201 43.1601 23.8901C44.7601 26.0601 45.6401 28.6701 46.4401 31.2301C46.4401 31.2401 46.4401 31.2601 46.4401 31.2701C46.5301 32.2701 46.6401 33.2601 46.6901 34.2601C46.7101 34.3401 46.7401 34.4101 46.7801 34.4601C46.7801 34.5401 46.7901 34.6201 46.8201 34.7001C46.7601 35.0501 46.7701 35.5001 46.7401 35.6501C46.7101 36.0301 46.6601 36.4301 46.6401 36.8301C46.6401 36.8301 46.6401 36.8301 46.6401 36.8201C46.6001 36.7201 46.5301 36.5301 46.4201 36.3101C46.2501 35.6601 46.1401 35.0001 46.0001 34.3201C45.7801 33.4001 45.4001 32.5301 45.1801 31.6001C44.9301 30.3601 44.2701 29.2801 43.7301 28.1501C43.5001 27.7801 43.0901 26.1701 42.5401 26.4201C42.3501 26.5201 42.3801 26.7701 42.4601 26.9401C43.3301 28.5701 43.9801 30.3001 44.8501 31.9301C45.3001 32.8901 45.4701 33.9301 45.6501 34.9601C45.3401 34.5201 45.0201 34.1901 44.7601 34.2301C44.5601 33.7901 44.3201 33.3601 44.1301 32.9201C43.8901 32.4401 43.6401 31.9601 43.3801 31.4801C43.3001 30.9101 42.3201 29.6401 42.1401 29.2901C41.6001 28.2501 41.0401 27.1901 40.5701 26.0901C40.5501 26.0301 40.5201 25.9601 40.4801 25.9101C40.3401 25.1301 40.2401 24.3301 40.2001 23.5301C40.3001 22.7301 40.2801 21.9301 40.2801 21.1301L40.2601 21.1501ZM43.8401 34.0101C44.0001 34.2501 44.1501 34.4901 44.3001 34.7601C44.3501 34.8701 44.4101 34.9901 44.5101 35.0701C44.5101 35.1901 44.5301 35.3101 44.5501 35.4201C44.3101 34.8801 43.9601 34.2801 43.8401 34.0101ZM36.5701 21.8801C36.3201 21.1801 36.5001 20.4401 36.5101 19.7201C36.5501 19.2101 36.4201 18.7001 36.5301 18.2101C37.1201 18.5401 37.5401 18.9801 37.9901 19.4901C38.7201 20.1401 39.2501 20.9601 39.6801 21.8201C39.7101 22.2801 39.7701 22.7201 39.7801 22.9001C39.8701 23.7201 39.8901 24.5501 39.9801 25.3701C39.7801 24.6901 39.6001 23.9901 39.2801 23.3601C38.7601 22.4401 38.2201 21.5301 37.7501 20.5801C37.5901 20.2801 37.2501 20.4701 37.4101 20.7601C38.0601 21.9701 38.6901 23.1701 39.1901 24.4601C39.2301 24.5601 39.2601 24.6701 39.3001 24.7801C38.9701 24.2501 38.6001 23.7501 38.1301 23.3101C37.7401 22.9201 37.2901 22.6301 36.8201 22.3901C36.7301 22.2301 36.6401 22.0601 36.5801 21.8801H36.5701ZM37.0501 27.9801C36.6801 27.4401 36.3001 26.8901 35.9101 26.3501C34.9901 25.2501 34.7001 23.8401 34.3901 22.4901C34.4601 22.4001 34.5001 22.2901 34.5501 22.1801C35.1201 22.4701 35.7701 22.5701 36.3201 22.9101C37.0301 23.3801 37.6401 24.0601 38.2001 24.7001C40.4501 26.9401 41.5401 29.9501 42.9901 32.7001C43.0801 32.8401 43.1601 32.9801 43.2501 33.1201C42.8501 32.6401 42.3801 32.2101 41.9901 31.7201C41.2501 30.8901 40.6101 29.9701 39.9401 29.0801C39.5001 28.2101 38.8701 27.4501 38.2801 26.6701C38.0501 26.4801 37.5001 25.4801 37.2001 25.7901C37.0301 26.0201 37.2701 26.2501 37.4001 26.4301C37.7901 26.9101 38.0701 27.4801 38.4001 28.0101C39.1901 29.1801 40.0101 30.3301 40.9901 31.3401C41.0101 31.3701 41.0301 31.3901 41.0501 31.4201C39.8901 30.3201 38.6201 29.3101 37.4001 28.2801C37.2901 28.2001 37.1801 28.1101 37.0601 28.0201C37.0501 28.0001 37.0401 27.9801 37.0301 27.9701L37.0501 27.9801ZM30.9401 25.9701C31.4001 26.1301 31.8901 26.2101 32.3701 26.2901C32.7601 26.4601 33.1701 26.6001 33.5901 26.6901C34.7701 27.1501 35.8701 27.8401 36.9301 28.5401C37.0301 28.6701 37.1401 28.7601 37.2401 28.7501C38.3801 29.7501 39.3701 30.9301 40.3901 32.0401C41.3401 33.1601 42.4101 34.1401 43.3601 35.2901C43.9201 35.9101 44.5101 36.5501 44.8001 37.3601C44.3801 36.8901 43.8701 36.5201 43.4201 36.0801C42.9101 35.4901 42.3501 34.9601 41.7101 34.5201C40.8901 33.8201 40.1901 32.9601 39.2901 32.3401C38.7401 31.9801 38.0801 31.8501 37.5301 31.4801C36.9701 31.1101 36.4801 30.6401 35.9201 30.2901C35.6101 30.1401 35.5601 30.6101 35.7801 30.7401C36.8301 31.4401 37.8401 32.2101 38.8801 32.9301C39.6501 33.6301 40.1901 34.3901 41.0301 35.0601C41.4001 35.3501 41.8001 35.5901 42.1701 35.8801C42.2601 35.9601 42.3501 36.0501 42.4301 36.1401C42.2901 36.0301 42.0901 35.9501 41.9701 36.0101C41.7901 35.8901 41.5901 35.7801 41.4001 35.6601C39.9801 34.9101 38.6401 33.6901 37.1001 33.1001C36.6501 32.9801 36.2101 32.8801 35.7701 32.7601C35.7601 32.7601 35.7501 32.7401 35.7401 32.7401C35.5401 32.5801 35.3601 32.4001 35.1801 32.2101C34.3701 31.3101 33.6701 30.3101 32.8301 29.4301C32.0701 28.3601 31.4301 27.2001 30.9501 25.9801L30.9401 25.9701ZM40.2201 36.9601C39.7601 36.6301 39.3701 36.2101 38.8801 35.9201C38.2401 35.5001 37.4601 35.4601 36.7401 35.2601C36.1201 35.0301 35.5801 34.6401 34.9401 34.4801C34.8501 34.4501 34.7701 34.4501 34.6901 34.5101C34.4801 34.7001 34.6301 35.0701 34.8701 35.1601C36.0101 35.6801 37.2601 35.8801 38.4101 36.3701C39.1801 36.7701 39.9201 37.2301 40.6801 37.6601C41.1901 38.0101 41.6801 38.4601 42.2501 38.7401C42.4201 38.8201 42.5701 38.9901 42.7201 39.1401C42.2501 38.9701 41.7601 38.8401 41.3201 38.6401C41.3001 38.6401 41.2901 38.6201 41.2701 38.6201C41.1601 38.5101 41.0401 38.4101 40.9201 38.3301C40.2201 37.8201 39.4001 37.4701 38.5301 37.3701C37.5201 37.2001 36.6701 36.5201 35.6701 36.2801C34.5301 36.0801 33.5401 35.5301 32.5301 35.0001C30.9201 34.4001 29.1801 33.7801 28.1301 32.3301C29.3801 32.1901 30.6501 32.3301 31.9301 32.3701C32.3501 32.3601 32.7701 32.2501 33.1901 32.3301C33.6901 32.4401 34.1501 32.7101 34.6401 32.8701C35.4601 33.3201 36.2701 33.7801 37.0801 34.2401C37.8001 34.7101 38.4801 35.2601 39.3001 35.5501C40.1601 35.9101 41.1701 36.0401 41.8301 36.7401C41.8801 36.8201 41.9301 36.8701 41.9801 36.9101C42.0701 37.1301 42.1901 37.3501 42.3001 37.5501C42.6401 38.2301 43.0401 38.8701 43.4701 39.4901C43.3501 39.4201 43.2301 39.3601 43.1001 39.3001C43.2901 38.8601 40.4901 37.2301 40.2001 36.9601H40.2201ZM25.8101 27.9101C25.8101 27.9101 25.8401 27.8601 25.8601 27.8301C26.6201 27.3301 27.5301 27.0801 28.4501 27.2101C29.2701 27.4001 30.0801 27.6401 30.8301 28.0301C30.9701 28.1101 31.1101 28.1801 31.2401 28.2801C31.2601 28.3001 31.2801 28.3001 31.3001 28.2901C31.9301 29.1501 32.6801 29.9301 33.3701 30.7501C33.5001 30.9501 34.1701 31.7801 34.8401 32.4601C34.7601 32.4301 34.6901 32.4101 34.6101 32.3801C34.5201 31.9401 33.3101 31.4501 33.0301 31.2601C32.4201 30.9601 31.8501 30.5801 31.3001 30.1801C30.1601 29.4301 28.9301 28.8401 27.7101 28.2301C27.2101 28.0101 27.1801 28.7601 27.5501 28.9301C28.4801 29.5701 29.6001 29.7001 30.6101 30.1901C31.2201 30.5201 31.6601 31.0401 32.2901 31.3801C32.4601 31.4801 32.6401 31.5701 32.8101 31.6601C32.1201 31.5201 31.3601 31.5901 30.6601 31.4701C29.9501 31.4401 29.2501 31.4901 28.5401 31.5601C28.3901 31.5801 28.2201 31.5901 28.0501 31.6101C28.0401 31.5701 28.0201 31.5401 27.9901 31.5201C27.7801 31.1401 27.2601 30.6001 27.1901 30.4501C26.7701 29.8501 26.4201 29.2101 26.0801 28.5701C25.9901 28.3701 25.8901 28.1301 25.8101 27.8901V27.9101ZM25.3201 34.2601C24.6901 33.7901 23.9801 33.4001 23.4901 32.7801C24.1501 32.4301 24.8101 31.9701 25.5701 31.8901C26.2501 31.7801 26.9601 31.6501 27.6401 31.8001C27.5901 31.8401 27.5401 31.8901 27.5001 31.9601C27.3101 32.4801 29.0001 33.7401 29.4401 34.1201C29.9701 34.6101 30.6101 35.0501 31.2601 35.4001C32.2301 35.8001 33.2601 36.0501 34.2301 36.4801C34.7301 36.6801 35.2401 36.8301 35.7501 36.9601C35.0501 36.9601 34.3601 37.0301 33.6501 37.0501C32.4401 37.0801 31.2501 36.9201 30.0501 36.8701C30.0001 36.7801 29.9401 36.6901 29.8501 36.6401C29.3701 36.4401 28.8601 36.3001 28.3701 36.0901C27.3101 35.5501 26.2101 35.0701 25.3301 34.2501L25.3201 34.2601ZM25.0601 39.4501C24.3401 39.2301 23.6301 38.8301 22.9601 38.4901C23.5001 38.2001 24.0301 37.8401 24.6301 37.7101C25.0401 37.6201 25.5301 37.6301 25.9501 37.5601C26.9901 37.3301 28.0701 37.3101 29.1301 37.3701C29.3301 37.3301 29.7301 37.4501 29.9501 37.3701C31.6901 37.7801 33.5201 37.3201 35.2801 37.5301C35.6801 37.5901 36.0801 37.6501 36.4901 37.6901C37.1301 37.7701 37.7201 38.0801 38.3601 38.1401C38.9501 38.2301 39.5401 38.2301 40.1001 38.4401C40.2401 38.4801 40.3601 38.5401 40.4901 38.6001C40.6601 38.7201 40.8201 38.8601 40.9601 39.0101C41.1501 39.3501 41.5101 39.6201 41.7301 39.9401C41.8901 40.1801 42.0601 40.4001 42.2501 40.6201C41.4001 39.9901 40.5601 39.3101 39.4701 39.2001C38.6801 39.1001 37.8901 38.8501 37.0701 38.8801C35.8701 38.9001 34.7401 38.6801 33.5501 38.5401C33.3701 38.4601 33.2901 38.6901 33.3701 38.8201C33.5501 39.0801 33.9301 39.0201 34.2001 39.0901C34.9101 39.1701 35.6101 39.3701 36.3301 39.3501C37.1401 39.2901 37.9601 39.2201 38.7201 39.6101C39.6201 39.9601 40.7001 39.8901 41.4501 40.5601C41.5701 40.7001 41.6901 40.8501 41.8301 40.9801C41.6601 40.9501 41.4901 40.9101 41.3201 40.8801C40.9601 40.8601 40.5701 40.7901 40.2101 40.8801C40.0901 40.8001 39.9201 40.7701 39.7801 40.7201C39.0301 40.4901 38.2801 40.1801 37.4901 40.1801C35.9401 40.2101 34.4001 40.6301 32.9201 40.5701C31.8701 40.5601 30.8101 40.5601 29.7901 40.3301C28.9901 40.2501 28.1701 40.3301 27.3701 40.2401C26.5401 40.1301 25.8201 39.7001 25.0301 39.4701L25.0601 39.4501ZM42.8101 41.1701C42.7401 41.1601 42.6801 41.1401 42.6101 41.1301C42.6101 41.0801 42.6101 41.0401 42.6101 40.9901C42.6701 41.0601 42.7501 41.1101 42.8101 41.1701ZM35.8401 41.8501C35.3501 42.2301 34.8501 42.6101 34.2801 42.8601C32.2101 43.6301 30.1201 44.5201 27.8801 44.6101C27.2201 44.6101 26.5601 44.5001 25.9001 44.4901C24.9401 44.4901 23.9501 44.5101 23.0701 44.0501C23.9001 43.4101 24.8401 42.9101 25.7501 42.4001C26.7601 41.9601 27.8401 41.7401 28.9201 41.5701C29.0501 41.5501 29.1101 41.4501 29.1201 41.3401C29.1801 41.3401 29.2401 41.3501 29.3001 41.3601C30.2501 41.5701 31.2001 41.8801 32.1801 41.6301C32.9101 41.5501 33.6301 41.4001 34.3401 41.1701C35.0301 41.0101 35.7301 41.0601 36.4301 41.1301C36.9401 41.1601 37.4301 40.9701 37.9401 40.9901C37.7301 41.0601 37.5001 41.1401 37.2601 41.2401C36.7801 41.4301 36.2701 41.5701 35.8401 41.8601V41.8501ZM50.8801 58.5401C49.3801 58.8001 47.8701 58.4101 46.3601 58.2901C44.8601 57.8001 43.4301 57.0701 42.0701 56.2601C40.8701 55.3901 39.7001 54.4901 38.4501 53.6901C37.6901 53.1301 36.7401 52.8401 36.0301 52.2101C37.1301 51.8601 38.3201 52.0901 39.4501 52.1601C40.6701 52.0201 41.8801 52.0801 43.0801 52.2701C43.9901 52.2901 44.8701 52.4801 45.7301 52.7501C46.6901 53.0101 47.6801 53.0601 48.6401 53.3001C49.6701 53.4201 50.6801 53.5601 51.6101 54.0701C52.0201 54.2701 52.4501 54.4501 52.8001 54.7401C53.1801 55.0601 53.5501 55.4001 53.9301 55.7301C54.0001 55.7901 54.1001 55.8501 54.1901 55.8001C54.2201 55.7801 54.2401 55.7601 54.2501 55.7401C54.4501 56.0601 54.6301 56.3901 54.7801 56.7501C54.9701 57.1501 55.1501 57.6001 55.3101 58.0401C53.8801 57.3101 52.3501 58.5601 50.8601 58.5501L50.8801 58.5401ZM79.3301 84.2301C79.3101 84.1101 79.2801 84.0001 79.2701 83.8801C79.2701 83.8701 79.2701 83.8601 79.2701 83.8501C79.3001 83.9801 79.3201 84.1101 79.3501 84.2401C79.3501 84.2401 79.3401 84.2401 79.3301 84.2301ZM79.4801 71.4401C80.0401 68.8701 80.9201 66.2201 82.9801 64.4501C83.9101 63.4001 85.1001 62.7001 86.2801 61.9601C86.9601 61.4701 87.7501 61.1301 88.5401 60.8001C88.9601 60.6201 89.3801 60.4401 89.7801 60.2501C91.2801 59.5001 92.5901 58.4301 94.2101 57.9101C94.9101 57.7801 95.6101 57.6301 96.3101 57.5401C94.7101 61.4001 93.5601 60.4201 90.9101 62.6001C89.8101 63.5801 89.1201 64.9101 88.1701 66.0201C87.2901 66.8901 86.2101 67.9001 85.2601 68.6801C84.4401 69.1301 83.7401 69.8201 82.9501 70.3201C81.8601 71.0601 80.7001 71.7801 79.8901 72.8601C79.5801 73.2901 79.3101 73.7801 79.0801 74.2901C79.0801 74.2801 79.0801 74.2601 79.0801 74.2501C79.2401 73.4101 79.2901 72.5701 79.2901 71.7301C79.3701 71.6901 79.4501 71.5901 79.4601 71.4301L79.4801 71.4401ZM84.0901 53.1801C83.1301 53.6601 82.3701 54.4301 81.5301 55.0701C80.8801 55.5301 80.0001 56.1201 79.9301 56.9901C79.9301 56.9901 79.9301 56.9901 79.9301 56.9801C79.9301 56.9701 79.9301 56.9501 79.9301 56.9401C79.9301 56.9801 79.9301 57.0201 79.9301 57.0601C79.7601 57.2701 79.7601 57.7601 79.7101 58.0101C79.6701 59.4101 78.9501 60.7001 78.7001 62.0601C78.1401 64.3101 78.9201 66.6501 78.7901 68.9301C78.5901 70.2001 78.4101 71.4601 78.4601 72.7501C78.4601 74.0301 78.2401 75.3101 78.3401 76.5901C78.4001 77.3001 78.5201 77.9901 78.6401 78.6801C78.6601 79.0201 78.7001 79.3601 78.7801 79.6701C78.8101 79.8901 78.7501 80.2801 78.8801 80.4701C78.8601 80.6601 78.8601 80.8701 78.8201 80.9701C78.7701 81.3801 78.6901 81.8001 78.6501 82.2301C78.6301 82.3201 78.6301 82.4401 78.6301 82.5701C78.6301 82.6801 78.6301 82.8001 78.6301 82.9101C78.5701 83.2901 78.5301 83.6901 78.6701 84.0501C78.7101 84.2701 78.8001 84.5401 78.9101 84.8301C78.9801 85.1201 79.0701 85.3601 79.2001 85.5101C79.4201 86.0101 79.6501 86.4501 79.7101 86.6101C79.7101 86.6201 79.7201 86.6301 79.7301 86.6401C79.9801 87.2501 80.2401 87.8501 80.5201 88.4401C81.0201 89.4501 81.3401 90.5101 81.9401 91.4701C82.4201 92.5301 82.8401 93.6201 83.4701 94.6101C84.1101 95.7101 84.8201 96.7601 85.4701 97.8401C85.8801 98.7001 86.1001 99.6201 86.5701 100.49C87.2301 101.6 87.8801 102.69 88.4301 103.86C89.1301 105.1 89.8601 106.34 90.2401 107.73C90.6301 109.11 90.8101 110.5 90.7701 111.96C90.7301 112.68 90.6801 113.4 90.6801 114.12C90.6801 114.26 90.6701 114.42 90.6701 114.58C90.3501 113 88.4601 109.17 88.3101 108.78C87.3701 106.64 86.6101 104.41 85.5701 102.31C84.9001 100.99 84.1701 99.6901 83.6401 98.3001C82.8901 96.2201 82.1101 94.1301 80.8501 92.2901C79.9301 90.8101 78.8901 89.5401 77.5901 88.3201C77.0701 87.7301 76.4901 87.1301 75.8201 86.7001C75.5101 86.4201 75.0901 86.2501 74.7201 86.0701C73.8501 85.6301 72.9101 85.3501 71.9401 85.2201C71.6701 85.1801 71.4001 85.1101 71.1301 85.0401C71.0901 85.0201 71.0401 85.0101 71.0001 85.0001C70.2301 84.7701 69.4801 84.4301 68.7201 84.1901C67.3701 83.8301 65.9701 83.7001 64.5901 83.5301C62.7401 83.2801 60.9201 82.8301 59.0501 82.7201C56.9501 82.4901 54.9201 81.8901 52.9501 81.1501C50.8301 80.2501 49.0801 78.7601 47.4501 77.1601C46.8101 76.5301 45.9301 76.0201 45.1501 75.5601C44.4301 75.1401 43.8201 74.5501 43.1301 74.0801C46.0701 73.5301 49.1401 73.9501 52.0801 74.3601C53.2801 74.5501 54.3801 75.2101 55.5701 75.4701C56.3101 75.6401 57.0801 75.6801 57.8001 75.9401C58.4001 76.1501 58.9601 76.4801 59.5801 76.6501C61.6801 77.0601 63.4301 78.1801 65.3601 79.0701C66.5101 79.4801 67.5401 80.0701 68.5901 80.7201C70.3601 81.6101 72.0301 82.6301 73.8301 83.4901C74.1601 83.6701 74.4901 83.8601 74.7901 84.0701C75.0301 84.2801 75.4101 84.3101 75.5701 83.9901C75.8001 83.4301 75.2501 82.9001 74.5001 82.4801C74.4401 82.4101 74.3801 82.3401 74.3401 82.3001C73.5701 81.6701 73.2001 80.7301 72.5301 80.0201C72.0701 79.5301 71.5801 79.0601 71.1301 78.5601C70.7301 78.1001 70.4801 77.5801 70.0501 77.1201C69.0201 75.9901 67.8901 74.9501 66.9701 73.7201C66.0001 72.4601 65.1701 71.1001 64.1401 69.9001C63.7601 69.3701 63.2201 68.9901 62.7601 68.5301C62.4301 68.1401 62.1801 67.6901 61.9301 67.2401C61.1501 65.6901 60.0701 64.3601 59.2701 62.8101C58.6701 61.9501 58.0401 61.0901 57.3901 60.2701C57.0201 59.8701 56.6401 59.4701 56.4501 58.9501C56.3101 58.6901 56.2401 58.1401 55.8601 58.2101C55.7201 57.8901 55.6001 57.5701 55.4601 57.2501C55.1701 56.6201 54.7801 56.0501 54.4901 55.4301C54.1701 54.7001 53.8701 53.9301 53.5001 53.2101C53.1101 52.4601 52.6701 51.7301 52.3001 50.9701C51.8401 50.0001 51.6001 48.8601 51.1601 47.8701C50.9901 47.5501 50.6501 46.6501 50.2401 46.2501C50.2001 46.1601 50.1601 46.0801 50.1301 45.9901C49.8101 45.3001 49.0801 44.9801 48.4501 44.6401C47.8701 44.3301 47.1901 44.3101 46.5901 44.0701C45.7201 43.5501 44.7401 43.3701 43.7601 43.1701C43.1001 42.9701 42.5901 42.5301 41.9901 42.1901C41.7501 42.0601 41.5001 41.9301 41.2701 41.7901C41.2701 41.6901 41.2201 41.6001 41.1201 41.5901C41.0901 41.5701 41.0601 41.5501 41.0301 41.5301C41.0301 41.5301 41.0401 41.5301 41.0501 41.5301C41.5901 41.5601 42.0801 41.6601 42.6201 41.7401C43.0401 41.7701 43.4601 41.8201 43.8601 41.9301C44.0901 42.0901 44.3201 42.3201 44.5701 42.3701C44.6401 42.3501 44.6901 42.3101 44.7201 42.2701C44.7501 42.2701 44.7801 42.2701 44.8101 42.2701C44.8501 42.2501 44.8801 42.2201 44.8901 42.1601C44.9201 42.0401 44.8501 41.9101 44.7501 41.8501C44.4901 41.7001 44.2301 41.5801 43.9601 41.4701C43.6901 41.3101 43.4101 41.1701 43.1501 40.9901C42.6801 40.5801 42.2701 40.1601 41.9001 39.6501C42.7101 39.9501 43.5501 40.2101 44.2501 40.7601C44.6301 41.0801 44.8701 41.5001 45.2201 41.8501C45.2201 41.8601 45.2401 41.8701 45.2501 41.8901C45.4501 42.1101 45.6201 42.0401 45.6801 41.8901C45.6901 41.8801 45.7101 41.8601 45.7201 41.8401C45.8301 41.6501 45.7401 41.3901 45.5901 41.2401C45.3701 41.0301 45.1401 40.8301 44.9101 40.6201C44.0101 39.4801 43.0601 38.3601 42.5201 36.9901C43.0301 37.4001 43.6001 37.7301 44.0801 38.1701C45.0001 39.1901 45.9501 40.1701 46.8101 41.2301C46.9101 41.3601 47.1001 41.4401 47.2501 41.3701C47.2701 41.3701 47.2901 41.3501 47.3101 41.3301C47.7201 40.9501 46.8901 40.0501 46.6401 39.7001C46.6001 39.6501 46.5501 39.6101 46.5001 39.5601C46.3001 39.1901 46.0901 38.8201 45.9101 38.4401C45.4901 37.5101 45.0901 36.5401 45.1101 35.4901C45.5001 36.0001 45.8501 36.5401 46.0201 37.1601C46.2901 37.6801 46.5701 38.1901 46.8701 38.6901C46.8701 38.6901 46.8701 38.6901 46.8801 38.7001C46.8901 38.7301 46.9001 38.7501 46.9101 38.7801C46.9401 38.8201 46.9801 38.8301 47.0201 38.8401C47.3201 39.0401 47.6701 38.7801 47.5001 38.3501C47.4001 38.0801 47.2501 37.8401 47.0901 37.6001C47.0501 36.6901 47.2501 35.7901 47.2201 34.8701C47.8301 36.0101 48.8001 36.9901 49.0601 38.2901C49.1301 38.5901 49.1601 39.0901 49.5601 39.0801C49.5801 39.0801 49.6001 39.0701 49.6201 39.0601C49.9701 38.9001 49.6201 38.1101 49.5801 37.8101C49.5501 37.7201 49.5101 37.6301 49.4801 37.5401C49.4401 36.6701 49.4301 35.7901 49.5501 34.9301C49.8201 35.5801 50.1101 36.2201 50.3601 36.8701C50.4701 37.1801 50.5501 37.8201 51.0101 37.8301C51.3801 37.8301 51.2201 37.0501 50.8701 36.1701C50.8501 35.8601 50.8301 35.5501 50.8001 35.2501C50.7301 34.6901 50.8401 34.1001 51.1101 33.5901C51.2401 34.3201 51.6501 34.9601 51.7901 35.6801C51.8301 35.8401 51.8301 36.0701 51.8901 36.2501C51.9101 36.3601 51.9401 36.4701 51.9901 36.5801C52.0601 36.7201 52.3001 36.7801 52.3501 36.5801C52.3501 36.5801 52.3501 36.5701 52.3501 36.5601C52.5601 36.4501 52.4601 36.1201 52.3901 35.8701C52.5501 34.8801 52.8501 33.9201 53.2901 33.0201C53.4101 33.7801 53.3901 34.6101 53.4201 35.4101C53.4701 35.9401 53.4801 36.4901 53.3201 37.0101C53.1401 38.0101 52.4801 38.8801 52.3701 39.9001C52.2901 40.9401 51.9701 41.9401 51.9501 42.9801C51.9601 43.5201 52.0001 44.0601 52.0701 44.6001C52.0701 44.6101 52.0701 44.6301 52.0701 44.6401C52.0701 44.6701 52.0601 44.7101 52.0701 44.7501C52.0801 44.8201 52.1001 44.8901 52.1101 44.9501C52.1601 45.5001 52.2401 46.3801 52.5601 46.6401C52.8901 47.6101 53.3201 48.5401 53.7001 49.4901C53.9801 50.2301 54.2701 50.9601 54.6901 51.6401C56.2001 54.1201 57.8901 56.4801 59.3801 58.9901C60.1901 60.2001 61.0201 61.3801 62.0701 62.3801C63.0701 63.6401 63.8001 65.0001 64.6801 66.3601C66.0901 68.4701 67.9401 70.2001 69.6101 72.1001C70.3101 72.9801 70.7201 74.0501 71.4401 74.9201C72.2301 75.7901 72.8801 76.7001 73.6101 77.6401C74.6301 78.7501 75.4601 80.0201 75.8901 81.4901C75.9101 81.6001 76.0101 81.7301 76.1301 81.6801H76.1401C76.1401 81.6801 76.1501 81.6501 76.1601 81.6401C76.2401 81.7301 76.3501 81.7501 76.4301 81.7101C76.5401 81.6601 76.6101 81.5201 76.5201 81.3301C76.5901 79.8201 76.5901 78.3301 76.4901 76.8101C76.5401 75.8401 76.4901 74.8701 76.5201 73.9001C76.7401 72.9001 76.6801 71.8801 76.5901 70.8601C76.5701 69.9701 76.4401 69.0901 76.3601 68.2101C76.3101 66.7101 76.4201 65.2101 76.3601 63.7101C76.3301 62.8901 76.2601 62.1001 76.3201 61.2601C76.5501 59.6501 77.1201 58.0501 77.2401 56.4201C77.2501 56.3201 77.2201 56.2301 77.1601 56.1501C77.1901 56.0301 77.1601 55.8901 77.0301 55.8501C76.9701 55.8101 76.9401 55.7401 76.9001 55.6901C76.6401 55.3801 76.3101 55.1201 76.0501 54.8101C75.6201 54.1301 75.3001 53.3801 74.9101 52.6801C74.4201 51.9301 74.1701 51.0701 73.8701 50.2301C73.5101 49.2901 73.2401 48.2701 73.3301 47.2401C73.7201 47.7001 74.2901 47.9601 74.6701 48.4301C74.9901 48.8701 75.2701 49.3601 75.5501 49.8501C75.6201 50.1501 75.7101 50.4401 75.7301 50.7401C75.6801 50.8801 75.6801 51.0401 75.7401 51.1701C76.1001 51.7401 76.6601 50.8801 76.2901 50.5201C75.9901 48.9901 75.0401 47.5001 75.4901 45.8901C75.6701 46.2301 75.9601 46.4801 76.2401 46.7401C76.6501 47.3201 77.0201 47.9501 77.2001 48.6501C77.2901 49.0601 77.3601 49.4201 77.3601 49.8501C77.3201 50.1301 77.2701 50.7701 77.7201 50.6601C77.9701 50.5401 78.0101 50.3101 77.9701 50.0601C78.0901 49.2601 77.8801 48.4701 77.9701 47.6501C77.9901 47.2801 77.9901 46.8901 78.1801 46.5601C78.5301 45.9401 78.9801 45.4301 79.2901 44.7701C79.2901 44.7701 79.2901 44.7701 79.3001 44.7701C79.8201 46.1701 79.4001 47.6301 79.2501 49.0801C79.2701 49.5501 78.2901 52.1101 79.0701 52.0501C79.0801 52.0501 79.0901 52.0501 79.1001 52.0401C79.4101 51.9001 79.3801 51.5201 79.3701 51.1701C79.4301 50.8901 79.4801 50.6101 79.4901 50.3101C79.6401 49.8101 79.9801 49.3701 80.1301 48.8601C80.2801 48.1201 80.6501 47.4601 81.0801 46.8501C81.2201 47.9801 81.4601 49.1201 81.1001 50.2401C81.0301 50.7801 80.3501 51.3301 80.7501 51.8601C80.8901 51.9501 81.0101 51.9501 81.1201 51.9001C81.7901 51.6001 82.0201 49.2001 82.0101 48.7101C82.0101 48.7101 82.0101 48.7001 82.0101 48.6901C82.0101 48.6701 82.0201 48.6601 82.0201 48.6401C82.1301 47.4501 82.9801 46.4601 83.7401 45.5901C83.4301 47.0001 83.8201 48.4801 83.2501 49.8701C83.0901 50.2501 82.8501 50.6001 82.6401 50.9601C82.5501 51.1001 82.5501 51.3201 82.6701 51.4401C82.7301 51.4801 82.7901 51.4801 82.8501 51.4701C82.9601 51.5001 83.0901 51.4401 83.1501 51.2701C83.2701 51.1201 83.3901 50.9001 83.5001 50.6401C83.8901 50.1101 84.3701 49.6501 85.0101 49.4001C84.9101 50.1701 84.6401 50.8901 84.1301 51.4801C83.9301 51.7601 83.6901 52.0101 83.4401 52.2401C83.2901 52.3801 83.2901 52.7101 83.5101 52.7701C83.5401 52.7601 83.5801 52.7401 83.6101 52.7301C83.9601 52.5701 84.2501 52.2701 84.4901 51.9001C84.5401 51.9001 84.6001 51.8901 84.6601 51.8301C84.9001 51.5901 85.1101 51.3101 85.4401 51.2101C85.8601 50.9801 86.2401 50.7301 86.7101 50.5901C86.1601 51.7301 85.2001 52.5901 84.0801 53.1701L84.0901 53.1801ZM92.5001 48.2001C91.7901 48.6701 91.0701 49.0401 90.2801 49.3701C89.8001 49.5301 89.3701 49.6601 88.9201 49.9101C88.6901 50.0401 88.4701 49.9901 88.2001 50.0001C88.0101 50.0101 87.8301 50.0701 87.6701 50.1501C87.7401 49.8901 87.7501 49.6201 87.6001 49.4801C88.4401 48.9001 89.4501 48.7501 90.3901 48.3701C90.4701 48.3301 90.5801 48.2901 90.7001 48.2601C90.9901 48.1701 91.3001 48.0801 91.2601 47.7501C91.2401 47.6301 91.1301 47.5301 91.0001 47.5701C90.3601 47.7301 89.7801 48.0101 89.2201 48.3301C88.7401 48.5101 88.2501 48.6401 87.7901 48.8801C87.1101 49.1801 86.3801 49.3601 85.7901 49.8401C85.6601 49.9701 85.4001 50.1201 85.1601 50.3001C85.1801 50.2301 85.1901 50.1501 85.2101 50.0901C85.2401 49.9501 85.2901 49.8001 85.3301 49.6601C85.3501 49.6601 85.3601 49.6701 85.3801 49.6701C85.4301 49.6501 85.4701 49.6401 85.5201 49.6201C85.8901 49.4501 86.1501 49.1301 86.4701 48.9001C87.6601 48.4201 88.8801 47.9301 89.9301 47.1801C90.7101 46.8101 91.5001 46.4701 92.3701 46.3101C92.7701 46.3001 93.1601 46.4601 93.5601 46.5001C93.1501 47.0301 92.9601 47.7101 92.5101 48.2101L92.5001 48.2001Z" fill="#585280"/>
</svg>
