<svg width="25" height="31" viewBox="0 0 25 31" fill="none" xmlns="http://www.w3.org/2000/svg">
<g clip-path="url(#clip0_1_1225)">
<path d="M12.4999 30.89C10.2899 30.89 8.08991 30.89 5.87991 30.89C4.32991 30.89 3.26991 29.88 3.13991 28.33C2.78991 24.01 2.41991 19.69 2.05991 15.37C1.88991 13.3 1.70991 11.23 1.55991 9.16999C1.52991 8.75999 1.48991 8.47999 0.98991 8.31999C0.36991 8.12999 0.0499105 7.57999 0.0199105 6.91999C-8.9528e-05 6.36999 -0.0100895 5.81999 0.0199105 5.26999C0.0599105 4.35999 0.73991 3.70999 1.65991 3.69999C3.53991 3.69999 5.41991 3.68999 7.29991 3.69999C7.63991 3.69999 7.78991 3.61999 7.89991 3.26999C8.44991 1.45999 10.2099 -0.0800071 12.7399 -7.11763e-06C14.7499 0.0699929 16.5699 1.38999 17.1499 3.32999C17.2299 3.60999 17.3499 3.68999 17.6399 3.68999C19.4899 3.67999 21.3399 3.68999 23.1999 3.68999C24.3799 3.68999 25.0099 4.32999 25.0099 5.51999C25.0099 5.94999 25.0099 6.38999 25.0099 6.81999C24.9899 7.62999 24.5699 8.19999 23.7899 8.40999C23.5199 8.47999 23.5199 8.63999 23.4999 8.83999C23.3099 11.17 23.1099 13.5 22.9199 15.83C22.5699 20.04 22.2299 24.26 21.8699 28.47C21.7499 29.9 20.6499 30.88 19.1999 30.89C16.9699 30.89 14.7299 30.89 12.4999 30.89ZM22.0699 8.50999H2.96991C2.97991 8.73999 2.98991 8.92999 3.00991 9.11999C3.20991 11.46 3.39991 13.8 3.59991 16.15C3.93991 20.21 4.26991 24.26 4.61991 28.32C4.67991 29.02 5.10991 29.43 5.79991 29.43C10.2799 29.43 14.7599 29.43 19.2399 29.43C19.9299 29.43 20.3699 29.01 20.4299 28.32C20.5599 26.87 20.6799 25.42 20.7999 23.96C21.1399 19.93 21.4699 15.9 21.7999 11.87C21.8899 10.76 21.9799 9.64999 22.0799 8.50999H22.0699ZM12.5099 7.02999C15.9899 7.02999 19.4699 7.02999 22.9499 7.02999C23.0599 7.02999 23.1799 7.05999 23.2599 7.01999C23.3699 6.95999 23.5199 6.83999 23.5399 6.73999C23.5799 6.41999 23.5499 6.07999 23.5499 5.75999C23.5499 5.34666 23.3399 5.13999 22.9199 5.13999C15.9999 5.13999 9.06991 5.13999 2.14991 5.13999C2.01991 5.13999 1.88991 5.13999 1.75991 5.13999C1.54991 5.13999 1.44991 5.22999 1.44991 5.44999C1.44991 5.79999 1.44991 6.15999 1.44991 6.50999C1.44991 7.02999 1.44991 7.02999 1.97991 7.02999C5.48991 7.02999 8.98991 7.02999 12.4999 7.02999H12.5099ZM9.32991 3.64999H15.6899C15.3199 2.29999 13.9799 1.43999 12.3399 1.46999C10.9399 1.48999 9.61991 2.42999 9.31991 3.64999H9.32991Z" fill="#D9CFC6"/>
<path d="M13.2299 18.64C13.2299 21.22 13.2299 23.79 13.2299 26.37C13.2299 26.86 13.0099 27.14 12.6299 27.2C12.2099 27.26 11.8499 26.98 11.7999 26.56C11.7899 26.43 11.7999 26.3 11.7999 26.17C11.7999 21.12 11.7999 16.08 11.7999 11.03C11.7999 10.32 12.0299 9.98999 12.5299 9.98999C13.0199 9.98999 13.2499 10.32 13.2499 11.04C13.2499 13.58 13.2499 16.11 13.2499 18.65L13.2299 18.64Z" fill="#D9CFC6"/>
<path d="M16.99 24.99C17.3 21.22 17.61 17.57 17.91 13.92C17.97 13.25 18.01 12.58 18.09 11.92C18.14 11.51 18.49 11.26 18.87 11.3C19.25 11.34 19.51 11.64 19.51 12.06C19.51 12.19 19.5 12.32 19.49 12.45C19.39 13.61 19.29 14.78 19.2 15.94C18.94 19 18.69 22.06 18.43 25.12C18.39 25.57 18.15 25.85 17.77 25.87C17.42 25.89 17.15 25.73 17.03 25.4C16.97 25.23 16.99 25.04 16.99 24.97V24.99Z" fill="#D9CFC6"/>
<path d="M8.02002 24.83C8.02002 24.91 8.04002 24.99 8.04002 25.07C8.05002 25.53 7.78002 25.86 7.37002 25.89C6.96002 25.91 6.64002 25.62 6.60002 25.17C6.52002 24.33 6.46002 23.5 6.39002 22.66C6.11002 19.26 5.82002 15.86 5.54002 12.46C5.53002 12.33 5.52002 12.2 5.52002 12.07C5.52002 11.65 5.79002 11.35 6.17002 11.31C6.55002 11.27 6.89002 11.52 6.94002 11.94C7.02002 12.62 7.07002 13.3 7.13002 13.98C7.43002 17.6 7.73002 21.23 8.03002 24.85L8.02002 24.83Z" fill="#D9CFC6"/>
</g>
<defs>
<clipPath id="clip0_1_1225">
<rect width="25.01" height="30.89" fill="white"/>
</clipPath>
</defs>
</svg>
