<svg width="201" height="316" viewBox="0 0 201 316" fill="none" xmlns="http://www.w3.org/2000/svg">
<mask id="mask0_268_8" style="mask-type:alpha" maskUnits="userSpaceOnUse" x="0" y="0" width="201" height="316">
<rect width="201" height="316" fill="#D9D9D9"/>
</mask>
<g mask="url(#mask0_268_8)">
<g style="mix-blend-mode:multiply" opacity="0.3">
<path d="M77.9402 219.55C78.6702 220.52 81.1402 221.75 80.3602 223.12C80.3102 223.19 80.2502 223.25 80.1802 223.29C79.8502 223.49 79.3902 223.3 79.1002 223.03C78.2402 222.22 77.4102 221.45 76.5002 220.66C75.7602 219.91 74.0502 219.29 74.5602 217.97C75.3902 216.84 77.2002 219.02 77.9502 219.55H77.9402Z" fill="#585283"/>
<path d="M96.3301 217.25C95.8701 217.52 95.1901 216.7 95.0201 216.31C94.7801 214.86 96.9801 216.29 96.4901 217.09C96.4401 217.16 96.3901 217.21 96.3301 217.25Z" fill="#585283"/>
<path d="M118.01 223.83C118.01 223.83 117.92 223.9 117.87 223.93C117.12 224.38 116.4 222.96 115.85 222.56C114.86 221.43 113.47 220.41 112.94 218.99C112.9 218.61 113.17 218.29 113.56 218.34C114.21 218.51 114.52 219.24 114.98 219.68C115.8 220.65 116.87 221.77 117.83 222.7C118.11 222.97 118.26 223.5 118 223.83H118.01Z" fill="#585283"/>
<path d="M139.9 230.13C139.54 230.35 138.91 230.13 138.73 229.49C138.5 228.79 138.25 228.1 137.99 227.41C137.94 227.17 137.99 226.88 138.22 226.74C138.48 226.58 138.81 226.73 139 226.93C139.56 227.6 139.78 228.47 140.11 229.26C140.23 229.71 140.11 229.99 139.9 230.12V230.13Z" fill="#585283"/>
<path d="M78.48 183.8C78.42 184.02 78.31 184.16 78.19 184.24C77.71 184.52 76.89 183.85 76.39 183.64C75.89 183.27 75.17 183.3 74.86 182.7C74.64 182.33 74.72 181.64 75.27 181.6C75.73 181.58 76.14 181.84 76.55 182.02C77.32 182.43 78.65 182.69 78.48 183.81V183.8Z" fill="#585283"/>
<path d="M111 182.09C111.26 182.53 111.14 182.9 110.88 183.05C110.62 183.2 110.23 183.14 109.97 182.7C108.56 180.45 107.27 178.1 105.64 176.01C105.21 175.28 104.07 175.33 104.2 174.31C105.56 171.75 110.14 181.03 111 182.09Z" fill="#585283"/>
<path d="M92.2002 240.3C92.2002 240.3 92.2002 240.29 92.2002 240.28C92.2002 240.29 92.2002 240.3 92.2102 240.3H92.2002Z" fill="#585283"/>
<path d="M92.1301 241.02C91.5701 241.35 89.7901 240.57 89.2501 240.56C88.5801 240.49 88.2901 239.17 89.1501 239.23C90.1401 239.56 91.5201 239.43 92.2001 240.3C92.2701 240.42 92.3101 240.56 92.3001 240.7C92.3001 240.86 92.2401 240.96 92.1301 241.02Z" fill="#585283"/>
<path d="M94.35 247.88C94.45 248.04 94.49 248.27 94.36 248.42C94.34 248.45 94.31 248.47 94.28 248.49C94.18 248.55 94.05 248.54 93.94 248.5C92.2 247.83 90.47 247.03 88.71 246.39C88.14 246.25 88.02 245.12 88.76 245.29C90.48 246.05 92.37 246.56 93.93 247.61C94.11 247.61 94.26 247.74 94.35 247.88Z" fill="#585283"/>
<path d="M137.35 278.06C138.64 278.31 139.95 278.51 141.25 278.71C143.49 278.99 145.75 279.02 148 279.01C148.84 278.92 150.41 279.22 150.09 280.37C150 280.51 149.89 280.61 149.77 280.68C149.21 281.01 148.32 280.82 147.7 280.91C144.22 280.99 140.75 280.49 137.33 279.93C136.76 279.83 136.07 279.33 136.19 278.68C136.29 278.16 136.89 277.96 137.35 278.05V278.06Z" fill="#585283"/>
<path d="M128.84 275.87C129.54 275.03 130.7 275.78 131.48 276.12C132.05 276.35 132.6 277.02 132.22 277.62C132.15 277.73 132.05 277.81 131.95 277.87C131.6 278.08 131.1 278.06 130.75 277.9C129.97 277.51 128.31 277.01 128.84 275.86V275.87Z" fill="#585283"/>
<path d="M144.55 275.28C144.31 275.42 143.97 275.43 143.7 275.36C141.61 274.71 139.28 274.48 137.35 273.5C136.48 272.57 137.64 271.93 138.54 272.29C140.38 272.74 142.18 273.31 144.01 273.8C144.48 273.93 145.04 274.44 144.82 274.97C144.76 275.11 144.67 275.21 144.55 275.28Z" fill="#585283"/>
<path d="M141.16 295.17C142.06 294.82 142.95 294.47 143.83 294.11C144.63 293.8 145.38 293.37 146.19 293.09C146.6 293 147.18 293.37 147.03 293.83C146.98 293.93 146.88 294.01 146.74 294.09C146.2 294.41 145.08 294.64 144.44 294.94C143.53 295.28 142.61 295.61 141.69 295.93C141.44 296.02 141.12 295.89 140.98 295.66C140.86 295.46 140.95 295.24 141.16 295.16V295.17Z" fill="#585283"/>
<path d="M136.22 289.55C135.14 290.49 134.28 291.66 133.36 292.75C133.34 292.78 133.31 292.8 133.28 292.81C132.95 293.01 132.32 292.6 132.61 292.22C133.35 291.6 135.24 288.16 136.16 289.05C136.28 289.17 136.37 289.41 136.22 289.54V289.55Z" fill="#585283"/>
<path d="M193.63 373.83C193.27 374.77 194.56 376.1 195.38 375.61C195.51 375.53 195.62 375.41 195.72 375.24C198 370.26 199.22 365.02 199.92 359.62C201.24 354.52 201.39 349.26 201.02 344.03C200.25 333.14 199.48 322.34 197.55 311.63C196.25 302.07 194.17 292.63 190.76 283.59C188.51 277.58 186.82 271.35 184.12 265.53C183.64 262.55 183.62 259.57 184.7 256.56C185.33 254.71 185.78 252.81 186.34 250.95C186.69 249.8 187.48 248.44 187.68 247.16C191.62 247.96 195.47 246.84 198.84 244.83C199.36 244.52 199.87 244.18 200.38 243.83C203.96 241.59 206.16 237.7 208.36 234.2C210.41 230.48 210.89 226.19 212.56 222.32C213.47 220.42 214.55 218.58 215.18 216.56C216.21 213.38 215.73 209.93 216.87 206.78C216.95 206.55 217.01 206.35 217.09 206.12C217.16 205.95 217.22 205.79 217.26 205.61C217.44 205.06 217.63 204.51 217.8 203.98C218.1 203.54 218.43 202.64 217.73 202.43C217.61 202.42 217.51 202.47 217.44 202.54C217.06 203.09 216.65 203.64 216.24 204.17C216.03 204.26 215.85 204.46 215.74 204.78C215.64 204.89 215.55 205.02 215.45 205.13C212.3 208.63 208.07 210.89 205.03 214.54C203.99 215.41 202.88 216.07 201.77 216.73C200.83 217.28 199.9 217.84 199.02 218.52C197.51 219.66 196.37 221.26 195.2 222.65C193.22 225.1 190.39 226.68 188.45 229.16C184.56 233.65 183.2 239.22 185 244.75C183.29 246.26 182.79 251.88 182.54 253.32C182.11 255.55 181.62 257.78 181.44 260.04C180.02 257.33 178.45 254.71 176.82 252.12C176.8 252.02 176.78 251.91 176.77 251.81C176.62 250.39 176.59 248.97 176.36 247.56C175.59 243.2 176.2 238.84 177.19 234.59C177.26 234.55 177.33 234.51 177.39 234.46C181.33 231.87 184.43 228.26 187.4 224.67C191.37 221.11 193.78 216.36 195.62 211.42C197.95 205.81 197.21 199.58 197.56 193.68C197.81 191.12 198.48 188.59 198.31 186C198.21 182.64 196.62 171.63 193.74 180.61C193.25 182.66 193.1 184.81 192.15 186.73C191.41 188.23 190.58 189.66 189.68 191.04C189.62 190.13 189.54 189.22 189.42 188.31C189.2 185.93 189.13 183.54 189.23 181.15C189.27 180.12 189.44 178.86 188.76 177.99C187.41 176.35 186 178.72 185.16 179.73C183.98 181.33 182.49 182.67 181.35 184.29C180.49 185.61 179.82 187.06 178.94 188.33C175.52 194.09 173 200.59 172.64 207.34C172.38 212.44 173.37 217.56 173.38 222.66C173.38 226.21 174.92 229.56 175.04 233.1C175.04 233.14 175.05 233.18 175.05 233.22C173.9 236.4 172.91 239.65 173.29 243.09C173.38 244.61 173.61 246.12 173.93 247.62C171.62 244.07 169.29 240.54 167.16 236.87C164.2 231.54 161.41 226.55 158.31 221.62C157.86 219.49 157.75 217.28 157.57 215.14C157.1 210.98 157.64 206.87 157.8 202.72C157.71 199.94 156.92 197.25 156.43 194.52C155.6 190.89 155.17 187.11 153.73 183.66C151.24 178.57 147.4 174.44 143.49 170.44C143.2 170.2 142.8 169.77 142.33 169.24C142.63 168.82 142.85 168.31 142.95 167.91C144.15 164.64 147.83 163.63 150.17 161.37C152.22 159.63 153.58 157.28 155.16 155.13C155.33 155.13 155.51 155.06 155.71 154.95C155.77 154.91 155.84 154.87 155.9 154.82C156.78 154.06 157.77 153.5 158.75 152.94C159.68 152.41 160.61 151.88 161.44 151.19C162.96 149.56 164.47 148.05 166.22 146.69C170.43 142.62 172.91 136.96 174.72 131.48C175.71 127.67 176.56 123.59 175.94 119.66C175.57 117.25 174.81 114.93 174.39 112.54C174.01 110.49 174.22 108.22 173.85 106.26C173.78 105.83 173.71 105.34 173.31 105.09C171.56 104.34 171.22 107.72 170.88 108.69C170.25 111.02 169.65 113.37 169.26 115.75C168.51 120.2 168.91 124.78 167.69 129.16C167.19 130.94 166.5 132.64 165.66 134.26C165.85 132.93 166.01 131.6 166.16 130.29C167.24 125.36 166.8 119.99 166.94 115.08C167.1 112.74 167.21 110.4 167.06 108.07C167.18 106.05 165.04 104.82 163.68 106.66C162.58 108.26 162.37 110.29 161.83 112.12C159.8 120.94 156.36 129.49 150.47 136.45C145.85 143.54 142.97 151.63 140.85 159.79C140.39 162.11 140.04 164.51 140.24 166.87C138.36 164.75 136.26 162.69 135.14 163.52C134.68 163.92 134.69 164.58 134.82 165.13C135.86 167.88 136.33 170.8 137.44 173.53C137.45 173.55 137.46 173.58 137.47 173.6C136.72 174.61 136.3 177.4 136.06 178.07C135.21 181.2 134.91 184.55 135.34 187.74C135.34 187.76 135.34 187.79 135.34 187.81C131.96 183.12 128.53 178.47 125.24 173.73C124.03 170.93 123.93 167.66 123.8 164.63C123.67 159.48 125.73 154.76 128.38 150.48C130.19 147.27 132.21 144.15 133.01 140.55C133.36 139 133.41 137.42 133.49 135.84C133.58 135.77 133.63 135.65 133.62 135.53C133.63 135.53 133.64 135.53 133.65 135.52C133.73 135.54 133.83 135.53 133.92 135.47C133.97 135.44 134.02 135.4 134.06 135.35C134.09 135.31 134.11 135.26 134.15 135.22C134.16 135.22 134.18 135.2 134.19 135.19C141.49 129.7 143.8 119.43 140.75 111.05C140.65 110.82 140.54 110.59 140.44 110.36C140.41 109.8 140.37 109.24 140.33 108.69C140.11 106.31 139.12 103.99 139.34 101.58C139.6 99.6002 140.05 97.6402 140.07 95.6402C139.98 93.0002 139.93 90.4602 140.39 87.8702C140.62 85.2502 141.58 82.7402 141.55 80.0802C141.55 79.8702 141.5 79.6702 141.35 79.5202C140.35 78.8502 139.76 80.4802 139.45 81.1902C138.54 83.3702 137.72 85.6002 136.73 87.7402C135.13 90.7402 133.74 93.8202 132.74 97.0602C132.53 96.7402 132.32 96.4202 132.12 96.0602C131.05 93.9702 130.35 91.6702 129.03 89.7202C128.5 88.9702 127.53 89.0602 126.85 89.5402C125.07 90.7902 125.9 92.6702 126.77 94.3202C126.9 97.1302 126.31 99.9002 125.84 102.69C125.25 105.25 125.82 107.83 126 110.4C126.11 114.25 124.48 118.02 125.5 121.88C125.94 123.99 126.71 126.02 127.44 128.03C128.23 130.17 129.05 132.56 130.52 134.37C129.88 135.32 129.8 136.79 129.57 137.89C129.25 139.41 128.98 140.95 128.53 142.43C125.6 149.9 121.42 157.36 121.57 165.6C121.64 166.58 121.71 167.57 121.82 168.56C118.98 163.89 116.59 158.96 113.87 154.23C113.64 153.55 113.44 152.86 113.3 152.16C113.12 148.65 112.45 145.17 111.69 141.76C111.45 139.06 111.65 136.32 111.37 133.61C112.46 131.82 113.16 129.81 114.22 128.03C115.69 125.93 117.43 124.02 118.71 121.79C120.89 118.51 120.73 114.55 121.38 110.83C122.91 105.01 123.84 99.0602 124.07 93.0402C124.47 90.5702 124.76 88.0602 125.42 85.6502C126.68 82.3902 128.12 79.2002 129.18 75.8602C129.85 73.8602 131.01 72.1402 131.7 70.1602C132.51 67.9702 132.69 65.7302 133.47 63.5802C133.51 63.0802 132.86 62.9802 132.57 63.3402C131.77 64.3502 131.08 65.4502 130.25 66.4502C127.97 69.7802 126.26 73.4902 124.28 77.0102C122.82 79.9702 121.4 82.8202 119.78 85.6102C120.16 83.7902 120.45 81.9502 120.85 80.1502C121.37 78.1902 119.18 78.3902 118.44 79.7102C116.32 83.6102 115.4 87.9702 114.02 92.1602C112.9 95.2202 111.48 98.1802 110.81 101.38C110.55 103.73 109.71 105.8 108.6 107.84C107.79 109.66 107.41 111.62 107.05 113.56C105.93 116.84 107.15 120.03 108.16 123.16C108.28 123.72 108.39 124.29 108.49 124.85C108.48 125.05 108.49 125.26 108.47 125.46C107.1 132.47 109.5 139.35 111.02 146.12C111.2 147.51 111.32 148.91 111.46 150.3C111.26 150 111.08 149.69 110.88 149.39C107.32 145.2 104.49 140.52 101.76 135.77C101.43 134.44 101.04 133.12 100.39 131.89C98.8301 129.22 98.8401 126.16 98.3601 123.2C97.8701 120.9 96.9701 118.63 97.1701 116.26C97.3101 113.74 97.9701 111.37 98.5401 108.93C99.1701 104.82 100.07 100.93 102.13 97.3502C103.41 94.5302 104.28 91.5702 104.78 88.5202C105.02 87.5602 105.28 86.6102 105.54 85.6602C105.65 85.6402 105.75 85.6102 105.85 85.5502C106.11 85.4002 106.34 85.1502 106.53 84.9702C110.43 81.5602 114.11 77.9502 118.07 74.6402C120.49 73.1302 123.01 71.6602 124.5 69.1102C125.95 66.8602 126.82 64.3102 127.94 61.8902C129.1 59.3902 130.54 56.9402 131 54.1902C131.39 49.9002 131.63 45.6202 132.03 41.3202C132.46 38.2102 129.26 40.7802 128.25 41.7002C127.77 42.1302 127.25 42.5002 126.72 42.8702C126.77 42.8002 126.81 42.7202 126.85 42.6502C127.97 40.6902 128.97 38.5302 129.55 36.3702C130.24 34.7102 130.78 33.0202 131.15 31.2902C131.23 31.1402 131.28 30.9902 131.35 30.8402C131.54 30.5802 131.67 30.2802 131.73 30.0002C132.08 29.1502 132.4 28.2802 132.66 27.3902C133.11 26.3802 133.64 25.4102 133.85 24.3102C134.48 22.5202 132.67 22.4602 132.17 24.0102C130.89 26.1402 129.12 27.9302 127.87 30.1002C126.02 32.9602 124.64 35.8902 122.26 38.3002C119.84 40.9202 116.8 42.9802 114.68 45.8602C112.72 48.9702 110.69 51.9202 108.64 54.9402C106.29 59.5802 104.83 64.8302 104.57 70.0302C104.39 73.4202 104.71 76.8402 104.43 80.2202C104.43 80.3002 104.45 80.3402 104.46 80.4002C104.24 82.0802 104.11 83.6102 104.19 84.6002C103.89 85.3102 103.84 86.2802 103.6 86.9002C103.16 89.2502 102.57 91.5602 101.94 93.8702C101.11 98.8402 98.0901 102.99 97.1801 107.9C96.3601 111.36 96.0501 114.9 96.3801 118.44C96.4701 121.98 96.9701 125.48 97.8201 128.9C97.6501 128.61 97.4801 128.31 97.3001 128.02C95.3301 124.64 93.6101 121.13 92.2001 117.5C92.2001 117.5 92.2201 117.49 92.2301 117.48C92.3901 117.15 92.1401 116.7 91.8101 116.49C90.9001 114.03 90.1401 111.53 89.5501 108.96C88.6201 106.18 87.3201 103.56 86.1301 100.89C86.0601 100.2 86.0601 99.5102 86.1001 98.8402C87.7101 95.0902 89.9301 91.6702 90.9601 87.6802C91.6001 85.8702 92.7301 84.3302 93.4701 82.5702C94.2501 79.6402 95.3001 76.7602 95.8301 73.7602C96.2201 71.6302 95.9301 69.3302 95.5801 67.2602C95.0801 61.3102 94.2101 55.4102 92.8401 49.5902C91.9801 46.2702 91.5801 42.8702 91.0301 39.5002C90.5701 37.1002 89.7901 34.8102 89.4301 32.4102C89.3601 31.8702 89.3601 31.3102 89.1501 30.8102C88.8801 30.2702 88.1601 30.4302 88.2501 31.1102C88.3801 32.4402 88.6401 33.7402 88.9301 35.0302C89.1401 37.1802 88.8701 39.3002 88.9601 41.4502C89.0701 42.6402 89.1501 43.8302 89.2301 45.0202C89.1401 45.2402 89.0901 45.4902 89.1201 45.8102C89.2101 46.5202 89.3201 47.2202 89.4401 47.9302C89.5401 49.8002 89.6101 51.6702 89.6201 53.5502C90.1601 58.0602 90.7001 62.5602 91.1401 67.0802C90.7801 65.5202 90.3901 63.9602 89.9801 62.4102C89.1701 59.8802 87.9301 57.6802 86.6701 55.4102C84.7301 49.6402 82.2501 44.0402 80.5801 38.1602C79.8801 36.1202 79.2701 38.4002 79.3001 39.3502C79.1301 41.1802 79.4301 42.9902 79.7301 44.7902C80.0201 47.3502 80.1801 49.9502 80.3501 52.5102C80.4301 55.1202 79.5701 57.6202 79.3401 60.1902C79.3001 60.5302 79.2601 60.8702 79.2201 61.2202C79.0901 61.0002 78.9301 60.7902 78.8101 60.6102C77.5401 58.7102 76.1701 56.7702 75.2501 54.7102C72.7901 48.1102 70.1501 41.6302 66.7101 35.4702C66.4101 35.0002 66.0701 34.9902 65.8301 35.1602C65.8401 33.2502 66.0601 31.3502 66.6401 29.5102C67.0201 28.2702 68.0101 27.0802 67.7801 25.7502C67.7501 25.6302 67.6801 25.5102 67.6001 25.4002C68.1201 24.4902 68.6301 23.5802 68.9601 22.6002C69.0401 22.1602 68.5901 21.5202 68.1301 21.8802C67.2601 23.2902 66.6901 24.9102 65.9001 26.3702C65.8301 26.4802 65.8101 26.6102 65.8201 26.7402C64.5701 28.7802 63.9201 30.8702 63.6901 33.0202C59.9901 29.3502 51.7601 24.8402 49.8101 24.2502C48.5401 23.7902 47.1501 23.9302 45.8901 23.5402C45.8601 23.5402 45.8501 23.5502 45.8201 23.5602C45.2601 23.0802 44.4701 22.6802 44.0801 22.3802C42.6401 21.7902 39.9601 20.2402 38.5901 21.4002C37.8401 22.7702 37.3301 24.3802 37.0701 25.9202C37.1401 26.8602 37.4801 27.7902 37.7601 28.6802C38.6601 30.5702 38.9701 32.7502 40.2001 34.4602C42.3501 37.0202 44.7701 39.3602 46.3701 42.3302C47.5101 44.5102 49.2501 46.2702 50.6701 48.2602C51.6801 50.0402 52.4501 51.9402 53.5501 53.6602C54.8701 55.9202 57.2601 57.4102 58.5901 59.6302C59.2401 60.8202 60.1301 61.8602 60.7701 63.0502C60.8601 63.3802 60.9501 63.7102 61.0501 64.0402C58.9401 60.9902 56.7601 58.0002 54.0601 55.4702C52.2501 53.1102 49.5901 51.9002 46.9601 50.6802C44.9401 49.7502 43.1901 47.7002 40.8601 47.7002C39.6001 48.0402 38.2301 48.4802 37.2601 49.3802C36.4501 50.3502 35.6901 51.4002 35.3501 52.6302C35.2401 53.0102 35.6101 53.3802 35.9101 53.5202C36.8901 54.0102 37.3501 52.7702 37.9001 52.1902C38.6501 51.1402 39.5301 50.2602 40.7701 49.8302C41.1901 49.6802 41.6301 49.2902 42.0801 49.4302C44.7801 50.3102 47.2901 51.4802 49.6101 53.0802C51.1801 54.1402 52.1101 55.8102 53.4401 57.1202C56.1001 59.7602 58.6301 62.5602 60.8501 65.5702C62.7001 69.0402 64.0201 72.6502 65.7501 76.1402C66.9201 78.8202 68.3001 81.3702 69.1901 84.1502C67.1001 83.8302 65.0401 83.3102 63.1201 82.5302C59.3001 80.2002 55.9101 77.1702 52.7701 74.0002C52.7201 73.9402 52.6501 73.9102 52.5801 73.8702C52.5801 73.8302 52.5701 73.8002 52.5601 73.7602C52.7501 73.6402 52.8801 73.4502 52.9601 73.2102C52.9601 73.2102 52.9601 73.2102 52.9601 73.2002C52.9601 73.2102 52.9501 73.2302 52.9401 73.2402C53.3101 72.5202 53.0301 71.6502 52.8301 70.9002C52.3801 68.6102 51.8201 66.2902 50.2101 64.5202C47.6401 61.4902 44.1901 59.3502 41.0201 57.0202C38.6701 55.6402 36.1601 54.5502 33.8701 53.0602C31.2201 51.4502 28.2301 50.5302 25.3601 49.4502C22.8701 48.4102 20.4901 47.1302 18.0001 46.1002C16.2901 45.4002 14.5201 44.8502 12.7501 44.3102C12.1401 43.9402 11.4901 43.5802 10.8101 43.5702C10.7201 43.5902 10.6601 43.6202 10.6001 43.6502C10.0401 43.4802 9.48008 43.3102 8.92008 43.1302C7.77008 42.8102 6.67008 42.3602 5.53008 42.0502C3.82008 42.1202 7.12008 44.6202 7.45008 45.0802C12.1201 48.7602 15.8701 53.5702 19.9401 57.8202C20.2201 58.0802 20.5201 58.3302 20.8101 58.5802C19.2101 57.7302 17.8501 56.5202 16.2901 55.6202C12.8701 53.9102 9.67008 51.7602 6.08008 50.3902C5.40008 50.2702 5.57008 50.9002 6.06008 51.1202C6.98008 51.6702 7.66008 52.3402 8.37008 53.1002C9.63008 54.2302 11.2101 55.2002 12.5501 56.1802C14.0101 57.1202 15.2001 58.4002 16.5401 59.4802C18.4201 60.7002 20.1201 62.1702 21.7801 63.6702C22.3201 64.1902 22.7801 64.7702 23.2301 65.3602C21.9901 68.0702 21.9701 71.1002 21.1401 73.9102C18.9301 78.6102 16.9901 83.6502 13.1401 87.2602C11.5701 88.9102 10.0201 90.5802 8.36008 92.1302C8.26008 92.1902 8.16008 92.2602 8.06008 92.3102C7.86008 92.4102 7.67008 92.6102 7.60008 92.8402C6.73008 93.6302 7.69008 94.4002 8.50008 93.9202C8.55008 93.8902 8.61008 93.8502 8.66008 93.8002C10.0701 92.8402 11.5101 91.8602 12.8501 90.7902C14.1701 90.0302 15.5001 89.2902 16.8401 88.5802C18.4401 87.7202 20.0401 86.8602 21.6001 85.9302C22.0401 85.6702 22.4801 85.4002 22.9101 85.1202C24.9601 83.7302 26.8001 82.0602 28.4801 80.2602C30.0601 78.3302 31.2801 76.1302 32.6601 74.0602C33.2701 72.8202 31.4401 72.5602 30.8801 73.4402C29.7801 74.9102 29.0901 76.4002 27.9701 77.8002C26.7301 79.1602 25.2701 80.3002 24.0001 81.6402C22.1501 83.5002 20.4101 85.4302 18.0801 86.7302C17.3401 87.1502 16.5901 87.5502 15.8401 87.9302C16.9701 86.6002 17.8801 85.1002 18.4101 83.3302C19.4301 80.8402 20.8801 78.6202 21.6901 76.0702C22.3401 73.7102 22.3701 71.3202 23.1501 69.0102C23.4001 68.0802 23.6701 67.1902 23.9601 66.3002C24.4501 66.9102 24.9601 67.4902 25.5901 67.9802C27.5201 69.4302 29.8801 70.1202 31.5701 71.8902C32.5701 73.0302 33.7701 73.9002 35.1401 74.5402C36.2101 75.1302 37.1401 75.9502 38.2901 76.3802C39.3701 76.8702 40.6301 76.9802 41.7701 77.1402C43.2301 77.3302 44.6501 77.8802 46.1301 77.8802C47.4201 77.9102 48.4301 76.9802 49.4501 76.3502C49.5401 76.2902 49.6401 76.2502 49.7301 76.2002C50.4201 76.1202 51.0901 75.9802 51.6301 75.6602C51.8401 75.5302 52.0301 75.3802 52.1901 75.2002C52.7201 75.8002 53.2501 76.3902 53.7701 77.0002C55.1901 78.7202 56.7301 80.4302 58.7801 81.3902C62.2401 83.1602 66.0201 84.8702 69.9001 85.5602C70.4401 86.6902 70.9301 87.8602 71.6801 88.8702C73.1301 90.4702 73.9901 92.4302 75.2601 94.1402C75.9301 94.8002 76.9201 96.3002 78.0201 97.7802C78.1701 98.1302 78.3201 98.4802 78.4701 98.8402C79.5401 101.3 80.9701 103.55 82.5801 105.68C81.2201 105.05 79.8001 104.51 78.4101 103.92C77.0401 103.27 75.6101 102.81 74.1501 102.48C71.2401 98.6702 68.2201 94.9502 64.8101 91.5702C62.7701 89.6202 60.2701 88.2502 57.9401 86.7102C56.9301 86.0802 55.8501 85.4802 54.7201 85.0702C54.7201 85.0102 54.7501 84.9602 54.7301 84.8902C54.5401 84.2102 53.7101 84.0102 53.0901 84.1202C51.5201 84.2102 49.7801 84.3102 48.1901 84.5902C46.0101 84.6802 43.8001 84.8602 41.6901 85.1102C36.9601 85.1202 33.1101 87.9602 29.3401 90.4702C26.1201 92.7402 23.0701 95.2502 19.8301 97.5002C18.1801 98.6302 16.5001 99.2702 14.8101 100.24C13.3501 101.16 11.8601 102.04 10.1701 102.44C7.77008 103.15 5.46008 104.02 3.08008 104.73C2.42008 105 1.63008 105.07 1.14008 105.64C0.780079 106.06 1.02008 106.63 1.45008 106.88C2.06008 107.23 2.79008 107.01 3.43008 106.86C5.70008 106.29 7.87008 105.37 10.2301 105.19C15.2201 104.23 20.6701 104.99 25.2601 102.47C25.6201 102.19 25.9901 101.92 26.3701 101.65C25.4601 102.38 24.5501 103.11 23.8101 104.01C22.9001 105.17 22.1701 106.54 21.1901 107.62C19.8301 109.03 18.1101 109.97 16.5801 111.16C15.3901 112.07 14.2601 113.21 12.7401 113.54C11.6201 113.71 10.4901 113.94 9.37008 114.11C8.54008 114.13 7.71008 114.12 6.89008 114.13C6.73008 114.15 6.64008 114.24 6.58008 114.34C6.15008 114.34 5.71008 114.39 5.93008 114.88C7.20008 115.32 8.67008 114.98 10.0101 114.75C11.7701 114.56 13.5201 114.19 15.2701 113.91C16.8701 113.58 18.2901 112.74 19.8701 112.35C22.5201 111.61 24.9701 110.31 27.6201 109.54C27.6401 109.54 27.6601 109.52 27.6801 109.51C27.7701 109.46 27.8401 109.37 27.7901 109.26C27.7301 109.13 27.5501 109.1 27.4301 109.14C25.3001 109.91 23.1101 110.48 20.9401 111.11C19.6701 111.59 18.4001 112.07 17.1101 112.52C17.6101 112.24 18.1101 111.96 18.5801 111.62C23.6401 107.87 27.2801 102.62 31.1701 97.7502C33.1901 95.2802 35.9201 93.6102 37.8801 91.1202C40.6301 87.8102 43.1201 86.6202 46.5901 86.3402C44.5101 87.7502 42.8401 89.9102 41.1801 91.7002C40.4401 92.5402 39.6801 93.3602 38.9301 94.1802C38.7401 94.3902 38.7901 94.6602 39.0301 94.8002C39.2401 94.9202 39.5201 94.9102 39.7301 94.7902C39.7701 94.7702 39.8101 94.7402 39.8401 94.7002C42.5101 92.1902 44.9801 89.4102 48.0101 87.3202C48.1901 87.1802 48.3901 87.0802 48.5901 86.9602C48.9301 86.7702 49.2601 86.5702 49.4901 86.2802C49.5201 86.2802 49.5501 86.2802 49.5801 86.2802C49.5601 86.3802 49.5801 86.4802 49.6201 86.5902C46.1201 90.9302 42.8101 95.4402 38.9001 99.4402C36.8501 101.47 34.5901 103.24 32.4001 105.1C32.2201 104.93 31.9201 104.92 31.7101 105.04C31.5001 105.16 31.4201 105.4 31.6001 105.58C31.6401 105.62 31.7001 105.62 31.7501 105.65C31.6401 105.75 31.5301 105.84 31.4201 105.93C30.6101 106.65 31.8301 107.35 32.5101 106.94C32.5501 106.91 32.5901 106.89 32.6301 106.85C35.4001 104.39 38.7901 102.83 41.6901 100.57C45.5901 97.4802 48.1901 93.1202 50.7801 89.0002C50.9601 88.7602 51.1501 88.5202 51.3401 88.2902C53.7601 90.5202 51.9601 94.2002 51.2001 96.9202C50.2301 99.3802 48.0101 100.87 46.2201 102.68C45.0701 103.85 44.0401 105.14 42.8201 106.24C36.1301 111.2 27.7501 112.44 19.7001 113.3C18.0601 113.53 16.5001 114.09 14.9001 114.52C11.7801 115.27 8.71008 115.43 5.57008 115.61C5.39008 115.39 4.99008 115.39 4.80008 115.59C4.20008 116.64 6.11008 116.6 6.73008 116.65C9.16008 116.79 11.6001 117.01 14.0301 117.03C19.6201 116.68 25.3401 115.4 30.5901 113.6C32.4101 113.17 34.2801 113.05 36.1201 112.74C37.3001 112.52 38.4201 112.12 39.5001 111.62C40.2901 113.31 44.8501 115.52 46.0501 115.89C49.2301 116.61 53.2001 117.14 56.1101 115.41C56.5901 115.12 57.0401 114.78 57.4601 114.35C59.0601 113.01 60.5501 111.49 61.2001 109.46C61.5801 108.37 63.1301 105.62 63.3701 103.75C66.3301 103.55 69.2601 103.7 72.1701 104.03C73.6501 105.57 75.0901 107.15 76.5401 108.71C78.7801 111.21 81.2901 113.57 84.3101 115.1C85.2901 115.5 87.2401 116.73 89.0101 117.42C93.4701 126.89 97.0001 136.82 102.45 145.81C102.58 146.03 102.71 146.25 102.84 146.47C101.96 145.58 101.09 144.68 100.21 143.77C96.2001 140.09 92.2201 136.19 88.0401 132.76C87.1901 132.17 86.2601 131.73 85.2701 131.43C85.1901 131.41 85.1201 131.41 85.0401 131.4C83.1401 129.92 79.3101 128.5 78.3801 127.94C76.2301 126.86 73.8901 126.23 71.4901 126.03C68.6701 125.8 66.1901 124.3 63.4301 123.79C60.4201 123.34 57.3901 122.56 54.3301 122.72C51.0801 122.97 47.8001 123.38 44.5801 123.48C42.0701 123.41 39.5901 122.98 37.0801 123.37C34.5101 123.42 31.9401 123.54 29.4101 123.99C26.2001 124.14 23.0501 124.61 19.9301 125.37C18.9201 125.75 19.2701 127.24 20.0901 127.66C20.6001 127.95 21.2101 127.99 21.7801 128.07C26.1901 128.39 30.4801 129.17 34.8001 130.08C36.5001 130.56 38.0301 131.48 39.7401 131.94C40.5101 132.16 41.3001 132.29 42.0801 132.4C40.9001 132.43 39.7101 132.53 38.5601 132.78C36.9901 133.47 35.4301 133.61 33.8201 134.07C32.8201 134.27 33.1401 135.18 33.9201 135.47C35.9401 136.3 38.1701 136.8 40.2001 137.57C42.3801 138.33 44.4601 139.34 46.6401 140.13C49.3501 141.13 52.3201 141.55 55.0601 142.37C61.2001 144.67 67.9701 146.37 74.5201 144.92C78.6201 144.19 81.9101 141.09 85.9701 140.28C87.1401 140 88.0901 139.8 89.2301 139.88C89.4201 139.89 89.6301 139.85 89.8001 139.75C89.9301 139.67 90.0201 139.55 90.0601 139.4C90.8201 139.49 91.5601 139.62 92.2301 139.76C92.4101 139.81 92.5901 139.83 92.7701 139.81C97.7901 144.51 101.88 150.28 107.91 153.75C108 153.79 108.12 153.84 108.24 153.9C108.73 154.57 109.21 155.24 109.66 155.94C111.97 159.73 114.49 163.38 117.27 166.86C119.78 170.17 122.03 173.65 124.14 177.21C123.43 176.77 122.71 176.33 121.96 175.91C120.36 174.86 118.5 174.17 117 172.99C114.84 170.66 113.35 167.63 110.58 165.95C110.24 165.5 109.91 165.06 109.55 164.62C102.69 156.5 93.0601 151.47 84.9901 144.75C82.1901 142.87 80.5001 145.99 82.2401 148.21C84.7401 151.45 86.8501 154.93 88.6501 158.59C87.7901 158.39 86.9201 158.22 86.0401 158.07C84.4301 157.54 82.7401 157.24 81.0601 156.9C79.8601 156.46 78.7001 155.91 77.5701 155.25C74.4401 153.05 70.8801 151.81 67.2001 150.88C63.9301 150.02 60.8501 148.51 57.5101 147.89C54.4301 147.34 51.3001 148.05 48.2101 147.83C46.7201 147.7 45.2801 147.31 43.8001 147.17C40.9401 147 38.3401 147.65 35.5601 147.5C34.1001 147.37 32.5001 147.74 33.4001 149.57C33.9101 150.4 34.8701 150.76 35.7301 151.11C37.5801 151.83 39.5401 152.22 41.5001 152.57C40.5701 152.76 39.6301 152.93 38.6801 152.98C36.9001 153.1 35.1001 153.06 33.3301 153.35C31.8701 153.35 31.9301 154.76 33.0101 155.41C35.8101 156.78 38.6201 158.21 41.6001 159.17C43.8301 159.78 46.1801 159.61 48.4201 160.2C51.6101 160.98 54.3001 162.96 57.3301 164.14C62.4901 166.37 68.1601 167.79 73.7301 166.32C77.0001 165.52 80.2401 164.63 83.5301 163.92C85.2501 163.29 86.7901 162.16 88.6801 162.06C89.1701 162 89.7901 161.98 90.2901 161.79C92.9701 166.93 95.4201 172.04 98.6301 176.88C100.7 180.24 103.72 182.77 106.36 185.65C108.6 188.49 111.57 190.7 114.78 192.33C116.48 193.33 118.17 194.46 120.14 194.87C120.89 195.09 121.69 195.18 122.45 195.37C123.9 197.63 127.26 200.21 128.17 201.48C128.58 201.92 129 202.36 129.41 202.81C128.05 202.19 126.68 201.56 125.32 200.94C121.77 199.34 118.13 198.46 114.84 196.44C113.9 196 110.93 193.35 108.59 192.03C108.31 191.61 107.86 191.3 107.36 191.22C104.91 187.19 101.76 183.4 97.8401 180.72C96.2201 179.76 94.4601 179.05 92.8301 178.11C87.8901 175.06 82.2101 173.17 76.3501 173.71C73.0301 174.1 69.8701 173.05 66.6801 172.31C62.0001 171.36 57.1501 172.42 52.4601 172.05C50.9001 171.94 49.2501 171.34 47.7101 171.73C46.5701 172.9 48.5001 174.51 49.4201 175.19C53.4301 177.75 57.5401 180.18 61.5601 182.75C64.3401 184.38 67.3601 185.58 70.1301 187.22C74.4301 189.4 77.8601 192.99 82.3801 194.72C86.1501 195.79 90.2201 195.78 94.1001 195.88C97.9601 196.25 101.81 196.21 105.51 194.9C106.09 194.71 106.79 194.6 107.42 194.4C107.73 194.56 108.02 194.71 108.26 194.87C112.66 197.72 117.63 199.38 122.33 201.65C124.87 202.83 127.43 203.98 129.88 205.35C131.02 205.95 132.19 206.51 133.42 206.89C134.51 207.89 135.65 208.83 136.86 209.68C136.99 210.15 137.29 210.62 137.81 211.02C139.44 212.47 141.53 213.23 143.57 213.73C145.97 214.09 147.9 215.62 149.77 217C152.56 221.54 155.4 226.04 158.63 230.23C163.88 236.97 168.88 243.93 172.35 251.72C170.15 250.61 167.58 250.2 165.12 250.65C164.87 250.71 164.57 250.78 164.35 250.94C162.92 251.04 161.49 250.98 160.2 250.6C157.03 249.59 153.86 248.13 151.33 245.92C150.75 245.53 150.21 244.54 149.56 244.06C152.75 243.06 151.44 238.65 150.87 236.26C150.19 232.71 148.79 229.39 147.4 226.07C146.6 224.04 146.19 221.84 145 219.99C144 218.1 136.79 210.11 135.25 213.97C134.83 216.01 134.83 218 134.32 219.99C133.88 221.39 133.77 222.85 133.94 224.31C134.76 230.16 140.05 242.98 145.67 245.37C146.45 245.72 147.56 246.15 148.44 245.93C149.15 247.11 150.55 248.35 151.08 248.95C155.05 252.61 161.44 255.07 166.8 253.6C169.9 253.91 172.91 255.21 174.88 257.68C176.43 261.28 178.04 264.87 179.61 268.46C179.46 268.34 179.32 268.21 179.17 268.09C177.63 267.02 175.73 266.68 174 266C173.59 265.86 173.17 265.63 172.74 265.64C170.84 264.65 168.95 263.64 167.06 262.58C163.17 260.76 159.61 258.35 155.75 256.48C153.6 255.27 151.31 254.66 149.19 253.5C144.2 250.67 139.76 246.85 135.82 242.72C133.17 239.03 131.59 234.63 128.31 231.38C127.78 230.94 127.08 230.03 126.34 229.43C126.5 229.23 126.61 228.98 126.67 228.7C126.9 224.6 125.12 220.73 123.42 217.1C122.61 215.27 121.73 213.46 120.57 211.82C116.82 205.99 112.57 200.78 105.47 199.22C102.4 198.29 99.1801 198.61 99.9901 202.68C100.36 204.84 101.09 206.92 101.7 209.01C103.51 213.67 106.83 217.62 110.22 221.23C113.32 224.35 116.3 227.71 120.44 229.45C121.48 229.94 122.91 230.52 124.04 230.12C124.06 230.55 124.21 230.98 124.46 231.29C129.13 236.2 132.6 242.08 137.36 246.91C137.87 247.51 138.38 248.13 138.89 248.74C138.38 248.55 137.86 248.38 137.36 248.21C134.99 247.68 132.61 247.21 130.34 246.31C128.63 245.63 127.1 244.63 125.64 243.52C122.59 241.46 119.11 240.18 115.86 238.46C114.6 237.72 113.35 236.95 112.11 236.18C112.01 236.08 111.9 235.99 111.76 235.95C111.74 235.95 111.72 235.95 111.71 235.94C111.52 235.82 111.33 235.71 111.14 235.59C111.12 235.58 111.1 235.58 111.08 235.56C111.21 233.94 110.47 232.38 109.88 230.9C109.39 229.72 109.3 228.56 108.84 227.41C107.88 225.06 106.26 223.08 104.55 221.23C100.41 215.11 97.1001 212.39 90.1301 209.91C85.2801 207.65 79.8601 208 74.7701 206.7C69.2801 205.54 64.2801 202.99 58.9301 201.44C58.1601 201.34 58.3801 202.13 58.9501 202.35C60.9801 203.81 62.4701 205.79 64.5101 207.23C65.8801 208.34 67.1201 209.6 68.3801 210.83C66.0401 209.82 63.4201 208.95 62.8701 208.68C60.0801 207.7 57.2101 206.98 54.4401 205.94C53.9601 205.67 53.4201 206.09 53.5001 206.63C53.6501 207.54 54.3801 208.23 55.0201 208.85C56.5701 210.31 58.5301 211.21 60.1901 212.39C63.0101 214.8 65.6801 217.27 68.7301 219.38C73.0601 222 77.0601 225.05 81.2801 227.82C83.5701 229.42 85.6601 231.36 88.2601 232.44C89.9601 233.01 91.6201 233.28 93.2401 233.93C95.7901 235.24 98.5701 235.9 101.4 236.19C102.66 236.42 103.93 236.62 105.15 237.02C106.19 237.51 107.35 237.6 108.47 237.77C108.93 237.85 109.45 237.83 109.8 237.62C109.8 237.62 109.82 237.6 109.83 237.59C109.96 237.77 110.11 237.93 110.29 238.04C112.91 240.14 115.94 241.45 119.16 242.35C121.95 243.5 124.27 245.5 126.89 246.95C129.24 248.15 131.93 248.23 134.46 248.82C136.24 249.28 137.96 249.94 139.65 250.68C138.13 250.74 136.59 251.08 135.09 251.71C132.46 252.39 129.69 252.37 127.05 251.97C124.58 251.65 122.1 251.9 119.62 251.7C117.97 251.53 116.42 250.92 114.85 250.44C113.37 249.96 111.88 249.49 110.45 248.86C110.03 247.26 108.51 245.94 107.44 244.94C105.99 243.31 104.26 242.03 102.29 241.09C99.7601 239.75 97.3801 238.11 94.6901 237.07C92.3401 236.17 89.9301 235.46 87.6401 234.41C84.1901 232.86 80.3401 234.27 76.7901 233.23C74.7301 232.63 72.6001 232.93 70.4901 232.94C68.8401 232.79 67.2201 232.37 65.6001 232.04C64.6901 231.78 58.5901 230.85 59.0201 232.27C59.2701 233.17 60.2201 233.65 60.8701 234.24C61.7801 234.96 62.5601 235.87 63.3901 236.58C65.4801 238.49 68.4301 239.37 70.7701 240.82C73.1101 242.17 75.4701 243.52 77.8901 244.72C78.9901 245.01 80.0001 245.4 80.9801 245.86C80.1601 245.77 79.3501 245.68 78.5601 245.49C72.9501 243.3 67.3301 241.06 61.9501 238.35C58.8101 237.67 55.4801 238.08 52.4601 236.79C50.5201 236.23 49.1601 237.44 50.6201 239.17C52.0301 240.48 53.9201 241.18 55.5301 242.05C58.7201 243.56 62.0601 244.74 65.1601 246.44C68.0801 248.01 70.6301 250.04 73.6701 251.35C76.5001 252.35 79.1201 253.76 81.7801 255.12C84.1901 256.27 86.8901 256.72 89.4401 257.2C95.1301 258.7 102.55 261.08 107.86 257.92C108.74 257.4 109.56 256.72 110.31 255.86C111.19 255.01 112.21 254.25 112.94 253.29C118.13 255.74 120.48 255.72 127.6 254.33C130.12 254.31 132.63 254.32 135.13 253.98C137.5 253.72 139.49 252.67 141.85 252.94C142.15 252.98 142.44 253.05 142.73 253.12C144.91 255.37 147.31 257.35 150.21 258.57C153.34 259.67 156.64 260.36 159.62 261.86C163.2 264.25 166.54 266.55 170.42 268.38C172.17 269.24 174.04 269.79 175.91 270.35C178.47 271.6 180.75 273.46 182.66 275.64C182.68 275.68 182.69 275.71 182.71 275.75C182.26 275.65 181.81 275.57 181.37 275.5C180.82 275.37 180.26 275.25 179.69 275.13C178.81 274.96 177.93 274.81 177.04 274.67C176.61 274.51 176.18 274.34 175.76 274.14C173.38 273.04 171.01 271.81 168.34 271.6C165.74 271.21 163.14 271.85 160.53 271.8C160.07 271.78 159.62 271.72 159.16 271.68C159.05 271.66 158.94 271.65 158.83 271.65C158.52 271.62 158.21 271.6 157.91 271.57C153.98 270.75 150.09 269.68 146.13 269.01C142.35 268.38 138.5 268.49 134.7 268.1C127.52 267.52 120.36 268.76 113.26 269.11C111.34 269.11 109.42 269.01 107.5 269.03C105.72 269.08 99.2201 267.9 99.3801 270.53C100.1 272.93 106.12 271.86 108.35 272.73C114.09 273.97 119.09 277.33 124.72 279.13C127.68 280.91 130.97 281.94 134.29 282.81C135.93 283.3 137.57 283.83 139.22 284.32C137.8 284.93 136.48 285.95 135.33 286.87C132.45 288.76 129.65 290.47 127.52 293.26C125.73 295 123.97 296.8 122.28 298.62C120.44 300.04 118.64 301.69 117.37 303.65C117.53 305.44 121.1 303.41 122.13 303.3C125.25 302.74 128.38 302.28 131.4 301.25C135.37 300.11 139.48 299.68 143.48 298.75C146.89 297.16 150.23 295.32 153.53 293.48C156.47 291.47 157.96 288.07 160.1 285.32C162.14 282.45 164.12 279.56 166.12 276.7C166.22 276.61 166.33 276.54 166.44 276.46C166.67 276.34 166.9 276.23 167.14 276.13C168.48 275.82 169.85 276.18 171.21 276.11C174.06 276.86 176.85 277.86 179.84 277.81C179.86 277.81 179.87 277.81 179.89 277.82C181.95 278.14 183.7 279.51 184.88 281.15C185.54 282.89 186.18 284.63 186.78 286.39C189.24 294.9 190.42 303.72 192.92 312.22C194.18 316.55 195.93 320.75 196.85 325.18C197.79 330.41 197.26 335.75 196.91 341.02C196.67 345.25 197.12 349.48 196.9 353.71C196.57 356.92 196.25 360.13 195.7 363.32C194.84 366.77 194.64 370.46 193.54 373.78L193.63 373.83ZM141.71 285.02C142.28 285.17 142.86 285.31 143.43 285.44C141.37 286.96 139.49 288.73 137.34 290.13C136.42 290.76 135.59 291.49 134.74 292.19C134.25 292.6 135.08 293.23 135.52 292.97C135.54 292.96 135.56 292.95 135.57 292.94C137.22 291.69 138.71 290.24 140.36 289C141.84 287.89 143.44 286.88 144.9 285.73C145.21 285.79 145.5 285.86 145.81 285.91C146.38 286.07 146.94 286.17 147.49 286.23C147.3 286.38 147.12 286.51 146.98 286.6C146.37 287.16 147.42 287.92 147.98 287.59C148 287.58 148.02 287.57 148.04 287.55C148.7 287.11 149.39 286.69 150.04 286.24C150.06 286.22 150.07 286.2 150.08 286.19C152.08 285.9 153.99 285.08 155.81 284.05C155.42 284.42 155.03 284.78 154.64 285.15C153.79 285.87 152.82 286.39 151.84 286.92C151.29 287.21 150.75 287.5 150.22 287.83C148.29 289.08 146.41 290.67 144.1 291.12C142.71 291.42 141.31 291.69 139.92 291.97C139.62 292.03 139.42 292.31 139.54 292.61C139.68 292.97 140.11 293.16 140.48 293.09C141.76 292.86 143.05 292.64 144.33 292.36C148.12 291.66 151.14 289.24 154.05 286.87C156.37 284.88 159.02 283.35 161.39 281.44C159.94 283.62 158 285.26 156.18 287.03C154.82 288.5 153.63 290.12 152.16 291.49C149.44 293.69 146.35 295.63 143.17 296.91C140.37 297.83 137.77 298.6 135.04 299.58C133.29 300.06 131.54 299.88 129.78 300.21C127.72 300.66 125.59 300.93 123.52 301.41C124.38 300.91 125.24 300.38 126.09 299.85C127.5 298.97 128.91 298.09 130.39 297.33C132.78 296.34 135.29 296.38 137.81 296.5C137.99 296.5 138.18 296.46 138.33 296.37C138.51 296.27 138.63 296.09 138.63 295.85C138.62 295.31 138.04 294.98 137.56 294.94C133.02 294.11 129.23 296.52 125.44 298.64C125 298.87 124.56 299.09 124.12 299.32C124.78 298.79 125.38 298.19 125.84 297.41C127.07 295.31 129.15 294.09 130.77 292.36C132.66 289.77 135.24 287.97 138.07 286.58C139.18 285.82 140.4 285.15 141.72 285.03L141.71 285.02ZM162.79 275.42C161.32 276.09 159.84 276.73 158.23 277.03C152.34 277.05 146.43 276.23 140.58 275.52C136.12 274.7 131.88 273.02 127.52 271.82C126.01 271.4 125.51 273.11 126.96 273.69C129.43 274.61 131.91 275.55 134.48 276.14C137.67 276.92 141 276.61 144.21 277.32C149.44 278.46 155.08 279.54 160.34 278.05C158.11 280.2 155.27 281.52 152.36 282.49C149.22 283.93 145.67 283.84 142.32 283.54C139.38 283.27 136.68 282.03 134 280.86C131.79 279.93 129.49 279.17 127.42 277.92C124.67 276.23 121.36 275.97 118.39 274.8C114.38 273.65 110.58 272 106.65 270.63C106.84 270.64 107.03 270.67 107.21 270.69C108.85 271.08 110.49 271.44 112.12 271.87C114.84 272.44 117.54 273.12 120.22 273.84C120.37 273.88 120.56 273.87 120.7 273.79C120.77 273.75 120.82 273.7 120.85 273.62C120.97 273.32 120.66 273.02 120.39 272.95C119.23 272.66 118.08 272.36 116.92 272.07C116.2 271.9 115.48 271.69 114.77 271.48C114.82 271.48 114.88 271.48 114.93 271.48C120.78 271.01 126.63 269.24 132.46 270.8C136.4 271.65 140.44 272.01 144.39 272.86C148.31 273.62 152.05 275.4 156.09 275.43C156.4 275.43 156.71 275.36 157.01 275.28C157.62 275.38 158.23 275.47 158.84 275.49C160.15 275.56 161.46 275.49 162.77 275.42H162.79ZM85.3001 248.32C85.9001 248.71 86.5001 249.11 87.1101 249.51C90.5901 251.12 94.5401 251.27 97.9901 253.02C100.07 253.82 102.3 253.79 104.49 253.74C105.57 253.74 106.73 253.84 107.84 253.77C106.69 254.3 105.49 254.66 104.26 254.74C101.83 254.99 99.5301 254.21 97.2001 253.73C95.6101 253.45 94.0001 253.35 92.4001 253.15C91.4901 253.24 89.4201 251.94 89.2701 253.36C89.2501 253.85 89.5901 254.43 90.0701 254.56C93.0001 255.46 96.0401 255.79 99.0801 256.12C101.96 256.61 104.88 255.89 107.68 255.25C104.86 257.67 101.12 256.72 97.7501 256.65C93.5901 257.02 89.5501 256.06 85.6901 254.57C82.8601 253.38 80.5601 251.29 77.8901 249.82C75.7601 248.71 73.4001 248.16 71.1601 247.31C69.6701 246.7 68.3401 245.78 66.8101 245.26C63.0101 243.98 59.3301 242.47 56.1301 240.02C57.2701 240.07 58.3301 240.24 59.3601 240.47C59.3601 240.79 59.5701 241.1 59.8701 241.21C60.7901 241.55 61.7501 241.68 62.6701 242C65.5501 243.01 68.1601 244.58 70.9601 245.78C71.0801 245.83 71.1901 245.83 71.2801 245.78C71.3501 245.74 71.4001 245.67 71.4201 245.57C71.4601 245.34 71.3201 245.08 71.1101 244.98C70.1101 244.53 69.1101 244.05 68.1201 243.57C70.0601 244.03 72.0401 244.35 73.9001 244.98C75.4701 245.62 76.9001 246.58 78.4901 247.17C79.7101 247.55 81.0101 247.56 82.2801 247.67C83.3201 247.74 84.3101 248.1 85.3101 248.31L85.3001 248.32ZM99.8101 241.85C99.0801 241.74 98.4001 241.67 98.0501 241.61C97.5301 241.67 96.3001 241.09 96.3001 241.93C96.3201 242.17 96.5001 242.42 96.7501 242.5C96.8601 242.74 97.0301 242.96 97.2901 243C98.2101 243.15 99.1301 243.31 100.04 243.5C100.24 243.55 100.43 243.61 100.63 243.67C100.73 243.77 100.84 243.85 100.96 243.89C102.24 244.26 103.45 244.55 104.66 244.87C106.2 246.01 107.54 247.45 108.86 248.83C105.91 248.28 103.43 246.85 100.68 245.77C98.7801 245.06 96.7601 244.81 94.8601 244.13C93.5801 243.69 92.6001 243.24 91.4201 242.71C91.2301 242.62 91.0101 242.58 90.8101 242.66C90.7801 242.67 90.7501 242.69 90.7201 242.71C90.0201 243.13 90.4301 244.27 91.0801 244.57C96.5601 248.03 102.98 247.81 108.75 250.47C108.75 250.5 108.77 250.53 108.78 250.56C106.58 251.4 104.14 250.6 101.84 250.87C98.3901 251.03 95.2001 249.54 91.8801 248.83C88.2801 248.45 85.1601 246.57 81.8201 245.39C78.8001 244.33 76.4301 242.1 73.5001 240.86C71.7501 240.06 70.3001 239.08 68.7001 238.06C65.7401 236.44 62.3301 235.58 60.2201 232.76C60.4601 232.76 60.7101 232.76 60.9501 232.76C61.2601 233.7 62.7601 233.79 63.5901 234.09C66.7601 234.96 69.8901 235.96 72.9801 237.06C75.1601 237.89 77.1601 238.78 79.2101 239.85C80.5701 240.57 81.9401 241.27 83.3101 241.98C83.5701 242.12 83.8701 242.1 84.0901 241.98C84.2301 241.89 84.3501 241.76 84.4101 241.58C84.7701 240.38 83.4501 239.83 82.6001 239.37C79.6501 237.49 76.1201 236.91 72.9001 235.68C70.3801 234.58 67.8101 233.61 65.1701 232.85C65.9301 232.9 66.6901 232.97 67.4301 233.12C69.1301 233.57 70.6101 234.53 72.3601 234.72C73.5801 234.89 74.8201 234.89 76.0501 235.07C79.4301 235.7 82.8701 235.99 86.2401 236.67C89.1501 237.81 92.3201 237.99 95.2301 239.01C96.8901 239.72 98.3301 240.81 99.8001 241.86L99.8101 241.85ZM72.0601 214.03C72.1401 214.09 72.2101 214.16 72.2901 214.22C75.9401 216.83 79.2101 219.96 82.5101 222.96C84.1301 224.38 85.7101 225.86 87.3401 227.29C86.4401 226.79 85.5501 226.29 84.6501 225.78C84.4101 225.64 84.1001 225.75 84.0101 226.02C83.9001 226.34 84.0901 226.74 84.3601 226.91C85.5601 227.65 86.7801 228.38 88.0201 229.08C88.2101 229.19 88.3901 229.28 88.5801 229.39C88.3701 229.3 88.1601 229.23 87.9601 229.13C86.3601 228.11 84.7101 227.09 83.0401 226.2C80.0001 224.34 76.4701 223.21 73.6201 221.08C71.1601 219.31 68.9501 217.22 66.7901 215.11C64.1801 212.96 61.1501 211.38 58.4101 209.41C58.5301 209.46 58.6601 209.51 58.7801 209.58C61.8501 211.04 64.7301 212.96 67.3601 215.1C68.1101 215.54 71.5001 219.16 72.3301 218.66C72.3801 218.63 72.4301 218.58 72.4601 218.51C72.6301 218.18 72.4601 217.74 72.1901 217.51C71.0001 216.49 69.7601 215.53 68.5401 214.55C67.1201 213.41 65.7601 212.2 64.3201 211.09C65.1401 211.41 65.9601 211.72 66.8101 211.98C68.5701 212.57 70.1801 213.7 71.9501 214.16C72.0001 214.13 72.0201 214.09 72.0601 214.05V214.03ZM108.19 230.97C108.46 231.65 108.69 232.28 108.88 232.92C108.79 232.78 108.69 232.64 108.62 232.51C106.3 229.31 103.98 226.1 101.02 223.45C97.4401 219.54 93.5601 215.82 88.5201 213.88C87.5301 213.52 87.5401 214.94 88.2701 215.25C91.2201 216.68 93.6301 218.91 96.1901 220.92C99.5401 223.2 102.21 226.19 104.55 229.46C105.19 230.33 105.82 231.16 106.41 232C106.36 231.95 106.29 231.9 106.24 231.85C104.66 230.56 103.14 229.2 101.64 227.82C100.42 226.64 99.1901 225.46 97.9601 224.28C97.5401 223.88 96.8301 223.61 96.4101 224.16C96.0001 224.68 96.2401 225.52 96.6801 225.95C98.5901 227.82 100.52 229.67 102.45 231.52C103.91 232.94 105.64 234.46 107.27 235.68C106.71 235.72 106.16 235.76 105.61 235.74C105.49 235.71 105.37 235.7 105.26 235.65C102.54 234.74 100.5 232.68 97.8701 231.55C97.4201 231.24 96.9401 230.96 96.4601 230.69C95.3701 229.62 94.2801 228.51 93.3101 227.34C91.3701 224.81 89.2101 222.46 87.3601 219.87C87.2001 219.66 86.8601 219.49 86.6301 219.7C86.3901 219.91 86.5001 220.28 86.6501 220.51C87.5901 221.89 88.6001 223.22 89.5601 224.58C89.8301 225.06 91.1001 226.83 92.5501 228.61C92.0901 228.35 91.6401 228.09 91.2001 227.79C88.8501 226.2 87.3601 224.22 85.3601 222.36C82.3001 219.96 79.1101 217.92 75.9101 215.8C73.9701 214.27 72.3001 212.54 70.4901 210.89C68.1501 208.73 65.5901 206.84 63.2501 204.67C63.2601 204.67 63.2701 204.67 63.2801 204.67C63.9401 204.98 64.5901 205.32 65.2401 205.64C68.4401 207.27 71.5401 209.11 74.5901 210.98C75.4301 211.45 81.3901 215.58 82.5201 214.91C82.6301 214.85 82.6901 214.74 82.7001 214.58C82.7801 214.13 82.5001 213.67 82.1101 213.46C80.3401 212.48 78.3601 211.54 76.5501 210.76C74.5001 209.7 72.6701 208.29 70.7601 206.99C71.6101 207.17 72.4501 207.32 73.3001 207.47C75.0301 207.9 76.6001 208.78 78.2701 209.39C81.8401 210.61 85.5501 211.29 89.2701 211.85C92.0201 212.61 94.4901 214.09 96.7401 215.78C100.08 217.83 102.95 220.52 105.18 223.73C106.68 225.94 107.67 228.35 108.17 230.96L108.19 230.97ZM124.63 226.04C122.76 222.03 119.21 219.31 115.98 216.44C115.29 215.99 113.73 213.63 112.89 214.12C112.84 214.15 112.79 214.19 112.74 214.24C112.45 214.61 112.64 215.17 112.93 215.48C116.5 219.36 120.71 222.92 122.88 227.84C118.32 226.24 114.29 223.24 111.03 219.76C109.69 218.02 108.58 216.13 107.61 214.17C108.01 214.72 108.42 215.27 108.82 215.82C109.01 216.08 109.42 216.29 109.71 216.11C109.74 216.09 109.76 216.08 109.79 216.05C110.1 215.77 109.98 215.26 109.76 214.97C109.19 214.22 108.62 213.47 108.05 212.72C107.65 212.32 106.52 210.29 105.62 209.66C104.57 207 103.66 204.28 102.73 201.63C102.86 201.63 102.98 201.64 103.11 201.63C107.12 204.92 111.14 208.25 114.28 212.41C114.48 212.67 114.87 212.88 115.16 212.7C115.19 212.68 115.22 212.66 115.25 212.64C115.56 212.37 115.44 211.85 115.22 211.56C114.27 210.31 113.26 209.11 112.26 207.9C110.69 205.86 108.8 204.12 106.87 202.43C108.92 203.32 110.85 204.75 112.65 205.88C113.37 206.41 114.05 206.98 114.71 207.57C116.7 210.21 118.59 212.93 120.28 215.77C121.11 217.17 121.97 218.57 122.81 219.97C122.85 220.04 122.91 220.11 122.98 220.18C123.68 222.08 124.23 224.04 124.63 226V226.04ZM148.72 242.12C146.97 238.57 145.5 234.89 144.39 231.09C143.9 229.38 143.19 227.75 142.49 226.11C142.26 225.57 141.67 225.05 141.05 225.16C140.94 225.18 140.84 225.22 140.76 225.27C140.32 225.53 140.23 226.18 140.39 226.66C141.26 229.36 142.3 232.01 143.64 234.51C145.09 236.94 146.22 239.52 146.91 242.27C147.03 242.7 147.13 243.14 147.28 243.56C145.05 242.65 143.42 240.82 141.98 238.9C141.98 238.78 141.95 238.64 141.89 238.49C140.1 234.98 138.49 231.28 137.06 227.64C136.89 227.23 136.67 226.72 136.27 226.48C136.25 224.69 136.5 222.9 137.05 221.2C137.5 219.22 137.27 217.18 137.2 215.18C137.28 215.21 137.33 215.26 137.41 215.29C137.4 215.41 137.41 215.54 137.44 215.64C138.05 216.98 138.73 218.3 139.34 219.65C139.55 220.14 140.01 220.26 140.29 220.09C140.51 219.96 140.62 219.67 140.44 219.25C140.16 218.85 139.8 217.78 139.38 216.79C139.88 217.33 140.35 217.91 140.84 218.42C142.99 220.44 144.65 222.92 145.9 225.59C145.45 225.61 145.09 226.03 145.31 226.67C146.47 231.19 147.76 235.65 149.55 239.97C149.5 240.87 149.26 241.64 148.72 242.12ZM101.57 186.47C100.23 185.48 98.8601 184.51 97.3801 183.74C95.4101 182.67 93.2001 182.19 91.1201 181.41C88.9501 180.5 86.8101 179.47 84.5201 178.9C81.4001 178.47 78.2701 177.97 75.1201 177.85C74.8501 177.84 74.7501 178.12 74.7901 178.35C75.0201 179.17 76.1501 178.81 76.7901 178.98C80.0901 178.93 83.1001 180.25 86.1301 181.38C88.9301 182.35 91.9501 182.9 94.6201 184.16C96.4301 184.94 98.4501 185.38 100.12 186.41C101.58 187.27 102.8 188.61 103.99 189.7C104.19 189.84 104.55 190.25 104.96 190.71C102.65 190.27 100.34 189.96 98.1801 189.13C93.8801 187.43 89.9801 184.85 85.5601 183.44C84.8701 183.19 84.1901 182.9 83.5101 182.63C83.2101 182.56 82.9701 182.59 82.8001 182.69C82.1301 183.09 82.4001 184.53 83.2601 184.85C86.9601 186.55 90.5401 188.57 94.4501 189.77C96.7801 190.57 99.2001 191.05 101.58 191.66C101.21 191.66 100.84 191.63 100.46 191.63C96.9101 191.91 93.6501 190.64 90.3801 189.48C86.7601 188.64 83.1701 187.88 79.7501 186.41C78.6401 186.12 78.7301 187.83 79.5601 188.11C86.4401 191.2 93.9801 192.78 101.51 192.94C96.7101 193.58 91.9601 192.81 87.2101 191.8C82.8101 191.47 78.8901 189.57 74.9901 187.66C73.0201 186.77 71.0201 185.93 69.1301 184.88C64.6701 182.24 60.6301 178.89 56.1801 176.27C54.2801 175.18 52.2401 174.38 50.3201 173.34C50.6801 173.4 51.0501 173.46 51.4101 173.52C51.6501 173.86 52.0101 174.16 52.3601 174.04C56.9301 176.1 61.8001 177.43 66.1201 180.02C67.6301 180.96 69.1701 181.85 70.6901 182.78C70.9601 182.98 71.3301 183 71.5901 182.84C71.7301 182.76 71.8301 182.63 71.8901 182.45C72.0801 181.9 71.7601 181.27 71.3001 180.97C69.8101 180 68.3301 178.96 66.6501 178.33C63.5501 177 60.3401 175.92 57.2801 174.5C62.8501 175.43 68.4501 176.28 74.0901 176.39C77.0501 176.3 79.6401 176.61 82.4301 177.3C87.2201 178.38 92.0501 179.59 96.4401 181.87C98.3301 183.13 100.03 184.73 101.6 186.44L101.57 186.47ZM46.6801 154.71C48.6501 154.93 50.5901 155.51 52.5901 155.33C54.1901 155.25 55.7501 154.82 57.3301 154.58C59.7601 154.08 62.1901 154.48 64.6001 154.91C67.4901 155.39 70.4401 155.52 73.3001 156.2C76.3001 157.01 79.2901 157.79 82.2901 158.59C79.6801 158.54 77.3001 158.21 74.7401 158.15C72.5901 158.12 70.4601 158.51 68.3101 158.53C66.0901 158.53 63.8801 158.2 61.6701 158.38C61.5301 158.38 61.4101 158.42 61.3001 158.48C60.9901 158.66 60.8501 159.06 60.9401 159.47C61.0501 160.03 61.5201 160.55 62.1101 160.58C64.0501 160.72 65.9901 160.74 67.9401 160.81C72.9501 160.9 77.9901 161.14 82.9701 160.49C79.7101 161.32 76.5901 162.5 73.4101 163.6C67.7701 164.74 62.0401 162.91 56.4901 161.96C53.1801 161.15 50.4701 158.88 47.2501 157.83C44.5601 157.26 41.9201 156.57 39.3401 155.66C43.3201 156.26 47.3201 156.68 51.3401 156.85C52.7601 157.03 54.1901 157.2 55.6101 157.37C55.7101 157.38 55.8001 157.37 55.8801 157.32C56.0201 157.24 56.0901 157.07 56.0801 156.88C56.0601 156.59 55.8301 156.26 55.5201 156.21C54.4901 156.07 53.4601 155.92 52.4201 155.82C50.1801 155.62 47.9501 155.17 45.7001 155.19C43.4001 155.31 41.1601 155.09 38.9201 154.65C41.5001 154.6 44.0901 154.54 46.6701 154.7L46.6801 154.71ZM62.1601 151.74C62.5801 151.81 62.9801 151.91 63.4001 151.99C62.1301 151.86 60.8601 151.71 59.6101 151.42C57.0301 150.98 54.4201 151.29 51.8401 151.56C49.8201 151.71 47.7801 151.39 45.7701 151.68C45.5701 151.72 45.3801 151.76 45.1801 151.8C42.7501 151.49 40.3601 150.95 38.1101 149.95C43.3001 148.75 48.6501 148.89 53.8601 149.63C56.7001 150.06 59.3601 151.2 62.1701 151.74H62.1601ZM41.5801 133.66C43.8501 133.49 46.0301 133.85 48.2301 133.94C50.1901 134.57 52.1501 135.17 54.1401 135.69C56.2601 136.31 58.2401 137.28 60.2801 138.12C62.6801 138.88 65.0501 139.58 67.4901 140.13C68.9601 140.42 70.3801 139.95 71.8301 139.78C74.5201 139.95 77.2001 140.01 79.8801 139.94C78.1501 140.38 76.4301 140.9 74.7101 141.47C72.1101 142.19 69.6501 143.45 66.8801 143.23C60.8201 143.13 55.0101 141.77 49.5901 139.12C46.9701 138.01 44.3001 137.06 41.5001 136.58C40.1701 136.3 38.9301 135.74 37.6701 135.26C41.6701 135.71 45.6201 136.51 49.5701 137.29C49.7001 137.32 49.8601 137.29 49.9801 137.22C50.0801 137.16 50.1601 137.07 50.1701 136.94C50.1901 136.64 49.8901 136.46 49.6401 136.41C45.4201 135.28 41.0701 135.15 36.7801 134.42C38.3401 133.92 39.9101 133.49 41.5701 133.69L41.5801 133.66ZM83.7001 132.58C83.7001 132.64 83.7001 132.7 83.7001 132.76C81.4201 132.02 79.2301 131.06 76.9701 130.28C75.5801 129.87 74.1201 129.81 72.6901 129.7C69.7001 129.29 66.7501 128.71 63.7201 128.83C61.8601 128.8 60.0101 128.57 58.1601 128.4C57.9801 128.38 57.8201 128.43 57.6901 128.51C57.3301 128.72 57.1501 129.22 57.1801 129.64C57.3001 131.38 59.2401 131.42 60.5601 131.7C64.5201 132.55 68.5501 132.97 72.5601 133.48C75.3901 133.43 78.2101 133.32 80.9701 134.12C82.8401 134.5 84.7901 134.7 86.4801 135.65C82.8001 135.85 79.3001 137.69 75.5401 137.28C73.8601 137.08 72.2301 136.48 70.5201 136.55C69.4401 136.58 68.3701 136.78 67.2801 136.67C64.6201 136.23 61.7601 136.09 59.1801 135.53C56.7501 134.9 54.3601 134.14 52.0301 133.24C49.3501 132.21 46.9701 130.52 44.2101 129.69C41.8901 129.05 39.5001 128.63 37.3101 127.58C44.7001 126.66 52.1201 125.69 59.5701 126.54C61.4401 126.72 63.3201 126.44 65.1901 126.55C66.8701 126.7 68.4601 127.29 70.1101 127.59C74.9801 128.21 79.4101 130.35 83.7101 132.59L83.7001 132.58ZM21.0801 58.8402C22.8101 60.3202 24.6101 61.7202 26.2801 63.2802C27.5701 64.6202 28.9001 65.9302 30.3101 67.1602C31.6801 68.5102 32.9601 69.9902 34.7001 70.8902C36.4201 71.8302 38.2801 72.4802 40.0001 73.4202C42.2501 74.8802 44.5701 76.2702 47.3001 76.3602C46.7601 76.6702 46.1901 76.9102 45.5501 76.9702C42.6701 76.9302 39.7801 76.0402 37.1901 74.8902C35.0201 73.6902 33.3001 72.0202 31.2101 70.7302C29.6101 69.7302 27.9401 68.7902 26.4601 67.6002C25.7101 66.8702 25.0301 66.0602 24.3201 65.2802C24.3401 65.2202 24.3601 65.1602 24.3801 65.1002C24.4901 64.6602 24.0301 64.5302 23.6601 64.6002C23.2101 64.1502 22.7501 63.7102 22.2401 63.3302C20.7601 62.4302 19.8101 61.0102 18.6001 59.8202C16.4701 58.2602 14.4701 56.6102 12.5801 54.7602C15.4001 56.1102 17.9601 57.6602 20.7501 58.9902C20.8401 59.0402 20.9801 59.0602 21.0501 58.9702C21.0801 58.9302 21.0701 58.8902 21.0501 58.8502L21.0801 58.8402ZM50.5101 71.3302C48.0001 69.2602 45.0101 67.8702 42.6001 65.6702C40.2501 63.5002 37.8001 61.4802 35.1501 59.7002C34.7901 59.4502 34.2001 59.3702 33.8001 59.6002C33.7501 59.6302 33.7001 59.6702 33.6601 59.7102C33.2401 60.1102 33.4801 60.7502 33.8801 61.0702C39.2201 65.2102 45.3501 68.4502 49.8501 73.5302C49.7401 73.5502 49.6301 73.5602 49.5201 73.5802C49.4901 73.5602 49.4701 73.5302 49.4401 73.5202C48.0301 72.6502 46.6601 71.7202 45.3001 70.7702C44.4501 70.2502 43.7101 69.3702 42.7101 69.2102C42.3901 69.2002 42.0501 69.2602 41.8501 69.5302C41.1001 70.8102 44.3301 71.9102 45.1601 72.5502C45.9601 72.9902 46.7801 73.3902 47.6001 73.7902C46.5101 73.8302 45.4301 73.7502 44.3801 73.4602C42.9901 72.7502 41.7901 71.7102 40.4101 70.9702C38.2801 69.7702 36.0201 68.7902 34.0301 67.3702C30.2401 64.6702 26.0201 62.4902 23.1001 58.7402C20.4901 55.8302 17.8501 52.7302 14.9801 50.1202C13.2601 47.8402 11.3901 45.7002 8.90008 44.2302C10.1101 44.8002 11.3401 45.3002 12.5901 45.7802C15.5401 47.5102 18.2301 49.7402 20.6701 52.1102C22.1601 53.7802 23.6801 55.4102 25.3501 56.9202C25.6701 57.2202 26.1601 57.4202 26.5901 57.2202C26.6101 57.2202 26.6301 57.2002 26.6601 57.1802C27.0401 56.9502 27.0201 56.4202 26.7101 56.1102C24.3601 53.5702 21.6301 51.4602 19.0301 49.2002C18.3101 48.5602 17.5901 47.9202 16.8501 47.3002C19.6001 48.2202 22.3701 49.1002 25.0701 50.1502C28.4901 51.7802 31.7101 53.5902 35.1901 55.0702C37.6101 56.7602 40.4101 57.8902 42.9001 59.4602C45.4901 61.4502 48.0001 63.8102 49.5401 66.7202C50.1601 68.1902 50.2101 69.8102 50.5501 71.3602L50.5101 71.3302ZM123.81 44.6202C121.68 45.8202 119.57 47.0202 118.05 49.0302C115.88 52.1102 113.61 55.1202 111.3 58.0902C110.53 59.2002 109.87 60.3702 109.29 61.5802C109.01 61.5602 108.67 61.7402 108.55 62.1002C108.41 62.5002 107.37 65.3002 106.5 68.1602C106.57 67.3502 106.62 66.5302 106.64 65.7302C106.84 62.8802 107.94 60.2402 109.1 57.6702C110.21 55.1002 111.22 52.7202 112.61 50.3602C114.61 47.0102 117.71 44.6302 120.44 41.9202C123.98 37.8702 127.43 33.6802 130.52 29.2802C130.47 29.5202 130.42 29.7602 130.36 30.0002C128.09 32.4202 126.82 35.7302 124.79 38.3702C124.13 39.5202 123.47 40.6702 122.82 41.8302C122.66 42.1102 122.64 42.5602 122.98 42.7102C123.16 42.7902 123.34 42.7502 123.5 42.6602C123.65 42.5702 123.78 42.4302 123.86 42.2902C125.88 38.9202 127.48 35.3102 129.88 32.1902C129.79 32.6102 129.69 33.0302 129.6 33.4602C129.12 34.4302 128.6 35.4202 128.16 36.4302C127 39.3002 125.56 42.0602 123.8 44.6102L123.81 44.6202ZM116.99 64.8102C116.91 64.8602 116.83 64.9402 116.78 65.0502C114.96 68.6302 113.08 72.1802 110.98 75.6002C109.24 78.4002 107.16 80.9602 105.44 83.7502C105.39 83.7302 105.35 83.7002 105.28 83.7002C105.22 83.7002 105.17 83.7402 105.11 83.7502C105.51 81.3502 106.37 79.0402 106.89 76.6502C107.48 74.3802 107.68 72.0202 108.15 69.7202C108.85 66.5802 110.56 63.8002 111.77 60.8502C113.6 56.7402 116.16 53.0002 119.39 49.8602C120.59 48.5902 122.19 47.8902 123.7 47.0802C126.2 45.5202 128.53 43.6602 130.64 41.5902C130.6 42.0702 130.52 42.5302 130.45 43.0002C130.19 42.7102 129.86 42.8202 129.49 43.2402C126.07 48.1002 122.64 52.9602 119.24 57.8402C118.77 58.5102 119.35 59.1002 119.89 58.7802C119.99 58.7202 120.09 58.6302 120.18 58.5002C122.14 55.5402 124.22 52.6602 126.17 49.7102C127.27 47.7002 128.47 45.8102 129.88 44.0202C130 44.1802 130.15 44.1802 130.3 44.1302C129.87 46.5202 129.2 48.8602 128.78 51.2702C128.33 54.1502 127.47 56.9002 126.52 59.5802C125.88 61.8102 125.12 64.2802 123.89 66.2202C122.42 68.6502 120.45 70.7102 118.27 72.5002C117.15 73.4702 116.29 74.7202 115.15 75.6602C112.72 77.3802 110.56 79.4102 108.35 81.3902C109.7 79.1702 111.64 77.3802 112.86 75.0702C114.4 71.8002 115.73 68.5002 117.48 65.3402C117.72 64.8802 117.32 64.6002 117 64.7902L116.99 64.8102ZM118.25 84.8702C118.21 85.0602 118.18 85.2502 118.13 85.4402C118.08 85.4302 118.02 85.4202 117.97 85.4302C118.07 85.2402 118.16 85.0602 118.25 84.8702ZM131.8 66.7802C131.74 66.9702 131.65 67.1602 131.58 67.3502C131.53 67.3502 131.47 67.3502 131.42 67.3602C131.55 67.1702 131.66 66.9702 131.8 66.7802ZM110.83 124.81C110.67 123.26 110.63 121.84 110.58 120.32C110.49 118.94 110.16 117.52 110.29 116.14C110.72 112.57 111.35 108.94 112.43 105.52C113.87 101.68 115.58 97.9502 117.44 94.3002C118.69 91.5802 119.3 88.6102 120.61 85.9102C121.78 83.4602 123.45 81.4502 124.9 79.2002C126.81 75.7602 128.41 72.1502 130.49 68.8002C128.99 72.5802 128.01 76.5902 125.88 80.1002C124.57 83.1102 123.22 86.1102 121.83 89.0802C121.61 89.7002 122.12 89.9202 122.5 89.6902C122.63 89.6102 122.74 89.4902 122.81 89.3102C123.38 88.0002 124 86.7102 124.63 85.4202C123.83 87.9002 123.03 90.3802 122.36 92.8802C122.06 94.6302 122.23 96.4002 122.09 98.1602C121.54 101.6 121.03 105.08 120.44 108.51C118.7 115.01 116.69 121.48 112.89 127.12C112.85 127.2 112.81 127.28 112.77 127.37C113.16 125.84 113.55 124.31 114.04 122.8C114.13 122.44 114.2 122.07 114.27 121.7C115.87 118.15 117.03 114.44 118.49 110.82C118.68 110.27 118.95 109.75 119.07 109.19C119.12 108.99 119.07 108.74 118.84 108.68C118.57 108.61 118.34 108.84 118.24 109.06C117.34 112.01 116.19 114.86 115.01 117.7C115.25 116.38 115.53 115.06 115.99 113.79C117.38 109.34 118.35 104.78 119.25 100.22C119.38 99.0102 117.89 99.3202 117.69 100.24C116.06 105.19 115.35 110.41 113.77 115.35C112.68 118.47 111.56 121.58 110.82 124.81H110.83ZM139.36 84.3202C139.46 84.1402 139.56 83.9702 139.65 83.7902C139.67 83.7602 139.69 83.7202 139.71 83.6802C139.69 83.8902 139.67 84.0902 139.66 84.3002C139.66 84.3202 139.66 84.3402 139.66 84.3702C139.66 84.3702 139.64 84.3702 139.63 84.3602C139.55 84.3202 139.45 84.3202 139.37 84.3302L139.36 84.3202ZM138.84 90.8302C139.03 90.2202 139.18 89.6002 139.3 88.9702C139.26 89.2002 139.23 89.4302 139.19 89.6602C139.1 90.0702 138.99 90.4702 138.9 90.8702C138.89 90.8602 138.87 90.8502 138.86 90.8402C138.86 90.8402 138.86 90.8402 138.85 90.8402L138.84 90.8302ZM135.66 132.04C135.83 131.41 135.98 130.78 136.12 130.17C136.49 127.82 137.31 125.32 136.87 122.98C136.48 122.63 135.92 123.14 135.92 123.57C135.98 126.92 135.67 130.41 134.25 133.47C134.09 133.62 133.93 133.77 133.76 133.91C134.26 131.86 134.27 129.69 134.36 127.59C134.44 125.54 134.85 123.57 134.71 121.53C134.52 119.76 134.51 117.95 134.02 116.22C133.4 114.5 132.67 112.8 132.07 111.06C131.81 110.6 131.17 111.18 131.35 111.57C132.45 114.92 133.83 118.37 133.62 121.95C133.63 125.53 133.67 129.15 133.06 132.68C132.73 131.54 132.37 130.4 132.29 129.21C132.02 125.85 131.29 122.54 131.12 119.17C131.11 118.97 130.91 118.88 130.74 118.95C130.54 119.02 130.42 119.23 130.43 119.44C130.48 120.24 130.52 121.05 130.57 121.85C130.52 124.85 130.29 127.87 131.37 130.73C131.06 130.76 131.02 131.12 131.13 131.35C131.28 132.1 131.65 132.76 131.95 133.45C131.85 133.47 131.77 133.5 131.68 133.53C130.63 132.23 129.9 130.68 129.23 129.14C128.21 127.19 127.51 125.14 127.35 122.95C127.26 120.35 126.99 117.78 127.18 115.2C127.38 113.39 127.81 111.61 127.99 109.8C128.27 107.01 127.84 104.2 127.97 101.4C127.96 99.9102 128.01 98.4202 128.07 96.9302C128.26 97.3502 128.45 97.7602 128.64 98.1702C128.59 98.1702 128.55 98.1502 128.5 98.1702C128.03 98.4202 128.14 99.0202 128.28 99.4502C128.82 101.63 129.23 103.85 129.36 106.09C129.28 107.79 129.29 109.5 129.27 111.21C129.29 111.72 129.7 111.76 130.02 111.57C130.24 111.44 130.41 111.2 130.39 110.94C130.43 110.06 130.21 103.2 129.5 99.9002C129.76 100.37 130.03 100.83 130.33 101.28C132.15 103.71 133.24 106.49 134.42 109.27C135.26 111.05 136.35 112.7 137.29 114.42C138.5 117.21 140.32 120.04 140.01 123.2C139.56 126.5 137.89 129.56 135.67 132.05L135.66 132.04ZM158.03 151.83C158.84 151.04 159.67 150.26 160.46 149.45C160.64 149.71 160.94 149.84 161.26 149.65C161.34 149.6 161.43 149.53 161.52 149.43C163.61 146.9 165.52 144.2 167.02 141.28C167.31 140.74 167.37 139.91 166.81 139.53C166.25 139.15 165.66 139.65 165.45 140.19C164.9 141.17 164.36 142.16 163.79 143.13C163.72 143.25 163.64 143.36 163.57 143.48C163.66 143.18 163.75 142.88 163.85 142.59C164.23 141.46 164.52 140.29 164.79 139.12C164.8 139.11 164.81 139.1 164.82 139.08C167.1 136.17 167.84 132.52 168.8 129.08C170.59 123.58 171.55 117.88 172.72 112.23C172.95 113.17 173.13 114.13 173.29 115.09C173.12 114.87 172.77 114.92 172.65 115.22C172.24 117.89 172.5 120.7 171.73 123.33C171.12 125.53 170.55 127.69 169.81 129.84C169.64 130.31 170.03 130.67 170.34 130.48C170.43 130.43 170.51 130.32 170.57 130.17C172.38 125.5 173.13 120.47 173.36 115.5C173.85 118.82 173.85 122.2 173.04 125.49C172.37 128.68 172.37 132.02 171.52 135.17C170.41 137.5 169.01 139.6 167.7 141.77C166.56 143.56 165.86 145.38 164.39 146.89C162.94 148.31 161.54 149.71 159.91 150.87C159.3 151.22 158.66 151.53 158.03 151.85V151.83ZM142.28 161.53C142.51 159.82 143.09 158.2 143.7 156.59C144.83 153.33 145.75 149.98 147.23 146.85C149.67 142.52 153.45 139.17 156.27 135.13C158.36 131.64 159.77 127.82 161.14 124.02C162.23 121.37 163.55 118.83 164.64 116.18C164.37 119.73 163.68 123.21 162.68 126.62C162.23 126.81 162.26 127.64 162.19 128.07C162.19 128.1 162.2 128.12 162.2 128.14C162.08 128.52 161.97 128.91 161.84 129.29C161.31 130.99 160.52 132.6 159.81 134.22C159.48 134.86 160.02 135.54 160.51 135.25C160.62 135.18 160.73 135.07 160.82 134.89C161.91 132.28 163.38 129.79 163.95 127C164.26 124.1 164.91 121.22 165.25 118.32C165.52 122.09 164.95 125.78 163.99 129.5C163.38 133.84 162.61 137.7 161.83 141.92C160.9 148.5 158.87 148.8 154.55 152.97C152.51 155.04 150.48 157.18 147.75 158.33C145.9 159.35 143.61 159.75 142.29 161.53H142.28ZM182.63 186.23C183.31 184.81 184.36 183.64 185.43 182.49C184.54 185.05 183.55 187.59 183.19 190.29C182.89 192.52 182.66 194.77 182.39 197C182.29 197.58 182.81 198 183.16 197.79C183.28 197.72 183.39 197.56 183.43 197.32C183.8 193.74 184.49 190.21 185.61 186.79C185.71 186.45 185.85 186.11 185.98 185.77C185.93 191.08 187.45 196.42 187.36 201.7C186.78 206.98 185.8 212.32 184.79 217.51C184.42 220.05 183.22 222.28 181.72 224.33C181.22 225.1 180.73 225.88 180.21 226.63C179.63 227.46 179.01 228.27 178.39 229.08C178.27 229.17 178.16 229.26 178.04 229.35C179.52 224.18 181.71 219.22 182.26 213.81C182.63 210.79 182.85 207.76 183.33 204.75C183.57 203.22 181.72 202.31 181.33 204.14C180.01 211.81 177.72 219.28 176.02 226.87C174.39 223.09 174.18 218.88 174.7 214.85C175.01 210.41 175.83 206.04 177.14 201.79C177.94 198.42 178.73 195.05 180.32 191.94C181.18 190.08 181.83 188.12 182.61 186.22L182.63 186.23ZM186.26 222.9C188.63 217.18 191.93 211.71 192.79 205.5C192.83 204.27 193.72 202.5 192.45 201.66C191.88 201.38 191.31 201.84 191.18 202.4C190.76 204.32 190.37 206.25 190.06 208.2C189.47 210.66 189.13 213.2 188.12 215.54C187.34 217.02 186.51 218.45 185.66 219.87C185.96 218.59 186.22 217.3 186.64 216.06C188.63 211.22 189.74 206.06 189.72 200.81C189.77 198.3 189.84 195.79 189.78 193.29C191.29 191.1 192.65 188.76 193.28 186.16C193.64 184.61 194.1 183.1 194.68 181.63C194.11 187 192.59 192.2 191.94 197.58C191.81 198.3 192.46 198.82 192.9 198.56C193.05 198.47 193.18 198.28 193.24 197.97C193.83 194.31 194.45 190.65 194.75 186.96C195.05 184.62 195.86 182.3 195.74 179.93C195.71 179.79 195.65 179.7 195.59 179.62C195.73 179.35 195.85 179.07 196 178.8C196.36 180.52 196.11 182.31 196.29 184.06C196.7 187.62 196.72 191.31 196.31 194.82C195.65 200.22 195.29 205.72 193.36 210.83C192.36 213.86 191.58 216.97 190.01 219.76C189.06 221.14 187.58 221.91 186.28 222.9H186.26ZM188.64 244.43C190.34 241.5 192.71 239.08 194.78 236.42C196.45 234.21 198.22 232.08 200.1 230.04C201.02 229.02 201.89 227.94 202.78 226.89C203.07 226.54 203.03 225.94 202.81 225.57C202.59 225.2 202.06 224.99 201.73 225.36C199.87 227.42 198.14 229.58 196.42 231.76C193.39 235.12 189.42 237.66 187.19 241.7C187.72 232.03 194.92 224.25 202.17 218.59C205.18 216.02 207.86 213.08 210.61 210.24C211.46 209.46 212.45 208.87 213.42 208.28C209.96 213.23 206.14 217.95 203.23 223.28C202.7 224.06 203.53 225.44 204.28 224.99C204.4 224.92 204.52 224.8 204.63 224.63C206.88 221.11 208.42 217.18 211.02 213.89C212.26 212.47 213.51 211.04 214.67 209.56C214.8 209.38 214.94 209.2 215.08 209.03C214.43 210.96 213.89 212.94 213.26 214.81C211.78 218.81 210.28 222.79 208.76 226.77C206.86 231.62 205.84 237.4 201.44 240.69C199.46 241.74 197.39 243.01 195.36 243.88C193.2 244.65 190.89 244.67 188.63 244.44L188.64 244.43ZM172.48 253.54C171.95 253.26 171.4 253.02 170.84 252.82C170.78 252.79 170.73 252.76 170.67 252.74C171.3 252.9 171.9 253.15 172.48 253.54ZM98.2601 158.45C102.78 162.05 106.59 166.41 110.57 170.56C113.56 173.71 115.4 177.66 117.22 181.54C118.32 183.68 119.68 185.68 120.6 187.91C112.38 174.81 110.77 170.61 97.3801 161.77C97.1401 161.63 96.9401 161.63 96.8001 161.71C96.4501 161.92 96.4201 162.64 96.8801 162.94C101.9 166.34 105.77 170.92 109.48 175.57C112.27 178.78 114.55 182.35 116.33 186.22C117.61 188.64 119.06 191 120.85 193.07C118.7 192.9 116.8 191.35 115.23 190.18C112.09 187.98 109.82 185.19 107.5 182.22C104.93 179.42 102.06 176.13 100.09 173.07C96.2001 166.55 91.0701 160.72 88.7401 153.39C91.8301 155.25 95.3501 156.31 98.2801 158.43L98.2601 158.45ZM123.73 178.77C124.02 178.88 124.83 179.38 125.72 179.87C127.29 182.62 128.8 185.4 130.31 188.18C132.95 193.14 136.53 197.46 139.99 201.86C142.35 205.05 144.51 208.4 146.61 211.79C144.27 210.41 141.83 209.18 139.41 207.94C139.09 207.8 138.79 207.74 138.52 207.72C135.89 205.98 133.36 203.89 131.32 201.64C128.88 198.84 126.95 195.64 124.51 192.84C124.33 192.65 124.1 192.5 123.85 192.38C123.22 187.69 120.63 183.44 118.3 179.42C117.29 177.42 116.3 175.4 115.24 173.42C115.63 173.77 116.02 174.13 116.44 174.45C118.93 175.79 121.33 177.26 123.72 178.76L123.73 178.77ZM48.2301 103.81C48.4501 103.56 48.6901 103.33 48.9301 103.1C50.4801 102.49 52.1001 102.11 53.7201 101.81C54.2501 100.59 52.1401 101.1 50.6301 101.62C51.0601 101.26 51.4801 100.89 51.8801 100.5C52.0201 100.37 52.1301 100.22 52.2601 100.08C52.9701 100.17 53.7701 100.09 54.3801 100.21C55.8101 100.34 57.2301 100.54 58.6101 100.93C59.2401 100.97 60.5101 101.85 61.6601 102.44C59.0301 103.52 56.1401 104.05 53.3901 104.67C52.5401 104.83 51.6801 104.98 50.8301 105.15C50.5801 105.2 50.5301 105.5 50.5901 105.71C50.9601 106.68 52.2501 105.88 52.9801 105.9C56.0701 105.4 59.2301 105.07 62.1701 104C61.2701 106.3 60.0001 108.49 58.8501 110.67C57.3801 112.24 55.4201 113.76 53.1701 113.66C49.0601 113.08 44.7801 112.99 41.2101 110.76C41.2501 110.74 41.2901 110.72 41.3201 110.7C41.8601 110.38 42.3801 110.04 42.9001 109.68C45.2001 108.24 46.5201 105.84 48.2201 103.82L48.2301 103.81ZM30.0801 97.6802C30.2301 97.4402 30.3901 97.2102 30.5501 96.9802C30.3901 97.2102 30.2401 97.4502 30.0801 97.6802ZM35.6101 90.5502C35.5301 90.6102 35.4501 90.6602 35.3701 90.7202C35.2601 90.7902 35.1601 90.8602 35.0601 90.9302C35.0601 90.9302 35.0601 90.9102 35.0501 90.9002L35.2101 90.8102C35.3501 90.7302 35.4801 90.6402 35.6201 90.5502H35.6101ZM63.4101 95.5402C65.4401 97.9402 67.8201 99.9502 70.1701 102.01C69.7001 102.01 69.2201 101.97 68.7501 102C67.2001 101.99 65.6601 101.73 64.1101 101.68C64.0101 101.61 63.9001 101.56 63.7801 101.55C63.3501 100.68 62.3701 100.26 61.5901 99.7002C59.6601 98.4102 57.3801 97.8602 55.0801 97.7902C54.6801 97.7602 54.2901 97.7602 53.8901 97.7602C55.0601 95.4602 55.4101 92.7402 54.9101 90.2002C54.7201 89.3302 54.2701 88.6002 53.6901 87.9802C55.6701 88.3902 57.2501 89.7902 58.7801 91.1802C60.4401 92.5202 62.0301 93.9202 63.4101 95.5502V95.5402ZM84.2001 107.88C85.5701 109.95 86.6101 112.21 87.6301 114.48C87.7101 114.64 87.7901 114.81 87.8701 114.98C86.2901 114.07 84.7901 112.95 83.4601 111.99C80.8001 110.07 78.4001 107.84 76.3101 105.31C76.1201 105.06 75.9301 104.81 75.7401 104.56C76.2001 104.64 76.6701 104.7 77.1301 104.79C79.6601 105.36 82.0301 106.48 84.1901 107.9L84.2001 107.88ZM71.8301 85.8002C72.3001 85.8402 72.7801 85.8802 73.2501 85.8802C74.0701 88.2602 75.0101 90.6002 75.9801 92.9202C75.9101 92.8402 75.8401 92.7602 75.7601 92.6802C74.5901 91.0002 73.1301 89.4402 72.2701 87.5802C72.1701 86.9702 72.0101 86.3902 71.8201 85.8002H71.8301ZM71.3201 84.4202C70.5601 82.6002 69.5501 80.8602 68.8401 79.0502C68.3801 78.2202 68.3201 77.2902 68.1901 76.3602C67.8101 74.3402 66.9101 72.4602 65.8101 70.7302C65.4301 70.2402 65.0601 69.7302 64.6901 69.2202C64.8201 68.7002 64.3901 68.0902 64.1301 67.6502C63.4801 66.1902 62.9501 64.6802 62.4601 63.1502C62.4601 63.1202 62.4501 63.0902 62.4401 63.0602C62.4401 63.0402 62.4201 63.0202 62.4101 63.0002C61.8901 61.3802 61.4201 59.7402 60.9101 58.1202C59.2901 54.7702 58.5501 51.2002 58.5301 47.5102C58.5401 47.3902 58.5101 47.2902 58.4501 47.2002C59.2201 47.6702 60.0101 48.1102 60.7901 48.5402C62.5201 49.3702 64.0701 50.4702 65.7201 51.4302C66.1001 54.2502 66.4601 57.0602 66.7601 59.8902C67.1901 63.4402 68.1201 67.6902 69.2701 70.9002C70.2901 74.3702 71.0501 77.9002 71.9001 81.4202C72.1701 82.4502 72.4801 83.4602 72.8001 84.4702C72.3101 84.4702 71.8201 84.4602 71.3201 84.4202ZM44.0501 24.6902C44.1201 24.7402 44.1901 24.7902 44.2701 24.8502C43.6601 27.5702 45.1601 30.1002 45.7501 32.6902C46.8601 35.9102 49.3601 38.3802 51.1901 41.2002C53.0601 43.5502 55.5001 45.4002 58.0801 46.9802C57.9501 46.9802 57.8301 47.0802 57.7901 47.3202C57.7601 47.5102 57.7401 47.7102 57.7201 47.8302C57.6301 48.2402 57.7301 48.5902 57.7501 48.9602C57.5201 52.2202 58.7701 55.2702 59.6401 58.3502C59.7001 58.6102 59.8001 59.0402 59.9201 59.5802C59.2401 58.6302 58.5901 57.6702 57.8701 56.7602C55.1801 53.0902 52.8401 49.2102 50.4801 45.3402C48.6501 42.5902 45.7801 40.6102 44.1201 37.7702C43.2801 36.3902 42.1901 35.1802 41.3101 33.8302C40.6701 32.6002 40.2701 31.2602 39.8101 29.9502C37.9601 26.0102 37.4301 26.5602 39.8101 22.5902C41.2801 23.1602 42.7601 23.8202 44.0701 24.7102L44.0501 24.6902ZM63.6001 35.4602C63.6401 37.5802 63.9901 39.7502 64.4501 41.9902C64.7801 44.6402 65.1501 47.2802 65.5101 49.9302C65.3701 49.8402 65.2301 49.7602 65.1401 49.6702C63.2601 48.3702 61.1401 47.3102 59.0701 46.4002C57.4201 45.6302 56.1701 44.3002 55.0701 42.8802C52.9501 40.5102 50.5101 38.3602 48.9901 35.6002C47.6701 33.6102 47.4201 31.2202 46.4801 29.0702C46.0301 27.9002 45.2701 26.7302 45.3801 25.4402C48.6401 30.0402 52.3001 34.2902 55.9301 38.5902C57.6701 40.5002 59.6301 42.2502 60.9001 44.5302C61.3901 45.0602 62.2301 47.2602 63.0401 46.6202C64.1701 45.3902 59.2801 40.8602 58.5301 39.6102C56.6901 37.1502 55.3101 34.3402 53.1101 32.1502C51.0701 29.8502 48.7901 27.7402 46.7101 25.4902C47.6401 25.7602 48.6501 25.7602 49.5801 26.0602C50.8601 26.4502 52.0001 27.1602 53.1801 27.7802C56.3701 29.3102 59.5901 30.8902 62.0401 33.4802C62.6001 34.1102 63.1101 34.7702 63.5901 35.4502L63.6001 35.4602ZM75.4101 56.1002C74.0001 54.1402 72.3401 52.3802 70.0901 51.4202C69.7901 51.2802 69.5201 51.4602 69.3701 51.7102C68.8501 50.2702 68.3101 48.8402 67.8001 47.3902C67.7001 46.9902 67.6001 46.5902 67.5101 46.1802C67.8901 46.5702 68.2701 46.9502 68.6901 47.3402C69.6801 48.2402 70.6101 49.2002 71.3201 50.3502C71.5801 50.5802 72.4401 52.3902 72.8101 52.1702C72.8601 52.1402 72.9001 52.0702 72.9301 51.9502C72.3901 50.5002 71.1501 49.2902 70.2701 48.0602C69.3001 46.8002 68.3101 45.3902 67.0801 44.3802C66.4701 41.7402 65.9601 39.0302 65.8501 36.3402C65.8801 36.3702 65.9001 36.4002 65.9401 36.4302C67.2601 38.9902 69.0301 41.2902 70.3101 43.8302C71.9201 47.9602 73.0501 52.3002 75.4001 56.1002H75.4101ZM79.0901 62.4602C78.7401 65.5402 78.3601 68.6002 77.9001 71.6602C78.1201 76.7602 79.3301 81.7802 80.4301 86.7602C80.5101 87.1402 80.5801 87.5302 80.6401 87.9202C78.5601 83.9802 76.3401 80.1102 75.0801 75.8002C73.2301 69.7602 72.1501 63.5702 71.0301 57.3702C70.7401 55.9402 70.3201 54.5502 69.8601 53.1702C71.5401 54.3602 73.4001 55.3402 74.9301 56.7302C76.3001 58.0202 77.0201 59.6802 77.9501 61.2702C78.2601 61.6602 78.4901 62.5902 79.0901 62.4602ZM80.1801 39.3402C80.2601 39.7602 80.3701 40.1602 80.4701 40.5802C80.3801 40.6702 80.3201 40.7802 80.2801 40.9302C80.2501 40.4002 80.1901 39.8802 80.1801 39.3502V39.3402ZM88.9901 62.4402C89.7501 64.6502 90.7101 66.8702 90.8001 69.2002C90.6301 74.2002 90.7301 79.2502 89.1501 84.0602C88.7601 85.5002 88.7401 86.9702 88.3001 88.3802C87.6801 90.4802 86.6901 92.3802 85.7601 94.3302C85.7001 94.4902 85.6401 94.6602 85.5901 94.8202C85.4201 89.7502 85.8901 84.7102 85.8901 79.6402C85.6801 76.0002 85.3001 72.3402 84.8101 68.7302C84.6701 67.8902 83.6001 67.9302 83.6901 68.8502C84.2401 72.2002 84.2001 75.5702 84.0501 78.9502C84.1301 83.2702 84.0501 87.6002 84.1001 91.9202C83.0001 88.1902 81.3001 84.6802 80.0401 81.0202C79.5701 79.2202 79.5601 77.3402 79.4601 75.4902C79.4901 72.8102 79.0901 70.1302 79.3301 67.4602C79.8501 62.2602 80.8001 57.1202 81.0701 51.9202C81.1501 48.4802 80.5901 45.0702 80.3201 41.6402C81.1901 45.4102 82.2901 49.0502 83.1001 52.8202C83.7201 57.6802 84.7101 62.4802 85.3501 67.3302C85.4101 67.9802 85.9501 68.2602 86.3001 68.0502C86.4801 67.9402 86.6101 67.7002 86.5901 67.3202C86.1501 62.7402 85.7701 58.1402 84.3001 53.7502C83.8701 52.0302 83.5401 50.2902 83.2101 48.5402C83.8601 50.1402 84.5201 51.7302 85.1101 53.3502C86.5901 56.3002 87.8501 59.3302 88.9801 62.4302L88.9901 62.4402ZM90.4701 42.8902C90.6301 43.4502 90.7501 44.0202 90.8801 44.5902C90.8301 44.5502 90.7801 44.4902 90.7301 44.4602C90.6701 44.2502 90.6101 44.0302 90.5301 43.8302C90.5101 43.5202 90.4801 43.2102 90.4701 42.8902ZM93.4901 60.8902C93.4901 60.8902 93.4601 60.8902 93.4401 60.8902C93.3801 60.6002 93.3201 60.3102 93.2501 60.0202C93.3301 60.3102 93.3901 60.5902 93.4801 60.8802L93.4901 60.8902ZM94.5401 65.7902C94.6801 66.5202 94.7901 67.2502 94.8601 67.9902C94.7701 67.4902 94.6701 67.0002 94.5801 66.5002C94.5701 66.2602 94.5701 66.0302 94.5401 65.7902ZM156.05 212.85C154.88 209.94 155.24 206.73 154.63 203.71C153.66 199.28 152.45 194.86 150.85 190.62C150.06 188.51 149.1 186.48 148.02 184.51C147.78 184.06 147.19 183.66 146.67 183.85C146.06 184.07 146.06 184.83 146.28 185.33C147.14 187.41 148.26 189.39 148.95 191.54C149.64 193.7 149.9 195.96 150.46 198.14C151.36 201.26 152.66 204.25 153.38 207.43C150.42 203.58 148.59 199.15 146.47 194.83C145.4 192.75 144.24 190.68 143.65 188.4C143.05 186.07 143.4 183.66 142.83 181.33C142.1 177.1 140.33 173.16 139.24 169.02C141.25 170.87 143.38 172.55 145.21 174.55C148.5 178.81 150.9 183.65 152.4 188.8C152.99 190.54 153.83 192.19 154.35 193.95C154.8 195.8 154.88 197.72 155.15 199.6C155.58 204 156.1 208.43 156.06 212.85H156.05ZM152.64 210.91C153.16 212.11 153.48 213.46 153.77 214.8C151.17 211.09 148.46 207.45 146.03 203.62C144.25 200.68 142.36 197.8 140.42 194.96C140.53 193.72 140.87 192.44 141.17 191.29C141.35 190.48 142.5 189.48 141.96 188.7C141.73 188.48 141.41 188.63 141.26 188.87C140.52 190.24 139.7 191.71 139.22 193.25C138.53 192.26 137.84 191.27 137.14 190.29C136.79 188.79 137.1 187.14 136.98 185.61C136.77 182.15 137.12 178.66 138.3 175.4C139.17 177.32 140.02 179.24 140.74 181.22C141.58 183.18 141.67 185.31 141.93 187.41C142.29 190.26 143.22 193 144.35 195.64C145.1 197.51 145.89 199.37 146.8 201.16C148.8 204.39 151.2 207.38 152.64 210.93V210.91Z" fill="#585283"/>
<path d="M197.75 237.53C198.55 236.86 199.36 236.23 200.1 235.49C201.57 234.1 202.66 232.36 203.8 230.7C204.33 229.94 205.1 229.35 205.43 228.45C205.67 227.89 206.24 228.42 206.09 228.86C205.27 230.67 204.3 232.49 202.81 233.85C202.72 233.96 202.57 234.12 202.42 234.02C201.02 235.49 199.72 237.07 198.08 238.28C198.07 238.28 198.06 238.3 198.05 238.3C197.89 238.39 197.7 238.26 197.63 238.11C197.55 237.92 197.57 237.66 197.74 237.53H197.75Z" fill="#585283"/>
<path d="M192.28 234.83C191.66 235.19 191.3 234.07 191.79 233.74C193.08 232.84 194.09 231.66 195.18 230.55C195.4 230.36 195.69 230.53 195.82 230.73C196.41 232.06 193.19 234.03 192.28 234.83Z" fill="#585283"/>
<path d="M179.86 206.63C179.17 209.8 178.36 212.94 177.69 216.12C177.61 216.4 177.48 216.57 177.33 216.66C176.82 216.96 176.1 216.32 176.26 215.55C176.8 212.79 177.38 210.03 177.98 207.28C178.25 206.49 178.29 204.61 179.51 204.96C180.09 205.27 180.19 206.11 179.87 206.64L179.86 206.63Z" fill="#585283"/>
<path d="M185.41 200.64C186.95 200.04 185.25 208.39 185.37 209.49C185.35 209.63 185.27 209.78 185.15 209.85C185.08 209.89 184.99 209.91 184.9 209.88C184.64 209.8 184.56 209.49 184.58 209.25C184.7 208.02 184.82 206.78 184.95 205.54C185.01 204.09 185.08 202.52 185.15 201.04C185.18 200.88 185.25 200.72 185.41 200.64Z" fill="#585283"/>
<path d="M143.95 178.4C143.31 177.02 142.73 175.61 142.03 174.26C141.91 173.94 141.64 173.41 142.07 173.22C142.52 173.09 142.74 173.63 142.91 173.95C143.47 175.36 144.14 176.73 144.74 178.12C144.86 178.42 144.78 178.62 144.63 178.72C144.43 178.84 144.1 178.75 143.95 178.41V178.4Z" fill="#585283"/>
<path d="M149.9 198.59C149.9 198.59 149.84 198.62 149.8 198.62C149.56 198.66 149.33 198.44 149.28 198.23C149.06 197.42 148.84 196.61 148.61 195.8C148.06 193.87 147.17 192.07 146.5 190.19C146.45 189.95 146.5 189.63 146.79 189.58C147.08 189.54 147.31 189.81 147.43 190.04C148.56 192.65 149.33 195.36 150.03 198.11C150.08 198.28 150.05 198.5 149.9 198.59Z" fill="#585283"/>
<path d="M150.06 184.5C150.2 184.48 150.31 184.59 150.37 184.7C150.74 185.59 151.07 186.5 151.45 187.42C151.52 187.58 151.47 187.7 151.39 187.75C151.28 187.82 151.09 187.77 151.02 187.58C150.67 186.66 150.27 185.74 149.92 184.82C149.88 184.7 149.92 184.52 150.06 184.5Z" fill="#585283"/>
<path d="M61.9701 156.76C63.9801 156.61 66.0001 156.79 68.0001 156.62C69.2101 156.46 70.3601 156.35 71.5901 156.26C71.9001 156.26 72.1401 156.75 71.8601 156.95C70.2401 157.31 68.4801 157.12 66.8201 157.42C65.2901 157.72 63.7401 157.82 62.1801 157.87C61.8901 157.88 61.6501 157.57 61.6001 157.31C61.5501 157.05 61.6701 156.77 61.9601 156.76H61.9701Z" fill="#585283"/>
<path d="M62.8001 161.4C63.6601 161.54 65.0101 161.76 64.8501 162.91C64.8101 163.11 64.7201 163.24 64.6001 163.31C64.3101 163.48 63.8501 163.33 63.5101 163.21C62.5201 162.77 60.5501 163.09 60.3201 161.76C60.3401 160.53 62.0801 161.43 62.8101 161.4H62.8001Z" fill="#585283"/>
<path d="M51.9702 151.04C51.9702 151.04 52.0002 151.13 52.0002 151.19C51.9802 151.31 51.9202 151.39 51.8502 151.43C51.5402 151.61 50.8702 151.2 50.5202 151.17C49.6102 151.15 48.6902 151.07 47.8002 150.97C46.9002 150.88 45.9802 150.84 45.0802 150.8C44.8802 150.79 44.7302 150.62 44.6902 150.43C44.6602 150.27 44.7402 150.06 44.9302 150.07C45.9002 150.1 46.8602 150.22 47.8302 150.24C48.3002 150.24 48.7602 150.29 49.2302 150.34C49.4002 149.83 50.1602 150.34 50.5302 150.36C50.7202 150.45 50.9702 150.48 51.2102 150.54C51.3202 150.55 51.4302 150.57 51.5402 150.58C51.7502 150.61 51.9702 150.72 51.9802 150.95C51.9802 150.98 51.9802 151.01 51.9702 151.05V151.04Z" fill="#585283"/>
<path d="M52.26 130.07C52.08 130.18 51.82 130.19 51.63 130.13C50.6 129.85 49.56 129.58 48.53 129.3C47.79 129.07 47 128.95 46.28 128.66C46.08 128.54 45.9 128.35 45.92 128.1C46.24 127.09 48.11 128.07 48.85 128.17C49.88 128.47 50.91 128.77 51.93 129.07C52.23 129.16 52.58 129.44 52.48 129.8C52.44 129.92 52.36 130.01 52.27 130.07H52.26Z" fill="#585283"/>
<path d="M67.03 133.87C67.58 134.07 68.79 133.95 68.72 134.79C68.69 134.91 68.62 134.99 68.53 135.04C68.36 135.14 68.13 135.14 67.94 135.1C67.08 134.91 66.36 134.72 65.44 134.59C65 134.53 64.16 134.7 63.97 134.11C63.92 133.02 66.4 133.76 67.03 133.87Z" fill="#585283"/>
<path d="M59.05 133.11C59.03 133.19 58.97 133.25 58.91 133.29C58.83 133.34 58.72 133.36 58.62 133.36C57.92 133.27 57.26 132.99 56.58 132.8C55.82 132.56 55.06 132.34 54.3 132.11C54.11 132.05 53.89 131.88 53.95 131.65C54.01 131.43 54.29 131.39 54.48 131.44C55.24 131.65 56.01 131.86 56.78 132.07C57.45 132.27 58.16 132.4 58.81 132.68C58.96 132.77 59.1 132.93 59.05 133.11Z" fill="#585283"/>
<path d="M58.2501 139.2C59.0301 139.45 59.8101 139.69 60.6001 139.94C60.8601 140.02 61.1701 140.26 61.0801 140.58C61.0501 140.69 60.9801 140.77 60.9001 140.82C60.7401 140.92 60.5101 140.92 60.3401 140.87C59.0301 140.51 57.7301 140.11 56.4401 139.69C55.4201 139.22 54.0801 139.26 53.2201 138.56C52.6001 136.69 57.5201 139.06 58.2601 139.21L58.2501 139.2Z" fill="#585283"/>
<path d="M68.8 140.67C69.28 140.73 70.8 140.43 70.32 141.33C69.76 141.67 69.02 141.49 68.38 141.51C67.8 141.39 66.75 141.75 66.52 141.01C66.57 140.25 68.23 140.78 68.79 140.67H68.8Z" fill="#585283"/>
<path d="M59.3301 138.53C59.2301 138.59 59.0801 138.58 58.9801 138.53C57.8501 138.01 56.6501 137.65 55.5001 137.15C55.3701 137.08 55.2601 136.92 55.3301 136.78C55.5201 136.49 55.9101 136.7 56.1601 136.78C57.2001 137.2 58.2501 137.59 59.2601 138.06C59.4001 138.13 59.5001 138.31 59.4001 138.45C59.3801 138.48 59.3501 138.5 59.3301 138.52V138.53Z" fill="#585283"/>
<path d="M143.99 156.25C145.12 154.77 146.58 153.61 147.87 152.29C150.64 149.36 153.68 146.65 155.76 143.15C155.81 142.92 155.85 142.69 155.93 142.48C156.05 142.22 156.35 142.3 156.35 142.57C156.36 144.1 155.24 145.22 154.33 146.36C153.13 147.9 152.19 149.59 150.85 151.04C148.84 153.1 146.57 155.09 144.69 157.33C144.66 157.37 144.62 157.4 144.58 157.43C144.35 157.57 144.02 157.5 143.89 157.23C143.72 156.93 143.78 156.51 144 156.25H143.99Z" fill="#585283"/>
<path d="M154.2 143.38C154.18 143.53 154.08 143.67 153.96 143.75C153.84 143.83 153.66 143.83 153.54 143.68C153.22 142.9 153.88 142.07 154.18 141.36C154.42 140.9 154.86 141.31 154.66 141.68C154.44 142.19 154.21 142.79 154.2 143.38Z" fill="#585283"/>
<path d="M152.9 150.74C154.53 149.18 155.82 147.31 157.18 145.52C157.45 145.07 157.96 144.21 158.57 144.73C159.92 146.05 154.55 150.99 153.45 151.92L153.42 151.94C152.71 152.36 152.39 151.15 152.9 150.75V150.74Z" fill="#585283"/>
<path d="M194.15 163.32C195.65 161.26 196.57 158.79 198.2 156.83C200.2 154.5 202.38 152.33 203.87 149.6C203.99 149.36 204 148.96 203.76 148.78C203.06 148.3 202.31 149.84 201.87 150.25C200.48 151.34 198.85 152.17 197.49 153.29C195.86 154.91 194 156.13 191.99 157.12C193.02 154.8 194.08 152.33 194.09 149.79C193.96 149.44 193.58 149.46 193.38 149.7C193.28 149.86 193.17 150.01 193.02 150.13C192.74 150.14 192.56 150.34 192.39 150.55C191.22 151.29 189.89 151.69 188.65 152.29C186.81 153.16 185.21 154.01 183.33 154.65C179.09 155.96 174.62 156.84 170.72 159.05C168.79 160.37 167.05 161.94 165.08 163.22C162.45 164.77 160.14 166.69 158.67 169.42C157.86 170.65 154.39 175.49 155.66 176.69C155.22 177.6 154.8 178.64 154.38 179.88C153.98 180.7 152.85 183.15 154.35 183.13C154.48 184.32 156.09 183.92 156.93 183.91C158.37 183.78 159.81 183.76 161.23 183.53C164.56 182.91 167.96 182.48 171.12 181.2C172.01 180.81 172.8 180.25 173.58 179.69C174.19 179.25 174.81 178.8 175.48 178.45C177.13 177.61 178.93 177.06 180.53 176.11C180.72 176 180.91 175.87 181.1 175.75C182.65 174.81 183.68 173.24 184.83 171.9C187.81 168.87 191.36 166.5 194.14 163.29L194.15 163.32ZM189.98 153.21C189.98 153.21 189.89 153.31 189.85 153.35C187.46 156.01 185.01 158.68 181.75 160.24C181.46 160.4 181.33 160.79 181.41 161.1C181.43 161.17 181.46 161.23 181.5 161.29C181.16 161.38 180.82 161.46 180.48 161.52C177.87 161.92 175.3 162.55 172.76 163.3C169.74 163.9 167.15 165.5 165.01 167.66C162.66 169.46 160.86 170.62 159.38 171.88C160.4 170.2 161.5 168.58 162.65 167.01C164.89 164.7 167.68 163.12 170.52 161.7C171.93 161.11 173.45 160.93 174.91 160.5C177.8 159.64 180.28 157.81 183.03 156.62C185.56 155.85 187.82 154.62 190 153.2L189.98 153.21ZM190.44 157.83C190.2 157.93 189.96 158.05 189.72 158.15C187.49 158.94 185.38 160.01 183.17 160.78C183.77 160.42 184.36 160.05 184.95 159.66C187.58 157.99 189.61 155.6 191.79 153.41C191.97 153.16 192.2 152.95 192.45 152.74C191.98 154.15 191.37 155.46 190.73 156.83C190.61 157.1 190.47 157.47 190.44 157.83ZM198.36 153.89C197.12 155.1 195.84 156.26 194.74 157.6C192.98 159.78 190.5 161.13 188.39 162.92C187.22 163.88 186.14 164.94 184.88 165.77C183.09 166.79 181.17 167.36 179.29 168.16C178.83 168.34 178.6 168.88 178.66 169.35C178.71 169.76 179.06 170.2 179.52 170.02C180.93 169.45 182.39 168.96 183.7 168.18C183.8 168.12 183.9 168.06 184 168C186.4 166.28 188.83 164.55 191.06 162.6C192.75 160.94 194.36 159.19 196.13 157.59C196.63 157.07 197.17 156.59 197.7 156.11C195.73 159.19 193.78 162.18 190.8 164.53C187.78 167.48 185.17 170.79 181.73 173.22C179.49 174.28 177.35 175.56 175.23 176.84C173.85 177.67 172.48 178.5 171.08 179.26C169.02 180.03 167.06 181.09 164.98 181.72C161.62 182.33 158.23 182.42 154.84 182.7C155.15 182.09 155.52 181.49 155.82 180.92C157.41 178.39 158.13 175.33 160.27 173.16C162.75 170.65 165.91 168.88 168.97 167.25C172.21 166.11 175.43 165.52 178.61 164.31C183.51 163 188.55 161.59 192.7 158.56C194.7 157.12 196.27 155.15 198.36 153.87V153.89Z" fill="#585283"/>
<path d="M180.35 171.57C180.71 171.95 180.5 172.5 180.26 172.88C180.21 172.98 180.13 173.06 180.04 173.11C179.8 173.25 179.49 173.23 179.35 172.95C177.97 173.34 176.62 173.86 175.27 174.35C174.93 174.47 174.68 174.16 174.63 173.85C174.55 172.66 176.2 172.76 176.97 172.33C177.93 172.04 178.85 171.56 179.84 171.41C180.03 171.41 180.21 171.42 180.36 171.56L180.35 171.57Z" fill="#585283"/>
<path d="M173.92 170.35C172.82 171.05 171.6 171.53 170.39 172.01C169.23 172.47 168.06 172.93 167 173.58C165.77 174.53 164.42 175.28 163.15 176.19C161.76 177.54 160.27 178.69 158.86 180.06C158.84 180.08 158.82 180.09 158.8 180.1C158.48 180.29 158.3 179.71 158.55 179.5C160.45 177.19 162.9 175.37 165.33 173.63C168.1 172.21 170.91 170.82 173.7 169.44C174.21 169.32 174.27 170.11 173.92 170.34V170.35Z" fill="#585283"/>
<path d="M162.59 178.7C162.77 178.6 162.94 178.51 163.06 178.4C163.77 177.9 169.21 174.24 168.95 176.48C168.93 176.63 168.83 176.78 168.71 176.85C168.6 176.92 168.47 176.92 168.35 176.82C166.14 177.29 164.18 178.55 162.29 179.73C162.14 179.83 161.96 179.78 161.89 179.6C161.78 179.14 162.2 178.91 162.6 178.69L162.59 178.7Z" fill="#585283"/>
<path d="M116.85 98.2498C117.31 97.2998 117.4 95.9698 118.29 95.3198C119.26 95.0998 118.76 96.3198 118.52 96.7598C117.73 98.5898 117.07 100.46 116.35 102.31C116.3 102.46 116.17 102.61 116.03 102.69C115.91 102.76 115.78 102.79 115.64 102.76C115.33 102.68 115.31 102.33 115.4 102.08C115.87 100.8 116.36 99.5298 116.84 98.2498H116.85Z" fill="#585283"/>
<path d="M125.96 57.02C126.13 58.75 124.63 60.14 123.8 61.53C122.09 64.09 120.11 66.45 118.34 68.96C118.25 69.08 118.16 69.16 118.07 69.22C117.55 69.53 117.01 68.97 117.45 68.34C119.88 64.9 122.49 61.52 124.4 57.77C124.25 56.95 125.6 56 125.96 57.03V57.02Z" fill="#585283"/>
<path d="M112.82 66.6296C112.36 66.9096 111.76 66.5196 112.12 65.8296C113.03 64.1896 113.9 62.5296 114.86 60.9196C115.22 60.4696 115.52 59.3496 116.25 59.5796C116.42 59.6996 116.41 59.9296 116.35 60.0996C115.31 62.1696 114.13 64.1896 113.13 66.2896C113.05 66.4496 112.94 66.5596 112.82 66.6396V66.6296Z" fill="#585283"/>
<path d="M57.6202 108.77C57.6202 108.77 57.5902 108.79 57.5802 108.79C55.2702 110.05 52.5402 110.36 49.9802 110.86C49.3102 110.96 48.7002 109.72 49.4702 109.45C52.0102 108.92 54.5702 108.28 56.8802 107.14C57.6502 107.06 58.3602 108.33 57.6202 108.77Z" fill="#585283"/>
<path d="M48.4101 110.63C48.2301 110.74 47.9701 110.68 47.7901 110.58C47.6001 110.48 47.4401 110.32 47.3401 110.14C47.1301 109.78 47.1301 109.3 47.5201 109.07C47.7001 108.96 47.9701 109.02 48.1401 109.11C48.3301 109.21 48.4901 109.37 48.5901 109.55C48.8001 109.91 48.8001 110.39 48.4101 110.62V110.63Z" fill="#585283"/>
<path d="M43.13 102.61C44.68 101.32 46 99.7797 47.12 98.0797C47.64 97.4697 47.8 96.0097 48.83 96.2197C49.07 96.2897 49.27 96.4997 49.2 96.7597C48.13 98.9397 46.52 100.78 44.64 102.31C42.97 103.71 41.5 105.47 39.64 106.64C39.44 106.77 39.23 106.89 39.03 107.02C37.8 107.75 36.55 108.37 35.2 108.95C34.7 109.1 34.03 109.64 33.59 109.13C33.43 108.9 33.59 108.64 33.83 108.54C37.32 107.26 40.12 104.74 43.14 102.6L43.13 102.61Z" fill="#585283"/>
<path d="M35.8302 96.5597C36.0602 96.2997 36.7002 96.4097 36.6102 96.8297C35.7102 98.6397 34.3402 100.2 33.1702 101.84C33.1402 101.88 33.1102 101.91 33.0702 101.93C32.9502 102 32.7802 102.01 32.6602 101.96C32.5002 101.89 32.4202 101.72 32.5202 101.57C32.8602 101.11 33.2002 100.65 33.5202 100.18C34.3802 99.0097 35.0002 97.7597 35.8202 96.5597H35.8302Z" fill="#585283"/>
<path d="M31.32 102.93C32.5 103.16 30.19 105.17 29.92 105.68C29.89 105.73 29.84 105.77 29.8 105.8C29.48 105.99 28.86 105.77 29.12 105.35C29.73 104.65 30.22 103.84 30.79 103.11C30.93 102.97 31.12 102.91 31.33 102.94L31.32 102.93Z" fill="#585283"/>
<path d="M52.8301 73.48C52.8901 73.41 52.9001 73.32 52.9401 73.25C52.9301 73.29 52.9101 73.33 52.9001 73.37C52.8701 73.41 52.8501 73.44 52.8301 73.49V73.48Z" fill="#585283"/>
<path d="M36.5501 58.1197C36.5501 58.1197 36.5001 58.1797 36.4601 58.1997C36.3401 58.2697 36.1601 58.2497 36.0301 58.1997C34.7801 57.5797 33.4601 57.0897 32.2101 56.4797C31.8701 56.3097 31.8201 55.7397 32.2901 55.7397C32.5901 55.7397 32.8501 55.9197 33.1201 56.0297C34.1801 56.5697 35.2401 57.0797 36.3101 57.5997C36.4901 57.6897 36.6901 57.9197 36.5401 58.1297L36.5501 58.1197Z" fill="#585283"/>
<path d="M35.21 64.58C35.82 65.06 36.41 65.57 37.05 66.01C37.22 66.14 37.29 66.41 37.09 66.54C36.62 66.77 36.24 66.2 35.87 65.99C35.03 65.42 34.19 64.81 33.52 64.04C33.44 63.92 33.36 63.8 33.4 63.65C33.5 63.3 34.04 63.43 34.28 63.49C34.75 63.54 36.17 64.15 35.21 64.58Z" fill="#585283"/>
<path d="M48.5902 68.4797C47.5002 67.1097 46.2602 65.8497 45.1302 64.4797C44.3402 63.5297 43.3702 62.5097 42.3902 61.6997C42.2102 61.5097 41.9602 61.2997 41.9502 61.0097C41.9802 60.5397 42.5902 60.4997 42.9002 60.7297C45.5602 62.6897 47.1602 65.7197 49.2302 68.2397C49.3502 68.4297 49.3002 68.5597 49.1802 68.6297C49.0102 68.7297 48.7002 68.6897 48.5802 68.4897L48.5902 68.4797Z" fill="#585283"/>
<path d="M88.9701 72.4899C89.1301 75.8799 88.7901 79.2599 88.8201 82.6499C88.8201 82.8099 88.7401 82.9899 88.6001 83.0799C88.5401 83.1199 88.4601 83.1299 88.3701 83.1099C88.1001 83.0599 87.9701 82.7499 87.9701 82.5099C87.9701 81.1099 87.9701 79.6999 87.9501 78.2999C87.8301 75.5599 87.8201 72.8299 87.5701 70.0599C87.5501 69.7599 87.5001 69.4599 87.5501 69.1599C87.6601 68.3699 88.5201 68.4399 88.7301 69.1299C89.0301 70.2199 88.9201 71.3799 88.9701 72.4999V72.4899Z" fill="#585283"/>
<path d="M82.63 78.3198C82.63 78.5598 82.53 78.7098 82.41 78.7798C82.14 78.9398 81.7 78.7098 81.68 78.2398C81.52 75.1798 81.37 72.1098 81.47 69.0498C81.39 68.7798 81.44 68.3498 81.78 68.2798C82.7 68.2898 82.49 70.0698 82.52 70.7198C82.52 73.2498 82.5 75.7898 82.62 78.3198H82.63Z" fill="#585283"/>
<path d="M82.8302 66.03C82.2802 66.35 81.4801 65.45 81.7801 64.7C81.9501 63.43 81.9801 62.15 82.0201 60.87C82.0301 60.5 82.2802 60.06 82.7102 60.15C83.1302 60.23 83.3302 60.71 83.3302 61.09C83.3602 62.57 83.3502 64.06 83.1602 65.52C83.0802 65.77 82.9602 65.93 82.8202 66.01L82.8302 66.03Z" fill="#585283"/>
<path d="M58.96 34.9302C58.96 34.9302 58.91 34.9901 58.88 35.0101C58.75 35.0901 58.58 35.0401 58.48 34.9201C57.81 34.2301 57.13 33.5402 56.46 32.8602C55.84 32.2302 55.23 31.5802 54.62 30.9402C54.44 30.7802 54.37 30.4602 54.5 30.2302C54.61 30.0302 54.85 30.0002 55.02 30.1502C56.27 31.5802 57.57 32.9602 58.92 34.2902C59.08 34.4502 59.1 34.7701 58.97 34.9401L58.96 34.9302Z" fill="#585283"/>
<path d="M60.3501 46.3598C59.5601 46.8298 58.2801 44.6798 57.7001 44.2498C55.5001 42.0798 53.6301 39.6598 52.0301 37.0098C51.7101 36.5898 52.1901 35.8898 52.5901 36.4298C54.2801 39.0998 56.5501 41.3098 58.8301 43.4798C59.4501 44.2798 61.0301 44.9898 60.5501 46.1698C60.4901 46.2598 60.4201 46.3198 60.3501 46.3598Z" fill="#585283"/>
<path d="M62.9001 40.4798C62.9001 40.4798 62.8601 40.5098 62.8501 40.5198C62.7301 40.5898 62.5701 40.5598 62.4501 40.4698C61.7301 39.7698 61.1101 38.9798 60.4001 38.2498C60.0001 37.8698 60.4001 36.9598 60.9301 37.4798C61.3901 38.2198 63.5301 39.6198 62.9001 40.4798Z" fill="#585283"/>
<path d="M76.8201 2.14988C76.9101 1.75988 76.9201 1.20988 76.4901 1.02988C76.2801 0.949876 76.0901 1.07988 76.0001 1.26988C74.7701 3.29988 73.2201 5.08988 72.1801 7.22988C71.5401 7.89988 70.9201 8.58988 70.3101 9.28988C70.3101 9.27988 70.3101 9.26988 70.3201 9.25988C70.3401 9.21988 70.3701 9.17988 70.4001 9.12988C70.4301 9.06988 70.4601 8.99988 70.4701 8.91988C70.4901 8.85988 70.5301 8.80988 70.5501 8.74988C70.5901 8.56988 70.5501 8.35988 70.4801 8.16988C70.8301 6.95988 71.2101 5.76988 71.5601 4.56988C71.6701 4.10988 72.2901 2.21988 71.3901 2.43988C70.8001 3.14988 70.7301 4.22988 70.1401 4.97988C68.5801 7.34988 67.4201 9.93988 65.8101 12.2799C64.8901 14.0799 64.1501 15.9599 63.5901 17.8599C60.4701 21.4999 59.3901 24.1599 60.5701 29.6399C60.5901 29.9499 60.6501 30.4399 61.0601 30.3999C61.5901 30.1799 61.1501 29.4699 61.1301 29.0799C60.8201 25.7399 62.0801 22.5899 63.8601 19.7499C63.9401 19.7499 64.0201 19.7499 64.0901 19.6999C64.1601 19.6499 64.2201 19.5999 64.2601 19.5199C64.5601 19.0399 64.7901 18.5399 65.0101 18.0299C65.7001 17.0599 66.4301 16.1299 67.1601 15.2399C69.1601 13.2799 70.9701 11.1299 72.8801 9.08988C73.7501 7.74988 74.2101 6.19988 75.0001 4.80988C73.1301 11.3999 74.0101 18.3799 72.9201 25.0999C72.6801 26.3699 72.1301 27.5399 71.6201 28.7199C70.6701 31.1099 70.3301 33.9999 68.3601 35.8099C67.9401 35.9899 67.9001 36.5099 68.0601 36.9099C68.2101 37.2799 68.5401 37.5499 68.9101 37.3299C68.9601 37.2999 69.0201 37.2599 69.0701 37.1999C71.1401 35.2699 71.8601 32.4699 72.6101 29.8299C73.4901 27.2399 74.0601 24.4099 74.6301 21.7699C75.6301 17.6499 74.6801 13.3299 75.9501 9.25988C76.4601 6.89988 76.4801 4.49988 76.8301 2.17988L76.8201 2.14988ZM70.2801 6.21988C70.1201 6.63988 69.9601 7.06988 69.8001 7.48988C69.7301 7.47988 69.6501 7.47988 69.5801 7.48988C69.8401 7.07988 70.0901 6.65988 70.2801 6.20988V6.21988Z" fill="#585283"/>
<path d="M71.7501 15.21C72.0901 15.35 72.2601 15.78 72.2001 16.13C71.9501 17.59 71.7201 18.89 71.6101 20.41C71.6901 22.88 71.1101 25.25 70.2501 27.55C69.6001 29.78 69.4701 32.37 68.0401 34.28C67.6901 34.48 67.4001 34.02 67.4601 33.7C67.7801 32.84 68.3601 32.08 68.6001 31.15C69.5701 28.06 70.3501 24.9 70.6001 21.65C70.8501 19.64 70.5201 17.58 71.0801 15.61C71.1501 15.31 71.4501 15.08 71.7501 15.21Z" fill="#585283"/>
<path d="M64.4802 25.4399C64.3502 25.5199 64.1502 25.4399 64.0602 25.2999C63.9402 25.1199 63.9402 24.8999 64.0602 24.7199C64.6102 23.8599 65.2302 23.0599 65.7402 22.1699C66.6802 20.3999 67.4702 18.5299 68.4502 16.7799C68.7502 16.3999 69.1802 16.8299 69.1502 17.1899C67.8802 20.0199 66.3002 22.7699 64.5602 25.3699C64.5402 25.3999 64.5102 25.4299 64.4802 25.4399Z" fill="#585283"/>
<path d="M62.9901 28.8002C63.7201 29.1802 63.1801 30.2702 63.2201 30.9202C63.2001 31.0902 63.1301 31.1902 63.0401 31.2402C62.7901 31.3902 62.4001 31.1002 62.4401 30.7202C62.4901 30.1702 62.4501 29.6202 62.6001 29.0902C62.6501 28.9202 62.7901 28.7602 62.9901 28.8002Z" fill="#585283"/>
</g>
</g>
</svg>
