<svg width="263" height="233" viewBox="0 0 263 233" fill="none" xmlns="http://www.w3.org/2000/svg">
<mask id="mask0_69_2457" style="mask-type:alpha" maskUnits="userSpaceOnUse" x="0" y="0" width="263" height="233">
<rect width="263" height="233" fill="#D9D9D9"/>
</mask>
<g mask="url(#mask0_69_2457)">
<g style="mix-blend-mode:multiply" opacity="0.3">
<path d="M48.0656 184.526C51.1556 184.086 53.7756 182.046 56.0056 179.986C59.4256 176.546 62.9956 173.066 65.1756 168.666C67.3156 163.846 71.4856 160.166 73.0756 155.046C74.0056 152.536 74.1556 149.836 74.9556 147.296C75.6956 145.146 76.4756 142.996 76.6856 140.726C76.8956 138.006 76.8756 135.266 76.8456 132.536C76.8956 132.696 76.9556 132.856 77.0056 133.016C77.3856 134.636 77.7056 136.286 78.0056 137.936C78.0756 143.776 77.8056 149.776 78.2556 155.616C78.0956 160.346 77.0756 165.006 76.4856 169.696C76.1956 174.306 74.8456 178.716 74.1056 183.246C73.7856 185.856 73.9956 188.496 73.5256 191.086C72.7156 195.766 71.4356 200.666 72.7356 205.366C73.5856 207.976 74.4656 210.776 76.3456 212.846C79.9556 216.416 82.4656 212.386 83.2356 208.896C83.8556 206.146 84.6656 203.426 85.4156 200.696C85.5256 202.156 85.7556 203.596 86.0356 205.046C86.1456 208.486 86.3456 211.946 87.6856 215.176C88.4656 217.296 89.0956 219.556 90.4856 221.366C90.9056 221.876 91.5456 222.506 92.2756 222.276C94.0156 220.206 95.0556 217.486 95.9056 214.906C96.8156 210.066 96.5856 205.026 96.1056 200.146C94.9456 196.036 94.5856 191.746 93.4656 187.626C92.5256 185.226 91.7456 182.766 90.8456 180.346C91.1656 180.906 91.4756 181.476 91.7856 182.036C93.0056 184.316 93.9856 186.996 95.5056 189.176C98.7556 193.916 103.296 197.586 107.326 201.666C110.186 203.886 112.266 207.056 115.546 208.746C116.576 209.236 117.556 210.156 118.786 209.946C121.366 208.376 120.226 204.656 118.666 202.696C116.336 199.486 114.036 196.256 111.646 193.076C108.986 189.636 107.366 185.416 104.966 181.736C103.346 179.616 101.586 177.616 99.9456 175.516C98.5956 173.876 96.9456 172.546 95.9256 170.616C94.6656 167.816 93.6056 164.926 92.2156 162.186C90.8956 159.346 89.1756 156.736 87.6556 154.006C85.8956 150.436 84.7656 146.606 83.2656 142.936C84.7256 145.356 86.4156 147.636 87.7656 150.136C89.0956 152.736 90.1056 155.486 91.5356 158.036C94.0056 162.496 96.7856 166.756 99.7156 170.926C102.536 174.966 106.846 177.606 110.786 180.426C112.766 181.916 114.806 183.566 116.976 184.836C119.826 186.116 122.666 187.706 125.506 189.116C127.436 190.166 133.006 192.346 132.216 188.156C131.286 186.326 130.056 184.626 128.916 182.916C125.116 177.876 119.906 174.196 115.476 169.766C110.266 164.736 105.846 159.126 100.976 153.736C98.8056 151.386 96.2656 149.426 93.8856 147.286C91.7456 145.266 89.8456 142.996 87.7156 140.966C84.7556 138.476 82.4156 135.616 80.2956 132.336C79.5256 131.246 78.9456 130.056 78.4456 128.826C78.4256 128.776 78.3856 128.736 78.3556 128.686C77.6556 124.696 78.5856 120.596 77.8556 116.576C77.8256 116.026 77.7756 115.476 77.7156 114.936C78.6756 117.236 79.3456 119.646 80.1556 122.006C80.7856 123.546 81.9256 124.766 82.8756 126.106C84.8456 129.086 86.8956 132.016 89.3856 134.586C92.5156 139.206 96.1556 143.636 100.986 146.606C103.556 148.836 106.566 150.576 109.376 152.516C114.486 156.186 120.496 160.216 127.086 159.356C129.166 159.066 131.436 158.746 133.096 157.356C135.416 155.476 135.516 151.946 133.066 150.146C130.736 148.556 128.666 146.526 125.966 145.546C122.736 144.246 119.656 142.536 116.246 141.766C113.336 140.916 110.616 139.836 107.836 138.546C105.786 137.236 104.046 135.496 102.086 134.056C99.9056 132.226 97.2256 131.116 95.1656 129.146C93.2956 127.326 91.7656 125.306 89.9056 123.386C88.4556 121.946 87.0556 120.766 85.6256 119.186C83.8556 117.176 82.3656 114.646 80.9056 112.356C79.1456 109.876 77.8756 107.116 76.6656 104.346C79.9056 107.806 83.5656 110.846 86.8056 114.346C91.5356 120.066 98.2156 123.496 104.706 126.836C108.086 128.306 114.016 133.336 117.576 130.916C122.466 126.536 103.526 115.286 100.316 113.016C97.4356 110.726 94.6956 108.436 91.9456 105.966C89.4056 103.476 86.3756 101.576 83.7856 99.1556C79.1056 94.4156 74.6456 89.4656 70.1156 84.5756C68.4056 82.4556 66.7856 80.2656 65.1856 78.0656C64.5256 76.4156 63.8356 74.7856 63.0956 73.1656C60.6856 67.3856 56.6356 62.5256 53.0856 57.4456C50.5756 53.3756 47.1656 50.0156 44.3356 46.1956C40.5556 41.1056 36.8456 36.5756 31.7356 32.4956C29.9856 31.1756 28.1456 30.0056 26.2456 28.9456C27.1756 28.9756 28.1156 29.0156 29.0456 29.0556C32.9956 30.1756 36.9256 31.3456 40.9956 31.9656C43.2456 32.2756 45.4556 32.6956 47.6556 33.2056C48.4456 33.5456 49.1156 33.8056 49.3756 33.9156C51.1356 35.6356 51.7856 37.8956 52.8256 40.1456C54.9056 43.7856 56.6856 47.5656 58.5656 51.3156C62.2656 57.7556 67.6556 62.9656 72.5856 68.4356C76.1256 72.3656 79.1756 76.6856 82.6656 80.6456C89.4356 88.2056 95.5756 96.6056 104.046 102.406C105.736 103.486 108.646 104.946 110.256 103.046C110.856 101.346 110.036 99.2856 109.556 97.6056C107.926 92.2956 105.826 87.1256 102.786 82.4556C97.7656 76.3956 93.4056 69.5456 88.6156 63.2556C85.6856 59.4856 82.0156 56.3956 78.7856 52.8956C76.6056 50.2456 74.3956 47.5156 71.5656 45.5156C68.3456 43.4156 65.5056 40.8656 62.5156 38.4856C61.2656 37.4656 59.7656 36.8656 58.3256 36.1856C61.3856 37.1656 64.4356 38.1856 67.4956 39.1756C71.1056 40.2456 74.8356 40.8156 78.4656 41.7856C81.4256 42.7656 84.4156 43.6756 87.3956 44.5956C89.2356 45.9356 91.0856 47.2556 92.5656 49.0056C94.1956 51.1656 96.0456 53.1556 97.6556 55.3356C98.8656 57.1956 99.6756 59.2756 100.766 61.2056C103.246 65.2556 105.236 69.5256 106.776 74.0156C108.026 76.7056 108.436 79.6456 109.346 82.4456C112.026 89.0756 115.186 95.3156 117.236 102.236C118.346 107.046 118.526 112.086 120.806 116.566C121.136 117.286 121.446 118.056 121.906 118.706C122.436 119.486 123.246 119.896 123.976 119.856C123.976 120.486 123.966 121.106 123.966 121.736C123.956 125.436 123.566 129.106 123.296 132.796C123.306 134.226 123.646 135.636 123.896 137.036C124.016 137.976 124.666 138.956 125.696 139.016C126.816 138.896 127.616 137.876 128.616 137.406C134.286 133.766 137.446 127.436 140.286 121.546C141.706 118.156 140.946 114.416 141.576 110.876C142.096 108.116 143.516 105.826 143.866 102.906C144.056 101.106 143.826 99.2956 143.456 97.5356C142.506 93.8456 141.936 90.0856 141.156 86.3656C139.456 81.1856 137.886 75.8756 135.286 71.0556C133.136 67.8956 131.776 64.5056 129.456 61.3956C130.006 61.6756 130.546 61.9656 131.096 62.2456C134.216 63.6256 137.276 65.1356 140.296 66.7056C141.706 69.1756 143.146 71.6456 144.546 74.1156C147.886 79.1456 150.596 84.5156 152.776 90.1856C153.966 93.3256 155.416 96.3756 156.286 99.6156C156.966 102.416 156.776 105.356 157.346 108.176C157.796 111.346 159.056 114.286 159.906 117.346C160.626 120.136 160.626 122.926 160.576 125.856C160.176 130.146 161.076 134.196 161.176 138.506C161.176 142.086 161.026 145.736 162.316 149.136C163.066 151.376 163.896 153.966 166.346 154.836C168.356 155.686 169.606 153.666 170.706 152.336C173.536 149.886 175.196 146.516 176.336 143.006C178.086 139.016 176.686 134.796 176.106 130.726C175.626 126.606 175.936 122.436 175.296 118.326C174.866 112.616 172.906 107.256 170.886 101.946C168.346 95.9856 166.546 89.3856 161.806 84.6856C159.086 82.2256 156.916 79.2756 154.386 76.6356C152.436 74.6556 150.486 72.8556 148.466 71.0456C151.616 72.6056 154.846 74.0356 157.916 75.7556C162.546 78.6556 166.406 82.1156 171.096 85.2156C171.756 85.7056 172.406 86.2056 173.066 86.7156C173.076 86.8256 173.106 86.9256 173.166 87.0256C173.276 87.8456 174.286 88.5956 174.656 89.3156C176.716 92.5356 179.336 95.7156 181.556 98.9156C183.786 102.186 185.666 105.196 188.056 108.446C189.766 110.926 190.746 113.786 192.166 116.416C194.446 120.226 196.486 124.146 198.036 128.316C199.626 133.296 201.496 138.226 202.496 143.366C203.356 146.346 202.796 150.226 205.606 152.236C206.826 153.156 209.056 154.036 210.086 152.446C210.966 150.726 210.826 148.696 211.196 146.846C211.856 144.166 212.036 141.396 211.756 138.646C211.836 136.066 211.016 133.636 210.136 131.246C209.046 127.476 207.346 123.916 206.256 120.146C205.766 118.256 205.056 116.456 204.136 114.776C205.766 116.956 207.026 119.436 208.606 121.656C212.426 126.126 215.316 131.246 218.906 135.886C220.916 138.456 222.726 141.026 224.266 143.926C225.936 147.356 228.386 150.986 232.426 151.636C233.706 151.856 234.086 150.706 233.986 149.666C233.876 148.116 233.756 146.566 233.586 145.026C233.296 142.496 231.876 140.296 230.686 138.106C228.756 134.166 226.826 130.216 224.656 126.406C221.246 121.686 218.026 116.806 214.076 112.496C213.276 111.756 212.496 110.996 211.726 110.236C212.566 110.766 213.396 111.306 214.226 111.856C216.126 112.906 217.736 114.366 219.616 115.436C221.626 116.516 223.756 117.026 225.796 118.106C230.156 120.376 234.526 122.626 239.216 124.136C244.076 125.536 249.346 130.626 254.526 128.066C256.186 126.376 253.996 124.186 252.736 122.966C250.876 121.146 249.156 119.086 246.736 117.996C240.186 114.896 233.846 111.376 227.296 108.276C222.906 106.156 218.786 103.476 214.236 101.696C211.106 100.336 207.746 99.7756 204.576 98.4856C202.216 97.4556 200.036 96.0756 197.636 95.1556C194.076 94.0856 190.716 92.4856 187.206 91.2756C183.266 90.2756 179.506 88.7056 175.776 87.1256C174.536 86.1756 173.346 85.1656 172.126 84.1756C171.746 83.7756 171.376 83.3756 171.006 82.9756C173.386 83.9856 175.996 84.3456 178.356 85.4456C183.676 87.5356 189.116 89.6556 194.776 90.5956C197.356 91.0856 199.996 90.9956 202.606 90.9456C205.586 90.9956 208.526 91.6456 211.396 92.4056C218.336 94.0256 225.886 94.1256 232.606 91.5656C235.356 90.5456 237.926 89.1056 240.596 87.9156C242.716 86.9456 251.416 83.2856 246.076 81.0156C243.166 80.0656 240.256 79.1356 237.146 79.2856C235.146 79.3356 233.026 79.1056 230.996 79.3056C228.286 79.7156 225.626 80.4456 222.846 80.3656C220.806 80.2356 218.766 80.3056 216.726 80.3256C217.716 79.7756 218.666 79.1756 219.546 78.4556C220.986 77.2456 224.246 75.4156 222.526 73.2656C217.876 68.8256 211.216 71.9356 205.696 72.4356C199.876 73.5656 194.146 72.9356 188.216 73.5756C184.246 74.3156 180.376 73.0656 176.436 72.7756C172.156 72.4256 167.836 72.8956 163.566 72.3556C161.206 72.1156 158.856 71.7756 156.546 71.2056C153.346 68.7056 150.076 66.3156 146.616 64.2056C149.956 64.6856 153.336 64.9356 156.706 65.0656C159.986 65.0856 163.206 64.4556 166.446 64.1756C174.996 63.7456 183.856 62.8256 191.536 58.6956C194.386 57.2156 197.486 55.2156 198.126 51.8356C198.416 50.4756 198.316 48.7256 196.946 47.9956C194.436 47.0656 191.696 48.2756 189.116 48.3756C181.236 48.8056 173.946 51.9756 166.416 53.9556C161.666 55.2456 156.676 54.7556 151.816 55.6656C148.726 56.1156 145.616 56.2556 142.496 56.3856C143.826 56.0056 145.166 55.6156 146.536 55.3656C150.546 54.7456 154.656 54.8456 158.656 54.0756C163.516 52.9856 168.666 51.8056 172.646 48.6756C173.176 48.2756 173.586 47.7656 173.996 47.2556C174.366 46.7956 174.726 46.3456 175.176 45.9656C176.716 44.7956 178.096 43.4456 179.486 42.0956C180.126 41.4656 180.776 40.8356 181.436 40.2256C181.766 39.8856 182.126 39.5556 182.496 39.2256C183.456 38.3656 184.446 37.4856 184.746 36.2256C185.016 34.7756 183.546 33.8556 182.266 33.7856C176.076 33.0156 170.856 36.4756 165.666 38.7556C161.746 40.4556 157.646 41.7656 153.756 43.5256C152.036 44.5156 150.356 45.5756 148.586 46.4556C144.686 48.2356 140.616 49.6356 136.676 51.3056C132.286 52.5356 127.736 53.0756 123.176 53.1156C122.826 53.1156 122.136 53.0656 121.676 53.2656C117.926 51.2156 114.296 48.8356 110.536 46.8956C112.576 46.6956 114.626 46.9356 116.666 46.7556C119.586 46.3056 122.466 45.6256 125.306 44.8356C129.756 43.5756 134.246 42.2756 138.326 40.0256C140.636 38.8656 142.346 36.9956 144.396 35.4556C147.496 33.2256 151.676 33.0356 154.396 30.1956C156.636 28.1356 158.256 25.5556 160.106 23.1656C161.846 21.3456 163.786 19.6356 164.756 17.2456C165.276 15.6656 167.696 10.9656 165.856 9.89556C164.586 9.53556 163.226 10.0656 161.966 10.3056C159.566 10.8656 157.186 11.5456 154.946 12.6156C151.476 14.1856 148.526 16.6356 145.256 18.5556C139.256 22.4456 133.186 26.2956 127.446 30.5856C124.006 33.0856 120.706 35.7056 117.306 38.2756C115.346 39.4256 113.096 39.8756 111.046 40.8256C108.766 41.8656 106.646 43.2256 104.256 43.9956C102.066 43.1056 99.8556 42.2656 97.6656 41.3656C93.1156 39.2956 88.4156 37.6156 83.6556 36.0756C82.8556 35.7756 82.0456 35.5156 81.2356 35.2756C83.0156 34.8456 84.7656 34.3156 86.5056 33.8056C93.8556 31.6656 101.166 29.3456 108.296 26.5756C111.486 25.3156 114.296 23.7656 117.626 22.7156C124.066 20.7956 130.906 19.7856 136.716 16.2156C141.946 12.8556 147.696 9.97556 151.856 5.22556C159.886 -1.30444 150.106 -1.60444 145.006 -0.864437C140.506 -0.194439 136.206 1.37556 131.726 2.17556C126.536 3.15556 121.016 4.37556 115.896 6.06556C111.416 7.65556 107.506 10.4356 103.166 12.3156C100.226 13.6856 96.8856 14.1756 93.8556 15.3356C89.9556 16.8956 86.6956 19.6656 82.9356 21.5156C76.8156 25.0156 70.5156 28.2956 64.7156 32.3256C62.4356 31.8056 60.1756 31.2156 57.8556 30.8756C51.8756 29.9656 46.1556 29.5656 40.2056 28.0956C41.8156 26.8556 43.3056 25.4056 45.0256 24.3656C48.8756 22.2056 53.5656 21.6156 57.5456 19.6456C59.7356 18.6756 61.7256 17.3156 63.8256 16.1856C67.0056 14.6256 70.3956 13.4956 73.7156 12.2556C77.8656 11.5656 81.5256 9.47556 85.4156 8.02556C88.4956 6.96556 91.6456 6.10556 94.5556 4.60556C97.8756 3.06556 101.316 1.85556 104.716 0.51556C106.956 -0.434441 109.396 -1.45444 110.836 -3.52444C112.026 -5.01444 111.076 -6.55444 109.326 -6.67444C105.836 -7.02444 102.286 -7.08444 98.8056 -6.53444C94.6456 -6.15444 90.2756 -6.45444 86.5056 -4.26444C84.7456 -3.46444 82.8556 -3.08444 81.0256 -2.50444C77.7456 -1.44444 74.5956 -0.0144386 71.3156 1.05556C68.8456 1.76556 66.3756 2.58556 64.1356 3.86556C60.7456 5.58556 57.9856 8.30556 54.2956 9.43556C48.6056 10.5656 44.5656 14.7956 40.3156 18.4056C38.5656 19.8056 36.3556 20.8756 34.6556 22.3856C34.5356 22.5156 34.3356 22.7156 34.0856 22.9556C33.5056 23.5156 32.6856 24.3156 32.1156 25.0856C30.2256 24.2156 28.3156 23.4056 26.2456 23.0556C21.5856 22.1156 16.8956 21.3756 12.2256 20.5556C13.0656 20.3856 13.9156 20.2556 14.7856 20.2256C17.1056 20.1556 19.4356 20.3656 21.7056 19.6956C26.4956 18.8256 30.2056 15.4556 34.5156 13.2956C38.7756 11.1756 42.5856 8.29556 46.8056 6.11556C50.5256 3.95556 54.0756 1.50556 57.7156 -0.774437C65.4356 -5.21444 73.2056 -9.68444 80.0456 -15.4544C82.3756 -17.5044 84.5856 -19.6644 86.9356 -21.6744C88.7056 -23.1144 90.7556 -24.4444 91.7556 -26.5744C92.8556 -29.1444 97.0656 -38.0944 91.1856 -37.1244C87.8656 -36.4244 85.1256 -34.2444 82.1456 -32.7444C77.2956 -30.0644 72.0156 -28.1344 67.4856 -24.8944C62.6556 -21.5244 58.2756 -17.5944 53.8456 -13.7044C51.7256 -12.1744 49.7656 -10.7544 47.3756 -9.59444C43.4956 -7.97444 39.7756 -6.03444 36.3456 -3.58444C31.8856 -0.0844383 26.9856 2.83556 22.5556 6.36556C19.7356 9.41556 16.5956 12.0556 13.2456 14.5056C12.4256 15.2256 11.6156 15.9656 10.8356 16.7256C9.78561 17.7456 8.79561 18.8256 7.84561 19.9356C6.99561 19.8656 6.14561 19.8356 5.29561 19.8356C5.70561 19.5256 6.11561 19.2156 6.52561 18.9056C9.09561 17.1756 11.0756 14.8256 13.0656 12.4756C15.6656 10.0956 18.8156 8.40556 21.4356 6.04556C22.9756 4.46556 24.5956 2.97556 26.2256 1.48556C28.8256 -0.89444 31.4256 -3.27444 33.6456 -6.02444C35.4356 -7.94444 37.4856 -9.70444 38.7656 -12.0344C40.0056 -14.2344 40.8956 -16.6044 41.9356 -18.9044C43.1156 -21.4444 45.3256 -23.3344 46.2756 -26.0044C47.7256 -29.7644 49.7056 -33.8744 49.8456 -38.0244C49.6956 -40.0244 49.7156 -42.3744 48.2256 -43.8944C46.5656 -45.5744 43.7156 -45.1644 41.9556 -43.8344C41.3456 -43.3444 40.7456 -42.8244 40.1856 -42.2744C39.2456 -41.3544 38.3756 -40.3644 37.6456 -39.2744C36.9756 -38.1744 37.0056 -36.8444 36.6356 -35.6344C36.1656 -34.4144 35.6356 -33.2144 34.9556 -32.1044C32.6256 -28.6444 29.5456 -25.7044 27.8156 -21.8544C25.2356 -17.5044 23.8056 -12.5444 20.8756 -8.40444C18.8256 -5.24444 16.4856 -2.27444 14.6756 1.02556C13.3256 3.26556 11.3656 5.01556 9.76561 7.05556C7.77561 9.74556 6.3856 12.8256 4.00561 15.2256C3.69561 15.9656 -0.0543947 19.0156 -0.0743952 20.1756C-0.464396 20.2156 -0.854395 20.2556 -1.2444 20.2956C-5.3344 20.7856 -9.50439 20.1056 -13.5644 20.8356C-13.9244 20.8956 -14.2044 21.0556 -14.4244 21.2656C-15.0944 21.9156 -15.1544 23.1256 -14.7344 24.0256C-13.3344 27.1956 -9.6144 25.9056 -6.89439 26.0456C-5.4944 26.1156 -4.08439 26.1856 -2.68439 26.2556C-3.16439 28.2156 -2.60439 31.4156 -2.4844 32.6556C-1.8244 36.6056 -1.64439 40.5656 -1.6144 44.5556C-1.34439 50.8556 -0.294394 57.0056 -0.104395 63.3156C-0.234395 67.0756 -0.754395 70.8656 -0.124395 74.6156C0.315604 77.2456 0.815606 79.8856 1.50561 82.4556C2.53561 85.2056 3.93561 81.9856 4.63561 80.8356C5.96561 77.8956 7.46561 74.9856 8.44561 71.9056C9.58561 68.1156 9.45561 64.1656 9.51561 60.2656C9.51561 57.8056 9.65561 55.3356 9.77561 52.8756C10.0956 55.6656 10.2456 58.4856 10.1756 61.3756C11.1956 73.6156 7.24561 85.7056 8.51561 97.9156C8.83561 103.576 8.35561 109.506 11.1756 114.666C11.7656 115.816 12.7356 116.746 13.9656 115.826C16.8856 114.176 17.1756 110.266 18.2056 107.366C19.4956 104.586 20.8056 101.806 21.7156 98.8656C22.5956 95.6356 23.5156 92.3856 23.9656 89.0656C24.5156 85.1156 23.4656 81.1956 23.6856 77.2556C24.0256 73.4256 24.3256 69.4456 24.2056 65.5756C23.9756 61.7556 23.2656 57.9656 23.0056 54.1356C22.7356 50.9656 21.4556 48.0056 20.8156 44.9156C20.2256 40.6556 18.0256 36.9756 15.7456 33.4256C14.7956 31.6156 13.7956 29.4756 12.4456 27.7456C13.8556 28.0256 15.2656 28.2856 16.6856 28.4556C18.6056 29.5356 20.5456 30.5756 22.4956 31.5856C23.4656 32.1456 24.3956 32.7556 25.3156 33.3856C26.4356 36.0856 28.7856 39.5956 28.7056 41.2556C28.9856 45.5056 29.6056 49.8256 30.1556 54.0556C30.4556 61.0256 31.3256 67.9656 33.4856 74.6256C35.0856 79.0556 36.1256 83.7856 38.5656 87.8556C39.3756 89.1156 40.3256 90.3056 41.4556 91.2956C41.8556 91.6356 42.3056 92.0656 42.8556 91.9856C43.1956 91.9456 43.3556 91.5656 43.3956 91.2656C43.3956 90.2056 43.3956 89.2056 43.4856 88.0656C43.5556 85.4556 45.0456 83.0856 45.3756 80.5056C46.0856 76.8956 45.6756 73.1856 44.9356 69.6056C44.2556 66.7856 44.0156 63.8756 43.4556 61.0356C42.6456 58.6356 41.9656 56.1256 40.7256 53.9056C39.1456 50.1956 38.3656 46.1656 36.2956 42.6956C37.5156 43.8956 38.7256 45.0956 39.9156 46.3056C42.0256 48.9656 44.2656 51.5156 46.2756 54.2556C46.9256 55.2656 47.5156 56.3056 48.0756 57.3656C48.0156 58.7356 48.7756 60.9156 48.7856 61.8056C49.2956 65.1656 49.6356 68.5656 49.6256 71.9656C49.5356 75.2656 49.3956 78.5556 49.1756 81.8456C48.8956 84.9256 48.2556 87.9956 48.5156 91.0856C47.6256 94.6956 45.9456 98.0656 44.0956 101.276C41.7256 106.556 37.8156 110.866 34.7556 115.776C32.9156 118.316 31.3556 121.436 29.8656 124.246C28.2656 127.146 26.3656 129.936 25.4656 133.166C24.5156 136.186 24.9156 139.366 24.3756 142.456C24.2756 143.616 23.8756 144.876 24.3356 146.006C24.7456 147.066 25.8756 146.926 26.4856 146.166C27.7556 144.706 29.2356 143.536 30.7156 142.366C31.9956 141.356 33.2656 140.336 34.4256 139.126C35.8356 137.426 36.7756 135.406 37.9056 133.526C40.1556 129.456 43.7156 126.016 44.4956 121.266C45.1356 118.356 46.9456 115.906 47.7156 113.046C47.8456 112.356 48.5256 110.136 49.1556 107.686C49.0456 109.426 48.8956 111.176 48.7956 112.866C48.7356 114.806 48.6356 116.746 48.2156 118.656C47.1856 123.596 47.1556 128.656 47.0956 133.686C46.7856 142.036 47.0356 150.896 51.1556 158.376C52.1256 159.416 52.8256 157.806 53.2756 157.056C60.5456 146.116 60.0056 132.546 62.2156 120.046C62.9556 114.866 62.6556 109.676 61.9056 104.526C61.3356 101.406 60.7156 98.3156 60.7356 95.1256C60.8256 91.6356 60.1056 88.2356 59.0756 84.9156C58.1356 80.2456 57.0356 75.6456 55.4556 71.1556C55.3556 70.8056 55.2456 70.4556 55.1456 70.1056C57.8456 74.7756 60.2856 79.5956 62.5356 84.4956C64.0656 88.3856 64.7956 92.4856 65.6156 96.5556C66.5656 100.786 68.3356 104.776 70.0356 108.746C72.1056 112.966 73.6056 117.376 74.6156 121.926C74.3356 123.896 73.7556 125.806 73.3356 127.736C72.6856 131.726 71.2856 135.456 69.6956 139.156C68.3856 143.056 66.5756 146.716 64.5056 150.256C62.7256 153.266 62.0056 156.896 59.6256 159.536C58.8856 160.266 58.0756 160.936 57.2756 161.596C56.2356 162.446 55.1956 163.306 54.2956 164.316C52.3256 166.386 51.1056 169.026 49.2056 171.146C48.4556 172.076 47.5156 172.816 46.5856 173.556C45.4756 174.436 44.3656 175.316 43.5756 176.506C42.7356 177.926 41.9956 179.896 42.8556 181.446C44.3056 182.756 45.8956 184.706 48.0256 184.556L48.0656 184.526ZM76.6156 52.2256C81.0656 56.4756 84.4556 61.8856 88.2156 66.7456C93.3056 72.9356 99.1856 78.6456 102.046 86.4056C103.846 91.0656 106.896 95.2756 107.376 100.376C103.636 98.3856 100.686 95.1956 97.3056 92.6856C95.0456 91.1956 92.7956 89.6556 91.0656 87.5356C86.8656 82.5156 83.8256 76.6556 79.6756 71.5856C77.0456 68.1356 73.6056 65.4456 70.7456 62.1956C67.7456 58.4356 65.0156 54.7556 62.2556 50.7856C60.9056 48.8756 59.7656 46.8156 58.4956 44.8456C56.3956 42.0156 53.9656 39.4256 52.7456 36.0556C56.3356 38.7356 60.0056 41.5356 63.0956 44.8456C64.8256 47.1256 66.5456 49.4156 68.4156 51.5756C74.3556 58.2756 79.3956 65.6956 84.9456 72.7256C85.6056 73.6256 86.6556 73.6756 87.1656 73.1756C87.5056 72.8456 87.6056 72.2656 87.1856 71.5356C85.0456 68.6456 83.5256 65.3456 81.3056 62.5156C79.1356 59.6156 76.2556 57.3656 73.8256 54.6956C70.1056 50.6056 67.4756 45.2356 63.3556 41.4256C66.5356 43.5656 69.1956 46.3456 72.2456 48.6556C73.7356 49.7956 75.2156 50.9556 76.6156 52.2056V52.2256ZM89.9056 45.4156C90.6456 45.6456 91.3756 45.8756 92.1156 46.1156C93.6256 47.9456 95.0756 49.8356 96.5856 51.6556C94.5356 49.3956 92.2456 47.3756 89.9056 45.4056V45.4156ZM116.956 96.0456C116.106 92.6656 115.146 89.3056 113.696 86.1256C112.226 83.2156 111.066 80.1756 109.996 77.1056C109.006 74.7156 107.466 72.6556 106.566 70.2056C105.726 67.9256 105.056 65.4056 104.086 63.1556C106.556 66.4256 109.526 69.3256 111.526 72.9256C113.696 76.9756 114.846 81.4456 116.536 85.6956C116.796 86.6056 118.246 87.4156 118.836 86.3656C118.956 86.1056 118.926 85.8156 118.846 85.5456C118.226 83.0556 117.276 80.6356 115.976 78.4156C114.066 74.8556 112.626 71.0456 110.476 67.6256C107.706 63.1456 104.656 58.8856 100.916 55.1556C98.6956 52.5156 96.6956 49.6856 94.5656 46.9556C95.1556 47.1556 95.7456 47.3456 96.3256 47.5556C96.4456 47.6056 96.5656 47.6356 96.6856 47.6756C99.4856 50.4756 101.656 53.9956 104.036 57.1156C106.116 60.4056 108.976 63.3356 111.226 66.5456C114.036 71.2556 117.706 75.3856 120.396 80.1656C122.226 83.5256 123.226 87.3756 123.946 91.1456C124.216 93.6656 123.376 95.7956 123.266 98.3756C123.476 103.316 124.436 108.326 123.056 113.196C121.056 107.406 118.816 101.916 116.966 96.0456H116.956ZM111.096 52.2956C114.676 53.7056 118.126 55.4256 121.546 57.2256C122.966 59.3356 123.976 61.7356 124.716 64.1456C125.336 67.2456 125.826 70.3656 126.256 73.4956C126.666 77.2056 126.396 80.6656 126.796 84.4556C127.146 88.5656 127.656 92.6756 127.056 96.7956C127.006 97.3856 126.946 97.9756 126.896 98.5756C126.896 98.4256 126.876 98.2856 126.876 98.1356C126.936 96.2256 127.116 94.2956 126.756 92.3956C126.386 90.4856 125.466 88.7456 124.726 86.9556C123.726 84.2956 123.096 81.5156 122.076 78.8656C119.516 72.8356 115.356 67.6056 110.956 62.7356C109.196 60.6256 107.666 58.3256 106.006 56.1356C103.956 53.3056 101.406 50.9156 98.9356 48.4756C102.966 49.8156 107.106 50.8356 111.106 52.3156L111.096 52.2956ZM128.336 63.2756C131.496 67.5256 133.596 72.4556 135.826 77.2256C137.046 79.8256 138.456 82.2556 139.306 85.0156C139.866 87.0156 139.636 88.8856 139.626 90.9856C140.186 100.306 142.336 100.246 138.356 109.876C137.506 112.036 137.476 114.376 136.936 116.616C136.476 118.586 135.486 120.356 134.726 122.206C133.126 126.216 132.096 131.046 128.936 134.116C128.186 134.846 127.306 135.486 126.276 135.976C126.216 132.686 127.486 129.516 127.706 126.236C128.026 123.476 127.956 120.686 127.976 117.906C128.166 115.296 128.596 112.706 128.766 110.096C128.876 106.116 128.246 102.126 128.986 98.1656C130.196 93.7056 131.076 89.0756 130.166 84.4756C129.766 81.9456 129.026 79.4956 128.656 76.9656C128.336 74.2156 128.286 71.4356 127.856 68.7056C128.806 72.8356 129.016 77.0956 130.656 81.0656C131.356 84.5956 131.756 88.1656 132.306 91.7556C132.826 96.1556 131.616 100.556 132.266 104.946C132.266 106.506 135.056 107.666 135.136 105.576C135.266 101.886 134.516 98.2256 134.476 94.5356C134.336 89.0856 134.076 83.5856 132.466 78.3256C131.806 75.6856 131.806 73.1356 131.146 70.4256C130.296 67.4856 128.716 64.8156 127.346 62.0856C127.676 62.4856 128.006 62.8756 128.336 63.2756ZM126.606 64.6056C125.466 62.5856 124.536 60.2856 123.356 58.1856C123.456 58.2356 123.556 58.2856 123.656 58.3456C124.936 60.2856 126.016 62.3556 126.616 64.6156L126.606 64.6056ZM166.936 96.1356C169.296 100.176 169.516 104.896 170.926 109.266C172.696 119.336 175.846 129.456 174.226 139.756C173.566 142.376 172.666 144.946 171.936 147.546C171.686 148.406 170.966 148.986 170.336 149.586C169.186 150.566 168.346 151.806 167.466 153.026C167.246 153.306 166.896 153.466 166.536 153.416C162.516 152.476 163.226 147.346 163.086 144.106C162.906 138.526 162.846 132.936 162.716 127.356C162.386 122.426 161.236 117.686 160.776 112.756C160.156 108.306 160.356 103.646 159.056 99.3056C157.606 94.5556 155.566 90.0556 153.216 85.6956C151.296 81.9656 149.926 77.9956 148.316 74.1256C151.786 79.6456 155.506 85.1356 157.936 91.2156C160.606 96.8956 163.636 102.456 165.236 108.576C166.806 113.796 165.396 119.286 166.296 124.576C166.376 125.556 167.816 126.226 168.416 125.646C168.566 125.496 168.666 125.266 168.676 124.936C168.596 124.196 168.546 123.446 168.436 122.716C167.606 118.426 167.196 114.076 167.216 109.696C167.036 105.746 164.996 102.236 163.556 98.6356C161.036 92.2756 157.226 86.5256 154.816 80.1156C159.266 85.0956 163.516 90.3856 166.936 96.1356ZM189.466 96.4856C190.506 97.2456 191.446 98.0956 192.356 98.9956C190.926 97.9556 189.456 96.9556 188.046 95.8756C188.406 95.9856 188.756 96.0956 189.116 96.2056C189.236 96.3056 189.356 96.3956 189.476 96.4856H189.466ZM186.146 94.4356C186.146 94.4356 186.096 94.3956 186.076 94.3756C186.116 94.3956 186.156 94.4256 186.196 94.4456C186.176 94.4456 186.166 94.4456 186.146 94.4456V94.4356ZM202.336 116.636C204.886 121.436 207.606 126.146 208.446 131.596C209.816 135.346 210.266 139.306 210.636 143.266C210.596 145.076 210.256 146.796 209.706 148.556C209.326 149.296 209.216 150.436 208.606 151.026C208.486 151.136 208.356 151.226 208.206 151.296L208.226 151.276C206.056 151.186 205.056 149.056 204.956 147.116C204.736 144.466 204.766 141.746 203.886 139.196C203.006 136.636 201.486 134.366 200.516 131.846C199.196 128.516 198.836 124.926 197.716 121.536C194.396 113.466 189.766 105.976 185.076 98.6356C187.226 101.406 189.086 104.386 191.266 107.136C192.666 109.116 193.426 111.436 194.576 113.546C195.676 115.606 197.156 117.426 198.326 119.446C198.536 119.796 199.016 120.096 199.426 119.926C199.786 119.776 199.826 119.336 199.676 119.016C199.276 118.206 198.926 117.376 198.576 116.546C197.046 112.906 194.596 109.876 192.496 106.536C189.936 102.536 187.596 98.3756 184.316 94.8956L184.466 94.9256C185.096 95.4256 185.716 95.9356 186.346 96.4256C193.146 101.766 198.596 108.816 202.346 116.616L202.336 116.636ZM219.416 123.336C222.336 127.046 225.756 130.436 227.786 134.756C229.416 139.676 231.706 144.486 232.016 149.726C228.766 148.556 227.316 145.326 225.376 142.666C224.296 141.176 222.996 139.856 221.956 138.336C219.696 134.426 217.456 130.446 214.546 126.946C212.026 123.516 209.546 120.056 206.986 116.656C205.486 114.886 203.886 113.286 202.556 111.316C200.366 108.186 198.226 104.956 195.736 102.036C196.176 102.426 196.616 102.826 197.016 103.266C198.846 105.216 201.176 106.576 203.176 108.326C205.206 110.226 206.926 112.416 208.736 114.526C210.126 116.146 211.826 117.446 213.226 119.046C215.376 122.026 216.946 125.396 219.526 128.076C220.226 128.956 221.316 128.286 220.646 127.346C216.236 121.756 212.166 115.836 207.176 110.746C204.926 108.516 202.126 106.996 199.966 104.656C198.756 103.336 197.246 102.386 195.856 101.276C194.336 99.8856 192.766 98.5556 191.186 97.2356C191.206 97.2356 191.226 97.2556 191.246 97.2656C195.376 99.7856 199.166 102.806 203.426 105.116C210.716 109.286 214.736 116.636 219.416 123.336ZM195.026 95.8256C197.396 96.8156 199.556 98.2956 202.026 99.0456C204.006 99.7056 206.086 99.9556 208.046 100.666C212.086 102.136 215.836 104.256 219.876 105.736C223.946 106.946 227.246 109.586 230.746 111.876C233.716 113.616 236.976 114.706 239.836 116.676C243.656 119.236 248.386 120.196 251.646 123.576C252.326 124.336 253.626 125.186 253.586 126.316C253.476 126.516 253.216 126.586 252.996 126.616C250.896 126.766 248.876 126.016 246.966 125.216C243.976 123.976 240.716 122.766 237.646 121.456C233.486 119.686 229.146 118.236 224.876 116.746C221.746 115.376 218.866 113.506 215.886 111.836C214.136 110.756 212.256 109.896 210.586 108.656C209.826 108.046 209.076 107.376 208.286 106.756C206.936 105.416 205.566 104.106 204.096 102.906C202.316 101.466 200.286 100.456 198.256 99.4256C198.546 99.5156 198.826 99.6156 199.116 99.6956C203.246 101.076 206.706 103.976 211.006 104.996C214.386 105.876 217.236 107.906 220.336 109.416C224.376 111.156 228.226 113.146 231.946 115.516C232.636 116.246 233.416 115.516 232.776 114.806C229.496 112.306 225.376 111.116 222.026 108.666C216.106 105.036 209.546 102.686 203.016 100.436C199.766 99.0156 196.646 97.2956 193.316 96.0856C192.956 95.9556 192.606 95.8456 192.246 95.7356C191.816 95.4256 191.386 95.1156 190.926 94.8556C187.836 92.9056 184.276 91.9756 181.006 90.4156C180.986 90.4056 180.966 90.3856 180.936 90.3756C182.046 90.7456 183.146 91.1156 184.226 91.5656C187.666 93.3956 191.356 94.5756 195.036 95.8256H195.026ZM237.566 80.6556C238.586 81.0856 247.926 81.1756 246.856 82.5756C244.996 84.1756 242.476 84.7956 240.416 86.1256C238.686 87.0256 237.216 88.3056 235.486 89.1956C232.796 90.4956 229.656 90.3556 226.756 90.9556C224.726 91.3556 222.756 91.8456 220.646 91.8556C217.476 91.7756 214.346 91.1556 211.196 90.8356C207.956 90.7756 204.836 89.9956 201.636 89.3856C198.216 88.9556 194.796 89.2556 191.416 88.3356C188.276 87.4056 185.336 85.9156 182.106 85.2556C178.316 84.5056 174.636 83.1756 171.186 81.4056C172.876 82.0056 174.496 82.8056 176.226 83.2756C178.956 83.9256 181.736 84.3556 184.436 85.1456C187.256 85.6956 189.806 87.0356 192.556 87.8056C195.356 88.6056 198.276 87.9856 201.116 87.8256C204.176 87.7656 207.266 88.3256 210.346 88.1656C213.666 88.3756 216.996 88.4056 220.246 87.5656C220.596 87.4956 220.946 87.4456 221.266 87.2856C221.576 87.1556 221.606 86.7756 221.476 86.5056C221.246 85.9456 220.596 85.8856 220.086 86.0256C216.836 86.9156 213.466 87.4356 210.086 87.1856C206.596 86.7056 203.086 85.6156 199.546 86.4356C195.986 86.6556 192.396 86.0856 188.876 85.5356C185.786 84.8956 182.986 83.3556 179.936 82.5756C177.406 81.9556 174.796 81.7156 172.296 80.9656C170.436 80.4256 168.696 79.5856 166.886 78.9056C166.756 78.8156 166.616 78.7356 166.476 78.6456C166.376 78.5756 166.266 78.5356 166.146 78.5156C166.126 78.4956 166.096 78.4756 166.076 78.4656C166.616 78.5556 167.156 78.6256 167.706 78.7056C172.126 79.7156 176.496 80.9556 180.976 81.6956C185.236 82.4656 189.346 83.9456 193.626 84.5856C198.076 84.9656 202.676 84.7856 207.056 83.9056C208.736 83.3756 210.216 82.7756 211.926 82.2556C212.126 82.2056 212.326 82.1356 212.526 82.0756C218.216 83.0156 234.646 79.7056 237.536 80.6756L237.566 80.6556ZM164.916 74.1856C167.096 74.1856 169.276 74.0856 171.456 74.3256C174.056 74.7556 176.626 75.3456 179.256 75.5756C183.746 75.9556 188.276 75.8556 192.776 75.8956C196.266 75.4656 199.726 74.8056 203.186 74.1456C205.726 73.7956 208.246 74.0456 210.796 73.8056C214.196 73.5656 218.036 72.6056 221.176 74.3556C220.776 75.3356 220.236 76.1256 219.586 76.7456C216.426 79.8156 210.756 79.2656 206.806 81.0556C202.326 83.3256 197.246 82.4756 192.386 82.1956C189.386 81.8056 186.436 81.6456 183.486 81.0056C185.856 81.0256 188.236 80.7456 190.606 80.7756C194.176 80.9056 197.916 81.3356 201.516 81.1556C202.816 81.0356 201.946 79.3656 200.996 79.5256C198.436 79.5256 195.726 79.4056 193.116 79.3156C188.376 79.5056 183.866 79.8756 179.226 78.4556C174.196 76.6156 168.876 76.0456 163.626 75.2056C162.546 74.9756 161.496 74.6356 160.466 74.2556C160.276 74.1256 160.086 73.9856 159.896 73.8556C159.826 73.7956 159.746 73.7356 159.676 73.6756C161.406 73.9956 163.156 74.2056 164.916 74.1756V74.1856ZM152.886 57.5956C155.746 57.2856 158.526 56.4356 161.346 55.8956C165.486 55.2056 169.716 55.0756 173.796 53.9056C181.026 52.4956 187.956 49.0956 195.436 49.4256C195.546 52.3356 193.016 54.2656 190.836 55.8956C187.766 58.2956 184.016 59.3956 180.246 60.1156C176.316 60.6556 172.556 61.9456 168.706 62.8356C162.296 63.6256 155.646 63.4256 149.186 63.1256C146.636 62.5056 144.076 61.9556 141.506 61.4256C141.316 61.3356 141.116 61.2556 140.916 61.1656C143.646 61.5756 146.406 61.8256 149.196 61.6356C152.656 61.4756 156.126 61.8856 159.576 61.5756C163.566 60.8656 167.416 59.5156 171.436 58.9656C172.936 58.6656 172.206 57.1356 170.966 57.3356C168.266 57.8356 165.516 57.7656 162.826 58.2156C161.046 58.5356 159.346 59.1556 157.576 59.5456C152.026 60.4056 146.426 60.0556 140.846 59.4756C138.506 59.1456 136.216 58.4256 133.886 57.9556C135.046 57.8156 136.106 57.6756 136.886 57.5756C140.266 57.9756 143.676 57.9656 147.066 57.5556C149.006 57.4556 150.946 57.7056 152.886 57.5956ZM137.786 52.2656C140.486 51.5456 143.296 51.1356 145.856 49.9856C148.396 48.7856 150.896 47.4756 153.456 46.2856C155.706 45.2756 158.106 44.6456 160.306 43.5356C164.516 40.9756 168.856 38.4056 173.676 37.0456C176.386 36.3656 179.216 35.4956 182.026 35.9556C181.846 37.1056 180.726 37.8756 180.066 38.7756C178.906 40.4356 177.716 41.8956 176.196 43.2956C173.186 45.2756 170.546 47.7856 167.116 49.0256C164.956 49.9156 162.806 51.2556 160.466 51.9956C157.526 52.7456 154.466 52.8856 151.476 53.3956C147.876 53.8656 144.386 55.0056 140.766 55.3356C137.526 55.4056 134.296 55.6956 131.076 55.9956C129.606 55.7856 128.146 55.5456 126.686 55.3056C127.266 55.3456 127.856 55.3656 128.436 55.3756C130.536 55.4256 132.586 54.9656 134.626 54.5456C139.236 53.7756 143.946 53.8256 148.576 52.8456C151.296 52.0956 154.236 52.0756 156.836 50.8956C158.436 50.1256 159.916 49.1356 161.386 48.1456C162.236 47.4956 163.746 47.2456 164.066 46.1256C164.096 44.9456 162.496 44.5056 161.606 44.9856C160.006 45.8556 158.296 46.5356 156.686 47.3856C154.446 48.7756 152.236 50.1356 149.696 50.9456C147.566 51.6456 145.296 51.5656 143.106 51.9656C139.196 52.6856 135.206 53.4656 131.206 53.8356C133.426 53.4056 135.586 52.7156 137.796 52.2456L137.786 52.2656ZM113.096 41.3856C115.876 40.1756 119.136 39.7356 121.616 37.8456C123.866 36.4156 125.616 34.3756 127.716 32.7756C129.856 31.3256 132.236 30.2756 134.306 28.6956C135.596 27.7856 136.656 26.5756 137.696 25.4056C139.606 23.4556 142.076 21.7656 144.586 20.6256C147.646 19.2256 150.816 17.9656 153.586 16.0456C156.926 13.6756 160.516 11.3156 164.706 10.8856C163.106 13.3956 162.106 16.2256 160.586 18.7756C157.516 22.7556 154.326 26.7056 150.656 30.1556C145.646 33.3656 140.746 37.0756 135.116 39.2256C128.926 42.1956 121.966 43.6656 115.356 45.5456C114.066 45.7456 112.766 45.8256 111.466 45.8456C112.446 45.5856 113.416 45.3156 114.366 44.9956C118.406 43.6956 121.746 40.9756 125.846 39.7756C130.226 38.9256 133.746 36.2056 137.436 33.8956C140.136 32.4156 143.326 31.5456 145.956 29.7656C146.246 29.5956 146.496 29.3456 146.536 28.9956C146.566 27.9056 145.076 27.4756 144.246 27.9356C143.076 28.5456 141.886 29.1256 140.746 29.7956C138.316 31.3556 135.516 32.1956 133.036 33.6356C130.446 35.1156 128.186 37.1856 125.396 38.3056C121.476 40.0656 117.446 41.6256 113.406 43.1156C111.696 43.6056 109.966 43.9756 108.216 44.2756C108.256 44.2556 108.306 44.2256 108.356 44.2056C110.016 43.3856 111.396 42.1956 113.096 41.3956V41.3856ZM67.6656 32.2156C71.7256 29.6856 75.2956 26.5456 80.0056 25.2356C84.2356 23.9456 87.3856 20.7156 91.3256 18.8656C94.6756 17.4056 98.1256 16.1756 101.416 14.5756C103.956 13.1956 106.646 12.1956 109.376 11.2756C115.376 8.79556 121.826 7.87556 127.966 5.82556C134.726 3.72556 141.966 0.435558 149.296 1.99556C148.396 2.81556 147.616 3.75556 146.846 4.69556C145.926 5.81556 145.006 6.92556 143.866 7.84556C137.286 12.4656 129.516 14.9756 122.126 17.9456C116.636 20.2956 111.716 23.8856 105.746 25.0356C99.1956 25.9856 92.8356 27.8556 86.9556 30.9356C84.3156 32.0656 81.4256 32.4356 78.6356 33.0356C77.1256 33.3556 75.5956 33.6156 74.0556 33.7856C73.3556 33.6856 72.6556 33.5856 71.9556 33.4956C72.7656 33.3456 73.5656 33.1956 74.3556 32.9656C77.0456 32.2156 79.5056 30.8756 82.1056 29.8756C87.4456 28.2056 92.5156 25.8856 97.6256 23.6256C101.126 21.8956 105.036 21.4356 108.706 20.2356C110.796 19.4456 112.786 18.4256 114.806 17.4656C119.366 15.9056 123.276 13.7456 127.326 11.1056C128.366 10.2656 126.706 9.22556 125.896 9.77556C122.526 11.8256 119.006 13.5856 115.086 14.3056C109.746 15.5356 104.436 17.3156 99.5656 19.8456C95.3256 22.5956 90.6356 24.4256 85.8656 26.0356C80.7156 28.0156 75.6856 30.2956 70.5256 32.2456C69.8256 32.4756 69.1556 32.7656 68.4756 33.0556C67.9156 32.9756 67.3656 32.8856 66.8256 32.7856C67.1056 32.6056 67.3856 32.4256 67.6556 32.2356L67.6656 32.2156ZM38.5556 20.8256C40.2056 19.8356 42.0356 19.1356 43.5656 17.9456C44.4356 17.3256 45.1656 16.5556 45.8956 15.7756C46.5456 15.0956 47.1856 14.4056 47.9256 13.8356C50.1156 12.4656 52.6456 11.7956 54.8956 10.5256C59.3056 7.87556 63.9556 5.63556 68.5256 3.26556C71.6556 1.45556 75.1756 0.825562 78.6456 0.0155602C82.7756 -1.41444 86.8956 -2.88444 91.0056 -4.38444C95.4556 -5.81444 100.116 -5.89444 104.726 -5.43444C106.376 -5.31444 108.016 -5.30444 109.656 -5.19444C109.726 -5.17444 109.716 -5.10444 109.696 -5.04444C109.566 -4.71444 109.486 -4.58444 109.216 -4.28444C107.616 -2.63444 105.536 -1.82444 103.486 -0.66444C101.406 0.465561 99.4156 1.57556 97.1256 2.28556C92.6156 3.41556 87.8356 4.27556 83.5156 6.13556C76.5456 9.34556 69.2056 11.5456 62.0356 14.2756C57.5156 15.7456 53.0156 17.3356 48.8056 19.5856C45.9156 20.8756 43.1956 22.4556 41.0656 24.8356C40.1056 25.8256 39.1156 26.7556 37.9756 27.5156C37.3656 27.3356 36.7556 27.1256 36.1656 26.8856C38.9956 24.0656 43.0256 22.5956 46.0656 20.0056C47.7256 18.5456 49.7556 17.6656 51.6756 16.6156C56.0256 13.8656 60.4156 11.1956 65.5556 10.0956C71.3656 8.37556 76.3756 4.17556 82.6456 4.08556C83.2556 3.84556 85.9156 3.98556 85.6456 3.06556C85.5356 2.73556 85.1256 2.59556 84.8156 2.63556C80.4056 3.32556 75.9656 4.13556 71.7156 5.49556C69.8856 6.10556 68.2656 7.17556 66.5456 8.02556C63.6056 9.14556 60.7856 10.5256 57.8556 11.6756C54.0656 12.7756 50.6656 14.7156 47.6156 17.1856C43.3156 19.9956 39.3556 23.2856 35.2456 26.3456C35.2156 26.3756 35.1756 26.4156 35.1356 26.4556C34.5556 26.2056 33.9756 25.9456 33.4056 25.6756C34.8556 23.8256 36.6156 22.1556 38.5356 20.8156L38.5556 20.8256ZM8.94561 10.2756C10.2856 8.68556 11.7856 7.26556 13.1356 5.68556C15.2156 2.83556 17.2356 -0.0344391 19.3656 -2.84444C20.9656 -5.25444 21.8756 -7.89444 23.3956 -10.3844C26.3756 -15.1644 29.4256 -19.8944 32.0356 -24.9044C34.0656 -28.1344 36.1456 -31.3144 38.0256 -34.6544C38.6856 -35.7644 39.0856 -36.9944 39.6856 -38.1244C40.3756 -38.9444 41.1956 -39.6344 42.0056 -40.3444C45.5956 -44.3644 47.5756 -40.9144 47.3456 -36.9544C47.0656 -35.0044 46.1156 -32.9644 45.5656 -31.0544C44.4956 -27.4044 43.8556 -23.5644 41.4056 -20.5144C38.6956 -16.1444 36.1256 -11.6244 32.5156 -7.90444C30.1656 -4.61444 27.0056 -2.12444 24.0156 0.565563C22.0956 2.32556 20.5356 4.40556 18.7556 6.28556C16.7156 8.21556 14.4256 9.83556 12.0056 11.2456C13.1756 9.89556 14.5656 8.77556 15.9556 7.65556C17.1756 6.66556 18.3956 5.67556 19.4756 4.52556C21.2756 2.78556 22.4856 0.615562 23.6456 -1.58444C24.9656 -3.47444 26.0856 -5.50444 27.3956 -7.39444C29.1656 -9.58444 30.2856 -12.1944 32.0956 -14.3444C34.5656 -16.9844 35.8756 -20.4244 37.0156 -23.7944C37.2156 -24.2344 37.4256 -24.6744 37.6256 -25.1144C38.0256 -26.0944 36.5856 -26.1244 36.2756 -25.4244C33.2356 -20.4244 30.1856 -15.3744 27.6156 -10.0944C24.5456 -5.60444 20.8156 -1.67444 17.2256 2.52556C13.3156 7.14556 9.50561 11.7356 5.05561 15.8656C6.61561 14.1556 7.61561 12.1156 8.96561 10.2556L8.94561 10.2756ZM12.6556 17.2256C16.0356 14.0456 19.5356 10.9756 23.3556 8.32556C26.4756 6.41556 29.6156 4.47556 32.4056 2.04556C34.7356 0.125565 37.4656 -1.13444 40.1056 -2.53444C43.1256 -4.26444 46.0856 -6.11444 48.9256 -8.10444C56.7556 -14.4944 65.4056 -19.7544 73.7656 -25.4044C79.5556 -28.4144 84.5256 -33.2844 91.0356 -34.6944C90.2656 -31.7244 89.2156 -28.6744 87.5456 -26.0944C87.3656 -25.9244 87.1956 -25.7444 87.0156 -25.5744C82.6056 -21.2944 77.5156 -17.7744 72.4456 -14.3044C65.1156 -9.07444 58.5856 -2.59444 50.2656 1.11556C46.2556 3.04556 42.0456 4.66556 38.4856 7.38556C33.9156 10.6056 29.4356 13.2056 24.2656 15.6556C21.6556 16.7056 18.8156 17.0156 16.0656 17.5056C19.8756 15.9356 23.3856 13.7756 26.5956 11.2056C28.7356 9.47556 31.1456 8.17556 33.4556 6.70556C36.1956 4.82556 38.8056 2.77556 41.6256 1.00556C45.1856 -1.34444 49.1956 -2.80444 52.8856 -4.88444C56.6356 -7.09444 60.0556 -9.81444 63.7856 -12.0444C64.5456 -12.6944 67.2756 -13.3644 66.7656 -14.6144C66.5156 -15.0844 65.8656 -15.0344 65.4656 -14.8244C60.5156 -12.0044 54.9856 -10.3444 50.1556 -7.34444C45.5356 -4.55444 41.4456 -0.994438 36.8056 1.77556C28.3956 7.09556 20.0456 12.7856 11.6756 18.2256C11.9956 17.8856 12.3156 17.5556 12.6456 17.2256H12.6556ZM7.60561 56.0756C7.63561 58.2556 7.22561 60.4156 6.97561 62.5756C6.48561 68.8456 6.30561 75.5256 2.79561 80.9956C2.29561 76.3956 1.33561 71.8956 1.14561 67.2456C1.0356 62.4856 1.49561 57.7156 1.74561 52.9556C1.9656 49.6956 1.49561 46.4456 1.08561 43.2256C0.575605 38.2956 0.205605 33.3956 0.015605 28.4456C1.8756 31.0956 2.56561 34.5156 3.22561 37.6556C3.6956 41.8756 3.24561 46.1756 3.98561 50.3856C4.40561 51.6256 4.19561 54.9156 6.02561 54.7756C6.66561 54.6356 6.91561 53.8956 6.85561 53.3156C6.30561 46.3556 5.33561 39.4656 3.60561 32.6956C3.15561 30.6256 2.87561 28.2256 1.67561 26.4856C2.21561 26.5156 2.75561 26.5656 3.30561 26.6056C3.83561 26.9756 4.14561 27.6656 4.50561 28.1856C4.98561 29.0256 5.3756 29.8856 5.73561 30.7556C5.82561 31.0656 5.91561 31.3756 5.99561 31.6956C7.1356 34.4356 7.48561 37.3356 7.81561 40.2356C7.81561 42.5856 7.61561 44.9956 7.53561 47.3356C7.26561 50.2556 7.40561 53.1756 7.61561 56.0856L7.60561 56.0756ZM20.9256 52.5256C21.5056 55.9056 23.0156 59.0856 23.0256 62.5556C23.1056 65.3056 22.7856 67.8556 22.7356 70.6556C22.7756 74.2556 22.9756 77.8556 22.6756 81.4556C22.3156 85.1156 22.1956 88.8056 21.6556 92.4556C20.8656 96.0956 19.3156 99.5256 18.2056 103.076C16.7256 106.746 17.1356 112.086 13.1256 114.136C12.0756 111.886 11.3156 109.516 10.7356 106.916C10.4456 103.636 11.2556 100.326 10.7856 97.0456C10.3156 92.4656 9.41561 87.7856 10.3156 83.2056C10.9356 79.4756 12.6856 75.9456 12.5056 72.0856C12.3656 67.0956 12.2456 62.0956 11.9856 57.1056C11.6256 54.5956 11.4656 52.0756 11.3456 49.5456C11.3756 41.0856 10.6256 35.3256 6.31561 27.8656C9.6356 32.4056 12.1056 37.6456 13.8356 42.9956C14.8456 46.6156 14.9956 50.3956 15.5756 54.0956C16.8256 61.8256 18.3756 69.5356 19.0956 77.4256C19.2856 78.3256 18.6356 81.0056 19.8356 81.1256C19.9756 81.1256 20.0856 81.0756 20.1756 80.9856C20.3256 80.8456 20.3956 80.6256 20.3956 80.4156C20.4156 77.7556 20.6156 75.0956 20.5456 72.4356C20.4056 69.6556 19.8756 66.9156 19.4556 64.1656C18.5056 56.9256 18.1556 49.5556 15.9556 42.5356C14.3756 37.1956 13.0256 30.9956 8.69561 27.0656C8.76561 27.0656 8.84561 27.0756 8.91561 27.0856C15.3556 30.8356 19.9456 45.5556 20.9156 52.4956L20.9256 52.5256ZM32.7556 39.4856C35.3356 41.9256 36.1456 45.4556 37.2856 48.7056C38.2256 51.3256 39.4156 53.8256 40.1456 56.5056C41.7456 60.9156 43.8256 65.1556 43.7856 69.9656C44.1456 73.6156 44.0956 77.2656 43.7856 80.9256C43.3856 83.6956 42.7156 86.4256 42.4456 89.2256C38.1356 83.0956 36.2256 76.2056 34.9156 68.8256C33.0256 60.6256 30.7456 52.3556 31.3556 43.8456C33.3456 48.2556 34.8856 52.8856 36.1356 57.5556C36.4956 61.1656 37.8356 64.5856 38.4156 68.1456C38.8156 69.2356 38.5056 72.4456 40.2856 72.0556C40.8256 71.8356 40.9056 71.1756 40.8256 70.6656C40.6456 69.4856 40.4556 68.3056 40.2656 67.1356C39.7856 62.6156 38.2656 58.3656 36.4956 54.2156C35.4756 51.6456 35.0756 48.8956 34.5156 46.1856C33.8456 43.3556 32.6756 40.6856 31.3656 38.0956C31.4056 38.1256 31.4456 38.1656 31.4856 38.1956C31.9056 38.6256 32.3256 39.0556 32.7456 39.4856H32.7556ZM46.2056 113.246C45.4156 115.596 44.4356 117.816 43.3456 120.046C42.4556 122.316 41.8556 124.686 40.7856 126.886C39.6956 129.286 37.8556 131.186 36.2656 133.246C34.4456 136.186 31.9756 138.496 29.4656 140.836C28.9156 141.326 28.4256 141.886 27.9356 142.446C27.2056 143.296 26.4656 144.146 25.5056 144.746C26.0456 142.016 26.7756 139.316 27.4456 136.616C28.4356 133.866 29.8756 131.336 31.1456 128.686C32.4856 125.816 33.5756 122.816 35.3756 120.186C37.3656 117.246 39.4356 114.336 41.2156 111.256C43.2756 107.176 44.3156 102.666 47.3056 99.0656C46.1456 102.166 45.1656 105.346 44.3256 108.546C43.4956 112.636 41.4256 116.306 38.6856 119.446C35.8356 122.646 33.7056 126.386 32.6456 130.556C32.5056 131.026 32.7156 131.636 33.1256 131.896C33.4556 132.066 33.7056 131.996 33.9256 131.786C34.5056 131.216 34.7656 129.626 35.1556 129.096C36.9456 125.406 40.0556 122.546 41.7356 118.786C44.5156 112.896 47.2256 106.936 49.0856 100.676C49.1256 101.326 49.1556 101.976 49.2056 102.626C49.0656 103.996 48.6956 105.366 48.5156 106.766C48.1056 109.006 46.9756 111.106 46.1856 113.246H46.2056ZM57.0356 82.3256C58.0556 87.2356 58.7156 92.2256 59.6956 97.1456C60.7556 105.416 60.8156 113.826 60.7056 122.166C60.3256 127.196 58.2556 131.896 58.0056 136.966C57.7356 140.376 56.8956 143.646 55.5856 146.816C54.2956 150.106 53.4056 153.606 51.6156 156.676C49.6856 150.756 50.2856 144.326 49.8156 138.176C49.3456 130.916 51.1856 123.786 51.7556 116.606C51.6556 110.606 50.7556 104.596 51.0856 98.5956C51.3856 95.7856 51.7356 92.9956 51.7656 90.1656C51.9656 87.7656 52.4356 85.3956 52.4956 82.9856C52.5756 79.7256 52.3256 76.4656 52.3856 73.2056C53.4456 77.1156 54.3656 81.1156 54.6156 85.1756C54.9656 89.8456 54.1356 94.4956 54.5856 99.1756C55.0956 104.676 55.0056 110.206 55.2256 115.716C55.7456 120.216 55.1556 124.676 54.3156 129.096C54.1056 130.086 55.4456 130.966 55.8156 129.766C56.9056 124.996 57.2456 120.076 56.9856 115.186C56.7356 112.336 56.4756 109.476 56.7056 106.616C58.2156 98.7256 57.1756 90.4956 55.8756 82.6156C55.3256 78.8256 55.0356 74.7956 54.4356 70.9856C55.3356 74.7556 55.8056 78.6156 57.0356 82.3156V82.3256ZM114.116 142.976C118.216 145.076 122.436 146.956 126.576 148.966C128.046 149.846 129.186 150.736 130.626 151.786C131.106 152.196 131.826 152.416 132.106 153.016C132.196 154.216 131.776 155.136 131.066 155.816C129.736 157.106 127.396 157.576 125.566 157.536C122.996 157.576 120.696 156.386 118.496 155.206C116.056 153.896 113.466 152.916 110.906 151.886C108.096 150.466 105.576 148.466 102.726 147.096C96.7956 143.236 92.1656 137.586 88.0656 131.856C84.0356 127.106 80.5156 121.916 78.9556 115.796C81.8556 120.806 85.6956 125.186 89.8356 129.216C92.3256 132.276 94.4856 135.616 97.2656 138.436C100.606 141.736 104.476 144.446 108.396 147.046C109.266 147.556 109.536 146.436 108.856 146.036C106.796 144.526 104.636 143.296 102.726 141.566C100.926 139.886 99.7156 137.696 97.9056 136.026C94.7856 133.356 91.7956 130.556 89.4556 127.106C85.9556 122.896 82.1356 118.906 79.4856 114.076C81.4456 116.526 83.6056 118.806 85.6856 121.146C87.4756 123.246 89.0556 125.506 90.9756 127.506C94.8556 131.206 99.3256 134.826 103.726 137.916C106.896 140.346 110.716 140.956 114.166 142.976H114.116ZM114.606 128.296C104.066 127.626 93.2056 115.826 85.3856 109.266C82.1656 106.316 79.4056 102.956 76.7356 99.5256C74.5756 97.0056 72.4256 94.5356 70.8156 91.5956C69.8656 89.7356 69.2056 87.7656 68.4556 85.8256C68.5756 85.9856 68.6856 86.1356 68.7456 86.2556C69.7656 87.7256 70.7556 89.4356 71.8156 90.9156C74.0056 93.6756 76.0856 96.5256 78.3356 99.2256C80.0056 100.966 82.0556 102.276 83.6956 104.046C86.1056 106.576 88.8356 108.766 91.1856 111.356C91.4456 111.616 91.6756 111.286 91.4656 111.086C89.8656 109.376 88.4756 107.476 86.7856 105.846C85.1256 104.196 83.0956 102.946 81.5856 101.156C79.8956 98.8756 77.7956 96.8356 76.0756 94.5656C77.0156 95.5056 77.9956 96.4256 78.9956 97.3156C81.1556 99.2456 82.9156 101.566 84.9656 103.596C86.8256 105.386 88.8756 106.966 90.9456 108.496C100.006 113.476 107.576 120.776 114.606 128.296ZM67.8956 84.1156C67.8956 84.1156 67.8756 84.1256 67.8656 84.1356C67.8356 84.1656 67.8256 84.2056 67.8056 84.2356C67.7556 84.1256 67.7156 84.0056 67.6656 83.8956C67.5856 83.7156 67.4356 83.5456 67.2556 83.4256C67.2356 83.3756 67.2156 83.3256 67.1956 83.2656C67.4356 83.5556 67.6656 83.8356 67.8856 84.1156H67.8956ZM81.3856 153.496C81.3856 153.496 81.3656 153.496 81.3556 153.516C81.2256 153.636 81.1556 153.826 81.1056 154.036C81.0556 153.366 80.9856 152.686 80.8956 152.016C81.0556 152.516 81.2156 153.006 81.3856 153.506V153.496ZM74.1856 207.136C73.0856 204.306 74.3956 201.386 74.9356 198.586C76.0056 194.006 76.1656 189.296 76.8056 184.656C77.2156 182.306 77.7956 179.886 78.0556 177.446C78.5056 174.146 78.0056 170.806 78.5456 167.516C79.0856 164.206 80.6456 161.136 81.0956 157.826C81.1156 160.426 80.8756 163.026 80.7356 165.626C80.2456 171.486 79.9656 177.366 79.5456 183.226C79.5156 183.646 79.8356 184.056 80.2256 184.196C80.5856 184.326 80.9856 184.166 81.0356 183.756C81.1856 182.506 81.2856 181.256 81.4756 180.006C82.5956 175.606 81.2556 171.096 82.0056 166.676C82.5956 164.016 82.8756 161.306 82.9956 158.586C83.0356 158.736 83.0856 158.896 83.1356 159.046C83.2956 159.846 83.4556 160.636 83.6356 161.426C83.7556 162.516 83.8456 163.606 83.8956 164.706C84.0656 167.636 83.8556 170.596 84.0356 173.526C84.3656 176.866 85.2956 180.126 85.3556 183.496C85.2856 185.256 85.0656 187.006 84.9156 188.766C84.5256 192.276 84.7456 195.836 84.2256 199.336C83.8656 201.686 82.7556 203.796 81.8356 205.956C79.1556 212.726 78.1456 214.886 74.1956 207.136H74.1856ZM90.5156 182.616C91.4256 184.816 91.6856 187.286 92.4356 189.556C93.2756 192.216 94.0656 194.896 94.4756 197.656C94.8556 200.676 94.3356 203.786 94.3656 206.836C94.4856 211.866 95.3956 216.626 91.8856 220.836C90.3456 218.166 88.9156 215.336 88.5856 212.226C88.3356 210.006 88.7256 207.886 88.5156 205.646C88.0456 202.106 86.9356 198.666 87.0856 195.046C87.1156 194.386 87.1456 193.736 87.1856 193.076C87.4256 191.596 87.6156 190.116 87.6756 188.606C87.5656 184.576 86.9356 180.596 86.5756 176.536C86.2156 174.176 85.5456 171.876 85.2656 169.506C85.1856 168.796 85.1656 168.076 85.1656 167.366C85.6756 169.026 86.2356 170.666 86.8756 172.276C86.9956 174.006 87.1056 175.746 87.2356 177.476C87.3856 179.796 88.1556 181.996 88.5756 184.266C88.6756 188.166 88.5056 192.086 88.3356 195.996C88.2356 196.636 89.3856 197.236 89.5456 196.426C89.5556 193.586 90.2056 190.796 90.2156 187.966C89.9656 184.216 89.2756 180.476 88.3756 176.826C88.1956 176.196 88.0956 175.556 88.0156 174.916C88.2756 175.486 88.5456 176.066 88.8356 176.626C88.8856 176.716 88.9356 176.816 88.9856 176.906C89.2356 178.866 89.6656 180.786 90.5056 182.596L90.5156 182.616ZM83.1056 147.336C84.9356 151.226 85.7656 155.516 87.7856 159.326C90.3756 163.606 92.9356 167.396 95.2456 171.916C98.1856 175.876 100.456 180.346 103.266 184.426C106.426 188.816 109.876 192.946 112.826 197.486C114.816 200.666 118.316 203.376 118.346 207.426C118.316 207.866 118.326 208.546 118.016 208.846C117.886 208.976 117.706 209.026 117.446 208.986C115.696 208.706 114.616 207.126 113.326 206.066C110.416 203.946 107.816 201.386 105.286 198.816C101.266 194.396 96.9656 190.096 94.3156 184.666C92.4856 181.296 91.5956 177.546 90.3056 173.936C89.3656 171.946 88.4856 169.946 87.8456 167.846C87.8456 167.016 87.7256 166.246 87.2956 165.896C86.4156 162.566 85.3756 159.286 84.4656 155.976C84.4156 155.496 84.3556 154.946 84.0856 154.566C83.7556 153.306 83.4656 152.046 83.2056 150.766C83.6156 151.716 83.9856 152.676 84.3056 153.656C85.1656 156.466 86.4356 159.146 87.2056 161.996C88.0156 164.356 89.3856 166.456 90.5856 168.636C91.8956 171.046 92.6256 173.736 93.8456 176.196C95.0656 178.856 96.6956 181.286 98.2956 183.726C99.0556 184.966 99.7356 186.246 100.466 187.506C100.586 187.716 100.876 187.896 101.116 187.796C101.326 187.706 101.356 187.446 101.266 187.256C98.3856 181.476 95.2656 175.816 92.2756 170.096C90.8656 166.596 89.5256 163.056 87.7156 159.746C86.7456 157.406 85.9456 155.006 84.6856 152.786C84.2156 152.156 83.4856 149.236 82.7356 147.866C82.6456 147.246 82.5656 146.626 82.5056 145.996C82.7156 146.436 82.9156 146.876 83.1156 147.326L83.1056 147.336ZM116.116 174.366C120.436 179.296 125.296 183.536 129.506 188.616C125.946 189.176 123.226 186.086 120.336 184.376C115.696 181.676 111.006 178.966 106.986 175.386C104.706 173.386 102.166 171.666 100.216 169.306C98.3556 167.276 97.0256 164.726 96.0156 162.166C94.6656 158.956 93.0956 155.846 91.4756 152.776C89.1356 148.356 86.3556 143.986 83.6856 139.626C85.5556 141.856 87.5156 144.006 89.2256 146.406C92.3056 150.896 94.9956 155.636 98.3656 159.896C99.7256 162.196 101.396 164.586 103.326 166.496C104.696 167.926 105.946 169.456 107.226 170.966C107.366 171.126 107.616 171.276 107.826 171.146C108.026 171.016 107.966 170.726 107.846 170.566C107.336 169.946 106.836 169.316 106.336 168.696C103.716 165.156 101.586 161.296 98.7056 157.926C97.6756 156.106 96.8256 154.176 95.7356 152.396C96.8456 153.696 97.9656 154.976 99.1656 156.196C101.886 159.026 104.886 161.296 107.726 164.036C111.006 167.066 113.146 171.076 116.126 174.366H116.116ZM48.8556 174.476C51.2656 172.466 53.3456 170.116 55.1556 167.566C57.3456 164.496 60.2856 162.006 62.1456 158.686C64.0856 154.826 66.9756 151.586 69.2456 147.936C67.8456 150.756 66.0656 153.376 64.7956 156.266C63.5656 159.466 61.8356 162.356 60.0756 165.276C59.6856 165.846 60.4856 166.916 60.9956 166.186C62.7656 163.166 64.3756 160.066 66.3656 157.176C68.0456 154.946 70.0256 152.886 70.8256 150.126C72.4656 144.246 73.5956 138.196 75.6456 132.426C74.9156 140.146 73.3656 147.766 70.4456 154.966C68.5656 160.856 65.2256 166.226 61.1456 170.856C58.3956 173.536 55.7156 176.266 53.3156 179.266C52.9756 179.586 52.6256 179.946 52.2756 180.316C50.7956 181.856 49.1456 183.556 46.9556 183.306C45.8156 182.726 45.1156 181.686 44.1256 180.826C44.6756 178.086 46.8756 176.246 48.8856 174.486L48.8556 174.476Z" fill="#585283"/>
<path d="M182.226 156.735C182.206 156.735 182.186 156.725 182.166 156.715C182.186 156.715 182.206 156.735 182.226 156.735Z" fill="#585283"/>
</g>
</g>
</svg>
