<svg width="130" height="130" viewBox="0 0 130 130" fill="none" xmlns="http://www.w3.org/2000/svg">
<path d="M129.95 64.975C129.95 29.0903 100.86 0 64.975 0C29.0903 0 0 29.0903 0 64.975C0 100.86 29.0903 129.95 64.975 129.95C100.86 129.95 129.95 100.86 129.95 64.975Z" fill="#AAB995"/>
<path d="M88.54 37.62C87.55 37.46 86.55 37.84 85.66 38.26C84.28 39 82.85 39.73 81.76 40.87C80.64 42.15 79.01 42.89 78.03 44.32C77.5 45 77.2 45.82 76.71 46.53C76.28 47.12 75.83 47.71 75.55 48.39C75.23 49.21 74.97 50.05 74.72 50.9C74.72 50.85 74.72 50.79 74.72 50.74C74.76 50.2 74.81 49.67 74.88 49.13C75.41 47.32 76.07 45.5 76.48 43.66C76.98 42.22 77.74 40.88 78.37 39.49C78.9 38.1 79.73 36.87 80.39 35.54C80.74 34.77 80.92 33.93 81.31 33.18C82.01 31.81 82.87 30.43 82.91 28.85C82.9 27.96 82.89 27.02 82.51 26.2C81.74 24.76 80.58 25.76 80.01 26.76C79.56 27.55 79.05 28.31 78.56 29.08C78.66 28.62 78.73 28.15 78.78 27.68C79.07 26.61 79.34 25.52 79.23 24.4C79.19 23.67 79.21 22.91 78.95 22.22C78.87 22.02 78.73 21.77 78.49 21.77C77.76 22.24 77.18 22.98 76.67 23.7C75.93 25.11 75.52 26.68 75.2 28.23C75.17 29.61 74.87 30.96 74.82 32.34C74.88 33.17 74.89 34 74.94 34.83C74.9 34.63 74.85 34.42 74.81 34.22C74.65 33.4 74.6 32.48 74.34 31.67C73.79 29.9 72.74 28.34 71.89 26.7C71.22 25.74 70.88 24.57 70.03 23.73C69.76 23.48 69.54 23.1 69.14 23.05C68.2 23.29 68.19 24.54 68.49 25.29C68.9 26.5 69.3 27.72 69.74 28.92C70.23 30.23 70.33 31.69 70.72 33.05C71.02 33.86 71.37 34.64 71.68 35.44C71.94 36.07 72.32 36.64 72.45 37.33C72.57 38.31 72.62 39.3 72.79 40.28C72.93 41.28 73.21 42.25 73.42 43.23C73.62 44.5 73.61 45.78 73.72 47.06C73.5 46.17 73.2 45.31 73.02 44.41C72.86 43.48 72.81 42.54 72.61 41.62C72.27 40.01 71.82 38.43 71.31 36.87C70.83 35.36 69.75 34.13 68.8 32.89C68.33 32.24 67.86 31.54 67.31 30.94C66.55 30.27 65.83 29.51 65.09 28.81C64.59 28.3 63.08 27.1 62.93 28.47C63.04 29.12 63.26 29.76 63.45 30.4C64.14 32.32 65.4 33.95 66.34 35.73C67.47 37.78 68.3 39.93 69.28 42.05C69.73 42.98 70.32 43.83 70.85 44.71C71.32 45.54 71.69 46.42 72.15 47.25C72.83 48.3 73.28 49.4 73.62 50.62C73.75 51.03 73.82 51.45 73.86 51.88C73.86 51.9 73.86 51.91 73.87 51.93C73.71 53.23 73.03 54.4 72.87 55.71C72.83 55.88 72.79 56.06 72.76 56.23C72.68 55.43 72.71 54.62 72.68 53.82C72.63 53.29 72.4 52.8 72.23 52.3C71.91 51.19 71.55 50.09 71.03 49.07C70.5 47.35 69.8 45.64 68.6 44.26C68.02 43.33 67.26 42.5 66.58 41.64C65.35 40.02 63.88 38.21 61.77 37.85C61.1 37.74 60.37 37.62 59.73 37.9C58.84 38.26 58.47 39.34 59.05 40.13C59.62 40.84 60.06 41.66 60.8 42.22C61.67 42.93 62.46 43.75 63.44 44.31C64.25 44.85 64.99 45.44 65.73 46.1C66.24 46.7 66.61 47.4 67.08 48.03C67.58 48.8 68.3 49.4 68.75 50.2C69.15 50.94 69.43 51.71 69.82 52.48C70.13 53.06 70.45 53.56 70.74 54.18C71.1 54.97 71.31 55.89 71.54 56.73C71.85 57.66 71.97 58.63 72.09 59.6C71.42 58.23 70.58 56.94 69.91 55.55C69 53.34 67.26 51.64 65.58 50C64.68 49.22 63.33 47.11 62 47.52C60.08 48.4 64.85 53.67 65.62 54.68C66.29 55.66 66.92 56.63 67.53 57.65C68.08 58.66 68.83 59.53 69.4 60.52C70.39 62.43 71.3 64.38 72.23 66.31C72.56 67.12 72.85 67.95 73.13 68.79C73.18 69.36 73.24 69.93 73.31 70.5C73.5 72.51 74.29 74.39 74.9 76.3C75.29 77.79 76.02 79.15 76.53 80.6C77.21 82.53 77.92 84.28 79.11 86.02C79.53 86.59 79.98 87.13 80.46 87.64C80.18 87.54 79.89 87.44 79.61 87.34C78.5 86.62 77.4 85.88 76.2 85.31C75.54 85 74.89 84.66 74.27 84.29C74.06 84.11 73.88 83.97 73.81 83.91C73.43 83.21 73.45 82.46 73.34 81.66C73.04 80.34 72.86 79.01 72.63 77.67C72.1 75.33 70.94 73.22 69.94 71.06C69.22 69.51 68.69 67.89 67.99 66.34C66.62 63.37 65.53 60.19 63.47 57.6C63.05 57.11 62.29 56.38 61.62 56.81C61.27 57.28 61.33 57.99 61.32 58.55C61.32 60.34 61.47 62.14 61.96 63.86C62.93 66.21 63.62 68.73 64.5 71.13C65.05 72.57 65.88 73.87 66.54 75.26C66.96 76.28 67.38 77.34 68.06 78.22C68.85 79.17 69.49 80.23 70.18 81.25C70.47 81.68 70.87 82.01 71.25 82.36C70.4 81.77 69.56 81.16 68.71 80.57C67.7 79.9 66.6 79.37 65.58 78.72C64.76 78.13 63.93 77.57 63.1 77C62.66 76.41 62.22 75.83 61.93 75.15C61.63 74.33 61.25 73.54 60.96 72.72C60.76 72.03 60.71 71.31 60.56 70.61C60.18 69.13 59.97 67.62 59.93 66.09C59.8 65.14 59.95 64.2 59.93 63.25C59.74 60.95 59.35 58.73 59.38 56.4C59.5 54.81 59.92 53.24 59.64 51.64C59.61 51.39 59.59 51.12 59.5 50.88C59.41 50.59 59.2 50.39 58.97 50.33C59.03 50.14 59.09 49.95 59.15 49.75C59.51 48.61 59.97 47.52 60.41 46.41C60.54 45.97 60.57 45.5 60.63 45.04C60.68 44.74 60.57 44.38 60.26 44.26C59.9 44.19 59.56 44.43 59.21 44.48C57.12 45.06 55.54 46.71 54.1 48.26C53.34 49.17 53.22 50.4 52.69 51.43C52.27 52.23 51.61 52.8 51.23 53.67C51 54.21 50.9 54.79 50.84 55.37C50.78 56.6 50.6 57.81 50.49 59.03C50.52 60.79 50.5 62.57 50.84 64.31C51.2 65.49 51.3 66.66 51.72 67.84C51.58 67.7 51.44 67.56 51.29 67.42C50.46 66.7 49.66 65.94 48.88 65.17C48.68 64.28 48.47 63.38 48.28 62.48C47.73 60.61 47.4 58.7 47.27 56.75C47.2 55.67 47.05 54.59 47.08 53.51C47.14 52.58 47.48 51.7 47.57 50.77C47.73 49.75 47.63 48.72 47.65 47.7C47.69 46.77 47.96 45.91 48.25 45.01C48.78 43.73 48.89 42.39 49.27 41.05C49.61 39.95 50 38.83 49.93 37.66C49.91 36.9 49.9 36.02 49.23 35.52C48.69 35.07 48.11 35.57 47.65 35.88C46.55 36.36 45.71 37.25 45.03 38.22C44.11 39.28 44.14 40.72 43.93 42.03C43.68 43.35 43.19 44.6 43 45.93C42.59 47.73 42.69 49.57 42.8 51.4C43.02 53.48 42.94 55.68 43.96 57.58C44.56 58.6 44.95 59.71 45.48 60.77C45.89 61.57 46.32 62.3 46.77 63.06C45.95 62.28 45.09 61.53 44.31 60.71C43.16 59.38 42.3 57.94 41.15 56.54C40.99 56.33 40.84 56.11 40.69 55.89C40.69 55.86 40.69 55.82 40.69 55.78C40.73 55.52 40.49 55.19 40.45 54.93C40.12 53.74 39.62 52.51 39.24 51.31C38.86 50.09 38.57 48.98 38.14 47.75C37.85 46.82 37.82 45.85 37.63 44.9C37.29 43.51 37.03 42.11 36.95 40.67C36.93 38.98 36.83 37.29 37.01 35.61C37.03 34.61 37.57 33.47 36.89 32.58C36.6 32.18 36 31.7 35.53 32.09C35.09 32.54 34.95 33.17 34.65 33.71C34.19 34.47 33.87 35.31 33.7 36.19C33.43 36.98 33.45 37.8 33.5 38.62C33.48 39.89 33.66 41.14 33.64 42.41C33.61 43.04 33.66 43.66 33.78 44.27C33.49 43.44 33.33 42.56 33.06 41.72C32.31 39.98 31.9 38.13 31.24 36.35C30.87 35.37 30.55 34.4 30.35 33.36C30.16 32.14 29.75 30.79 28.57 30.21C28.2 30.02 27.97 30.34 27.9 30.67C27.79 31.16 27.67 31.65 27.58 32.14C27.43 32.95 27.66 33.76 27.82 34.55C28.04 35.95 28.26 37.35 28.57 38.73C29.17 40.51 29.7 42.32 30.51 44.02C30.69 44.32 30.85 44.63 31.02 44.94C30.81 44.7 30.61 44.45 30.4 44.2C29.91 43.7 29.56 43.09 29.08 42.59C28.56 42.07 27.95 41.7 27.43 41.18C26.3 40.07 25.17 38.96 23.87 38.05C22.5 37.16 21.37 35.09 19.53 35.38C18.86 35.74 19.32 36.63 19.6 37.12C20 37.86 20.34 38.66 20.98 39.22C22.7 40.8 24.32 42.49 26.05 44.07C27.2 45.14 28.22 46.36 29.45 47.34C30.29 48.06 31.27 48.55 32.12 49.25C32.75 49.79 33.29 50.42 33.94 50.94C34.93 51.61 35.82 52.42 36.79 53.13C37.91 53.81 38.92 54.66 39.92 55.5C40.21 55.91 40.48 56.34 40.76 56.76C40.84 56.92 40.91 57.08 40.99 57.24C40.35 56.7 39.58 56.34 38.96 55.78C37.52 54.63 36.04 53.46 34.39 52.63C33.64 52.23 32.82 52.01 32.01 51.78C31.1 51.48 30.25 51 29.44 50.49C27.46 49.33 25.14 48.58 22.82 48.73C21.88 48.78 20.95 48.98 20.01 49.09C19.26 49.19 16.23 49.49 17.66 50.7C18.46 51.27 19.28 51.83 20.25 52.08C20.87 52.26 21.5 52.53 22.15 52.66C23.02 52.79 23.91 52.82 24.76 53.11C25.38 53.34 26.01 53.52 26.64 53.7C26.28 53.77 25.93 53.87 25.59 54.01C25.03 54.25 23.85 54.5 24.18 55.33C25.19 57.14 27.54 56.82 29.29 57.19C31.19 57.39 32.9 58.14 34.79 58.5C36.08 58.65 37.16 59.4 38.34 59.87C39.63 60.39 41 60.65 42.27 61.22C42.98 61.52 43.67 61.85 44.32 62.24C45.07 63.31 45.85 64.36 46.71 65.34C45.73 64.87 44.71 64.47 43.68 64.12C42.67 63.8 41.62 63.69 40.59 63.47C37.91 62.79 35.09 62.23 32.34 62.77C31.32 62.95 30.18 63.28 29.66 64.26C29.44 64.65 29.3 65.2 29.66 65.55C30.34 66.08 31.3 65.96 32.11 66.18C34.58 66.8 37.13 66.51 39.64 66.62C41.23 66.67 42.72 67.3 44.3 67.48C45.29 67.63 46.27 67.89 47.24 68.15C46.79 68.15 46.34 68.13 45.9 68.08C44.6 67.89 43.35 67.47 42.04 67.32C40.44 67.19 38.74 67.07 37.21 67.65C37.01 67.72 36.83 67.84 36.66 67.96C36.5 68.07 36.35 68.17 36.17 68.24C35.58 68.45 35.03 68.74 34.48 69.02C34.22 69.15 33.96 69.29 33.7 69.41C33.57 69.48 33.42 69.55 33.28 69.62C32.9 69.79 32.51 69.97 32.3 70.33C32.08 70.75 32.44 71.17 32.83 71.32C34.66 72.15 36.6 71.58 38.42 71.37C39.79 71.22 41.18 71.2 42.55 71.03C43.17 70.89 43.79 70.72 44.42 70.62C45.79 70.44 47.18 70.4 48.55 70.26C50.02 70.3 51.47 70.56 52.88 70.99C52.99 71.02 53.2 71.1 53.36 71.09C54.32 72.08 55.21 73.16 56.19 74.11C55.54 73.98 54.93 73.71 54.29 73.57C53.35 73.43 52.4 73.37 51.44 73.34C49.95 73.31 48.44 73.28 46.97 73.58C46.15 73.72 45.44 74.13 44.66 74.41C43.49 74.8 42.18 74.46 41.08 75.08C40.19 75.5 39.45 76.14 38.65 76.7C37.94 77.09 37.18 77.44 36.65 78.08C36.34 78.52 35.15 79.74 35.61 80.24C35.97 80.47 36.44 80.44 36.85 80.48C37.64 80.54 38.44 80.55 39.23 80.44C40.45 80.29 41.59 79.81 42.78 79.53C45 78.9 47.24 78.29 49.41 77.51C50.71 77.07 51.98 76.57 53.27 76.11C53.98 75.94 54.72 76.02 55.44 75.92C56.24 75.82 57.02 75.6 57.83 75.59C58.42 76.07 59.02 76.54 59.61 77.03C60.82 78.1 62.11 79.07 63.42 79.99C63.64 80.16 63.86 80.32 64.09 80.47C63.5 80.43 62.91 80.43 62.33 80.42C59.86 80.38 57.39 80.4 54.92 80.58C53.82 80.66 52.8 80.87 51.68 80.88C49.51 80.86 47.31 80.52 45.18 81.07C43.25 81.61 41.2 81.95 39.47 83.02C36.37 84.27 39.36 85.29 41 85.55C42.45 85.77 43.93 85.7 45.38 85.88C47.07 86.07 48.89 86.22 50.63 86.19C52.16 86.12 53.63 85.64 55.15 85.47C56.19 85.33 57.26 85.49 58.31 85.42C59.66 85.31 60.93 84.77 62.26 84.55C64.48 84.05 66.73 83.64 68.9 82.95C69.55 83.33 70.19 83.72 70.88 84.05C72.64 84.9 74.36 85.57 76.06 86.58C75.45 86.81 74.85 87.11 74.22 87.27C72.83 87.57 71.33 87.3 69.91 87.53C69.14 87.62 68.4 87.85 67.64 88C66.51 88.18 65.36 88.2 64.22 88.27C62.87 88.09 61.55 88.39 60.21 88.46C59.16 88.49 58.11 88.46 57.07 88.64C55.9 88.8 54.72 88.85 53.55 88.93C52.77 89.01 51.92 89.09 51.28 89.59C50.77 89.94 50.92 90.5 51.45 90.7C52.49 91.14 53.58 91.5 54.7 91.66C56.02 91.94 57.34 92.45 58.71 92.13C59.33 92.05 59.95 92.11 60.57 92.11C61.68 92.1 62.79 91.95 63.9 91.94C64.73 91.96 65.57 91.94 66.38 91.76C67.59 91.55 68.7 90.98 69.94 90.98C71.8 91.17 73.45 90.26 75.1 89.55C75.77 89.28 76.56 89.17 77.22 88.86C77.27 88.83 77.35 88.79 77.45 88.74C77.68 88.62 78.01 88.45 78.26 88.27C78.76 88.72 79.27 89.15 79.88 89.45C81.23 90.18 82.6 90.86 83.96 91.56C83.69 91.53 83.41 91.49 83.14 91.42C82.42 91.22 81.72 90.93 80.96 90.93C79.4 90.74 77.94 91.43 76.4 91.68C74.89 91.93 73.44 92.45 71.93 92.73C70.58 93.04 69.25 93.46 67.91 93.82C65.11 94.46 62.29 95.09 59.63 96.22C58.72 96.63 57.83 97.09 56.91 97.48C56.23 97.76 55.47 97.97 54.96 98.53C54.38 99.22 52.23 101.57 54.13 101.84C55.22 101.94 56.27 101.53 57.33 101.35C59.08 100.99 60.89 100.89 62.59 100.33C64.4 99.75 66.12 98.96 67.86 98.18C68.66 97.91 69.4 97.66 70.25 97.53C71.6 97.4 72.93 97.16 74.22 96.73C75.93 96.08 77.72 95.64 79.42 94.97C80.58 94.3 81.8 93.78 83.06 93.35C83.38 93.21 83.7 93.06 84.01 92.89C84.43 92.68 84.84 92.44 85.24 92.19C85.49 92.29 85.75 92.38 86.02 92.46C85.86 92.52 85.71 92.57 85.55 92.63C84.59 92.92 83.76 93.45 82.92 93.99C81.89 94.48 80.76 94.7 79.73 95.18C79.11 95.52 78.46 95.83 77.82 96.13C76.79 96.62 75.77 97.1 74.82 97.74C74.09 98.16 73.29 98.51 72.67 99.11C72.08 99.67 71.58 100.32 71.04 100.93C70.43 101.6 69.57 101.97 69.03 102.71C68.22 103.73 67.22 104.81 66.79 106.08C66.65 106.71 66.42 107.43 66.73 108.04C67.08 108.72 68 108.86 68.67 108.62C68.9 108.53 69.14 108.42 69.37 108.31C69.75 108.12 70.11 107.89 70.44 107.63C70.75 107.35 70.87 106.94 71.1 106.61C71.36 106.28 71.64 105.96 71.95 105.68C73 104.84 74.23 104.22 75.13 103.2C76.34 102.1 77.25 100.71 78.55 99.71C79.48 98.93 80.48 98.24 81.36 97.39C81.99 96.83 82.76 96.48 83.45 96C84.32 95.36 85.04 94.54 86 94.03C86.17 93.83 87.61 93.25 87.73 92.89C87.85 92.91 87.98 92.94 88.1 92.96C89.41 93.2 90.63 93.8 91.95 93.97C92.07 93.98 92.17 93.97 92.26 93.92C92.53 93.78 92.66 93.41 92.62 93.1C92.49 91.99 91.22 92.03 90.39 91.73C89.96 91.57 89.54 91.42 89.11 91.27C89.44 90.71 89.58 89.67 89.66 89.28C89.83 88 90.15 86.76 90.52 85.53C91.04 83.56 91.3 81.57 91.84 79.6C92.24 78.45 92.76 77.33 92.92 76.12C93.03 75.27 93.13 74.41 93.16 73.55C93.11 72.61 92.37 73.46 92.04 73.75C91.35 74.53 90.61 75.28 90.02 76.14C89.31 77.2 88.97 78.43 88.58 79.63C88.35 80.39 88.07 81.13 87.8 81.88C87.97 80.99 88.19 80.11 88.49 79.22C89.34 75.35 91.71 72 92.48 68.12C92.92 66.34 93.63 64.56 93.25 62.71C93.18 62.3 92.97 61.92 92.5 62.09C91.44 62.32 90.98 63.5 90.39 64.3C89.73 65.03 89.06 65.77 88.5 66.59C87.92 67.5 87.33 68.42 86.87 69.4C86.32 70.56 86.28 71.87 85.83 73.07C85.36 74.22 84.89 75.42 84.56 76.62C84.27 77.82 84.13 79.06 83.84 80.26C83.62 81.26 83.73 82.3 83.64 83.31C83.42 84.68 83.74 86.02 84.11 87.33C84.23 87.98 84.34 88.73 84.59 89.39C84.18 89.17 83.77 88.96 83.35 88.77C82.86 88.25 82.36 87.75 81.86 87.25C81.62 86.98 81.39 86.71 81.16 86.43C81.07 85.49 80.68 84.19 80.86 83.68C81.18 82.34 81.4 80.95 81.63 79.6C82.2 77.42 82.59 75.2 82.56 72.94C82.49 71.42 82.62 69.86 82.25 68.38C82.12 67.91 81.94 67.46 81.69 67.05C81.6 66.91 81.5 66.73 81.32 66.7C81.21 66.68 81.13 66.78 81.09 66.87C80.99 67.2 80.89 67.51 80.76 67.85C80.49 68.65 79.81 69.24 79.46 70C78.9 71.05 78.67 72.23 78.56 73.4C78.5 74.34 78.3 75.26 78.2 76.18C78.22 77 78.2 77.84 78.36 78.64C78.49 79.93 78.36 81.25 78.66 82.52C78.4 82.04 78.14 81.55 77.89 81.06C77.49 80.04 77.05 79.04 76.69 78C76.59 77.63 76.5 77.25 76.43 76.87C76.58 76.45 76.55 75.71 76.63 75.44C76.79 74.36 77.01 73.28 77.34 72.23C77.68 71.22 78.04 70.22 78.42 69.23C78.8 68.31 79.29 67.42 79.5 66.44C80.12 65.41 80.96 64.53 81.83 63.72C83.06 62.32 84.68 61.36 86.09 60.14C86.9 59.53 87.68 58.72 88.4 57.99C89.17 57.25 90.02 56.57 90.6 55.66C91.18 54.82 91.36 53.8 91.82 52.9C91.96 52.55 92.2 52.2 92.17 51.81C92.14 51.44 91.78 51.38 91.52 51.56C90.99 51.89 90.42 52.11 89.86 52.33C89.37 52.52 88.88 52.71 88.41 52.98C87.81 53.37 87.33 53.9 86.81 54.38C85.73 55.42 84.31 56.14 83.61 57.53C83.14 58.36 82.34 58.95 81.83 59.76C81.72 59.96 81.3 60.58 80.88 61.28C81.08 60.76 81.29 60.23 81.48 59.72C81.68 59.13 81.9 58.54 82.21 57.99C83 56.56 83.49 55.01 83.98 53.46C84.87 50.92 85.63 48.16 85.08 45.46C84.88 45.05 84.51 45.48 84.3 45.66C81.02 48.34 79.9 52.58 78.03 56.22C77.31 57.74 76.91 59.37 76.65 61.03C76.53 62.04 76.43 63.06 76.12 64.04C75.76 65.11 75.66 66.22 75.66 67.35C75.51 68.88 75.41 70.4 75.47 71.94C75.47 72.06 75.47 72.18 75.47 72.29C75.08 70.59 74.79 68.88 74.56 67.15C74.46 65.81 74.62 64.47 74.76 63.14C74.87 61.75 74.7 60.35 74.56 58.96C74.32 57.46 74.28 55.96 74.4 54.46C74.67 53.88 75.03 53.35 75.35 52.79C75.93 51.62 76.72 50.6 77.56 49.62C78.33 48.54 79.24 47.59 80.21 46.69C81.05 45.93 81.61 44.88 82.6 44.29C82.9 44.14 83.21 44.01 83.52 43.88C83.92 43.72 84.32 43.55 84.7 43.33C85.5 42.88 86.13 42.18 86.92 41.71C87.24 41.49 87.6 41.35 87.96 41.22C88.39 41.05 88.81 40.89 89.17 40.6C89.56 40.24 89.98 39.71 89.86 39.15C89.54 38.61 89.23 37.86 88.56 37.7L88.54 37.62ZM67.16 75.68C66.19 73.95 65.66 71.96 64.97 70.1C63.99 67.71 62.72 65.39 62.58 62.72C62.47 61.11 61.93 59.52 62.27 57.91C63.24 58.88 63.84 60.14 64.64 61.24C65.2 61.91 65.74 62.6 66.07 63.42C66.89 65.37 67.27 67.46 68.06 69.42C68.54 70.73 69.35 71.89 69.92 73.16C70.49 74.6 70.98 76 71.45 77.48C71.68 78.2 71.84 78.94 72.04 79.67C72.42 80.74 72.92 81.77 72.98 82.93C72.13 81.76 71.26 80.55 70.63 79.24C70.31 78.37 70 77.5 69.63 76.66C68.44 74.03 67.59 71.26 66.55 68.57C66.43 68.23 66.11 68.11 65.91 68.22C65.77 68.29 65.69 68.46 65.75 68.72C66.14 69.81 66.29 70.97 66.7 72.06C67.09 73.16 67.77 74.13 68.26 75.18C69.02 76.79 69.32 78.7 70.22 80.27C69.44 79.31 68.89 78.2 68.17 77.19C67.82 76.7 67.47 76.2 67.16 75.68ZM62.42 76.52C62.22 76.38 62.01 76.24 61.81 76.09C61.52 75.38 61.25 74.66 60.96 73.96C61.38 74.85 61.89 75.69 62.42 76.52ZM58.89 58.34C58.83 59.46 58.81 60.59 58.95 61.71C59.13 62.75 59.2 63.79 59.23 64.84C59.31 65.67 59.59 66.45 59.63 67.29C59.67 68.07 59.63 68.91 59.72 69.7C59.27 68.46 58.63 67.28 58.36 65.98C58.08 64.52 58.15 63.04 58.03 61.57C58.03 61.26 57.67 60.88 57.38 61.15C57.32 61.22 57.3 61.31 57.3 61.4C57.25 62.23 57.32 63.06 57.51 63.87C57.76 65.15 57.84 66.46 58.18 67.72C58.61 69.36 59.14 70.97 59.94 72.47C60.37 73.49 60.72 74.56 61.12 75.6C60.96 75.48 60.79 75.37 60.63 75.25C60.6 75.22 60.56 75.2 60.53 75.18C59.93 74.05 59.6 72.76 59.16 71.57C58.83 70.36 58.23 69.18 57.84 67.98C57.42 66.26 56.68 64.64 56.31 62.91C56.07 61.7 56.12 60.42 56.26 59.19C56.42 58.39 56.88 57.81 57.16 57.03C57.57 55.49 57.75 53.85 58.64 52.48C58.71 54.45 58.87 56.36 58.89 58.35V58.34ZM56.54 72.38C55.57 71.6 54.67 70.75 53.79 69.87C53.55 69.09 53.47 68.25 53.47 67.44C53.57 66.43 53.72 65.42 53.88 64.41C54.11 63.23 54.52 62.19 54.76 60.98C55.04 59.68 55.28 58.36 55.85 57.15C55.92 56.97 56 56.8 56.07 56.62C56.06 56.67 56.05 56.71 56.04 56.76C55.84 57.34 55.6 57.92 55.53 58.54C55.46 59.16 55.58 59.79 55.64 60.41C55.7 61.32 55.63 62.24 55.69 63.16C55.91 65.26 56.69 67.27 57.58 69.19C57.92 70.01 58.17 70.86 58.48 71.7C58.84 72.77 59.4 73.75 59.93 74.73C58.81 73.93 57.64 73.22 56.54 72.39V72.38ZM52.27 67.36C51.7 65.75 51.52 64.03 51.29 62.35C51.16 61.43 50.96 60.55 50.96 59.62C50.98 58.95 51.23 58.4 51.43 57.75C52.14 54.83 51.47 54.64 53.62 52.05C54.09 51.47 54.32 50.75 54.7 50.11C55.03 49.55 55.5 49.1 55.91 48.6C56.78 47.51 57.56 46.12 58.83 45.48C59.13 45.33 59.46 45.21 59.83 45.16C59.54 46.18 58.84 47.04 58.46 48.03C58.1 48.85 57.85 49.72 57.59 50.57C57.28 51.36 56.91 52.11 56.6 52.9C56.19 54.12 56 55.41 55.4 56.55C54.6 57.81 53.89 59.15 53.73 60.66C53.61 61.48 53.61 62.3 53.48 63.12C53.32 64 53.07 64.86 52.94 65.74C53.04 64.38 53.38 63.04 53.25 61.67C53.37 60.51 53.59 59.38 53.76 58.22C54.02 56.81 54.81 55.57 55.03 54.16C55.18 53.68 54.43 53.06 54.2 53.69C53.81 54.82 53.69 56.01 53.35 57.16C52.87 58.85 52.43 60.57 52.43 62.35C52.38 63.23 52.14 64.01 52.09 64.91C52.07 65.9 52.31 66.87 52.47 67.84C52.4 67.69 52.34 67.53 52.28 67.38L52.27 67.36ZM52.93 67.11C53.09 67.84 53.16 68.64 53.32 69.4C53.29 69.37 53.27 69.35 53.24 69.32C53.03 68.6 52.9 67.86 52.92 67.11H52.93ZM43.5 53.56C43.16 52.09 43.54 50.62 43.52 49.13C43.93 45.86 43.92 42.44 45.4 39.42C45.85 38.67 46.37 37.97 46.85 37.24C47.01 37 47.29 36.89 47.54 36.76C47.99 36.57 48.37 36.27 48.75 35.97C48.84 35.91 48.97 35.89 49.07 35.94C50.22 36.61 49.51 38.13 49.25 39.14C48.77 40.88 48.26 42.61 47.77 44.34C47.4 45.89 47.31 47.46 46.98 49.03C46.75 50.46 46.24 51.88 46.23 53.34C46.23 54.94 46.43 56.52 46.74 58.09C46.98 59.42 47.02 60.78 47.15 62.12C46.61 60.09 45.98 58.04 45.81 55.94C45.53 53.94 45.12 51.93 45.21 49.9C45.22 48.14 46.18 46.58 46.41 44.87C46.48 44.56 46.1 44.22 45.86 44.34C45.8 44.37 45.75 44.43 45.71 44.54C45.67 44.78 45.61 45.01 45.57 45.25C45.42 46.65 45.13 48.03 44.71 49.38C44.39 50.62 44.68 51.89 44.79 53.14C44.96 55.34 45.59 57.48 45.72 59.68C44.82 57.72 44.01 55.69 43.51 53.59L43.5 53.56ZM36.59 51.31C36.34 50.98 36.13 50.62 35.94 50.26C36.28 50.72 36.64 51.17 36.97 51.63C36.87 51.56 36.77 51.5 36.67 51.43C36.64 51.39 36.61 51.35 36.59 51.31ZM37.42 52.25C37.42 52.25 37.43 52.27 37.44 52.28C37.43 52.27 37.42 52.26 37.41 52.25C37.41 52.25 37.41 52.25 37.42 52.25ZM34.54 43.87C34.21 42.15 33.82 40.44 34.08 38.68C34.02 37.4 34.25 36.13 34.52 34.87C34.7 34.32 34.97 33.82 35.31 33.33C35.5 33.14 35.64 32.8 35.89 32.67C35.94 32.65 35.99 32.63 36.04 32.62C36.7 32.85 36.81 33.61 36.65 34.21C36.47 35.05 36.2 35.88 36.23 36.75C36.26 37.62 36.51 38.47 36.57 39.34C36.66 40.49 36.43 41.63 36.45 42.78C36.71 45.58 37.42 48.33 38.17 51.04C37.77 49.98 37.48 48.89 37.07 47.83C36.83 47.09 36.81 46.3 36.66 45.54C36.52 44.8 36.23 44.1 36.07 43.36C36.04 43.23 35.92 43.09 35.78 43.11C35.66 43.12 35.6 43.25 35.62 43.37C35.67 43.66 35.69 43.95 35.72 44.24C35.84 45.51 36.31 46.68 36.64 47.9C37.05 49.38 37.37 50.88 38.05 52.27L38.01 52.25C37.87 52.04 37.72 51.82 37.57 51.61C35.98 49.32 34.97 46.63 34.56 43.87H34.54ZM29.91 40.18C29.36 38.76 28.63 37.39 28.42 35.87C28.39 34.2 28.14 32.5 28.54 30.85C29.43 31.52 29.57 32.65 29.91 33.66C30.1 34.22 30.38 34.75 30.55 35.32C30.88 36.74 31.19 38.18 31.75 39.54C32.2 40.84 32.64 42.14 33.1 43.43C33.39 44.12 33.73 44.76 33.96 45.5C34.34 46.67 34.69 47.87 35.18 49.01C35.08 48.85 34.99 48.68 34.9 48.51C34.52 47.74 33.93 47.09 33.48 46.36C33.03 45.58 32.71 44.74 32.35 43.92C32.07 43.29 31.68 42.73 31.4 42.1C31.02 40.98 30.86 39.79 30.32 38.72C30.19 38.38 29.79 38.48 29.91 38.84C30.74 40.98 31.43 43.19 32.48 45.24C32.96 46.14 33.68 46.88 34.12 47.8C34.37 48.32 34.74 48.76 35.06 49.23C35.4 49.8 35.76 50.36 36.12 50.92C36.12 50.92 36.12 50.92 36.11 50.91C35.08 49.74 34.2 48.45 33.1 47.33C31.25 45.35 30.71 42.7 29.9 40.19L29.91 40.18ZM34.81 50.98C34.17 50.45 33.65 49.79 32.96 49.32C32.41 48.93 31.79 48.65 31.26 48.25C30.16 47.41 29.2 46.4 28.1 45.56C26.96 44.8 26.19 43.67 25.33 42.63C24.58 41.81 23.68 41.17 22.98 40.29C22.05 39.14 20.68 38.39 19.99 37.04C19.85 36.74 19.53 36.36 19.65 36.01C19.7 35.96 19.79 35.96 19.86 35.97C20.52 36.12 21.07 36.55 21.59 36.97C22.39 37.64 23.28 38.32 24.1 39.02C25.21 39.96 26.41 40.82 27.59 41.69C28.43 42.41 29.13 43.26 29.89 44.06C30.33 44.56 30.82 45 31.22 45.54C31.4 45.8 31.56 46.08 31.75 46.34C32.04 46.88 32.34 47.41 32.68 47.93C33.09 48.54 33.62 49.05 34.15 49.56C34.07 49.5 33.99 49.45 33.91 49.39C32.77 48.57 31.98 47.35 30.75 46.63C29.79 46.04 29.11 45.14 28.29 44.38C27.21 43.46 26.21 42.48 25.29 41.4C25.15 41.11 24.84 41.26 24.97 41.54C25.74 42.62 26.9 43.38 27.7 44.46C29.18 46.14 30.98 47.49 32.78 48.81C33.65 49.56 34.44 50.38 35.36 51.07C35.46 51.14 35.56 51.21 35.66 51.28C35.76 51.42 35.87 51.55 35.98 51.68C36.75 52.57 37.76 53.2 38.61 53.99C38.61 53.99 38.62 54 38.63 54.01C38.32 53.79 38.02 53.57 37.73 53.33C36.84 52.44 35.82 51.72 34.8 50.99L34.81 50.98ZM20.26 51.61C19.99 51.38 17.12 50.47 17.58 50.13C18.31 49.81 19.14 49.86 19.9 49.65C20.52 49.54 21.09 49.28 21.71 49.17C22.66 49.02 23.62 49.37 24.57 49.46C25.23 49.53 25.89 49.56 26.54 49.76C27.51 50.09 28.41 50.57 29.35 50.97C30.34 51.3 31.23 51.83 32.16 52.33C33.17 52.79 34.26 53.02 35.21 53.62C36.09 54.21 36.85 54.95 37.79 55.45C38.89 56.04 39.9 56.8 40.79 57.68C40.32 57.33 39.9 56.93 39.41 56.62C38.63 56.16 37.82 55.76 37.06 55.26C36.24 54.82 35.58 54.17 34.81 53.67C34.02 53.16 33.07 53.07 32.17 52.85C31.22 52.58 30.32 52.11 29.36 51.87C28.36 51.49 27.33 51.16 26.25 51.11C26.14 51.1 26.02 51.08 25.91 51.1C25.8 51.11 25.76 51.22 25.77 51.32C25.79 51.51 25.98 51.6 26.15 51.6C27.23 51.64 28.32 51.8 29.34 52.19C30.37 52.67 31.35 53.34 32.52 53.42C33.64 53.69 34.69 54.21 35.72 54.71C36.61 55.2 37.33 55.94 38.19 56.47C38.91 56.9 39.69 57.22 40.39 57.69C40.91 58.03 41.37 58.46 41.86 58.84C41.89 58.88 41.93 58.92 41.96 58.96C41.98 58.99 42.02 59.01 42.05 59.03C42.05 59.03 42.06 59.05 42.07 59.05C41.91 58.97 41.75 58.9 41.59 58.82C40.32 58.09 39.1 57.29 37.78 56.63C36.54 55.99 35.42 55.14 34.16 54.54C32.83 54 31.39 53.62 29.96 53.47C29.39 53.47 28.88 53.52 28.3 53.52C28.23 53.52 28.17 53.52 28.1 53.52C26.43 52.69 21.06 52.15 20.26 51.57V51.61ZM42.03 60.51C41.36 60.3 40.68 60.12 40.03 59.84C39.27 59.46 38.53 59.03 37.74 58.71C36.39 58.16 34.99 57.77 33.6 57.33C32.48 57.13 31.35 57.01 30.23 56.88C29.42 56.75 28.66 56.43 27.85 56.26C26.78 56.01 25.5 55.94 24.7 55.1C24.92 54.84 25.16 54.65 25.42 54.51C26.69 53.87 28.38 54.57 29.77 54.4C31.37 54.13 32.85 54.87 34.32 55.42C35.21 55.83 36.1 56.16 36.95 56.63C36.22 56.4 35.46 56.26 34.73 56.02C33.64 55.64 32.53 55.15 31.4 54.86C30.99 54.77 31.1 55.37 31.4 55.41C32.19 55.65 33.01 55.95 33.81 56.22C35.29 56.61 36.71 56.93 38.01 57.81C39.39 58.86 40.97 59.54 42.51 60.3C42.82 60.47 43.11 60.68 43.39 60.89C43.44 60.95 43.48 61.01 43.53 61.07C43.55 61.1 43.56 61.12 43.58 61.15C43.08 60.89 42.56 60.65 42.01 60.5L42.03 60.51ZM44.16 66.77C43.25 66.59 42.31 66.59 41.39 66.49C40.05 66.31 38.73 65.95 37.36 65.92C35 65.67 32.54 66.06 30.26 65.24C30.5 64.33 31.47 63.98 32.29 63.68C33.46 63.23 34.73 63.25 35.96 63.39C37.22 63.6 38.5 63.56 39.78 63.65C41.83 64.02 43.86 64.71 45.82 65.42C46.55 65.85 47.28 66.27 48.02 66.68C48.07 66.73 48.12 66.77 48.18 66.82C47.38 66.43 46.55 66.1 45.67 65.89C44.59 65.61 43.56 65.15 42.47 64.92C41.17 64.76 39.86 64.81 38.57 64.59C38.08 64.54 38.16 65.08 38.56 65.14C39.44 65.24 40.28 65.53 41.15 65.64C41.73 65.71 42.31 65.68 42.89 65.73C44.68 65.99 46.37 66.63 48.04 67.34C48.73 67.66 49.37 68.11 50.04 68.47C49.67 68.4 49.33 68.35 49.08 68.3C48.07 67.86 47.02 67.53 45.94 67.34C45.33 67.19 44.76 66.93 44.15 66.77H44.16ZM48.31 69.85C47.41 69.81 46.5 69.67 45.6 69.78C44.7 69.91 43.81 70.07 42.91 70.2C42.12 70.3 41.32 70.26 40.54 70.39C39 70.78 37.42 71.16 35.8 71.12C34.9 71.07 33.95 71.07 33.12 70.66C33.29 70.32 33.7 70.19 33.99 69.98C34.5 69.58 35.01 69.24 35.61 68.96C36.73 68.64 37.78 68.11 38.96 68.06C39.71 67.99 40.5 67.78 41.29 67.78C42.27 67.83 43.22 68.08 44.19 68.2C45.34 68.4 46.53 68.38 47.67 68.62C48.68 68.91 49.7 69.12 50.72 69.34C51.15 69.55 51.58 69.76 52.01 69.97C51.83 69.9 51.66 69.84 51.48 69.78C50.84 69.57 50.16 69.51 49.49 69.45C48 69.25 46.55 68.78 45.03 68.65C44.12 68.62 43.21 68.35 42.3 68.47C41.73 68.56 41.18 68.72 40.64 68.88C40.32 69 39.83 68.93 39.62 69.25C39.5 69.61 39.95 69.9 40.27 69.83C40.85 69.71 41.44 69.67 42.02 69.56C42.84 69.34 43.65 69.13 44.51 69.13C45.23 69.12 45.93 69.36 46.64 69.44C47.92 69.59 49.22 69.73 50.49 69.99C49.77 69.91 49.03 69.92 48.31 69.85ZM54.89 75.55C53.92 75.66 52.87 75.49 51.93 75.83C51.1 76.06 50.37 76.52 49.57 76.81C48.77 77.05 47.94 77.15 47.15 77.44C46.67 77.6 46.23 77.87 45.79 78.13C45.01 78.55 44.09 78.83 43.21 78.95C42.13 79.09 41.04 79.18 40 79.51C38.74 79.92 37.41 80.31 36.08 80.04C36.81 79.42 37.39 78.64 38.1 78C39.43 77.07 40.78 76.15 42.24 75.44C44.09 74.93 45.95 74.25 47.89 74.12C50.08 73.79 52.36 74 54.58 74.05C55 74.11 55.4 74.21 55.81 74.33C55.48 74.32 55.16 74.31 54.84 74.32C53.47 74.34 52.18 74.86 50.8 74.84C49.37 74.69 48.03 75.19 46.67 75.55C45.7 75.75 44.63 75.71 43.65 76.01C43.54 76.04 43.44 76.09 43.4 76.19C43.29 76.52 43.71 76.8 44.01 76.73C44.43 76.65 44.85 76.59 45.26 76.49C46.16 76.24 47.1 76.25 48 76.04C48.94 75.83 49.83 75.41 50.8 75.33C52.18 75.16 53.57 75.06 54.95 74.99C55.52 75 56.09 75.05 56.66 75.13C56.64 75.13 56.63 75.13 56.61 75.13C56.02 75.22 55.48 75.46 54.88 75.55H54.89ZM68.01 82.7C66.52 83.09 65.12 83.72 63.54 83.68C62.11 83.68 60.83 84.37 59.45 84.57C58.28 84.7 57.1 84.75 55.93 84.93C55.02 85.11 54.09 85.17 53.16 85.19C51.08 85.38 49 85.05 46.91 85.1C44.63 85.1 42.08 85.43 39.97 84.25C40.33 84.08 40.65 83.87 40.98 83.65C41.37 83.39 41.76 83.14 42.2 82.96C44.67 82.16 47.3 82.13 49.86 81.91C51.78 81.71 53.63 81.07 55.58 81.28C57.69 81.61 59.83 81.64 61.93 81.25C62.85 81.15 63.78 81.31 64.7 81.4C65.2 81.45 65.69 81.51 66.18 81.6C66.39 81.7 66.59 81.79 66.8 81.89C66.54 81.86 66.28 81.83 66.01 81.83C65.11 81.8 64.22 81.98 63.33 82.05C61.52 82.05 59.74 82.29 57.95 82.5C56.71 82.7 55.46 82.47 54.21 82.5C53.49 82.55 52.78 82.67 52.07 82.77C50.52 82.82 49.11 83.11 47.61 83.54C47.21 83.7 47.62 84.18 47.92 84.09C49.15 83.78 50.41 83.57 51.68 83.72C53.44 83.85 55.25 83.8 56.99 83.49C58.56 83.05 60.18 82.93 61.8 82.88C63.58 82.76 65.34 82.54 67.12 82.43C67.36 82.43 67.59 82.4 67.83 82.38C67.99 82.46 68.15 82.54 68.31 82.62C68.21 82.65 68.1 82.68 68 82.71L68.01 82.7ZM75.9 88.98C75.3 89.13 74.67 89.17 74.08 89.39C73.75 89.5 73.45 89.67 73.16 89.84C72.9 89.99 72.63 90.14 72.35 90.25C71.55 90.46 70.7 90.43 69.89 90.61C68.28 91.01 66.63 91.25 65 91.55C63.86 91.81 62.72 91.67 61.57 91.59C60.16 91.64 58.75 91.7 57.34 91.77C55.83 91.79 54.39 91.37 53.01 90.79C52.51 90.6 52.01 90.44 51.51 90.25C51.49 90.24 51.51 90.22 51.51 90.2C51.58 90.11 51.62 90.08 51.73 90.01C52.38 89.65 53.1 89.6 53.84 89.44C54.59 89.29 55.31 89.14 56.08 89.14C57.58 89.22 59.13 89.41 60.64 89.25C63.09 88.92 65.57 88.94 68.03 88.78C69.56 88.76 71.1 88.69 72.61 88.4C73.62 88.28 74.61 88.05 75.49 87.52C75.88 87.31 76.27 87.12 76.7 86.99C76.87 87.11 77.04 87.23 77.2 87.36C76.06 87.96 74.68 88.03 73.49 88.54C72.84 88.83 72.13 88.91 71.44 89.05C69.84 89.48 68.23 89.89 66.54 89.74C64.59 89.72 62.64 90.54 60.7 89.97C60.49 89.99 59.68 89.69 59.68 90C59.68 90.11 59.8 90.19 59.9 90.21C61.32 90.42 62.77 90.59 64.21 90.57C64.83 90.56 65.43 90.38 66.04 90.28C67.05 90.21 68.05 90.06 69.07 89.98C70.34 90 71.57 89.73 72.75 89.26C74.34 88.8 75.87 88.17 77.43 87.61C77.44 87.61 77.46 87.6 77.47 87.59C77.62 87.72 77.78 87.86 77.93 88C77.31 88.43 76.61 88.78 75.89 89.01L75.9 88.98ZM84.03 95.05C83.47 95.41 82.87 95.71 82.3 96.07C81.39 96.75 80.49 97.44 79.57 98.11C78.85 98.7 78.32 99.43 77.61 100.05C76.24 101.24 74.85 102.41 73.57 103.7C72.64 104.5 71.69 105.28 70.8 106.14C70.49 106.42 70.25 106.76 69.96 107.05C69.67 107.24 69.35 107.37 69.03 107.51C67.54 108.41 67.26 107.16 67.71 105.96C67.98 105.39 68.47 104.85 68.82 104.31C69.5 103.29 70.06 102.17 71.1 101.46C72.35 100.37 73.57 99.22 75.04 98.42C76.08 97.63 77.29 97.16 78.46 96.62C79.22 96.26 79.9 95.77 80.63 95.36C81.44 94.96 82.3 94.68 83.18 94.48C82.69 94.79 82.16 95 81.62 95.21C81.15 95.4 80.68 95.59 80.24 95.84C79.52 96.21 78.94 96.76 78.37 97.33C77.78 97.79 77.25 98.31 76.66 98.76C75.91 99.27 75.31 99.97 74.55 100.46C73.54 101.04 72.81 101.97 72.13 102.91C72.03 103.03 71.92 103.14 71.82 103.26C71.6 103.52 72.04 103.67 72.21 103.48C73.62 102.23 75.04 100.96 76.34 99.58C77.71 98.49 79.24 97.63 80.74 96.68C82.39 95.63 84 94.58 85.76 93.72C85.12 94.1 84.62 94.63 84.02 95.08L84.03 95.05ZM83.54 92.55C82.2 93.21 80.83 93.82 79.4 94.27C78.26 94.56 77.1 94.86 76.01 95.34C75.11 95.71 74.15 95.84 73.2 96.02C72.11 96.27 71.02 96.56 69.95 96.9C66.93 98.12 63.76 98.92 60.65 99.87C58.58 100.25 56.58 101.28 54.44 101.09C54.96 100.25 55.57 99.41 56.34 98.77C56.41 98.73 56.48 98.7 56.55 98.66C58.32 97.76 60.22 97.16 62.11 96.57C64.87 95.65 67.5 94.28 70.41 93.93C71.83 93.72 73.28 93.62 74.64 93.12C76.35 92.56 77.98 92.19 79.81 91.92C80.71 91.85 81.62 92.02 82.51 92.13C81.19 92.25 79.9 92.58 78.67 93.07C77.85 93.4 76.98 93.57 76.13 93.81C75.11 94.13 74.11 94.51 73.07 94.79C71.75 95.18 70.37 95.24 69.04 95.54C67.67 95.86 66.36 96.38 65 96.71C64.7 96.84 63.8 96.78 63.84 97.22C63.87 97.39 64.08 97.43 64.22 97.41C66.01 97.01 67.88 97.02 69.65 96.56C71.34 96.14 72.94 95.43 74.63 95.02C77.73 94.18 80.84 93.22 83.94 92.34C83.81 92.41 83.68 92.49 83.55 92.56L83.54 92.55ZM88.8 81.06C89 80.38 89.33 79.76 89.61 79.12C90.36 77.24 91.05 75.19 92.65 73.84C92.37 75.3 92.24 76.79 91.85 78.24C91.43 79.72 90.84 81.14 90.31 82.59C89.93 83.57 89.77 84.62 89.59 85.65C89.28 87.22 88.93 88.76 88.52 90.31C88.2 89.32 88.31 88.2 88.41 87.17C88.67 85.82 89.21 84.54 89.39 83.17C89.38 82.75 89.76 81.75 89.18 81.62C88.97 81.6 88.82 81.81 88.78 81.99C88.29 84.19 87.93 86.4 87.82 88.65C87.76 89.33 87.62 90.1 87.82 90.75C87.66 90.69 87.49 90.62 87.33 90.56C87.2 90.4 87.17 90.15 87.11 89.96C87.04 89.66 87 89.35 86.98 89.05C86.98 88.95 86.98 88.84 86.98 88.74C86.89 87.79 87.06 86.86 87.23 85.94C87.45 85.22 87.74 84.49 87.99 83.78C88.35 82.91 88.59 81.99 88.8 81.07V81.06ZM84.35 80.88C84.49 79.78 84.33 78.66 84.66 77.59C84.9 76.73 85.24 75.98 85.52 75.12C85.85 74.01 86.13 72.88 86.57 71.8C87.03 70.71 87.42 69.58 87.93 68.51C88.52 67.46 89.32 66.55 90 65.56C90.81 64.57 91.19 62.88 92.62 62.63C92.73 63.42 92.74 64.23 92.67 65.08C92.45 66.12 91.88 67.06 91.71 68.12C91.42 69.58 91.25 71.11 90.54 72.43C89.99 73.52 89.12 74.44 88.81 75.65C88.38 77.2 87.94 78.76 87.55 80.32C87.42 81.13 87.23 81.92 87.03 82.71C86.22 85.31 85.9 87.16 86.52 89.87C85.93 88.16 85.66 86.3 85.64 84.49C85.67 83.28 85.99 82.1 86.16 80.9C86.51 78.4 86.77 75.88 87.29 73.37C87.32 73.07 87.77 72.31 87.41 72.16C87.37 72.15 87.33 72.16 87.29 72.17C87.23 72.2 87.19 72.26 87.17 72.32C86.91 73.14 86.59 73.94 86.36 74.76C86.14 75.63 86.04 76.53 85.91 77.41C85.51 79.73 84.92 82.04 84.93 84.41C84.91 86.21 84.74 88.25 85.7 89.87C85.68 89.87 85.66 89.85 85.63 89.84C84 88.07 83.99 83.1 84.35 80.87V80.88ZM79.47 83.78C78.91 82.78 78.99 81.62 78.95 80.51C78.91 79.61 78.78 78.73 78.81 77.83C78.74 76.32 78.5 74.82 78.97 73.34C79.2 72.18 79.57 71.06 80.01 69.96C80.4 69.14 80.86 68.37 81.21 67.53C81.96 69.83 81.89 72.14 81.59 74.53C81.39 77.24 81.31 80 80.31 82.57C80.12 81.02 80.08 79.45 80.14 77.89C80.37 76.74 80.28 75.56 80.44 74.41C80.42 74.03 80.82 73.08 80.24 73.03C80.05 73.05 79.96 73.24 79.94 73.41C79.88 73.79 79.83 74.17 79.78 74.55C79.5 75.99 79.56 77.44 79.71 78.89C79.78 79.78 79.64 80.66 79.55 81.55C79.49 82.48 79.59 83.42 79.75 84.34C79.75 84.33 79.73 84.31 79.72 84.3C79.63 84.13 79.54 83.96 79.45 83.78H79.47ZM82.34 59.77C82.81 59.12 83.32 58.53 83.87 57.95C84.36 57.34 84.77 56.66 85.31 56.09C85.87 55.45 86.62 55.04 87.31 54.56C88.15 53.83 89.13 53.35 90.13 52.87C90.35 52.77 90.55 52.64 90.75 52.52C91.06 52.33 91.37 52.14 91.72 52.04C91.29 52.83 90.81 53.59 90.35 54.36C89.78 55.11 89.1 55.76 88.46 56.45C87.77 57.21 87.15 58.03 86.35 58.67C85.46 59.39 84.54 60.09 83.7 60.87C82.68 61.93 81.93 63.22 80.66 64.05C81.31 63.2 81.92 62.32 82.48 61.41C83.13 60.23 84.11 59.29 85.25 58.59C86.43 57.87 87.45 56.92 88.17 55.74C88.26 55.61 88.25 55.4 88.15 55.28C88.07 55.2 87.98 55.19 87.89 55.24C87.66 55.36 87.43 55.83 87.25 55.95C86.35 56.92 85.12 57.5 84.24 58.5C82.82 60.05 81.42 61.63 80.25 63.38C80.3 63.18 80.35 62.97 80.4 62.77C80.57 62.36 80.82 61.97 81.01 61.56C81.35 60.91 81.9 60.37 82.34 59.79V59.77ZM76.06 68.26C76.21 66.65 76.48 65.05 76.65 63.44C77.11 60.79 77.89 58.19 78.72 55.63C79.32 54.12 80.4 52.86 80.96 51.33C81.37 50.3 81.94 49.38 82.64 48.52C83.35 47.63 83.96 46.63 84.8 45.86C84.83 47.87 84.03 49.79 83.6 51.73C83.05 54.01 81.81 56.03 80.95 58.19C80.41 60.05 80.12 61.99 79.44 63.8C79.08 64.64 78.71 65.46 78.43 66.33C78.14 67.05 77.77 67.74 77.52 68.47C77.18 69.47 76.95 70.49 76.62 71.49C76.67 70.18 76.76 68.86 77.07 67.59C77.41 66.12 78.11 64.76 78.41 63.28C78.78 61.54 79.33 59.84 79.78 58.12C80.05 56.68 80.65 55.37 81.33 54.08C81.49 53.79 81.16 53.4 80.93 53.73C80.14 55.1 79.57 56.58 79.18 58.11C78.99 59.01 78.79 59.92 78.45 60.78C77.23 63.07 76.77 65.71 76.42 68.26C76.23 69.48 75.94 70.75 75.76 71.98C75.84 70.73 76.06 69.5 76.04 68.24L76.06 68.26ZM64.23 44.14C63.16 43.1 62.04 42.12 60.96 41.11C60.59 40.7 60.32 40.32 59.98 39.86C59.87 39.69 59.67 39.55 59.64 39.34C59.73 38.96 59.94 38.72 60.23 38.57C60.76 38.3 61.53 38.38 62.09 38.57C62.88 38.8 63.48 39.39 64.05 39.96C64.68 40.6 65.38 41.14 66.07 41.71C66.8 42.42 67.39 43.27 68.14 43.97C69.6 45.72 70.49 47.91 71.21 50.06C72 51.91 72.59 53.84 72.49 55.88C72.07 54.06 71.3 52.34 70.41 50.71C69.93 49.53 69.59 48.3 69 47.16C68.28 45.82 67.35 44.62 66.39 43.45C66.17 43.21 65.98 43.53 66.15 43.72C66.64 44.38 67.19 44.97 67.62 45.68C68.01 46.37 68.18 47.16 68.58 47.85C69.29 48.97 69.94 50.12 70.34 51.4C71.02 53.03 71.82 54.62 72.17 56.36C71.8 55.42 71.35 54.51 70.93 53.59C70.58 52.77 70.31 51.92 69.9 51.13C69.06 49.62 68.02 48.08 66.96 46.71C66.21 45.66 65.09 45.11 64.22 44.16L64.23 44.14ZM62.69 48.62C65.87 49.83 68.1 54.5 69.88 57.27C70.59 58.48 71.12 59.78 71.62 61.1C72.04 62.08 72.47 63.05 72.69 64.11C72.81 64.77 72.82 65.44 72.87 66.11C72.85 66.05 72.83 65.99 72.82 65.95C72.65 65.4 72.5 64.78 72.32 64.22C71.91 63.16 71.54 62.08 71.1 61.04C70.75 60.35 70.24 59.75 69.91 59.04C69.41 58.03 68.77 57.1 68.3 56.07C68.24 55.96 68.14 56.04 68.19 56.13C68.52 56.81 68.77 57.53 69.14 58.19C69.5 58.86 70 59.43 70.3 60.13C70.6 60.99 71.06 61.82 71.37 62.69C71.17 62.31 70.95 61.93 70.73 61.57C70.25 60.77 69.92 59.89 69.49 59.07C69.09 58.34 68.61 57.66 68.11 56.99C65.79 54.59 64.15 51.62 62.7 48.64L62.69 48.62ZM72.88 66.68C72.88 66.68 72.88 66.68 72.89 66.68C72.9 66.68 72.91 66.66 72.92 66.66C72.92 66.7 72.92 66.74 72.93 66.78C72.93 66.84 72.97 66.91 73.01 66.96C73.01 66.98 73.01 67 73.01 67.01C72.96 66.9 72.92 66.79 72.88 66.68ZM75.32 44.01C75.32 44.01 75.32 44.01 75.33 44.01C75.38 43.98 75.42 43.93 75.46 43.87C75.41 44.08 75.37 44.3 75.33 44.51C75.33 44.34 75.33 44.17 75.33 44.01H75.32ZM82.64 28.16C82.71 29.14 82.03 29.91 81.6 30.72C80.83 32.03 80.34 33.47 79.7 34.84C79.35 35.53 78.94 36.21 78.63 36.94C78.18 37.91 78.01 38.99 77.54 39.95C77.06 40.92 76.29 41.72 75.83 42.69C76.07 41.89 76.39 41.11 76.68 40.32C77.39 38.56 78.04 36.78 78.72 35.01C78.77 34.88 78.71 34.73 78.6 34.65C78.5 34.58 78.36 34.59 78.31 34.71C78.14 35.08 77.99 35.46 77.82 35.82C77.06 37.07 77.04 38.59 76.39 39.88C75.96 40.65 75.61 41.45 75.32 42.28C75.32 42.23 75.32 42.18 75.32 42.12C75.35 41.86 75.37 41.6 75.39 41.34C75.46 40.99 75.53 40.65 75.62 40.3C75.85 39.38 76.19 38.49 76.41 37.57C76.63 36.51 76.65 35.41 76.95 34.37C77.14 33.83 77.37 33.31 77.59 32.79C78.05 31.74 78.32 30.63 78.81 29.6C79.14 28.91 79.69 28.36 80.18 27.79C81.65 25.96 82.17 25.39 82.65 28.15L82.64 28.16ZM75.28 34.17C75.21 33.41 75.36 32.62 75.35 31.85C75.35 30.95 75.35 30.05 75.49 29.16C75.66 28.19 76.12 27.28 76.4 26.34C76.84 24.78 77.01 23.23 78.5 22.26C78.72 23.23 78.89 24.24 78.7 25.23C78.57 25.94 78.25 26.55 78.1 27.27C77.91 28.4 77.92 29.57 77.53 30.67C77.46 30.87 77.39 31.07 77.31 31.27C77.09 31.7 76.9 32.14 76.73 32.6C76.38 33.85 76.2 35.14 75.92 36.42C75.8 37.18 75.79 37.96 75.65 38.71C75.61 38.94 75.55 39.16 75.48 39.38C75.48 38.82 75.47 38.26 75.42 37.7C75.55 37.15 75.68 36.61 75.8 36.06C75.97 35.33 75.95 34.58 76.03 33.84C76.37 32.63 76.8 31.44 77.22 30.25C77.31 30.06 77.01 29.77 76.89 30C76.62 30.87 76.15 31.67 75.88 32.54C75.6 33.72 75.46 34.94 75.39 36.15C75.39 36.36 75.36 36.57 75.32 36.77C75.29 36.57 75.26 36.37 75.23 36.16C75.23 36.13 75.22 36.09 75.21 36.06C75.32 35.43 75.37 34.8 75.28 34.16V34.17ZM74.21 45.75C74.02 44.38 74.17 42.98 73.91 41.61C73.52 40.05 73.09 38.63 72.81 37.02C72.28 35.52 72.01 33.93 71.53 32.4C70.97 30.75 70.3 29.15 69.82 27.46C69.51 26.29 68.69 25.12 69.06 23.87C69.11 23.74 69.17 23.53 69.3 23.46C69.35 23.43 69.41 23.43 69.49 23.47C70 23.72 70.19 24.31 70.48 24.76C71.18 25.69 71.73 26.73 72.27 27.76C73.09 29.51 74.01 31.24 74.31 33.17C74.55 34.38 74.47 35.62 74.53 36.86C74.63 37.56 74.71 38.26 74.71 38.97C74.63 39.23 74.59 39.47 74.69 39.62C74.64 40.73 74.65 41.84 74.62 42.95C74.59 43.1 74.56 43.28 74.6 43.42C74.58 43.84 74.55 44.26 74.51 44.67C74.48 44.34 74.45 44.01 74.45 43.67C74.45 42.72 74.32 41.78 74.35 40.82C74.33 40.01 74.1 39.24 73.94 38.45C73.76 37.58 73.8 36.69 73.65 35.81C73.53 34.88 73.25 33.97 72.99 33.07C72.87 32.62 72.79 32.16 72.68 31.7C72.66 31.62 72.59 31.54 72.51 31.55C72.44 31.55 72.4 31.64 72.41 31.7C72.75 33.76 73.17 35.8 73.55 37.84C73.65 39.05 73.73 40.27 73.97 41.46C74.05 42.27 74.06 43.09 74.24 43.89C74.33 44.13 74.27 45.1 74.37 45.59C74.34 45.79 74.31 45.99 74.26 46.19C74.24 46.03 74.22 45.88 74.2 45.72L74.21 45.75ZM66.6 34.28C65.74 32.35 64.64 30.58 63.83 28.61C64.98 28.78 65.53 29.99 66.25 30.79C67.42 32.06 68.61 33.35 69.51 34.83C70.02 35.66 70.64 36.43 71.02 37.35C71.4 38.15 71.57 39.07 71.64 39.95C71.75 41.07 71.94 42.17 72.15 43.27C72.45 44.85 72.89 46.47 73.3 48.06C72.94 47.2 72.54 46.35 72.24 45.44C71.72 43.76 71.34 42.05 70.71 40.41C70.51 39.57 70.22 38.68 69.81 37.91C69.53 37.34 69.28 36.75 69.03 36.16C69 36.1 68.94 36.03 68.86 36.05C68.79 36.07 68.78 36.17 68.8 36.23C68.9 36.47 68.99 36.71 69.09 36.95C69.56 38.29 69.85 39.68 70.42 40.99C70.57 41.65 70.64 42.32 70.81 42.98C70.59 42.47 70.37 41.97 70.11 41.48C69.54 40.35 68.83 39.36 68.22 38.25C67.5 37 67.22 35.57 66.61 34.27L66.6 34.28ZM87.34 40.64C86.41 41.03 85.54 41.56 84.74 42.17C83.77 42.91 82.63 43.4 81.74 44.24C80.78 45.25 79.58 45.97 78.53 46.88C79.23 46.14 80.03 45.51 80.69 44.74C81.37 43.87 82.18 43.14 83 42.41C83.17 42.27 83.03 41.87 82.8 42.04C81.97 42.8 81.18 43.61 80.29 44.31C79.56 44.84 78.75 45.29 78.24 46.06C77.18 47.72 76.25 49.47 75.07 51.06C76.03 48.75 77.23 46.55 78.82 44.61C79.96 42.97 81.5 41.64 83.2 40.6C84.3 40.03 85.39 39.45 86.41 38.75C86.55 38.68 86.69 38.61 86.83 38.53C87.43 38.2 88.1 37.83 88.76 38.11C89.06 38.4 89.17 38.78 89.4 39.14C88.97 39.93 88.12 40.29 87.33 40.64H87.34Z" fill="#595280"/>
<path d="M44.55 33.42C44.55 33.42 44.56 33.42 44.57 33.43C44.57 33.43 44.57 33.43 44.55 33.42Z" fill="#595280"/>
</svg>
