<svg width="34" height="43" viewBox="0 0 34 43" fill="none" xmlns="http://www.w3.org/2000/svg">
<path d="M0.589967 34.08C0.819967 30.76 1.05002 27.44 1.27002 24.12C1.39002 22.36 1.49999 20.59 1.60999 18.83C1.69999 17.47 1.78 16.12 1.87 14.76C1.95 13.6 2.69 12.9 3.87 12.89H4.18994C5.26994 12.89 6.35006 12.88 7.43006 12.89C7.44006 12.89 7.46996 12.89 7.45996 12.89V12.87C7.43996 11.96 7.44995 11.05 7.44995 10.14V9.03C7.44995 7.25 8.01995 5.56001 9.19995 3.86C9.97995 2.74001 11.01 1.84001 12.37 1.13001C13.98 0.280005 15.63 -0.0599951 17.42 0.110005C17.48 0.100005 17.56 0.0900027 17.66 0.100003C22.21 0.580003 25.8 4.53 25.83 9.1V9.7C25.84 10.75 25.8499 11.79 25.8199 12.84C25.8199 12.87 25.8199 12.89 25.8199 12.91C25.8499 12.91 25.88 12.91 25.92 12.91C26.85 12.89 27.78 12.89 28.72 12.9H29.42C30.53 12.9 31.34 13.64 31.41 14.72C31.47 15.6 31.53 16.48 31.58 17.36L31.72 19.66C31.82 21.21 31.92 22.76 32.02 24.31C32.21 27.13 32.4 29.94 32.6 32.76L32.79 35.53C32.89 37.05 33 38.58 33.11 40.1C33.16 40.71 32.97 41.29 32.59 41.7C32.25 42.06 31.8001 42.26 31.3001 42.26C28.1401 42.26 24.9799 42.26 21.8199 42.26H18.59H14.33C10.68 42.26 7.03001 42.26 3.38001 42.26H2.03003C1.50003 42.26 1.02006 42.06 0.680055 41.7C0.310055 41.31 0.120035 40.76 0.160035 40.16C0.190035 39.71 0.220001 39.26 0.250001 38.81L0.579957 34.08H0.589967ZM23.96 10.89C23.97 9.96 23.99 9.09 23.87 8.2C23.46 5.04 20.86 2.45 17.71 2.03C17.6 2.01 17.5 1.98 17.36 1.93C15.31 1.85 13.66 2.34 12.26 3.41C10.41 4.84 9.41997 6.75001 9.33997 9.08001C9.30997 9.76001 9.31996 10.44 9.32996 11.12C9.32996 11.7 9.32996 12.27 9.32996 12.85C9.32996 12.87 9.32996 12.89 9.32996 12.9C9.34996 12.9 9.37002 12.9 9.39002 12.9C11.56 12.9 13.73 12.9 15.9 12.9H18.03H19.62C20.36 12.9 21.11 12.9 21.85 12.9C22.51 12.9 23.1599 12.9 23.8199 12.91C23.8299 12.91 23.84 12.91 23.85 12.91C23.91 12.91 23.96 12.91 23.98 12.91C23.98 12.88 23.98 12.82 23.98 12.74C23.95 12.12 23.96 11.51 23.97 10.89H23.96ZM2.10999 40.38C2.17999 40.38 2.29996 40.39 2.45996 40.39H17.92C18.08 40.39 18.23 40.39 18.39 40.4H18.6L30.67 40.39C30.85 40.39 31.08 40.39 31.2 40.38C31.2 40.25 31.2001 40.01 31.1801 39.87C31.0601 38.02 30.93 36.18 30.8001 34.33C30.7101 33.04 30.62 31.75 30.53 30.47C30.46 29.46 30.4 28.45 30.34 27.44C30.28 26.43 30.22 25.43 30.15 24.42C30.06 23.04 29.96 21.65 29.86 20.27C29.74 18.5 29.61 16.73 29.5 14.96C29.5 14.83 29.47 14.78 29.47 14.77C29.45 14.77 29.4 14.75 29.28 14.75C28.06 14.78 26.95 14.78 25.88 14.75C25.85 14.75 25.8301 14.75 25.8101 14.75C25.8101 14.76 25.8101 14.78 25.8101 14.8C25.8301 14.97 25.8301 15.15 25.8101 15.39C25.7901 15.83 25.82 15.96 26.08 16.14C26.46 16.4 26.69 16.81 26.74 17.29C26.79 17.84 26.59 18.4 26.21 18.79C25.86 19.14 25.33 19.37 24.85 19.34C24.33 19.34 23.84 19.12 23.51 18.76C22.82 18.01 22.87 16.83 23.62 16.13C23.72 16.04 23.82 15.98 23.9 15.94C23.91 15.94 23.9201 15.93 23.9301 15.92V15.81C23.9301 15.44 23.9501 15.09 23.9301 14.75C23.9201 14.75 23.9 14.75 23.89 14.75C22.63 14.75 21.37 14.75 20.11 14.75H18.63C18.48 14.75 18.3399 14.75 18.1899 14.74H18H15.78C13.7 14.74 11.62 14.76 9.53003 14.74H9.5C9.39 14.74 9.32005 14.74 9.30005 14.74C9.30005 14.77 9.30006 14.83 9.31006 14.92C9.35006 15.18 9.33006 15.44 9.31006 15.66C9.29006 15.84 9.30999 15.91 9.48999 16.04C9.91999 16.37 10.19 16.83 10.23 17.35C10.27 17.86 10.09 18.37 9.72998 18.76C9.38998 19.12 8.90001 19.33 8.38001 19.33H8.37C7.86 19.33 7.37003 19.13 7.03003 18.78C6.65003 18.38 6.46001 17.85 6.51001 17.31C6.56001 16.79 6.83001 16.35 7.26001 16.05C7.43001 15.93 7.44006 15.86 7.43006 15.51C7.43006 15.43 7.43006 15.36 7.43006 15.28C7.43006 15.1 7.43006 14.88 7.43006 14.75C7.31006 14.74 7.11003 14.74 6.90003 14.74H6.06995C5.36995 14.74 4.66998 14.74 3.97998 14.74H3.95996C3.83996 14.74 3.80005 14.75 3.80005 14.75C3.80005 14.75 3.77002 14.8 3.77002 14.91C3.72002 15.72 3.65998 16.52 3.59998 17.33C3.55998 17.91 3.50997 18.5 3.46997 19.08C3.23997 22.43 3.02004 25.77 2.79004 29.12C2.68004 30.71 2.57998 32.29 2.47998 33.88L2.21997 37.89C2.16997 38.6 2.11996 39.3 2.07996 40.01C2.07996 40.18 2.07996 40.29 2.07996 40.36L2.10999 40.38Z" fill="#000000"/>
</svg>
