<svg width="151" height="130" viewBox="0 0 151 130" fill="none" xmlns="http://www.w3.org/2000/svg">
<g clip-path="url(#clip0_13_1947)">
<path d="M10.4082 20.587C10.6423 20.4307 10.9025 20.3697 11.1801 20.3348C12.5681 20.16 14.0874 21.4774 15.1725 22.2572C18.0025 24.2415 20.9104 26.0608 23.7403 28.045C25.5633 29.3101 27.2996 30.6706 29.3044 31.5885C29.8425 31.8309 30.45 32.0646 30.7975 32.5848C31.4403 33.5473 30.2785 34.3985 29.5762 34.8676C28.7178 35.4409 27.1916 36.197 26.4272 35.0525C26.1144 34.5843 25.9058 34.0466 25.593 33.5784C24.1858 31.4715 22.6594 32.1148 20.9167 33.2788L18.4716 34.9119C16.4947 36.2323 14.6652 37.3791 16.2462 39.7461C17.3581 41.4109 18.4087 42.3643 16.2237 43.8237C15.4694 44.3275 14.0819 44.9533 13.439 43.9909C13.0916 43.4707 13.1951 42.8373 13.238 42.282C13.3747 39.8961 12.5833 37.6412 12.0434 35.3687C11.8606 34.588 11.7297 33.7726 11.5729 32.9746C11.1018 30.0167 10.3098 27.0851 9.76933 24.1359C9.55143 22.9649 9.26373 21.3515 10.4082 20.587ZM14.7041 32.1998C15.7291 33.7345 16.7346 32.7619 17.9311 31.9627C18.7895 31.3894 20.4892 30.5551 19.6553 29.3065C19.134 28.5262 14.0209 24.7568 13.4746 25.1216C12.5642 25.7297 14.1133 31.3154 14.7041 32.1998Z" fill="#D9CFC6"/>
<path d="M44.571 20.9093C45.1628 22.4914 49.7816 24.3036 50.1214 25.2118C50.3625 25.8564 49.919 26.4564 49.3038 26.6866C46.1397 27.8702 44.5042 22.0698 37.8537 24.5576C36.7697 24.9631 35.9637 25.6654 36.424 26.8959C36.8295 27.9799 38.1249 28.7644 38.4537 29.6433C38.8921 30.8152 37.4089 31.4034 36.5886 31.7103C35.6804 32.0501 33.9775 32.5869 33.5063 31.3271C33.2432 30.624 33.5333 29.6137 33.6071 28.9182C32.5513 26.0068 31.4956 23.0954 30.4106 20.195C29.7859 18.5251 29.2201 16.566 28.3719 15.013C27.8638 14.101 26.8759 13.335 26.5252 12.3975C25.8128 10.4932 29.9288 9.35426 31.1593 8.89396C36.1398 7.03083 42.4848 6.49409 44.7206 12.4707L45.2321 13.7488C46.4048 16.8836 44.1874 19.8839 44.571 20.9093ZM37.1605 21.544C37.8637 21.281 38.523 20.9008 39.1603 20.462C41.5669 18.8604 43.2925 17.3131 42.1199 14.1783C40.717 10.4283 37.3057 9.43341 33.7608 10.7595C30.2451 12.0747 31.254 13.9682 32.2842 16.7222C32.5692 17.4839 33.921 20.9191 34.4332 21.3954C35.2088 22.0404 36.2816 21.8728 37.1605 21.544Z" fill="#D9CFC6"/>
<path d="M51.236 14.1548C50.3743 7.7059 53.8227 2.10123 60.5197 1.20647C64.3023 0.701101 68.4471 2.19859 69.0146 6.44621C69.2051 7.87242 68.8377 9.84654 67.1015 10.0785C66.2023 10.1986 65.2844 9.46922 65.1601 8.53909C65.0317 7.57795 65.6412 6.70756 65.5128 5.74642C65.2726 3.94816 62.1264 3.548 60.7312 3.73441C55.5225 4.43033 54.2504 9.08151 54.8801 13.7942C55.5718 18.9719 58.5514 22.6133 63.9462 21.8925C65.7755 21.6481 68.7284 18.4765 69.5345 18.3688C70.0306 18.3025 70.3449 18.7654 70.3988 19.1685C70.7426 21.7419 66.392 23.901 64.292 24.2447L63.2069 24.3897C56.5719 25.2762 52.0727 20.4177 51.236 14.1548Z" fill="#D9CFC6"/>
<path d="M74.8912 22.057C74.9019 21.494 75.161 21.0297 75.3582 20.5329C75.7855 19.446 75.9014 18.2906 75.9228 17.1648C75.9704 14.6628 76.2621 5.90838 75.7343 4.05249C75.5296 3.29774 74.7993 2.22013 74.813 1.50082C74.8368 0.249846 76.2489 0.0264272 77.2184 0.0448733C78.3443 0.0662947 79.7781 0.343862 79.7514 1.75121C79.7412 2.28287 79.5441 2.77969 79.3782 3.27711C78.7465 5.23608 78.7072 7.30019 78.6679 9.3643C78.6174 12.0226 78.5219 18.6846 79.3541 20.9843C79.5635 21.4889 79.8355 21.9946 79.8242 22.5888C79.8039 23.6522 78.3641 23.6873 77.6135 23.6731C76.5815 23.6534 74.8656 23.4018 74.8912 22.057Z" fill="#D9CFC6"/>
<path d="M83.2234 22.1397C83.3947 21.0901 84.2459 20.3416 84.6283 19.3581C85.0415 18.3796 85.2128 17.33 85.3841 16.2804L86.3466 10.3839C86.6388 8.59337 86.8693 6.79274 87.0381 4.98204C86.8194 4.1857 86.4515 3.33329 86.5875 2.49976C86.8193 1.07967 88.6501 1.12495 89.7306 1.30131C90.5333 1.43232 91.5023 2.09758 91.3461 3.0546C91.2705 3.51767 91.0148 3.91964 90.759 4.32161C90.1712 5.39835 89.8821 6.58722 89.6856 7.79121C89.3832 9.6435 89.1994 11.5468 88.892 13.43C88.6199 15.097 88.1008 16.7238 87.8287 18.3908C87.602 19.7801 87.6669 20.7415 88.6271 21.849C90.4435 22.1772 92.229 22.5003 94.0196 22.7926C96.6437 23.2209 96.6713 20.7215 98.2766 20.9836C98.9558 21.0944 99.1838 21.6387 99.0831 22.2562C98.8866 23.4602 97.9517 25.3043 96.7446 25.7094C96.2721 25.8859 87.9935 24.5664 86.7586 24.3648C85.6472 24.1834 82.9664 23.7142 83.2234 22.1397Z" fill="#D9CFC6"/>
<path d="M101.75 25.5785C102.125 24.5833 103.107 24.0173 103.676 23.1285C104.274 22.2507 104.649 21.2554 105.024 20.2602L107.13 14.6692C107.769 12.9714 108.35 11.2515 108.873 9.50964C108.815 8.68582 108.622 7.7776 108.92 6.98724C109.427 5.64072 111.213 6.04606 112.238 6.43197C112.999 6.71864 113.818 7.56188 113.476 8.46933C113.311 8.90841 112.981 9.25206 112.651 9.59572C111.862 10.5355 111.344 11.644 110.914 12.7856C110.253 14.5419 109.697 16.3717 109.025 18.1573C108.429 19.738 107.6 21.2305 107.004 22.8112C106.508 24.1284 106.382 25.0838 107.105 26.3589C108.821 27.0387 110.508 27.7075 112.206 28.347C114.694 29.2842 115.214 26.8394 116.736 27.4127C117.38 27.6553 117.496 28.2339 117.276 28.8194C116.846 29.961 115.566 31.5846 114.302 31.7438C113.804 31.8237 105.948 28.8979 104.777 28.4569C103.724 28.06 101.188 27.0714 101.75 25.5785Z" fill="#D9CFC6"/>
<path d="M139.796 20.4116C140.03 20.5675 140.187 20.7841 140.326 21.0268C141.021 22.2404 140.391 24.1499 140.089 25.4517C139.348 28.8275 138.788 32.2117 138.047 35.5876C137.582 37.7571 136.995 39.8834 136.92 42.0871C136.903 42.6771 136.921 43.3277 136.575 43.8487C135.934 44.8126 134.701 44.0682 133.998 43.6007C133.138 43.0293 131.853 41.912 132.615 40.7658C132.926 40.2968 133.342 39.8972 133.654 39.4283C135.056 37.3182 133.875 36.1573 132.129 34.9972L129.681 33.3696C127.701 32.0537 125.938 30.8069 124.362 33.1775C123.254 34.8448 122.779 36.1815 120.591 34.727C119.835 34.2249 118.723 33.1854 119.364 32.2215C119.71 31.7005 120.335 31.5522 120.864 31.3779C123.118 30.5853 124.894 28.9865 126.784 27.6131C127.434 27.1438 128.136 26.709 128.812 26.2569C131.36 24.6831 133.761 22.8232 136.274 21.1887C137.271 20.5366 138.649 19.6498 139.796 20.4116ZM130.733 28.8482C129.711 30.3852 130.996 30.9387 132.194 31.7351C133.054 32.3065 134.479 33.5538 135.31 32.3034C135.829 31.5218 137.339 25.3514 136.792 24.9878C135.88 24.3818 131.321 27.9625 130.733 28.8482Z" fill="#D9CFC6"/>
<path d="M137.939 102.44C137.913 102.31 137.86 102.166 137.768 102.048C138.07 101.028 136.772 99.4584 136.235 98.6475C133.482 95.404 129.274 93.8868 126.363 90.7871C125.013 89.3354 123.532 88.0144 122.077 86.6804C120.491 84.9801 118.865 83.3322 116.912 82.0373C115.299 80.8079 113.451 79.9447 111.812 78.7546C110.593 77.8913 109.584 76.7535 108.666 75.5764C106.87 72.9606 104.222 71.2211 101.666 69.4032C100.617 68.6053 99.8567 67.5198 99.0309 66.4866C97.7986 65.0086 96.6057 63.4653 95.2685 62.079C93.6692 60.6011 91.7028 59.5547 90.156 57.9853C89.5529 57.3706 88.9893 56.7166 88.5698 55.9581C87.875 54.9771 87.0491 54.0878 86.2757 53.1723C85.24 52.1913 84.0078 51.3151 82.7493 50.6611C81.5433 49.4186 79.7735 48.8431 78.148 48.2808C77.7678 48.1238 77.3614 47.9669 76.9419 48.0061C75.6441 48.0715 74.4512 48.6339 73.2583 49.0916C71.8294 49.6017 70.3874 50.1903 69.2075 51.1712C67.0445 53.2115 64.9471 55.3433 63.0856 57.6452C61.5125 59.7902 59.3888 61.412 57.4749 63.2692C55.6527 64.8648 54.4729 66.9574 52.8604 68.7623C50.9334 70.9988 48.7311 72.8167 46.7778 75.0925C45.0736 77.0935 43.9069 79.5785 41.7045 81.1349C40.1708 82.2466 38.401 83.0052 36.9459 84.2215C35.6219 85.294 34.5338 86.6019 33.3802 87.8444C32.3053 88.8776 31.1123 89.78 29.9456 90.6956C28.189 91.9511 26.7339 93.5468 25.1477 94.9854C23.745 96.3718 22.6701 98.0328 21.3722 99.4977C20.8872 100.165 18.4096 102.65 19.1306 103.461C19.0781 103.565 19.0781 103.67 19.1699 103.774C18.5669 106.325 22.0539 107.463 23.9941 107.92C26.4455 108.339 28.9231 108.692 31.4007 108.888C32.0824 108.954 32.751 109.045 33.4327 109.045C33.7473 109.045 34.0619 109.032 34.3765 108.98C35.3859 108.797 36.3691 108.561 37.3916 108.457C38.8074 108.365 40.2625 108.3 41.6128 107.816C42.1765 107.816 42.7533 107.777 43.3301 107.737C44.3264 107.659 45.3358 107.58 46.319 107.764C46.4763 107.816 46.6467 107.829 46.804 107.829C46.8433 107.829 46.8695 107.829 46.9089 107.829C46.9351 107.855 46.9482 107.881 46.9744 107.907C47.04 107.947 47.0924 107.96 47.1448 107.96C47.1842 107.96 47.2104 107.947 47.2497 107.934C47.3153 108.051 47.4332 108.156 47.5774 108.208C48.8228 108.574 50.1731 108.391 51.4446 108.692C52.2967 108.81 53.175 108.784 54.0403 108.758C54.8006 108.731 55.5478 108.718 56.295 108.784C57.7764 108.914 59.0873 109.568 60.5686 109.778C61.4469 109.908 62.3252 109.987 63.2167 110C63.374 110 63.5444 110 63.7017 110C65.5239 110 67.3198 109.712 69.1551 109.647C69.5353 109.647 69.9023 109.647 70.2825 109.647C72.4848 109.647 74.7003 109.647 76.7715 108.771C77.3352 108.587 77.8858 108.378 78.384 108.077C78.6724 108.077 78.9608 108.051 79.2492 108.025C80.4683 107.907 81.7137 107.79 82.959 107.907C83.5883 107.947 84.9254 108.104 85.2007 107.489C85.24 107.633 85.3187 107.75 85.4498 107.816C86.0004 108.012 86.5903 107.986 87.1671 108.064C88.2027 108.221 89.2252 108.431 90.2871 108.404C91.4931 108.404 92.686 108.535 93.879 108.64C94.9015 108.836 95.9764 109.019 97.0252 108.823C98.2968 108.64 99.5683 108.731 100.853 108.574C101.718 108.535 102.557 108.13 103.422 108.077C104.065 108.038 104.694 108.077 105.336 107.973C106.241 107.803 107.172 107.593 108.05 107.293C109.4 107.149 110.79 106.926 112.074 106.456C112.94 106.207 113.831 106.05 114.723 105.946C114.854 105.946 114.998 105.906 115.076 105.802C115.129 105.776 115.155 105.736 115.194 105.684C116.06 106.338 117.856 105.697 119.324 105.592C121.408 105.344 123.624 105.605 125.721 105.841C127.399 105.946 129.064 106.273 130.716 106.599C131.463 106.835 132.079 106.874 132.446 106.482C133.167 106.573 133.901 106.599 134.347 106.665C134.504 106.678 134.662 106.691 134.832 106.691C135.645 106.691 136.484 106.482 137.152 106.037C137.847 105.383 138.096 104.337 137.939 103.421C137.939 103.055 138.057 102.741 137.965 102.375M54.1058 68.3176C56.2557 66.4081 58.2876 64.3678 60.2278 62.249C61.3027 61.3335 62.4694 60.5226 63.3346 59.3978C64.3965 58.103 65.2092 56.6382 66.2318 55.3172C68.5652 52.2437 71.3443 51.6813 74.7003 50.3341C77.191 49.144 77.6629 49.6802 79.9964 50.7527C80.9927 51.2758 81.989 51.8121 82.7362 52.6753C83.1164 52.9499 83.431 52.7014 83.549 52.3483C84.5321 53.1461 85.4105 54.0747 86.2363 55.0425C88.0978 57.0305 89.2777 59.5024 91.0343 61.5689C92.555 63.3607 94.3378 64.9825 96.042 66.6566C97.7593 68.0429 99.2275 69.6647 100.801 71.195C101.338 71.7443 101.915 72.2543 102.518 72.7383C102.426 73.7977 102.61 75.2363 102.57 75.7595C102.623 77.2505 103.003 78.9769 101.928 80.2194C101.246 81.3965 98.8867 79.6308 98.323 78.8984C97.6675 78.0744 97.4971 76.7796 96.5532 76.2172C95.8847 76.0865 95.3472 77.6298 95.0719 78.1268C94.0363 80.8864 93.997 84.5616 91.1261 86.1834C90.0904 86.7719 89.1859 84.4439 88.6484 83.7768C87.521 82.1289 86.6689 80.2717 85.3842 78.7415C84.6501 77.9698 84.0209 77.1066 83.5883 76.1257C83.3654 75.7726 83.3261 74.7524 82.7231 74.9617C82.1463 75.3279 81.8972 76.0211 81.5564 76.5835C81.2811 77.0412 80.9665 77.499 80.7305 77.996C80.7305 77.996 80.7305 78.0091 80.7305 78.0221C80.547 77.996 80.3765 78.1006 80.2979 78.2706C80.0488 78.7676 79.826 79.3823 79.3147 79.6832C77.0337 78.6107 76.7977 75.6287 76.0243 73.4707C75.7097 72.686 75.7752 71.5481 74.9887 71.0642C73.7957 71.0249 73.2058 73.1437 72.6815 74.02C71.8425 75.7595 70.6102 77.2374 69.6664 78.9115C68.8405 80.3109 68.5259 81.9066 67.936 83.3976C66.9266 85.1894 64.1998 91.6896 61.8402 91.0879C60.5031 90.5648 60.7784 88.2629 60.4768 87.0466C60.3326 86.0787 59.9787 85.137 59.9132 84.1692C59.8476 82.7044 59.9132 81.2134 59.7952 79.7485C59.7558 79.1338 59.3626 78.8069 58.7858 79.1731C57.7239 79.7747 56.6621 80.3763 55.6527 81.0564C54.6433 81.6319 53.7256 82.5082 52.5982 82.809C52.1788 81.3965 52.7556 79.9055 53.3193 78.6107C54.0009 77.1197 54.4597 75.4979 54.8661 73.9023C55.1021 72.9868 55.6002 72.1366 55.7838 71.208C56.0853 68.7492 53.2013 70.5279 52.1001 70.9726C52.0739 70.9726 52.0477 70.9988 52.0214 71.0118C52.69 70.0702 53.3586 69.1416 54.1582 68.3045M49.3996 102.074C49.3996 102.074 49.3472 102.009 49.3079 101.983C49.6487 101.473 49.9895 100.949 50.291 100.426C50.0026 100.989 49.7011 101.538 49.3865 102.074M85.1221 106.887C85.1221 106.887 85.1221 106.874 85.1221 106.861C85.1221 106.861 85.1221 106.887 85.1221 106.9C85.1221 106.9 85.1221 106.9 85.1221 106.887ZM84.6763 101.839C84.5715 101.891 84.4797 101.943 84.3617 102.009C84.4535 101.878 84.5452 101.747 84.6239 101.616C84.6239 101.708 84.6239 101.786 84.6632 101.839M86.4067 98.883C86.4067 98.883 86.3805 98.896 86.3674 98.896C86.3805 98.8568 86.3936 98.8045 86.4067 98.7652C86.4067 98.8045 86.4067 98.8437 86.4067 98.883ZM85.4629 105.514C85.4629 105.514 85.5022 105.383 85.5284 105.318C85.5284 105.331 85.5284 105.344 85.5284 105.357C85.5022 105.488 85.4629 105.619 85.4236 105.749C85.4367 105.671 85.4498 105.592 85.4629 105.514ZM79.8128 107.201C79.8128 107.201 79.9046 107.162 79.957 107.136C79.957 107.162 79.9833 107.188 79.9964 107.201C79.9439 107.201 79.8784 107.201 79.8128 107.201ZM83.3261 106.508C83.3261 106.508 83.3785 106.39 83.4048 106.338C83.4179 106.338 83.431 106.338 83.4572 106.351C83.4703 106.377 83.4965 106.403 83.5096 106.416C83.5096 106.443 83.5358 106.469 83.549 106.495C83.4834 106.495 83.4048 106.495 83.3392 106.495M114.683 103.827C114.67 103.761 114.631 103.696 114.591 103.644C114.631 103.618 114.67 103.591 114.709 103.565C114.696 103.657 114.696 103.735 114.683 103.827ZM114.408 104.965C114.487 104.847 114.591 104.69 114.657 104.533C114.657 104.716 114.683 104.886 114.723 105.03C114.618 105.017 114.5 105.004 114.408 104.965ZM135.343 104.468C134.334 104.638 133.298 104.572 132.263 104.468C132.158 104.389 132.04 104.324 131.909 104.285C129.379 103.578 126.665 103.604 124.135 104.285C122.916 104.651 121.67 104.585 120.425 104.507C119.665 104.468 118.917 104.428 118.17 104.468C117.934 104.468 117.633 104.546 117.292 104.625C116.558 104.808 115.745 104.991 115.588 104.245C115.548 103.774 115.719 103.277 115.588 102.807C115.522 102.571 115.404 102.31 115.142 102.257C114.919 102.218 114.723 102.401 114.552 102.506C113.687 103.029 112.966 103.591 112.153 104.219C110.659 105.252 108.797 105.776 107.001 106.338C106.883 106.338 106.752 106.364 106.634 106.364C106.503 106.364 106.398 106.443 106.333 106.547C105.887 106.691 105.441 106.835 105.022 106.992C104.379 107.188 103.672 107.201 103.003 107.267C102.125 107.41 101.325 107.816 100.42 107.907C99.7257 107.881 99.0571 107.986 98.3754 108.104C97.6675 108.221 96.9596 108.326 96.2386 108.287C95.5438 108.221 94.9015 107.973 94.246 107.79C93.1317 107.528 91.9781 107.659 90.8508 107.554C89.8413 107.502 88.8975 107.057 87.8881 106.979C87.0491 106.94 86.2494 107.201 85.4498 107.332C85.4105 106.783 85.6595 106.312 85.8955 105.815C86.1577 105.213 86.1052 104.546 86.2232 103.905C86.3412 103.33 86.3674 102.82 86.3281 102.414C86.4985 101.616 86.6296 100.819 86.7345 100.008C86.8656 99.72 86.9705 99.4192 86.8656 99.1445C87.0229 98.3729 87.1278 97.5881 87.2064 96.8034C87.2195 96.6726 87.1802 96.5026 87.0622 96.4241C87.0622 96.241 86.9967 96.1887 86.7869 96.3587C86.7738 96.398 86.7607 96.4241 86.7476 96.4634C86.7476 96.4634 86.7476 96.4764 86.7345 96.4895C86.5247 96.5418 86.3543 96.8034 86.2494 96.9734C85.7513 97.7451 85.2925 98.556 84.8074 99.3407C83.8243 100.884 82.4347 102.153 81.5564 103.748C81.0975 104.18 80.7305 104.703 80.3503 105.213C79.7473 105.959 78.869 106.586 77.8727 106.678C76.5618 106.743 75.3164 106.835 74.0055 107.018C71.7638 107.136 69.5877 107.764 67.3723 108.038C64.3178 108.208 61.2634 107.986 58.209 107.855C56.2164 107.593 54.2107 107.345 52.205 107.214C50.8285 107.11 49.2292 106.77 47.8396 107.083C48.4689 106.011 48.9015 104.834 49.2423 103.631C49.3078 103.304 49.4783 102.964 49.5307 102.624C50.1993 101.59 51.1431 100.701 51.4184 99.4323C51.6806 98.5429 52.1656 97.7582 52.5065 96.9211C52.8604 96.0448 53.044 95.1031 53.3848 94.2269C53.5028 93.9391 53.1488 93.6383 53.0046 93.9914C53.0046 94.0176 52.9784 94.0438 52.9653 94.0699C52.9391 94.0438 52.926 94.0045 52.8998 93.9914C52.7687 93.913 52.6245 93.9915 52.5589 94.1222C51.4971 96.8165 50.4483 99.5761 48.6917 101.904C48.2984 102.127 47.9052 102.349 47.5381 102.597C44.9556 104.389 42.0716 105.671 39.0958 106.652C36.6706 107.253 34.1012 107.096 31.6367 106.835C30.9157 106.809 30.1685 106.809 29.4344 106.822C26.9436 106.848 24.4267 106.874 22.2243 105.566C21.582 105.2 20.8086 104.899 20.2318 104.415C20.1662 104.337 20.0744 104.245 20.0482 104.128C19.9565 103.788 20.0875 103.395 19.9171 103.068C19.8778 103.016 19.8385 102.977 19.786 102.964C21.0052 101.394 22.3554 99.9293 23.4566 98.2682C24.584 96.7249 26.2489 95.744 27.9137 94.8939C29.9719 93.3767 31.7023 91.4803 33.6293 89.8193C36.0152 87.8836 38.3224 85.8433 40.6034 83.803C43.7365 80.8472 46.2927 77.329 49.3603 74.3077C49.9109 73.7453 50.409 73.1306 50.8809 72.5028C51.1825 72.3721 51.4709 72.202 51.7593 72.0974C52.808 71.6658 53.8829 71.0903 55.0103 70.9726C54.0665 74.1769 51.7724 77.0151 51.4709 80.4417C51.2742 83.2014 51.6413 85.6602 54.8661 83.5676C56.4392 82.5605 57.5273 80.9387 59.1397 79.9578C59.1004 81.2134 58.8382 82.4559 58.8513 83.7114C58.7858 85.0716 59.1266 86.4057 59.4019 87.7267C59.7558 89.0607 59.7952 90.8656 61.1061 91.6503C61.3814 91.7942 61.6567 91.8465 61.932 91.8465C62.7447 91.8465 63.5444 91.3626 64.213 90.931C66.861 89.1915 67.7 86.0656 69.024 83.3452C69.8368 81.2395 70.7675 79.1992 71.8556 77.2243C72.6815 75.5764 73.35 73.85 74.5561 72.4113C74.91 74.7263 75.8539 76.9366 76.9157 79.0161C77.2172 79.5131 77.5974 79.9447 77.9645 80.3894C78.266 80.7425 78.6068 81.2003 79.1181 81.2265C79.708 81.2526 80.1275 80.8341 80.4159 80.3633C80.6256 79.8924 81.2549 78.8853 81.0451 78.3099C81.635 77.4467 82.1856 76.5181 82.8673 75.7072C83.2081 76.5835 83.431 77.499 83.8505 78.336C84.5977 79.7224 85.8168 80.7164 86.6034 82.0897C87.6652 83.8946 87.9274 86.7196 90.1298 87.5828C90.1953 87.5828 90.2608 87.5959 90.3264 87.5959C91.4013 87.5959 92.0961 86.4319 92.7254 85.6864C93.5906 84.5485 94.4164 83.3714 94.9277 82.0243C95.5176 80.5333 95.7929 78.9246 96.527 77.4859C97.72 79.0815 98.7818 80.9518 100.722 81.7627C102.321 82.5736 103.527 80.5594 103.973 79.2777C104.419 77.6428 103.986 75.9687 103.881 74.3208C103.881 74.1377 103.868 73.9546 103.868 73.7715C104.655 74.347 105.454 74.8963 106.254 75.4456C111.052 79.2777 115.653 83.3322 120.123 87.5436C122.562 89.7016 125.524 91.1795 127.845 93.4944C129.549 95.2993 131.384 97.0519 133.22 98.7522C134.412 99.8246 135.619 100.897 136.497 102.257C136.523 102.31 136.562 102.349 136.602 102.388C136.562 102.584 136.549 102.807 136.575 102.99C136.68 104.115 136.326 104.154 135.343 104.428" fill="#D9CFC6"/>
<path d="M78.9435 114.233C78.3223 114.014 77.7011 113.822 77.0674 113.644C76.9556 113.616 76.8686 113.644 76.7816 113.685C74.5576 112.875 71.9236 112.615 69.7866 113.849C68.4074 115.166 69.1405 118.363 69.7369 119.996C70.3581 121.861 72.3336 122.177 73.8867 122.52C74.7564 122.698 75.6137 122.904 76.4959 123C76.645 123 76.7941 123 76.9307 123C79.7636 123 81.3912 121.258 80.9191 117.91C80.7824 116.374 80.4593 114.768 78.956 114.247M76.2598 121.834C73.5015 122.245 70.3084 120.654 69.6872 117.444C69.6499 116.195 69.6499 114.453 71.0415 114.137C71.6254 113.863 72.2218 113.753 72.8182 113.753C74.0358 113.753 75.241 114.206 76.4213 114.618C76.4586 114.878 76.5828 115.166 76.8189 115.262C77.5644 115.482 78.285 115.77 78.8938 116.319C79.0678 116.456 79.192 116.634 79.2417 116.854C79.4405 117.704 79.5648 118.582 79.5275 119.46C79.5648 121.299 77.5271 121.628 76.2474 121.834" fill="#D9CFC6"/>
<path d="M60.3889 114.383C60.3382 114.615 60.4016 114.874 60.5919 115.01C61.0993 115.324 60.8329 116.088 60.8963 116.62C60.8963 117.262 60.8963 117.916 60.8202 118.544C60.7187 119.363 59.9703 120.004 59.2346 120.072C58.8033 119.731 58.6131 119.103 58.1945 118.721C57.6998 118.094 56.8879 117.821 56.4947 117.098C56.3805 116.77 56.7991 116.607 56.9767 116.429C57.6998 115.924 58.4355 115.406 59.26 115.119C59.4376 115.078 59.6405 114.997 59.8054 115.119C59.9576 115.229 60.1352 115.119 60.2113 114.956C60.4523 114.437 59.8942 114.001 59.4502 114.096C59.057 114.151 58.6892 114.355 58.334 114.546C57.4461 115.106 56.0127 115.679 56 116.961C56.1903 118.189 57.3192 118.885 57.9661 119.827C58.3213 120.277 58.4989 121.027 59.1585 120.973C59.2727 120.986 59.3741 121 59.4883 121C60.6933 121 61.873 120.004 61.9491 118.667C62.0252 117.384 62.0633 116.02 61.7081 114.778C61.5559 114.328 60.6046 113.537 60.4016 114.355" fill="#D9CFC6"/>
<path d="M64.5 123C64.1636 123 64 123.562 64 124C64 124.438 64.1727 125 64.5 125C64.8273 125 65 124.438 65 124C65 123.562 64.8273 123 64.5 123Z" fill="#D9CFC6"/>
<path d="M48 118C47.3393 118 47 118.562 47 119C47 119.438 47.3393 120 48 120C48.6607 120 49 119.425 49 119C49 118.575 48.6607 118 48 118Z" fill="#D9CFC6"/>
<path d="M55.6329 123C54.6577 123.14 52.7458 123.249 53.0281 124.959C53.2206 125.596 53.8622 126 54.4524 126C54.8759 126 55.2737 125.798 55.479 125.363C55.6714 124.927 55.5945 123.653 55.0042 123.933C54.7861 124.104 54.7476 124.492 54.8502 124.772C54.5936 125.036 53.3489 125.036 53.3618 124.539C53.9777 123.746 55.0042 123.855 55.8126 123.839C56.1462 123.653 56.0051 122.907 55.6201 123.031" fill="#D9CFC6"/>
<path d="M88.4923 116C88.8154 116 89 115.721 89 115.5C89 115.279 88.8308 115 88.4923 115C88.1538 115 88 115.279 88 115.5C88 115.721 88.1692 116 88.4923 116Z" fill="#D9CFC6"/>
<path d="M89.4036 122.699C89.1666 122.614 88.8702 122.751 88.645 122.846C87.5426 123.332 87.9812 124.609 89.0006 124.926C89.1547 124.979 89.297 125 89.4273 125C90.506 125 91.075 123.585 90.992 122.741C90.8024 121.938 89.3325 121.601 89.4036 122.699ZM89.5103 124.557C89.0362 124.557 88.4672 124.134 88.4909 123.701C88.6569 123.427 89.0125 123.279 89.3325 123.184C89.4273 123.174 89.4985 123.1 89.5222 123.015C89.6526 123.258 89.9489 123.279 90.2215 123.29C90.186 123.744 90.1623 124.483 89.5222 124.567" fill="#D9CFC6"/>
<path d="M79.7831 128.556C80.0183 128.462 80.046 128.256 79.9076 128.12C79.8661 128.077 79.7831 128.034 79.7001 128.026C79.2297 127.983 78.6762 127.974 78.275 128.154C77.8045 128.368 77.9706 128.829 78.524 128.915C78.8146 128.974 79.1328 129 79.4511 129C79.5479 129 79.6448 129 79.7278 129C80.0737 128.991 80.0875 128.607 79.7831 128.564" fill="#D9CFC6"/>
<path d="M101 114C100.337 114 100 114.85 100 115.5C100 116.15 100.337 117 101 117C101.663 117 102 116.15 102 115.5C102 114.85 101.663 114 101 114Z" fill="#D9CFC6"/>
</g>
<defs>
<clipPath id="clip0_13_1947">
<rect width="150.16" height="129.42" fill="white"/>
</clipPath>
</defs>
</svg>
