<svg width="162" height="154" viewBox="0 0 162 154" fill="none" xmlns="http://www.w3.org/2000/svg">
<g clip-path="url(#clip0_13_1966)">
<path d="M23.3689 34.3099C24.452 35.7493 29.7236 36.2081 30.3454 37.0344C30.7867 37.6209 30.5143 38.3685 29.9545 38.7898C27.0756 40.956 23.651 35.517 17.6 40.0702C16.6137 40.8123 16.0014 41.7741 16.8438 42.8937C17.586 43.8799 19.1479 44.2911 19.7496 45.0908C20.5519 46.1571 19.2125 47.2067 18.4661 47.7683C17.6398 48.3901 16.0602 49.4535 15.1977 48.3072C14.7163 47.6675 14.7079 46.5466 14.5733 45.8129C12.6142 43.1538 10.6551 40.4948 8.66937 37.8558C7.52607 36.3364 6.35558 34.5034 5.01909 33.1711C4.22389 32.3917 2.98214 31.9066 2.34028 31.0536C1.03652 29.321 4.90249 26.913 6.02207 26.0705C10.5537 22.6607 16.8815 20.1954 20.9734 25.6333L21.8826 26.7862C24.0288 29.6384 22.6669 33.3769 23.3689 34.3099ZM15.9809 37.1971C16.6206 36.7157 17.1801 36.1277 17.6995 35.4864C19.6774 33.1214 20.9751 31.0176 18.8289 28.1654C16.2615 24.7534 12.4718 24.766 9.24641 27.193C6.04763 29.6 7.65148 31.2321 9.53693 33.7378C10.0584 34.4309 12.4786 37.5362 13.1463 37.8688C14.1344 38.2942 15.1812 37.7988 15.9809 37.1971Z" fill="#D9CFC6"/>
<path d="M34.8054 9.16621C40.9972 6.59261 47.3845 9.35679 49.9453 15.5178C51.4561 19.1528 52.2661 23.1875 50.4512 26.9043C50.0707 27.6404 47.6768 30.225 46.9603 30.848C46.1334 31.5529 45.0912 31.9139 44.0747 32.3364C37.6056 35.0252 31.6268 31.7661 29.0275 25.5127C28.1569 23.418 27.4777 19.4373 27.6953 17.1793C27.7936 16.1991 28.6597 14.7192 29.1686 13.8574C30.4715 11.6901 32.495 10.1265 34.8054 9.16621ZM43.094 29.89C48.3308 27.7133 48.8718 22.3223 46.8872 17.5475C44.9538 12.896 40.9997 9.55396 35.9169 11.6666C30.4028 13.9585 30.2418 19.0471 32.3161 24.0375C34.1598 28.4734 38.2268 31.913 43.094 29.89Z" fill="#D9CFC6"/>
<path d="M78.7735 24.285C78.1884 24.1457 77.5054 23.7149 77.4316 23.0182C77.3437 22.1889 77.7272 21.3766 77.9781 20.5785C77.7335 17.9542 77.4924 15.3631 77.2147 12.7423C77.1479 12.112 76.7892 8.72825 75.9267 8.81966C74.6661 8.95327 73.2469 19.3019 70.029 19.643C66.9438 19.97 63.3119 10.3915 61.8855 10.5427C61.1225 10.6235 61.3912 12.8427 61.4475 13.3735C61.7498 16.2265 62.1221 19.1056 62.4245 21.9586C62.8441 22.7528 63.3964 23.5329 63.4949 24.4618C63.625 25.6892 62.2422 25.9364 61.3133 26.0349C60.2849 26.1439 58.5946 26.0211 58.4539 24.6941C58.3555 23.7652 58.91 22.6665 59.2569 21.8246C59.1158 19.8603 58.9747 17.896 58.7672 15.9387C58.5141 13.5502 58.1946 11.1687 57.9414 8.78015C57.7937 7.38683 57.5239 6.1071 56.8892 4.86605C56.6811 4.48554 56.4399 4.10855 56.3942 3.67728C56.2711 2.51618 57.4895 1.98448 58.4516 1.88252C63.5272 1.34457 67.2855 14.3314 69.475 14.0994C71.1337 13.9236 74.0126 3.42021 75.4256 1.55956C76.1304 0.612647 76.9854 -0.182459 78.2129 -0.312551C79.0422 -0.400452 80.1269 0.0213376 80.2288 0.983391C80.3343 1.97862 79.8251 2.87126 79.7245 3.82123C79.6586 4.46561 79.7254 5.09592 79.7922 5.72623C80.2915 10.437 80.7872 15.1145 81.2533 19.8288C81.6886 20.4536 82.5415 21.5373 82.6223 22.3003C82.7876 23.8595 81.1098 24.1715 79.9487 24.2946C79.5506 24.3368 79.1821 24.3423 78.7735 24.285Z" fill="#D9CFC6"/>
<path d="M86.9222 23.049C86.9935 22.5874 87.2246 22.1843 87.4886 21.7862C88.2527 20.554 88.5706 19.1517 88.7896 17.734C89.4719 13.3161 90.0883 8.88809 90.7377 4.46514C90.5428 3.75993 90.011 2.39508 90.1179 1.70273C90.3674 0.0872397 92.9771 0.456547 94.098 0.629678C95.6476 0.869007 103.433 2.03777 104.252 2.63683C105.188 3.35516 105.824 4.70232 105.64 5.8892C105.543 6.51562 105.064 7.21789 104.371 7.11096C103.547 6.98365 101.106 4.6488 98.1388 4.19051C94.1495 3.57437 94.215 4.46212 93.6396 8.18762C93.2933 10.4295 93.5284 11.7485 96.067 12.1406C97.6825 12.3901 99.3063 11.4933 99.8667 11.5798C101.416 11.8191 101.164 13.6705 100.991 14.7915C100.828 15.8465 100.282 16.9773 99.0292 16.7838C97.7105 16.5802 96.8286 15.2963 94.8834 14.9958C92.7734 14.6699 92.2548 16.7164 92.0002 18.3649C91.5062 21.5629 91.7314 22.5091 95.1602 23.0386L97.539 23.3723C99.6161 23.6931 99.9737 23.7821 101.552 22.3044C101.986 21.8988 102.529 21.4426 103.156 21.5393C103.815 21.6412 104.119 22.2957 104.027 22.8892C103.778 24.5047 102.714 26.3657 100.956 26.6005C99.9871 26.7547 94.9201 25.9045 93.7002 25.7161C92.4144 25.5175 91.1235 25.3519 89.8377 25.1533C88.7498 24.9853 86.688 24.5656 86.9222 23.049Z" fill="#D9CFC6"/>
<path d="M123.757 26.2353C123.096 27.9112 125.461 32.6449 125.082 33.6069C124.813 34.2897 124.033 34.4484 123.381 34.1914C120.029 32.8698 122.875 27.107 115.831 24.3291C114.682 23.8763 113.542 23.8571 113.028 25.1606C112.576 26.3088 113.042 27.8553 112.675 28.7863C112.185 30.0277 110.59 29.4346 109.721 29.092C108.759 28.7126 107.027 27.922 107.553 26.5875C107.847 25.8427 108.798 25.2495 109.353 24.7512C110.595 21.691 111.838 18.6308 113.049 15.5584C113.747 13.7895 114.698 11.8334 115.135 9.99757C115.383 8.91225 115.148 7.60009 115.539 6.60699C116.335 4.58975 120.408 6.62644 121.712 7.14041C126.988 9.22075 132.397 13.3262 129.901 19.6572L129.394 21.0349C128.084 24.3556 124.185 25.1491 123.757 26.2353ZM117.433 21.4468C118.178 21.7405 118.972 21.91 119.79 22.0175C122.84 22.4672 125.312 22.4736 126.621 19.1529C128.188 15.1805 126.196 11.9566 122.441 10.4759C118.717 9.00738 118.164 11.2279 117.013 14.1451C116.695 14.952 115.313 18.6385 115.379 19.3816C115.533 20.4464 116.502 21.0797 117.433 21.4468Z" fill="#D9CFC6"/>
<path d="M150.977 22.7918C156.41 26.7227 157.395 33.6124 153.484 39.0177C151.176 42.2068 148.161 45.0076 144.044 45.405C143.217 45.4659 139.762 44.7776 138.857 44.4928C137.823 44.1568 136.971 43.4574 136.079 42.812C130.403 38.7051 130.053 31.9047 134.023 26.4183C135.353 24.5805 138.391 21.9194 140.429 20.9237C141.316 20.4948 143.03 20.4588 144.031 20.4417C146.559 20.4184 148.95 21.3251 150.977 22.7918ZM137.651 40.6965C142.245 44.0211 147.123 41.6622 150.154 37.4731C153.107 33.3921 153.887 28.274 149.428 25.0471C144.59 21.5465 140.169 24.0711 137.001 28.4494C134.185 32.3412 133.381 37.6065 137.651 40.6965Z" fill="#D9CFC6"/>
<path d="M120.35 90.5901C119.41 89.9101 118.19 89.7701 117.06 89.7401C115.25 89.7701 113.4 89.7701 111.68 90.3801C109.86 91.1101 107.79 91.0101 106.04 91.9701C105.14 92.4001 104.4 93.0801 103.53 93.5501C102.78 93.9301 102.01 94.3001 101.36 94.8601C100.6 95.5301 99.89 96.2701 99.19 97.0101C99.22 96.9501 99.24 96.9001 99.27 96.8401C99.59 96.3101 99.93 95.7801 100.28 95.2701C101.77 93.6901 103.4 92.1601 104.8 90.4801C106.07 89.2601 107.55 88.2801 108.92 87.1801C110.19 86.0201 111.7 85.2001 113.07 84.1801C113.83 83.5601 114.46 82.8001 115.26 82.2301C116.69 81.1901 118.3 80.2201 119.17 78.6201C119.62 77.7001 120.11 76.7301 120.14 75.6901C120.1 73.8001 118.39 74.2301 117.28 74.9601C116.4 75.5301 115.48 76.0501 114.57 76.5801C114.92 76.1601 115.23 75.7201 115.53 75.2601C116.39 74.3101 117.24 73.3401 117.72 72.1301C118.06 71.3601 118.48 70.5901 118.58 69.7501C118.6 69.5001 118.59 69.1701 118.34 69.0401C117.34 69.1401 116.36 69.6001 115.46 70.0701C113.96 71.1301 112.72 72.5301 111.58 73.9601C110.82 75.3601 109.81 76.6001 109.04 77.9901C108.67 78.8801 108.24 79.7401 107.85 80.6101C107.91 80.3801 107.97 80.1501 108.04 79.9101C108.31 78.9901 108.74 78.0101 108.9 77.0401C109.26 74.9301 109 72.7801 108.98 70.6401C108.79 69.3101 109.06 67.9201 108.62 66.6201C108.47 66.2201 108.45 65.7201 108.07 65.4601C106.97 65.2101 106.31 66.5001 106.22 67.4201C106.01 68.8801 105.79 70.3401 105.6 71.8101C105.42 73.4201 104.76 74.9601 104.44 76.5701C104.32 77.5501 104.27 78.5401 104.17 79.5301C104.1 80.3201 104.2 81.1001 103.97 81.8801C103.58 82.9501 103.11 84.0001 102.78 85.0901C102.4 86.1901 102.18 87.3401 101.88 88.4601C101.43 89.8701 100.73 91.1801 100.18 92.5501C100.42 91.5201 100.56 90.4801 100.85 89.4601C101.17 88.4201 101.61 87.4301 101.89 86.3701C102.39 84.5401 102.75 82.6801 103.05 80.8101C103.34 79.0001 102.88 77.1801 102.56 75.4001C102.42 74.4901 102.3 73.5201 102.05 72.6101C101.62 71.5301 101.28 70.3701 100.88 69.2601C100.64 68.4801 99.71 66.4501 98.84 67.7701C98.61 68.5001 98.5 69.2701 98.36 70.0201C98.07 72.3501 98.5 74.6801 98.54 77.0201C98.63 79.7101 98.35 82.3601 98.25 85.0601C98.22 86.2501 98.39 87.4301 98.47 88.6201C98.52 89.7101 98.43 90.8101 98.47 91.9101C98.61 93.3401 98.5 94.7101 98.21 96.1401C98.13 96.6301 97.98 97.1001 97.79 97.5601C97.79 97.5801 97.79 97.6001 97.78 97.6201C96.93 98.8701 95.62 99.7201 94.78 100.98C94.64 101.14 94.52 101.29 94.39 101.45C94.73 100.58 95.18 99.7701 95.57 98.9301C95.8 98.3601 95.81 97.7301 95.91 97.1301C96.16 95.8201 96.37 94.5101 96.37 93.1801C96.73 91.1301 96.91 89.0101 96.39 86.9601C96.28 85.7001 95.93 84.4501 95.68 83.2101C95.27 80.9101 94.71 78.2701 92.73 76.7901C92.1 76.3301 91.41 75.8201 90.61 75.7701C89.5 75.6701 88.56 76.5901 88.75 77.7001C88.96 78.7301 88.99 79.8101 89.45 80.7701C89.98 81.9501 90.35 83.2101 91.07 84.3001C91.62 85.2801 92.07 86.2701 92.48 87.3401C92.69 88.2201 92.7 89.1401 92.85 90.0301C92.96 91.0801 93.39 92.0801 93.43 93.1401C93.46 94.1101 93.34 95.0501 93.34 96.0401C93.35 96.8001 93.42 97.4801 93.39 98.2701C93.34 99.2701 93.08 100.33 92.88 101.32C92.7 102.44 92.33 103.5 91.93 104.56C91.96 102.8 91.78 101.03 91.82 99.2601C92.04 96.5101 91.15 93.8601 90.28 91.2901C89.76 90.0201 89.48 87.1401 87.9 86.8601C85.46 86.7601 87.6 94.6701 87.87 96.1201C88.04 97.4801 88.18 98.8001 88.28 100.17C88.31 101.49 88.63 102.78 88.69 104.1C88.71 106.58 88.62 109.06 88.56 111.54C88.47 112.55 88.33 113.55 88.19 114.56C87.94 115.17 87.7 115.79 87.48 116.41C86.63 118.58 86.45 120.92 86.08 123.2C85.69 124.94 85.73 126.72 85.5 128.47C85.19 130.81 85 132.98 85.31 135.39C85.44 136.19 85.62 136.99 85.86 137.76C85.62 137.51 85.38 137.26 85.14 137.01C84.38 135.69 83.63 134.36 82.7 133.13C82.18 132.47 81.7 131.78 81.24 131.07C81.12 130.77 81.01 130.53 80.96 130.43C80.94 129.51 81.35 128.75 81.66 127.87C82.05 126.36 82.55 124.89 83.02 123.4C83.7 120.72 83.61 117.93 83.72 115.2C83.79 113.23 84.1 111.29 84.19 109.32C84.34 105.55 84.88 101.71 84.13 97.9701C83.96 97.2401 83.56 96.1001 82.64 96.1901C82.04 96.4901 81.73 97.2501 81.41 97.8201C80.47 99.6601 79.69 101.59 79.29 103.62C79.06 106.54 78.45 109.5 78.1 112.42C77.91 114.19 78.08 115.96 78.04 117.73C77.94 119 77.82 120.31 78.06 121.57C78.37 122.96 78.47 124.38 78.65 125.79C78.72 126.39 78.96 126.93 79.17 127.49C78.6 126.43 78.06 125.37 77.5 124.31C76.81 123.09 75.96 121.97 75.25 120.77C74.71 119.74 74.15 118.72 73.6 117.7C73.46 116.87 73.31 116.03 73.36 115.18C73.48 114.18 73.51 113.17 73.64 112.17C73.8 111.36 74.12 110.59 74.33 109.8C74.72 108.08 75.29 106.42 76.05 104.82C76.41 103.78 77.07 102.89 77.55 101.91C78.56 99.4401 79.33 96.9601 80.58 94.5801C81.53 93.0101 82.79 91.6101 83.34 89.8301C83.44 89.5501 83.56 89.2701 83.6 88.9701C83.66 88.6201 83.55 88.3001 83.35 88.1301C83.51 87.9701 83.68 87.8001 83.84 87.6301C84.8 86.6401 85.86 85.7701 86.89 84.8501C87.26 84.4601 87.53 84.0001 87.83 83.5601C88.04 83.2801 88.12 82.8501 87.87 82.5701C87.54 82.3101 87.06 82.3801 86.67 82.2401C84.21 81.7401 81.73 82.6101 79.44 83.4501C78.18 83.9901 77.42 85.1801 76.33 85.9601C75.48 86.5601 74.5 86.8001 73.65 87.4901C73.13 87.9201 72.73 88.4601 72.37 89.0301C71.67 90.2601 70.85 91.4101 70.09 92.6101C69.2 94.4401 68.24 96.2601 67.69 98.2201C67.45 99.6201 66.93 100.88 66.74 102.31C66.67 102.09 66.6 101.87 66.52 101.66C66.04 100.48 65.62 99.2901 65.22 98.0801C65.48 97.0501 65.74 96.0201 66.01 95.0001C66.42 92.7901 67.09 90.6501 67.98 88.5801C68.48 87.4401 68.88 86.2501 69.49 85.1501C70.03 84.2301 70.85 83.4901 71.43 82.5901C72.13 81.6301 72.56 80.5201 73.13 79.4801C73.66 78.5501 74.38 77.8001 75.16 77.0301C76.38 75.9901 77.19 74.6701 78.28 73.5001C79.21 72.5501 80.19 71.6101 80.73 70.3701C81.11 69.5801 81.56 68.6701 81.13 67.8001C80.81 67.0501 79.96 67.2701 79.32 67.3401C77.93 67.2601 76.61 67.7301 75.4 68.3701C73.9 68.9801 73.18 70.4701 72.28 71.7101C71.34 72.9301 70.18 73.9701 69.28 75.2301C67.92 76.8701 67.05 78.8101 66.21 80.7501C65.34 83.0001 64.11 85.2301 64.16 87.7101C64.25 89.0701 64.06 90.4201 64.05 91.7801C64.05 92.8101 64.11 93.8001 64.18 94.8101C63.74 93.5801 63.25 92.3601 62.88 91.1001C62.4 89.1301 62.26 87.2001 61.81 85.1601C61.76 84.8601 61.72 84.5601 61.67 84.2501C61.7 84.2201 61.71 84.1801 61.72 84.1401C61.9 83.8901 61.83 83.4301 61.92 83.1401C62.21 81.7501 62.33 80.2201 62.57 78.7901C62.82 77.3401 63.1 76.0501 63.3 74.5601C63.49 73.4601 63.97 72.4401 64.27 71.3701C64.65 69.7601 65.12 68.1901 65.79 66.6701C66.66 64.9301 67.44 63.1301 68.5 61.4901C69.04 60.4701 70.2 59.5801 69.97 58.3201C69.88 57.7601 69.52 56.9401 68.83 57.1001C68.15 57.3301 67.66 57.9101 67.08 58.3101C66.21 58.8501 65.44 59.5501 64.8 60.3601C64.11 61.0301 63.7 61.8901 63.32 62.7501C62.63 64.0401 62.16 65.4301 61.48 66.7201C61.12 67.3501 60.84 68.0201 60.65 68.7001C60.78 67.7001 61.09 66.7101 61.24 65.7001C61.38 63.5201 61.93 61.4001 62.18 59.2301C62.31 58.0201 62.49 56.8701 62.83 55.6901C63.27 54.3401 63.56 52.7401 62.65 51.5101C62.37 51.1201 61.97 51.3301 61.72 51.6301C61.35 52.0701 60.98 52.5101 60.62 52.9701C60.04 53.7201 59.85 54.6801 59.6 55.5701C59.09 57.1201 58.58 58.6801 58.18 60.2601C57.87 62.4001 57.46 64.5401 57.4 66.7201C57.42 67.1201 57.43 67.5301 57.44 67.9301C57.36 67.5701 57.27 67.2101 57.19 66.8501C56.96 66.0801 56.9 65.2701 56.68 64.5001C56.42 63.6901 55.99 63.0001 55.72 62.1901C55.14 60.4601 54.56 58.7201 53.7 57.1001C52.76 55.4701 52.68 52.7401 50.63 52.0801C49.75 52.1001 49.77 53.2501 49.79 53.9101C49.81 54.8801 49.74 55.8801 50.1 56.7901C51.04 59.3201 51.82 61.9001 52.77 64.4301C53.39 66.1301 53.8 67.9201 54.55 69.5701C55.03 70.7401 55.78 71.7701 56.3 72.9301C56.66 73.8201 56.89 74.7501 57.29 75.6201C57.96 76.8301 58.45 78.1301 59.07 79.3601C59.86 80.6501 60.46 82.0401 61.04 83.4301C61.12 84.0101 61.18 84.5901 61.25 85.1601C61.25 85.3601 61.25 85.5701 61.24 85.7701C60.87 84.8801 60.26 84.1101 59.92 83.2101C59.04 81.2701 58.14 79.3001 56.87 77.5801C56.31 76.7801 55.58 76.1201 54.87 75.4601C54.09 74.6701 53.47 73.7401 52.9 72.7901C51.47 70.5601 49.48 68.5701 47.02 67.5201C46.02 67.0801 44.96 66.7901 43.94 66.4201C43.12 66.1301 39.85 64.8501 40.69 66.8401C41.22 67.8501 41.76 68.8501 42.63 69.6201C43.18 70.1301 43.68 70.7401 44.28 71.2101C45.11 71.8001 46.01 72.3001 46.73 73.0401C47.24 73.6001 47.81 74.1101 48.35 74.6401C47.95 74.5301 47.53 74.4501 47.11 74.4101C46.41 74.3601 45.07 74.0001 44.97 75.0301C45.06 77.4201 47.65 78.3201 49.25 79.6101C51.1 80.8201 52.46 82.4701 54.21 83.8401C55.46 84.6701 56.17 86.0101 57.15 87.1101C58.2 88.3201 59.48 89.3101 60.48 90.5601C61.05 91.2401 61.59 91.9401 62.06 92.6901C62.27 94.1801 62.52 95.6701 62.89 97.1301C62.12 96.1401 61.29 95.1901 60.42 94.2901C59.55 93.4401 58.53 92.7701 57.59 92.0001C55.2 89.9001 52.59 87.8501 49.47 86.9601C48.33 86.6201 46.98 86.3501 45.93 87.0801C45.5 87.3701 45.07 87.8601 45.25 88.4101C45.68 89.3101 46.72 89.7001 47.44 90.3401C49.66 92.2601 52.42 93.3101 54.95 94.7401C56.55 95.6301 57.76 97.0501 59.29 98.0701C60.23 98.7501 61.1 99.5201 61.97 100.29C61.52 100.05 61.06 99.8001 60.63 99.5201C59.4 98.6401 58.33 97.5501 57.06 96.7201C55.48 95.7501 53.8 94.7301 51.92 94.5301C51.67 94.5001 51.43 94.5301 51.19 94.5601C50.97 94.5901 50.76 94.6101 50.54 94.6001C49.83 94.5101 49.11 94.5101 48.39 94.5101C48.06 94.5101 47.72 94.5101 47.38 94.5101C47.2 94.5101 47.02 94.5101 46.84 94.5001C46.36 94.4801 45.87 94.4601 45.46 94.7201C45.01 95.0401 45.17 95.6601 45.49 96.0101C46.94 97.8201 49.23 98.2501 51.21 98.9901C52.7 99.5501 54.13 100.26 55.63 100.8C56.35 100.98 57.07 101.13 57.77 101.36C59.28 101.9 60.72 102.58 62.21 103.15C63.7 103.96 65.05 105 66.28 106.17C66.37 106.26 66.55 106.45 66.72 106.52C67.19 108.04 67.54 109.61 68.04 111.11C67.44 110.63 66.96 110.04 66.37 109.56C65.47 108.92 64.53 108.36 63.57 107.83C62.05 107.01 60.52 106.2 58.85 105.74C57.93 105.45 56.99 105.5 56.04 105.39C54.63 105.18 53.47 104.15 52.01 104.2C50.88 104.17 49.78 104.44 48.67 104.6C47.73 104.63 46.77 104.59 45.89 104.98C45.34 105.27 43.48 105.89 43.69 106.66C43.94 107.08 44.43 107.3 44.83 107.56C45.61 108.03 46.43 108.47 47.3 108.77C48.63 109.25 50.05 109.36 51.42 109.7C54.03 110.22 56.65 110.76 59.29 111.11C60.86 111.33 62.42 111.49 63.99 111.69C64.81 111.89 65.53 112.36 66.33 112.63C67.21 112.94 68.13 113.13 68.96 113.55C69.31 114.35 69.69 115.15 70.04 115.96C70.72 117.69 71.54 119.36 72.41 121C72.54 121.29 72.69 121.57 72.85 121.84C72.26 121.5 71.66 121.18 71.06 120.87C68.55 119.54 65.99 118.26 63.37 117.15C62.19 116.66 61.04 116.35 59.88 115.76C57.66 114.6 55.57 113.1 53.1 112.54C50.83 112.08 48.55 111.36 46.21 111.55C42.37 111.21 44.91 113.83 46.46 114.95C47.83 115.94 49.39 116.63 50.79 117.58C52.43 118.66 54.22 119.77 56.03 120.65C57.64 121.39 59.4 121.66 61.05 122.28C62.19 122.68 63.21 123.41 64.32 123.89C65.76 124.49 67.35 124.59 68.84 125.07C71.38 125.72 73.92 126.48 76.51 126.91C76.98 127.64 77.43 128.38 77.96 129.08C79.32 130.88 80.75 132.46 81.95 134.4C81.2 134.31 80.42 134.31 79.69 134.15C78.11 133.73 76.7 132.67 75.12 132.16C74.28 131.85 73.4 131.7 72.54 131.46C71.28 131.05 70.09 130.48 68.88 129.94C67.59 129.05 66.08 128.66 64.66 128.04C63.56 127.52 62.5 126.94 61.33 126.58C60.05 126.13 58.81 125.56 57.56 125.04C56.71 124.71 55.8 124.35 54.88 124.53C54.18 124.62 54.03 125.28 54.47 125.76C55.31 126.76 56.24 127.7 57.31 128.45C58.52 129.43 59.61 130.64 61.18 131.03C61.86 131.27 62.46 131.66 63.1 131.98C64.25 132.55 65.46 132.98 66.61 133.55C67.45 134 68.33 134.42 69.26 134.66C70.61 135.08 72.05 135.07 73.33 135.72C75.14 136.89 77.31 136.81 79.39 136.95C80.22 137.03 81.09 137.32 81.93 137.35C81.99 137.35 82.1 137.35 82.23 137.35C82.53 137.35 82.96 137.35 83.31 137.29C83.59 138.01 83.89 138.72 84.35 139.35C85.35 140.81 86.41 142.22 87.44 143.66C87.17 143.49 86.91 143.3 86.67 143.09C86.03 142.51 85.46 141.85 84.68 141.44C83.18 140.43 81.31 140.37 79.6 139.83C77.91 139.29 76.15 139.08 74.46 138.56C72.91 138.17 71.33 137.91 69.76 137.57C66.55 136.75 63.31 135.93 60 135.7C58.85 135.64 57.7 135.65 56.55 135.57C55.7 135.49 54.81 135.32 53.99 135.63C53.03 136.03 49.59 137.33 51.41 138.59C52.48 139.26 53.77 139.39 54.96 139.77C56.95 140.31 58.86 141.16 60.91 141.48C63.07 141.83 65.26 141.92 67.45 142.03C68.41 142.17 69.3 142.3 70.24 142.61C71.7 143.18 73.19 143.63 74.74 143.87C76.84 144.09 78.9 144.58 81 144.79C82.54 144.71 84.07 144.82 85.6 145.03C86 145.05 86.41 145.06 86.82 145.06C87.36 145.06 87.91 145.03 88.45 144.98C88.66 145.22 88.88 145.45 89.1 145.67C88.91 145.65 88.72 145.62 88.53 145.6C87.39 145.4 86.26 145.51 85.12 145.62C83.81 145.58 82.53 145.22 81.22 145.17C80.4 145.19 79.58 145.17 78.76 145.15C77.45 145.11 76.14 145.07 74.83 145.23C73.85 145.28 72.85 145.22 71.9 145.51C71 145.78 70.15 146.18 69.27 146.52C68.3 146.89 67.22 146.82 66.27 147.29C64.91 147.92 63.31 148.5 62.2 149.58C61.72 150.15 61.11 150.77 61.11 151.57C61.11 152.45 61.98 153.08 62.8 153.18C63.09 153.21 63.38 153.22 63.68 153.22C64.17 153.22 64.66 153.18 65.13 153.08C65.59 152.96 65.93 152.6 66.34 152.37C66.78 152.17 67.23 151.98 67.71 151.86C69.23 151.54 70.81 151.56 72.27 150.98C74.09 150.49 75.75 149.54 77.61 149.19C78.98 148.88 80.37 148.69 81.71 148.28C82.65 148.03 83.63 148.07 84.59 147.94C85.82 147.74 86.99 147.28 88.25 147.25C88.53 147.13 90.31 147.29 90.62 146.99C90.74 147.08 90.85 147.17 90.97 147.26C92.19 148.19 93.13 149.45 94.4 150.31C94.51 150.39 94.63 150.42 94.74 150.42C95.09 150.42 95.42 150.11 95.54 149.76C95.99 148.55 94.66 147.93 93.97 147.19C93.62 146.81 93.26 146.42 92.9 146.04C93.54 145.64 94.22 144.64 94.51 144.28C95.36 143.05 96.34 141.95 97.36 140.88C98.92 139.13 100.24 137.21 101.82 135.48C102.83 134.51 103.95 133.63 104.76 132.47C105.32 131.65 105.87 130.82 106.36 129.95C106.8 128.95 105.59 129.44 105.1 129.57C103.98 130.01 102.83 130.4 101.77 130.97C100.48 131.69 99.49 132.77 98.47 133.8C97.83 134.46 97.15 135.08 96.48 135.71C97.12 134.88 97.81 134.09 98.58 133.34C101.48 129.81 105.67 127.6 108.5 124.02C109.88 122.42 111.55 120.97 112.13 118.86C112.27 118.4 112.25 117.9 111.69 117.82C110.48 117.5 109.39 118.47 108.36 118.98C107.3 119.39 106.22 119.79 105.22 120.34C104.15 120.98 103.06 121.6 102.08 122.37C100.91 123.28 100.17 124.6 99.09 125.6C98.01 126.54 96.89 127.52 95.92 128.58C94.99 129.66 94.2 130.86 93.27 131.95C92.52 132.87 92.1 133.99 91.46 134.98C90.51 136.27 90.14 137.82 89.83 139.36C89.61 140.09 89.33 140.92 89.24 141.73C88.94 141.29 88.62 140.86 88.29 140.44C88.06 139.65 87.81 138.87 87.55 138.1C87.44 137.7 87.35 137.29 87.26 136.89C87.66 135.88 87.94 134.33 88.39 133.91C89.42 132.7 90.37 131.39 91.32 130.12C93.05 128.18 94.61 126.1 95.77 123.76C96.49 122.16 97.44 120.63 97.84 118.91C97.95 118.36 98 117.8 97.96 117.24C97.94 117.05 97.93 116.82 97.77 116.69C97.67 116.61 97.53 116.67 97.44 116.74C97.17 117.02 96.9 117.29 96.59 117.57C95.9 118.25 94.88 118.5 94.13 119.1C93 119.88 92.15 120.98 91.42 122.13C90.87 123.06 90.18 123.9 89.59 124.8C89.18 125.65 88.71 126.5 88.47 127.41C87.93 128.81 87.1 130.09 86.75 131.55C86.73 130.91 86.72 130.28 86.72 129.65C86.85 128.39 86.91 127.13 87.08 125.88C87.17 125.44 87.28 125.01 87.41 124.59C87.78 124.24 88.14 123.46 88.37 123.22C89.11 122.19 89.9 121.2 90.78 120.29C91.66 119.43 92.55 118.59 93.46 117.77C94.33 117.02 95.3 116.37 96.03 115.47C97.2 114.74 98.53 114.27 99.85 113.89C101.85 113.09 104.02 112.96 106.1 112.44C107.25 112.24 108.47 111.81 109.6 111.45C110.78 111.09 112.01 110.84 113.09 110.21C114.13 109.65 114.85 108.7 115.79 108.01C116.12 107.73 116.55 107.49 116.72 107.07C116.88 106.68 116.55 106.43 116.19 106.47C115.47 106.53 114.78 106.46 114.08 106.39C113.48 106.33 112.87 106.27 112.25 106.29C111.43 106.38 110.66 106.67 109.87 106.88C108.21 107.38 106.37 107.38 104.93 108.44C104.01 109.05 102.89 109.24 101.94 109.8C101.73 109.95 100.97 110.37 100.17 110.86C100.65 110.42 101.15 109.99 101.61 109.57C102.13 109.07 102.66 108.58 103.27 108.18C104.83 107.13 106.15 105.79 107.47 104.46C109.72 102.31 111.95 99.8801 112.79 96.8201C112.79 96.2901 112.19 96.5401 111.88 96.6201C107.1 97.6601 103.73 101.42 99.9 104.18C98.36 105.37 97.09 106.83 95.96 108.4C95.3 109.38 94.67 110.37 93.83 111.21C92.9 112.12 92.21 113.21 91.63 114.36C90.67 115.85 89.77 117.36 89.03 118.97C88.97 119.09 88.9 119.21 88.84 119.33C89.33 117.38 89.93 115.46 90.6 113.57C91.2 112.14 92.07 110.85 92.9 109.55C93.74 108.17 94.31 106.65 94.88 105.15C95.42 103.49 96.16 101.92 97.07 100.44C97.66 99.9901 98.3 99.6301 98.92 99.2201C100.13 98.3301 101.47 97.6901 102.85 97.1201C104.21 96.4201 105.64 95.9101 107.11 95.5001C108.37 95.1601 109.5 94.3801 110.82 94.2901C111.21 94.2901 111.59 94.3201 111.98 94.3501C112.48 94.3901 112.98 94.4301 113.48 94.4001C114.54 94.3601 115.55 93.9701 116.61 93.9001C117.05 93.8501 117.49 93.8901 117.93 93.9301C118.46 93.9801 118.98 94.0401 119.5 93.9301C120.09 93.7701 120.8 93.4401 120.97 92.8001C120.92 92.0701 121 91.1401 120.39 90.6301M78.42 118.51C78.33 116.22 78.83 113.9 79.09 111.63C79.34 108.66 79.25 105.61 80.5 102.8C81.23 101.09 81.51 99.1801 82.7 97.6901C83.19 99.1901 83.14 100.81 83.4 102.35C83.62 103.33 83.81 104.33 83.73 105.34C83.55 107.77 82.84 110.12 82.63 112.55C82.44 114.15 82.66 115.77 82.58 117.37C82.41 119.15 82.18 120.84 81.89 122.62C81.75 123.48 81.53 124.33 81.35 125.18C81.18 126.48 81.16 127.8 80.61 129.02C80.35 127.37 80.09 125.68 80.13 123.99C80.26 122.93 80.39 121.88 80.45 120.81C80.6 117.48 81.18 114.19 81.52 110.88C81.58 110.47 81.31 110.18 81.04 110.18C80.86 110.18 80.69 110.31 80.61 110.61C80.43 111.94 79.98 113.21 79.84 114.54C79.67 115.88 79.85 117.22 79.81 118.57C79.74 120.63 79.05 122.74 79.17 124.83C78.88 123.43 78.89 122 78.67 120.6C78.57 119.91 78.47 119.22 78.43 118.52M73.11 116.89C72.97 116.64 72.84 116.38 72.7 116.13C72.77 115.25 72.88 114.37 72.95 113.49C72.91 114.62 73 115.76 73.11 116.89ZM79.01 96.3601C78.36 97.4801 77.74 98.6301 77.31 99.8501C76.95 101.01 76.47 102.12 75.96 103.22C75.61 104.12 75.48 105.07 75.08 105.95C74.71 106.78 74.24 107.62 73.91 108.48C74.1 106.97 74.06 105.42 74.46 103.94C74.93 102.29 75.78 100.8 76.43 99.2301C76.6 98.9201 76.42 98.3301 75.99 98.4501C75.89 98.4901 75.82 98.5701 75.78 98.6601C75.3 99.4901 74.92 100.38 74.7 101.31C74.29 102.76 73.68 104.15 73.37 105.62C72.95 107.53 72.66 109.46 72.69 111.43C72.6 112.71 72.4 113.99 72.26 115.27C72.16 115.06 72.05 114.86 71.95 114.65C71.93 114.61 71.91 114.56 71.89 114.52C71.87 113.05 72.2 111.54 72.38 110.09C72.68 108.67 72.67 107.15 72.91 105.71C73.38 103.72 73.47 101.67 73.99 99.7001C74.37 98.3301 75.1 97.0401 75.89 95.8501C76.47 95.1101 77.25 94.7601 77.95 94.1001C79.18 92.7301 80.22 91.1401 81.85 90.2001C80.88 92.2601 80.06 94.3101 79.03 96.3601M69.24 109.55C68.65 108.24 68.17 106.89 67.73 105.52C67.9 104.59 68.25 103.69 68.68 102.85C69.32 101.86 70 100.9 70.69 99.9501C71.54 98.8501 72.51 98.0001 73.39 96.8801C74.36 95.6901 75.29 94.4601 76.52 93.5201C76.68 93.3701 76.86 93.2301 77.02 93.0901C76.98 93.1301 76.95 93.1801 76.91 93.2201C76.4 93.7101 75.85 94.1801 75.45 94.7801C75.05 95.3801 74.85 96.0901 74.58 96.7601C74.16 97.7301 73.61 98.6301 73.19 99.6101C72.31 101.88 72.06 104.36 71.98 106.8C71.9 107.82 71.72 108.83 71.59 109.85C71.4 111.14 71.46 112.43 71.49 113.73C70.76 112.33 69.92 110.98 69.24 109.55ZM67.48 102.15C67.74 100.2 68.46 98.3401 69.1 96.4801C69.45 95.4701 69.7 94.4601 70.19 93.5001C70.56 92.8201 71.11 92.3801 71.65 91.8201C73.92 89.1901 73.33 88.6401 76.89 87.1101C77.68 86.7501 78.29 86.1401 79.01 85.6801C79.64 85.2801 80.37 85.0601 81.05 84.7601C82.52 84.1001 84.04 83.0801 85.68 83.0801C86.07 83.0801 86.47 83.1401 86.87 83.2701C86.03 84.1601 84.87 84.6801 83.96 85.5001C83.16 86.1501 82.45 86.9201 81.73 87.6501C81 88.3001 80.22 88.8801 79.49 89.5301C78.43 90.5601 77.56 91.7901 76.34 92.6601C74.86 93.5401 73.43 94.5401 72.47 96.0101C71.92 96.7901 71.48 97.6301 70.93 98.4101C70.3 99.2301 69.6 99.9801 69 100.82C69.82 99.4701 70.87 98.2801 71.45 96.8001C72.18 95.6701 73 94.6201 73.78 93.5201C74.78 92.2101 76.25 91.3501 77.21 90.0101C77.62 89.6001 77.17 88.5601 76.61 89.1001C75.62 90.0501 74.87 91.2201 73.92 92.2201C72.54 93.7101 71.19 95.2501 70.25 97.0701C69.74 97.9501 69.08 98.6301 68.55 99.5201C68.01 100.52 67.75 101.65 67.4 102.73C67.41 102.54 67.43 102.35 67.45 102.16M68.29 102.25C68.07 103.08 67.72 103.94 67.49 104.81C67.48 104.77 67.46 104.73 67.45 104.69C67.61 103.84 67.86 103.01 68.28 102.25M65.7 83.3701C66.12 81.6801 67.28 80.3601 68.04 78.8301C70.18 75.6801 71.96 72.1601 75.06 69.8301C75.92 69.3001 76.82 68.8501 77.69 68.3401C77.98 68.1801 78.32 68.2101 78.64 68.2101C79.2 68.2501 79.75 68.1301 80.3 68.0301C80.43 68.0101 80.57 68.0601 80.65 68.1701C81.48 69.4601 79.96 70.6501 79.16 71.5501C77.76 73.0901 76.33 74.5901 74.91 76.1201C73.72 77.5201 72.8 79.0901 71.64 80.5201C70.65 81.8701 69.39 83.0601 68.61 84.5501C67.77 86.1901 67.14 87.9201 66.64 89.7001C66.19 91.1901 65.52 92.6101 64.95 94.0601C65.46 91.6901 65.88 89.2601 66.81 87.0001C67.57 84.7901 68.2 82.5201 69.36 80.4701C70.29 78.6701 72.09 77.5701 73.23 75.9201C73.46 75.6401 73.25 75.0801 72.94 75.0801C72.86 75.0801 72.78 75.1201 72.69 75.2001C72.52 75.4201 72.34 75.6301 72.18 75.8601C71.29 77.2201 70.27 78.4901 69.13 79.6501C68.15 80.7501 67.79 82.2201 67.24 83.5501C66.26 85.9001 65.79 88.4201 64.77 90.7601C64.87 88.2801 65.11 85.7601 65.69 83.3401M59.77 77.4401C59.69 76.9701 59.66 76.5001 59.65 76.0201C59.76 76.6701 59.9 77.3201 59.99 77.9701C59.92 77.8501 59.86 77.7301 59.79 77.6101C59.79 77.5501 59.78 77.5001 59.77 77.4401ZM60.13 78.8501C60.13 78.8501 60.13 78.8701 60.13 78.8901C60.13 78.8701 60.12 78.8501 60.12 78.8401C60.12 78.8401 60.12 78.8501 60.13 78.8601M61.56 68.7201C62.12 66.7801 62.62 64.8101 63.81 63.1401C64.42 61.7801 65.32 60.6101 66.25 59.4601C66.73 58.9901 67.27 58.6201 67.87 58.2901C68.16 58.1901 68.49 57.9201 68.8 57.9201C68.86 57.9201 68.92 57.9301 68.98 57.9501H68.97C69.53 58.5401 69.24 59.3701 68.77 59.9101C68.14 60.6801 67.43 61.3901 67 62.3001C66.57 63.2101 66.39 64.2101 65.99 65.1401C65.48 66.3701 64.64 67.4201 64.06 68.6201C62.85 71.6401 62.15 74.8401 61.5 78.0101C61.64 76.7101 61.92 75.4401 62.05 74.1401C62.19 73.2501 62.59 72.4301 62.83 71.5701C63.07 70.7301 63.14 69.8601 63.36 69.0201C63.4 68.8701 63.35 68.6701 63.19 68.6101C63.06 68.5601 62.93 68.6601 62.89 68.7901C62.79 69.1101 62.66 69.4201 62.54 69.7401C62 71.1101 61.87 72.5501 61.57 73.9901C61.21 75.7201 60.76 77.4401 60.73 79.2201C60.72 79.2001 60.71 79.1901 60.7 79.1701C60.66 78.8701 60.63 78.5801 60.59 78.2801C60.16 75.0901 60.53 71.8001 61.55 68.7401M58.74 62.5001C58.92 60.7501 58.89 58.9601 59.47 57.2801C60.31 55.5401 60.95 53.6701 62.22 52.1901C62.78 53.3501 62.33 54.5801 62.16 55.8001C62.06 56.4801 62.07 57.1701 61.95 57.8401C61.54 59.4701 61.11 61.1201 60.98 62.8001C60.76 64.3701 60.53 65.9401 60.33 67.5101C60.27 68.3701 60.28 69.2101 60.13 70.0901C59.9 71.4901 59.64 72.9101 59.55 74.3301C59.53 74.1101 59.52 73.8901 59.53 73.6701C59.55 72.6801 59.28 71.7101 59.2 70.7201C59.15 69.6901 59.26 68.6601 59.32 67.6201C59.37 66.8301 59.25 66.0401 59.29 65.2501C59.49 63.9001 59.94 62.5901 59.95 61.2101C59.99 60.7901 59.53 60.6901 59.46 61.1101C59.19 63.7501 58.74 66.3801 58.76 69.0301C58.78 70.2101 59.14 71.3401 59.11 72.5301C59.09 73.2001 59.25 73.8401 59.33 74.5001C59.37 75.2601 59.45 76.0301 59.53 76.7901C59.53 76.7901 59.53 76.7801 59.53 76.7701C59.08 75.0301 58.85 73.2401 58.31 71.5201C57.44 68.5201 58.28 65.5101 58.76 62.5101M58.11 76.1701C57.73 75.2901 57.54 74.3401 57.08 73.4901C56.72 72.8001 56.23 72.1901 55.89 71.4901C55.19 70.0501 54.74 68.5101 54.05 67.0701C53.28 65.6901 53.08 64.1301 52.74 62.6101C52.4 61.3701 51.81 60.2401 51.56 58.9701C51.2 57.3001 50.19 55.8101 50.19 54.0701C50.21 53.6901 50.08 53.1301 50.38 52.8401C50.46 52.8201 50.55 52.8701 50.62 52.9101C51.22 53.4101 51.57 54.1401 51.87 54.8501C52.35 55.9601 52.9 57.1201 53.38 58.2701C54.03 59.8201 54.81 61.3301 55.57 62.8401C56.05 64.0201 56.33 65.2601 56.7 66.4801C56.89 67.2201 57.16 67.9401 57.29 68.7001C57.34 69.0601 57.36 69.4301 57.41 69.8001C57.42 70.5101 57.45 71.2101 57.53 71.9201C57.63 72.7601 57.91 73.5601 58.19 74.3601C58.14 74.2601 58.09 74.1601 58.03 74.0701C57.28 72.6301 57.11 70.9601 56.23 69.5701C55.56 68.4601 55.32 67.1801 54.89 65.9701C54.26 64.4601 53.75 62.9301 53.37 61.3301C53.37 60.9501 52.98 60.9501 52.96 61.3001C53.19 62.8201 53.98 64.2001 54.24 65.7301C54.88 68.2401 56.02 70.5601 57.18 72.8601C57.68 74.0801 58.07 75.3501 58.64 76.5401C58.7 76.6701 58.77 76.7901 58.84 76.9101C58.87 77.1001 58.91 77.3001 58.96 77.4901C59.28 78.8101 59.99 79.9801 60.46 81.2501C60.46 81.2501 60.46 81.2701 60.46 81.2801C60.26 80.8901 60.06 80.5101 59.89 80.1101C59.44 78.7301 58.77 77.4601 58.11 76.1701ZM42.83 69.2001C42.67 68.8201 40.2 66.3801 40.85 66.2801C41.76 66.3401 42.59 66.8201 43.49 67.0001C44.18 67.2101 44.91 67.2501 45.6 67.4601C46.66 67.8101 47.46 68.6601 48.39 69.2501C49.04 69.6701 49.69 70.0501 50.25 70.5901C51.07 71.4301 51.75 72.4101 52.51 73.3101C53.36 74.1701 53.99 75.1801 54.68 76.1701C55.48 77.1701 56.47 77.9801 57.14 79.1001C57.73 80.1601 58.13 81.3201 58.83 82.3301C59.65 83.5101 60.29 84.8201 60.75 86.1901C60.45 85.5901 60.23 84.9601 59.89 84.3801C59.33 83.5001 58.7 82.6601 58.18 81.7501C57.57 80.8701 57.24 79.8501 56.7 78.9401C56.16 78.0001 55.22 77.4101 54.42 76.7201C53.59 75.9401 52.91 74.9901 52.04 74.2401C51.21 73.3201 50.33 72.4501 49.24 71.8301C49.13 71.7601 49.02 71.6801 48.89 71.6401C48.77 71.5901 48.67 71.6901 48.63 71.7901C48.55 72.0001 48.7 72.1801 48.88 72.2801C49.98 72.8801 51.01 73.6201 51.85 74.5601C52.66 75.5901 53.31 76.7901 54.47 77.4901C55.48 78.3601 56.29 79.4401 57.09 80.4901C57.75 81.4601 58.1 82.6001 58.71 83.6001C59.22 84.4201 59.86 85.1601 60.33 86.0101C60.69 86.6401 60.93 87.3101 61.24 87.9701C61.25 88.0301 61.27 88.0901 61.28 88.1501C61.29 88.1901 61.31 88.2301 61.33 88.2701C61.33 88.2801 61.33 88.2901 61.33 88.3001C61.21 88.1401 61.08 87.9701 60.96 87.8101C60.04 86.3901 59.2 84.9301 58.19 83.5701C57.25 82.2601 56.54 80.8001 55.56 79.5201C54.47 78.2601 53.2 77.1201 51.8 76.2201C51.21 75.9301 50.66 75.7001 50.07 75.4001C50 75.3601 49.93 75.3301 49.86 75.2901C48.58 73.5701 43.34 70.1901 42.82 69.1801M60.54 89.7601C59.96 89.1901 59.35 88.6501 58.83 88.0301C58.25 87.2401 57.71 86.4201 57.07 85.6701C55.97 84.4001 54.73 83.2601 53.54 82.0801C52.5 81.2901 51.4 80.5701 50.31 79.8501C49.54 79.2801 48.93 78.5701 48.19 77.9701C47.22 77.1501 45.95 76.4101 45.56 75.1301C45.92 74.9701 46.27 74.9001 46.6 74.9001C48.24 74.9001 49.61 76.5201 51.13 77.0601C52.91 77.6101 54.05 79.1601 55.28 80.4901C55.98 81.3701 56.72 82.1801 57.35 83.1201C56.72 82.5001 56.02 81.9601 55.39 81.3401C54.47 80.3801 53.58 79.2901 52.58 78.4101C52.2 78.1101 52 78.7701 52.3 78.9801C52.98 79.6401 53.68 80.3801 54.35 81.0801C55.67 82.2601 56.96 83.3301 57.84 84.9101C58.71 86.7101 59.98 88.2401 61.16 89.8201C61.39 90.1601 61.58 90.5201 61.76 90.8901C61.77 90.9801 61.79 91.0601 61.81 91.1501C61.81 91.1901 61.81 91.2201 61.82 91.2601C61.44 90.7301 61.03 90.2201 60.55 89.7601M59.45 97.3101C58.61 96.6501 57.64 96.1601 56.75 95.5701C55.47 94.6801 54.3 93.6201 52.91 92.8801C50.61 91.3801 47.88 90.4901 45.97 88.4701C46.7 87.6701 47.87 87.8001 48.88 87.9401C50.32 88.0901 51.61 88.7701 52.8 89.5601C53.99 90.4301 55.33 91.0701 56.59 91.8301C58.51 93.2801 60.23 95.0601 61.88 96.8101C62.4 97.6401 62.94 98.4501 63.49 99.2601C63.52 99.3401 63.55 99.4101 63.58 99.4801C62.96 98.6601 62.29 97.8801 61.49 97.2101C60.52 96.3601 59.7 95.3501 58.7 94.5301C57.45 93.6901 56.07 93.0501 54.86 92.1501C54.38 91.8401 54.18 92.4401 54.56 92.7001C55.41 93.2701 56.13 94.0001 56.96 94.5801C57.52 94.9601 58.13 95.2301 58.71 95.5901C60.42 96.8001 61.82 98.3401 63.16 99.9501C63.7 100.64 64.13 101.43 64.62 102.16C64.28 101.9 63.96 101.66 63.72 101.48C62.92 100.5 62.01 99.6101 61 98.8401C60.46 98.3601 60 97.8001 59.46 97.3201M62.1 102.64C61.19 102.13 60.34 101.51 59.35 101.16C58.36 100.82 57.35 100.52 56.36 100.18C55.5 99.8701 54.69 99.4101 53.82 99.1401C52.03 98.7401 50.21 98.2901 48.57 97.4101C47.67 96.8901 46.69 96.3901 46.06 95.5401C46.41 95.2801 46.9 95.3601 47.31 95.3001C48.05 95.1601 48.75 95.0801 49.52 95.1001C50.83 95.3501 52.19 95.3601 53.43 95.9201C54.24 96.2401 55.16 96.4401 55.98 96.8501C56.96 97.4101 57.81 98.1701 58.74 98.8101C59.82 99.6201 61.05 100.22 62.1 101.07C62.98 101.89 63.92 102.65 64.86 103.41C65.2 103.85 65.53 104.29 65.85 104.73C65.71 104.57 65.56 104.41 65.4 104.26C64.85 103.7 64.19 103.29 63.53 102.88C62.1 101.89 60.85 100.65 59.37 99.7101C58.45 99.2001 57.66 98.4501 56.66 98.0901C56.03 97.8801 55.38 97.7601 54.73 97.6401C54.34 97.5901 53.87 97.2701 53.49 97.4801C53.18 97.7901 53.49 98.3201 53.85 98.4201C54.5 98.6001 55.13 98.8601 55.78 99.0601C56.74 99.2701 57.68 99.4801 58.57 99.9201C59.32 100.29 59.9 100.9 60.59 101.36C61.82 102.18 63.09 103.01 64.25 103.95C63.55 103.49 62.79 103.11 62.08 102.67M65.88 111.95C64.82 111.55 63.84 110.83 62.69 110.69C61.72 110.49 60.72 110.58 59.75 110.46C58.8 110.3 57.89 109.96 56.93 109.84C56.35 109.75 55.76 109.8 55.17 109.84C54.15 109.87 53.06 109.68 52.09 109.33C50.91 108.91 49.74 108.43 48.5 108.22C46.99 107.99 45.42 107.69 44.19 106.71C45.27 106.46 46.27 105.96 47.34 105.67C49.19 105.4 51.07 105.17 52.94 105.21C55.11 105.65 57.38 105.93 59.44 106.82C61.86 107.63 64.1 109.04 66.36 110.26C66.76 110.54 67.12 110.86 67.48 111.19C67.15 111 66.82 110.83 66.49 110.66C65.07 109.96 63.48 109.82 62.07 109.08C60.68 108.17 59.03 107.99 57.45 107.65C56.34 107.34 55.27 106.75 54.11 106.54C53.99 106.51 53.86 106.51 53.76 106.6C53.47 106.88 53.76 107.38 54.1 107.48C54.57 107.62 55.04 107.77 55.51 107.89C56.56 108.1 57.53 108.61 58.56 108.87C59.63 109.15 60.77 109.18 61.81 109.6C63.31 110.15 64.79 110.77 66.26 111.42C66.84 111.73 67.4 112.09 67.95 112.46C67.93 112.46 67.91 112.45 67.9 112.44C67.25 112.23 66.57 112.19 65.91 111.96M75.63 126.17C73.89 125.79 72.12 125.71 70.53 124.83C69.07 124.08 67.38 124.13 65.86 123.6C64.59 123.12 63.35 122.56 62.05 122.13C61.01 121.84 60.04 121.41 59.07 120.95C56.83 120.06 54.86 118.63 52.69 117.58C50.34 116.39 47.55 115.39 46 113.07C46.45 113.08 46.9 113.03 47.35 112.98C47.88 112.92 48.42 112.86 48.96 112.91C51.91 113.38 54.64 114.73 57.38 115.85C59.46 116.65 61.7 116.96 63.59 118.2C65.59 119.64 67.77 120.79 70.14 121.49C71.14 121.87 72.01 122.52 72.91 123.09C73.4 123.4 73.87 123.72 74.32 124.08C74.48 124.29 74.64 124.49 74.81 124.7C74.56 124.53 74.3 124.36 74.03 124.22C73.12 123.72 72.11 123.44 71.16 123.04C69.3 122.1 67.34 121.41 65.39 120.68C64.01 120.24 62.84 119.34 61.55 118.71C60.79 118.38 59.99 118.13 59.2 117.87C57.58 117.1 55.97 116.67 54.21 116.32C53.71 116.28 53.89 116.99 54.25 117.05C55.68 117.38 57.08 117.82 58.31 118.64C60.06 119.7 61.93 120.6 63.89 121.18C65.73 121.55 67.46 122.27 69.15 123.08C71.04 123.89 72.97 124.59 74.85 125.4C75.1 125.52 75.35 125.62 75.6 125.71C75.73 125.87 75.85 126.04 75.97 126.21C75.85 126.18 75.73 126.16 75.6 126.14M80.45 136.76C79.76 136.6 79.08 136.31 78.37 136.23C77.98 136.17 77.58 136.19 77.19 136.2C76.84 136.21 76.49 136.23 76.15 136.2C75.21 136 74.36 135.52 73.43 135.28C71.57 134.84 69.75 134.24 67.91 133.68C66.6 133.35 65.5 132.61 64.37 131.93C62.9 131.24 61.42 130.56 59.93 129.9C58.37 129.13 57.11 127.94 56 126.62C55.59 126.16 55.16 125.73 54.74 125.28C54.73 125.26 54.74 125.24 54.77 125.23C54.89 125.18 54.95 125.16 55.1 125.15C55.95 125.12 56.72 125.45 57.57 125.67C58.42 125.91 59.24 126.13 60.03 126.53C61.53 127.4 63.03 128.41 64.66 129.03C67.35 129.98 69.88 131.3 72.51 132.42C74.1 133.2 75.71 133.94 77.42 134.43C78.53 134.83 79.66 135.12 80.85 135.03C81.36 135.02 81.87 135.03 82.37 135.12C82.48 135.33 82.59 135.54 82.69 135.76C81.2 135.78 79.75 135.13 78.26 135.03C77.44 134.99 76.67 134.7 75.88 134.48C74.01 134.09 72.14 133.66 70.48 132.62C68.48 131.57 66.06 131.39 64.36 129.79C64.13 129.7 63.46 128.97 63.29 129.28C63.23 129.4 63.31 129.54 63.4 129.61C64.76 130.57 66.15 131.51 67.64 132.25C68.29 132.56 69 132.69 69.68 132.92C70.76 133.38 71.87 133.75 72.95 134.2C74.24 134.89 75.66 135.25 77.11 135.38C78.99 135.74 80.89 135.89 82.79 136.14C82.81 136.14 82.83 136.14 82.85 136.14C82.94 136.36 83.03 136.58 83.11 136.8C82.24 136.92 81.34 136.91 80.48 136.77M85.62 147.26C84.85 147.34 84.08 147.33 83.31 147.4C82.02 147.62 80.73 147.87 79.44 148.06C78.39 148.29 77.46 148.76 76.41 149.03C74.37 149.53 72.33 150.01 70.34 150.67C68.96 151.01 67.58 151.31 66.21 151.72C65.75 151.84 65.32 152.07 64.87 152.22C64.47 152.26 64.07 152.23 63.68 152.21C61.68 152.35 62.04 150.92 63.13 149.92C63.71 149.47 64.49 149.17 65.14 148.81C66.37 148.11 67.54 147.26 68.98 147.08C70.84 146.62 72.7 146.07 74.62 146.02C76.1 145.75 77.59 145.9 79.08 145.96C80.05 145.99 81 145.84 81.97 145.8C83.01 145.81 84.05 145.98 85.06 146.23C84.39 146.29 83.74 146.23 83.08 146.17C82.5 146.12 81.91 146.07 81.33 146.09C80.4 146.09 79.51 146.35 78.63 146.64C77.79 146.8 76.96 147.05 76.12 147.22C75.08 147.35 74.1 147.75 73.06 147.86C71.72 147.92 70.48 148.5 69.3 149.11C69.13 149.17 68.96 149.24 68.8 149.3C68.44 149.46 68.81 149.84 69.08 149.73C71.19 149.18 73.31 148.63 75.37 147.88C77.35 147.48 79.37 147.39 81.41 147.2C83.65 146.98 85.86 146.74 88.12 146.79C87.26 146.84 86.47 147.13 85.62 147.27M86.42 144.44C84.69 144.41 82.96 144.33 81.26 144.04C79.93 143.74 78.59 143.45 77.22 143.37C76.1 143.28 75.05 142.91 73.98 142.59C72.72 142.27 71.45 142 70.18 141.79C66.43 141.46 62.76 140.62 59.06 139.97C56.74 139.27 54.14 139.28 52.04 137.97C53.02 137.38 54.09 136.84 55.21 136.58C55.3 136.58 55.39 136.58 55.49 136.58C57.78 136.58 60.05 136.96 62.3 137.35C65.61 137.85 69.04 137.82 72.22 138.98C73.79 139.51 75.34 140.16 76.99 140.36C79.05 140.69 80.92 141.15 82.93 141.84C83.9 142.24 84.74 142.89 85.6 143.47C84.18 142.9 82.68 142.57 81.15 142.42C80.13 142.33 79.15 142.05 78.15 141.84C76.93 141.63 75.7 141.5 74.49 141.24C72.93 140.94 71.48 140.29 69.95 139.89C68.37 139.51 66.76 139.35 65.18 138.97C64.81 138.95 63.91 138.42 63.72 138.88C63.67 139.07 63.85 139.23 64.01 139.27C66.06 139.8 67.97 140.79 70.04 141.24C72 141.69 74.01 141.8 75.97 142.27C79.6 143.03 83.3 143.68 86.94 144.39C86.77 144.39 86.59 144.4 86.42 144.41M97.85 135.38C98.41 134.79 99.08 134.32 99.7 133.81C101.46 132.26 103.24 130.53 105.59 129.97C104.53 131.33 103.62 132.78 102.46 134.07C101.25 135.37 99.9 136.52 98.6 137.73C97.7 138.55 96.98 139.53 96.25 140.5C95.11 141.94 93.94 143.35 92.7 144.72C92.89 143.53 93.59 142.44 94.23 141.43C95.2 140.18 96.43 139.15 97.33 137.83C97.54 137.39 98.45 136.57 97.92 136.13C97.71 136 97.45 136.13 97.32 136.3C95.66 138.3 94.14 140.39 92.84 142.65C92.43 143.32 91.88 144.03 91.75 144.81C91.61 144.66 91.48 144.51 91.35 144.36C91.31 144.12 91.4 143.86 91.44 143.63C91.53 143.28 91.65 142.95 91.78 142.63C91.84 142.53 91.89 142.42 91.95 142.31C92.36 141.28 93.01 140.42 93.68 139.56C94.29 138.93 94.97 138.34 95.59 137.74C96.42 137.03 97.14 136.22 97.84 135.38M93.37 132.87C94.09 131.82 94.51 130.58 95.41 129.65C96.1 128.89 96.85 128.3 97.59 127.56C98.51 126.59 99.39 125.58 100.4 124.69C101.45 123.81 102.44 122.86 103.53 122.02C104.69 121.25 105.99 120.74 107.21 120.08C108.56 119.48 109.83 117.95 111.43 118.44C111.13 119.31 110.71 120.14 110.2 120.99C109.43 121.94 108.35 122.61 107.63 123.61C106.57 124.95 105.59 126.44 104.17 127.43C103.04 128.27 101.66 128.76 100.7 129.83C99.44 131.2 98.18 132.57 96.96 133.96C96.41 134.72 95.79 135.44 95.17 136.15C92.97 138.4 91.68 140.13 90.89 143.24C91.18 141.17 91.88 139.13 92.8 137.25C93.47 136.02 94.41 134.97 95.21 133.83C96.88 131.44 98.46 128.98 100.32 126.69C100.51 126.4 101.37 125.85 101.08 125.51C101.04 125.47 101 125.46 100.95 125.46C100.87 125.46 100.8 125.5 100.74 125.55C100.05 126.25 99.3 126.91 98.63 127.64C97.95 128.42 97.38 129.29 96.78 130.13C95.16 132.31 93.34 134.37 92.11 136.81C91.15 138.65 89.9 140.65 90.04 142.83C90.02 142.81 90 142.79 89.99 142.77C89.24 140.1 91.83 134.98 93.38 132.87M86.83 133.29C86.77 131.97 87.47 130.82 88.01 129.65C88.44 128.71 88.77 127.73 89.27 126.83C89.99 125.24 90.53 123.57 91.79 122.29C92.64 121.22 93.6 120.26 94.63 119.36C95.46 118.73 96.34 118.17 97.14 117.49C96.7 120.24 95.43 122.58 93.86 124.89C92.24 127.57 90.7 130.37 88.33 132.48C88.95 130.79 89.73 129.15 90.61 127.58C91.45 126.52 91.98 125.26 92.75 124.16C92.93 123.77 93.84 122.99 93.27 122.63C93.07 122.55 92.88 122.71 92.77 122.86C92.51 123.22 92.26 123.58 92 123.95C90.96 125.28 90.26 126.81 89.66 128.38C89.27 129.33 88.66 130.16 88.1 131.04C87.55 131.97 87.16 132.99 86.84 134.02C86.84 134 86.84 133.98 86.84 133.96C86.84 133.74 86.84 133.51 86.84 133.29M102.36 110.11C103.18 109.69 104.02 109.35 104.89 109.04C105.72 108.67 106.49 108.19 107.35 107.88C108.26 107.52 109.25 107.49 110.21 107.35C111.46 107.04 112.72 107.06 113.99 107.09C114.27 107.1 114.54 107.08 114.82 107.06C115.24 107.02 115.65 106.99 116.07 107.08C115.22 107.67 114.32 108.2 113.44 108.75C112.46 109.23 111.42 109.53 110.4 109.91C109.3 110.33 108.23 110.84 107.07 111.08C105.78 111.35 104.47 111.59 103.2 111.95C101.59 112.5 100.14 113.44 98.41 113.62C99.52 113.09 100.61 112.5 101.66 111.86C102.94 110.98 104.45 110.54 105.99 110.41C107.58 110.29 109.12 109.85 110.48 109.01C110.64 108.92 110.74 108.71 110.7 108.53C110.66 108.4 110.57 108.35 110.46 108.35C110.16 108.35 109.67 108.71 109.43 108.75C107.99 109.27 106.42 109.23 105 109.8C102.73 110.65 100.46 111.54 98.34 112.73C98.5 112.55 98.66 112.36 98.81 112.18C99.2 111.85 99.66 111.58 100.07 111.25C100.76 110.76 101.61 110.49 102.37 110.12M91.46 115.55C92.46 113.98 93.58 112.47 94.59 110.9C96.45 108.42 98.62 106.16 100.81 103.96C102.22 102.72 103.99 102 105.37 100.71C106.32 99.8701 107.4 99.2101 108.57 98.7101C109.77 98.1701 110.91 97.4601 112.19 97.1101C111.17 99.1901 109.34 100.75 107.87 102.51C106.11 104.57 103.77 106 101.76 107.76C100.23 109.39 98.91 111.22 97.27 112.74C96.46 113.41 95.64 114.07 94.9 114.81C94.22 115.4 93.49 115.91 92.84 116.54C91.97 117.39 91.19 118.32 90.33 119.18C91.06 117.86 91.85 116.55 92.84 115.41C93.96 114.07 95.39 113.05 96.48 111.68C97.77 110.08 99.23 108.63 100.6 107.1C101.63 105.76 102.94 104.73 104.31 103.76C104.62 103.55 104.49 102.97 104.08 103.19C102.55 104.18 101.18 105.41 99.99 106.78C99.32 107.61 98.65 108.44 97.84 109.14C95.39 110.85 93.53 113.32 91.84 115.76C91 116.92 90.04 118.07 89.21 119.24C89.95 118 90.82 116.85 91.45 115.54M91.94 84.5601C91.39 82.9401 90.75 81.3401 90.17 79.7301C90.01 79.1101 89.93 78.5801 89.82 77.9301C89.8 77.7001 89.66 77.4501 89.74 77.2201C90.03 76.8801 90.38 76.7401 90.75 76.7401C91.44 76.7401 92.18 77.2201 92.66 77.7101C93.35 78.3601 93.66 79.2801 93.94 80.1701C94.25 81.1501 94.69 82.0801 95.11 83.0201C95.49 84.1301 95.65 85.3201 96.05 86.4201C96.63 88.9901 96.4 91.7001 96.01 94.2901C95.85 96.6001 95.45 98.9001 94.28 100.94C94.81 98.8501 94.92 96.6801 94.86 94.5401C94.99 93.0801 95.28 91.6301 95.27 90.1601C95.24 88.4101 94.91 86.6901 94.53 84.9801C94.43 84.6201 94.07 84.8501 94.14 85.1301C94.3 86.0701 94.56 86.9501 94.62 87.9101C94.66 88.8201 94.42 89.7201 94.47 90.6401C94.61 92.1601 94.68 93.6801 94.41 95.2101C94.25 97.2401 94.24 99.3001 93.69 101.27C93.8 100.11 93.82 98.9401 93.87 97.7801C93.94 96.7501 94.1 95.7401 94.11 94.7101C94.03 92.7101 93.78 90.5901 93.4 88.6301C93.18 87.1601 92.32 86.0001 91.93 84.5701M88 88.3601C90.64 91.2701 90.48 97.2401 90.86 101.02C90.96 102.64 90.82 104.26 90.65 105.87C90.57 107.1 90.51 108.32 90.17 109.52C89.94 110.26 89.61 110.96 89.3 111.67C89.3 111.6 89.32 111.53 89.33 111.48C89.44 110.82 89.62 110.11 89.72 109.44C89.85 108.14 90.03 106.84 90.13 105.53C90.13 104.63 89.93 103.75 89.95 102.85C89.96 101.55 89.8 100.26 89.85 98.9601C89.85 98.8201 89.7 98.8501 89.7 98.9601C89.69 99.8301 89.56 100.7 89.59 101.57C89.61 102.44 89.82 103.3 89.76 104.17C89.62 105.22 89.65 106.31 89.52 107.36C89.52 106.86 89.49 106.37 89.45 105.87C89.37 104.79 89.5 103.72 89.48 102.64C89.45 101.68 89.31 100.73 89.16 99.7801C88.03 96.1001 87.9 92.1901 87.97 88.3601M89.02 112.26C89.02 112.26 89.02 112.26 89.03 112.26C89.04 112.26 89.06 112.26 89.07 112.25C89.05 112.29 89.03 112.33 89.02 112.38C88.99 112.45 88.99 112.53 89.01 112.61C89.01 112.63 88.99 112.65 88.98 112.67C88.99 112.53 89 112.39 89.02 112.26ZM103.41 90.2401C103.41 90.2401 103.41 90.2401 103.42 90.2401C103.48 90.2401 103.55 90.2101 103.62 90.1701C103.46 90.3601 103.3 90.5601 103.15 90.7601C103.24 90.5901 103.32 90.4101 103.41 90.2401ZM119.23 77.7801C118.79 78.8201 117.68 79.2601 116.82 79.8701C115.35 80.8201 114.08 82.0301 112.71 83.1101C111.99 83.6301 111.21 84.1301 110.51 84.7101C109.54 85.4701 108.8 86.4901 107.81 87.2401C106.81 87.9801 105.6 88.4001 104.62 89.1701C105.29 88.4701 106.03 87.8401 106.74 87.1801C108.39 85.7401 109.99 84.2501 111.62 82.7901C111.74 82.6901 111.76 82.4901 111.69 82.3601C111.63 82.2301 111.48 82.1701 111.36 82.2701C111 82.5701 110.64 82.8701 110.27 83.1601C108.83 84.0501 108.02 85.6001 106.67 86.5801C105.82 87.1401 105.05 87.7901 104.31 88.4801C104.34 88.4301 104.36 88.3701 104.39 88.3201C104.55 88.0701 104.72 87.8101 104.87 87.5501C105.12 87.2301 105.38 86.9101 105.65 86.6101C106.36 85.7801 107.19 85.0501 107.9 84.2201C108.68 83.2401 109.28 82.1301 110.13 81.2201C110.61 80.7701 111.12 80.3601 111.61 79.9301C112.63 79.0901 113.49 78.0901 114.54 77.2901C115.24 76.7601 116.09 76.4801 116.89 76.1501C119.36 75.0401 120.19 74.7201 119.23 77.8101M108.52 80.1001C108.85 79.2801 109.42 78.5501 109.81 77.7501C110.27 76.8201 110.76 75.9001 111.36 75.0601C112.04 74.1501 112.99 73.4601 113.77 72.6401C115.04 71.2701 116.03 69.7601 118.06 69.5401C117.78 70.6501 117.43 71.7801 116.71 72.6901C116.2 73.3401 115.55 73.8101 115.02 74.4601C114.23 75.5301 113.63 76.7301 112.65 77.6601C112.47 77.8301 112.29 77.9901 112.11 78.1601C111.66 78.4901 111.23 78.8401 110.82 79.2301C109.8 80.3301 108.94 81.5601 107.98 82.7401C107.46 83.4601 107.05 84.2501 106.51 84.9601C106.35 85.1701 106.17 85.3701 105.98 85.5601C106.28 84.9901 106.55 84.4001 106.8 83.8101C107.22 83.3201 107.64 82.8201 108.05 82.3301C108.61 81.6701 108.97 80.8801 109.45 80.1701C110.44 79.1001 111.5 78.1001 112.55 77.1001C112.74 76.9501 112.59 76.5001 112.34 76.6701C111.6 77.4201 110.7 78.0001 109.97 78.7501C109.07 79.8201 108.28 80.9901 107.57 82.2001C107.45 82.4101 107.32 82.6101 107.17 82.8001C107.25 82.5801 107.33 82.3601 107.4 82.1301C107.41 82.0901 107.42 82.0501 107.43 82.0201C107.87 81.4301 108.25 80.8101 108.5 80.1101M101.35 91.4401C101.87 89.9301 102.76 88.5601 103.21 87.0301C103.63 85.2201 103.93 83.5401 104.48 81.7301C104.72 79.9101 105.27 78.1301 105.58 76.3101C105.87 74.3201 106.02 72.3201 106.41 70.3401C106.7 68.9701 106.47 67.3401 107.51 66.2501C107.64 66.1401 107.81 65.9601 107.97 65.9601C108.04 65.9601 108.1 65.9901 108.16 66.0701C108.55 66.6001 108.43 67.3001 108.5 67.9201C108.73 69.2401 108.76 70.6001 108.77 71.9401C108.69 74.1601 108.73 76.4301 108.03 78.5601C107.64 79.9301 106.91 81.1601 106.32 82.4601C106.05 83.2401 105.77 84.0001 105.4 84.7301C105.19 84.9501 105.02 85.1801 105.04 85.3901C104.41 86.5101 103.84 87.6501 103.23 88.7701C103.12 88.9101 102.99 89.0701 102.96 89.2401C102.72 89.6601 102.47 90.0801 102.21 90.4801C102.35 90.1201 102.5 89.7701 102.67 89.4201C103.17 88.4401 103.52 87.4001 104.06 86.4401C104.46 85.6001 104.63 84.6801 104.88 83.7901C105.16 82.8101 105.66 81.9001 105.97 80.9301C106.33 79.9001 106.53 78.8301 106.73 77.7701C106.85 77.2401 107 76.7301 107.13 76.2001C107.15 76.1101 107.12 75.9901 107.03 75.9601C106.95 75.9301 106.87 75.9901 106.85 76.0701C106.12 78.3601 105.49 80.6801 104.8 82.9801C104.27 84.2801 103.71 85.5701 103.33 86.9301C102.98 87.8101 102.57 88.6501 102.34 89.5701C102.3 89.8601 101.74 90.8301 101.59 91.3901C101.45 91.5801 101.31 91.7701 101.17 91.9501C101.23 91.7801 101.29 91.6101 101.35 91.4401ZM99.55 75.6601C99.68 73.2201 99.48 70.8301 99.67 68.3901C100.77 69.1601 100.69 70.6901 101.02 71.9001C101.56 73.8201 102.11 75.7601 102.25 77.7601C102.34 78.8901 102.57 80.0001 102.48 81.1401C102.45 82.1601 102.14 83.1901 101.75 84.1401C101.28 85.3501 100.89 86.5801 100.53 87.8201C100.01 89.6101 99.62 91.4901 99.2 93.3501C99.28 92.2701 99.31 91.1901 99.48 90.1001C99.82 88.1001 100.33 86.1401 100.54 84.1301C100.77 83.1601 100.95 82.0901 100.93 81.0901C100.93 80.3501 101 79.6201 101.05 78.8801C101.05 78.8001 101.03 78.6901 100.94 78.6801C100.85 78.6601 100.79 78.7501 100.79 78.8301C100.76 79.1301 100.74 79.4301 100.71 79.7201C100.49 81.3401 100.06 82.9301 99.96 84.5701C99.76 85.3201 99.49 86.0601 99.32 86.8201C99.36 86.1901 99.39 85.5501 99.39 84.9101C99.39 83.4501 99.19 82.0701 99.14 80.6001C99.05 78.9401 99.52 77.3201 99.58 75.6601M117.53 93.0701C116.37 92.9801 115.2 93.0701 114.06 93.2801C112.68 93.5301 111.25 93.4401 109.89 93.8401C108.37 94.3701 106.76 94.4801 105.21 94.8701C106.32 94.4801 107.47 94.2401 108.56 93.8001C109.72 93.2701 110.93 92.9401 112.16 92.6201C112.41 92.5701 112.48 92.0801 112.15 92.1401C110.89 92.4801 109.66 92.9001 108.38 93.1501C107.35 93.3101 106.29 93.3501 105.36 93.8701C103.4 95.0201 101.53 96.3401 99.48 97.3501C101.68 95.4801 104.06 93.8401 106.71 92.6801C108.74 91.5901 111.02 91.0301 113.31 90.8501C114.74 90.8501 116.16 90.8101 117.58 90.6401C117.75 90.6401 117.94 90.6401 118.13 90.6301C118.92 90.6001 119.81 90.5801 120.33 91.2101C120.49 91.6601 120.4 92.1201 120.44 92.6101C119.58 93.2001 118.52 93.1201 117.53 93.0701Z" fill="#D9CFC6"/>
<path d="M77.3201 63.23C77.3201 63.23 77.3201 63.24 77.3301 63.25C77.3301 63.25 77.3301 63.24 77.3301 63.23" fill="#D9CFC6"/>
</g>
<defs>
<clipPath id="clip0_13_1966">
<rect width="161.03" height="153.18" fill="white"/>
</clipPath>
</defs>
</svg>
