<svg width="198" height="158" viewBox="0 0 198 158" fill="none" xmlns="http://www.w3.org/2000/svg">
<g clip-path="url(#clip0_13_2066)">
<path d="M9.70182 61.624C4.61352 57.5693 3.2187 51.1383 7.42932 45.8543C9.80754 42.8698 13.8343 41.079 17.1858 43.7497C18.3111 44.6464 19.4134 46.3247 18.3218 47.6947C17.7565 48.4041 16.5891 48.5138 15.8553 47.929C15.0969 47.3247 14.9337 46.2747 14.1753 45.6704C12.7565 44.5398 10.2101 46.4303 9.33285 47.5311C6.05792 51.6409 8.36205 55.8768 12.0804 58.8398C16.1657 62.0953 20.837 62.6579 24.2289 58.4013C25.379 56.958 25.3121 52.625 25.8189 51.989C26.1308 51.5976 26.6782 51.7138 26.9962 51.9672C29.0266 53.5851 27.3842 58.1559 26.1076 59.8584L25.4253 60.7146C21.2537 65.9496 14.6433 65.5617 9.70182 61.624Z" fill="#D9CFC6"/>
<path d="M25.7333 28.6582C25.953 28.4821 26.2069 28.3988 26.4804 28.3399C27.8479 28.0454 29.4759 29.2259 30.6246 29.9086C33.6162 31.6396 36.671 33.1997 39.6625 34.9308C41.5884 36.0328 43.4362 37.2374 45.5132 37.9778C46.0703 38.1726 46.6958 38.3527 47.0871 38.8408C47.8111 39.7438 46.7276 40.6927 46.0686 41.2209C45.2633 41.8666 43.8084 42.7524 42.9475 41.6785C42.5953 41.2392 42.3408 40.7217 41.9886 40.2824C40.4037 38.3056 38.939 39.079 37.3038 40.3899L35.0098 42.2291C33.155 43.7161 31.4319 45.0174 33.2124 47.2383C34.4647 48.8002 35.594 49.6588 33.544 51.3023C32.8363 51.8697 31.5083 52.6137 30.7843 51.7107C30.393 51.2226 30.4412 50.5826 30.4357 50.0257C30.3648 47.6369 29.3806 45.4592 28.6455 43.2421C28.3956 42.4803 28.1945 41.6794 27.9689 40.898C27.2429 37.9921 26.1993 35.1403 25.4049 32.2491C25.0862 31.1015 24.6595 29.5191 25.7333 28.6582ZM31.021 39.8543C32.1754 41.2942 33.0927 40.238 34.2153 39.338C35.0207 38.6923 36.6415 37.7136 35.7024 36.5421C35.1154 35.81 29.6943 32.4987 29.1818 32.9096C28.3276 33.5944 30.3558 39.0245 31.021 39.8543Z" fill="#D9CFC6"/>
<path d="M49.5721 37.3284C49.1002 36.3753 49.3563 35.2711 49.0946 34.2489C48.8608 33.2128 48.3889 32.2597 47.9171 31.3066L45.2662 25.9524C44.4612 24.3266 43.6002 22.7284 42.6831 21.1581C42.0416 20.638 41.2462 20.1592 40.8714 19.4023C40.233 18.1128 41.7479 17.0836 42.729 16.5978C43.4578 16.237 44.633 16.2136 45.0632 17.0826C45.2714 17.5031 45.2975 17.9789 45.3236 18.4546C45.4727 19.6722 45.9299 20.8071 46.4712 21.9004C47.3039 23.5823 48.2627 25.2368 49.1093 26.9468C49.8587 28.4605 50.3839 30.0853 51.1334 31.599C51.7579 32.8605 52.3705 33.6043 53.7961 33.9456C55.4638 33.1548 57.1036 32.3779 58.7295 31.5729C61.1122 30.3932 59.6794 28.3452 61.1371 27.6235C61.7538 27.3182 62.2562 27.6279 62.5338 28.1885C63.0751 29.2818 63.3888 31.3254 62.6433 32.3577C62.3619 32.7762 54.8631 36.5238 53.7418 37.079C52.7326 37.5786 50.2799 38.758 49.5721 37.3284Z" fill="#D9CFC6"/>
<path d="M66.4403 29.4612C66.3291 29.0377 66.3772 28.6046 66.4556 28.1637C66.6524 26.8185 66.4019 25.4937 66.0606 24.1927C64.9969 20.1383 63.8728 16.0999 62.7789 12.0535C62.3478 11.5198 61.3806 10.5447 61.2139 9.90933C60.825 8.42678 63.2072 7.76946 64.236 7.49958C65.658 7.12652 72.7905 5.223 73.7185 5.43227C74.7914 5.70057 75.8415 6.6216 76.1273 7.71082C76.2781 8.28569 76.1278 9.06889 75.4925 9.23558C74.736 9.43402 71.7644 8.33798 69.0414 9.05236C65.3804 10.0128 65.7683 10.7518 66.6652 14.1708C67.205 16.2282 67.8999 17.2747 70.2297 16.6636C71.7122 16.2746 72.7736 14.8967 73.288 14.7617C74.71 14.3887 75.1848 16.0751 75.4546 17.1038C75.7086 18.072 75.6616 19.2485 74.5118 19.5501C73.3016 19.8676 72.0635 19.0929 70.2784 19.5612C68.342 20.0692 68.6605 22.023 69.0574 23.5358C69.8274 26.4707 70.3745 27.2003 73.5211 26.3747L75.6916 25.773C77.5978 25.2729 77.9385 25.2159 78.744 23.3553C78.9656 22.8444 79.2622 22.2492 79.8371 22.0984C80.4422 21.9396 80.9482 22.389 81.091 22.9336C81.48 24.4161 81.2603 26.4141 79.8363 27.2727C79.0606 27.7673 74.3853 28.9292 73.2658 29.2228C72.0858 29.5324 70.9138 29.8722 69.7338 30.1818C68.7353 30.4437 66.8054 30.853 66.4403 29.4612ZM63.4035 5.06621C62.967 3.40212 64.9073 1.92293 65.6979 0.745372C66.0341 0.301427 67.5722 -1.84835 68.147 -1.99916C68.7219 -2.14997 69.2566 -1.83751 69.4074 -1.26264C69.7646 0.098881 65.645 5.35131 64.4348 5.66881C64.0112 5.77993 63.5067 5.45954 63.4035 5.06621Z" fill="#D9CFC6"/>
<path d="M85.3997 24.5794C85.3859 24.1417 85.4981 23.7313 85.6425 23.3512C86.4192 23.1701 86.1894 16.887 86.1627 16.0428C86.0827 13.5104 85.9704 10.9477 85.7643 8.388C85.6702 7.38952 85.6152 6.64016 85.1801 5.74634C84.9787 5.31456 84.7763 4.85153 84.7615 4.38256C84.7298 3.3821 85.7165 2.91278 86.5919 2.88512L86.8742 2.90749C88.5977 2.97821 89.5117 4.16986 90.5204 5.38981C93.2865 8.74491 96.082 12.0365 98.726 15.4893C99.1502 16.0393 100.647 17.8384 101.303 17.8177C102.46 17.7811 101.97 14.1663 101.951 13.5723L101.706 5.8187C101.372 5.14077 100.813 4.28216 100.789 3.53182C100.76 2.59388 101.564 2.28682 102.376 2.26113C103.377 2.22951 105.543 2.44272 105.587 3.81835C105.611 4.59997 104.973 5.21474 104.683 5.91243C104.538 6.29255 104.783 14.0461 104.805 14.7339C104.826 15.3905 105.072 23.1753 104.897 23.5877C104.636 24.2531 104.182 24.7369 103.432 24.7606C102.9 24.7774 102.392 24.5431 101.975 24.212C100.435 23.0089 90.7788 9.60655 89.4032 9.65002C89.3719 9.65101 89.2478 9.68622 89.1863 9.71946C88.7223 9.89061 88.8569 12.1709 88.8678 12.5148C88.8725 14.6428 88.753 16.806 88.8212 18.9632C88.8617 20.245 88.9121 21.8395 89.5427 22.9775C89.7754 23.4083 89.9778 23.8714 89.9936 24.3716C90.0311 25.5596 88.8237 25.9733 87.8232 26.005C86.8227 26.0366 85.4392 25.8299 85.3997 24.5794Z" fill="#D9CFC6"/>
<path d="M119.089 4.14133C122.363 4.83778 126.402 6.1448 128.578 8.84623C130.675 11.4669 130.977 15.305 130.301 18.4869C129.181 23.7493 125.937 27.1207 120.452 27.6488C118.978 27.8148 117.136 27.4549 115.667 27.1425C114.566 26.9082 113.471 26.6432 112.4 26.4154C111.452 26.2137 110.217 25.855 110.483 24.6006C110.685 23.6521 111.462 22.858 111.823 21.9114C112.267 20.7267 112.516 19.4046 112.783 18.1502C113.551 14.5399 114.265 10.8861 115.039 7.24522C114.839 6.53112 114.49 5.46551 114.653 4.70062C114.965 3.23205 118.08 3.92654 119.089 4.14133ZM116.968 24.6369C122.964 25.9126 126.237 22.7072 127.434 17.0777C128.398 12.5496 125.744 8.33921 121.185 7.36939C118.278 6.75106 118.184 7.94622 117.578 10.3437C117.185 11.8911 116.639 13.4059 116.307 14.9662C115.851 17.1079 115.426 19.2561 115.154 21.4368C115.016 22.6867 114.819 23.764 116.124 24.3934C116.386 24.5132 116.692 24.5783 116.968 24.6369Z" fill="#D9CFC6"/>
<path d="M137.846 18.067C138.208 17.304 139.78 14.1373 139.819 13.3249C139.852 12.8905 139.857 11.7851 140.058 11.3611C140.514 10.4003 141.861 10.5543 142.595 10.9029C143.556 11.3587 145.029 12.1958 144.425 13.4675C143.983 14.4001 142.904 14.9961 142.292 15.8483C141.285 17.2403 139.523 21.3204 138.705 23.0443C137.874 24.7965 136.803 26.4697 137.138 28.4636C137.457 30.3459 138.685 31.5518 140.352 32.3428C142.218 33.2277 144.457 33.2513 146.154 32.0829C147.589 31.1018 149.347 26.8119 150.057 25.314L152.524 20.114C152.535 19.2883 152.453 18.0027 152.815 17.2397C153.324 16.1658 154.858 16.5818 155.677 16.9706C156.553 17.3862 157.242 18.1975 156.773 19.1866C156.612 19.5258 156.393 19.7681 156.146 19.9971C154.209 21.7442 153.3 24.4634 152.214 26.7526C151.167 28.887 149.639 32.8363 147.726 34.387C145.345 36.2692 141.491 35.9991 138.863 34.7522C138.354 34.5109 137.844 34.1996 137.389 33.8453C131.151 29.1891 135.339 23.3518 137.846 18.067Z" fill="#D9CFC6"/>
<path d="M151.361 39.5527C152.013 38.7125 153.118 38.4618 153.924 37.7807C154.755 37.1187 155.407 36.2786 156.059 35.4385L159.723 30.719C160.835 29.2859 161.898 27.8143 162.912 26.3045C163.1 25.5005 163.184 24.5759 163.702 23.9087C164.585 22.7721 166.171 23.6869 167.036 24.3582C167.678 24.8569 168.212 25.9043 167.617 26.6703C167.329 27.041 166.913 27.2718 166.496 27.5027C165.465 28.1676 164.643 29.0737 163.895 30.0374C162.744 31.5199 161.673 33.1039 160.503 34.6112C159.467 35.9455 158.234 37.1264 157.198 38.4607C156.335 39.5726 155.932 40.4481 156.246 41.8799C157.685 43.0362 159.099 44.1734 160.532 45.2859C162.633 46.9162 163.851 44.734 165.136 45.7314C165.68 46.1534 165.62 46.7405 165.236 47.2347C164.488 48.1984 162.786 49.3714 161.532 49.1504C161.032 49.0796 154.391 43.9639 153.403 43.1967C152.513 42.5062 150.383 40.8128 151.361 39.5527Z" fill="#D9CFC6"/>
<path d="M189.076 45.8698C189.254 46.0876 189.34 46.3407 189.402 46.6135C189.71 47.978 188.547 49.618 187.876 50.7737C186.176 53.7829 184.647 56.8536 182.947 59.8628C181.865 61.7999 180.679 63.6601 179.96 65.7446C179.771 66.3036 179.598 66.9309 179.114 67.3273C178.218 68.0605 177.258 66.9868 176.723 66.3333C176.069 65.5347 175.169 64.089 176.233 63.2171C176.669 62.8604 177.184 62.6005 177.62 62.2438C179.58 60.6387 178.792 59.182 177.464 57.5605L175.601 55.2855C174.095 53.4461 172.776 51.7365 170.574 53.5398C169.025 54.808 168.178 55.9462 166.513 53.9132C165.939 53.2113 165.181 51.8911 166.077 51.1579C166.561 50.7616 167.201 50.8031 167.758 50.7919C170.146 50.6964 172.313 49.6899 174.523 48.932C175.282 48.6742 176.081 48.4648 176.86 48.2313C179.758 47.4753 182.599 46.4025 185.482 45.5783C186.626 45.2478 188.204 44.8049 189.076 45.8698ZM177.935 51.2725C176.507 52.4416 177.572 53.348 178.484 54.4613C179.138 55.26 180.133 56.8706 181.295 55.9195C182.021 55.325 185.276 49.8701 184.86 49.3618C184.167 48.5148 178.758 50.5987 177.935 51.2725Z" fill="#D9CFC6"/>
<path d="M134.58 94.9999C134.27 94.8499 133.94 94.7899 133.64 94.6199C133.18 94.3399 132.66 94.2799 132.14 94.2199C132 94.1999 131.86 94.1699 131.72 94.1399C132.11 94.0599 132.52 93.9999 132.89 93.8499C133.32 93.6599 133.71 93.3899 134.08 93.0899C134.42 92.8099 134.92 92.1999 134.51 91.7999C134.25 91.6199 133.92 91.6799 133.63 91.6299C133.14 91.4899 132.61 91.4899 132.08 91.5699C132.1 91.5599 132.12 91.5499 132.14 91.5399C132.82 91.2599 135.53 88.6299 134.28 88.0799C133.86 87.9099 133.42 87.8899 132.98 87.9299C133 87.9099 133.01 87.8899 133.03 87.8799C133.62 87.2299 133.93 86.4399 134.23 85.6299C134.38 85.0799 133.83 84.5499 133.29 84.5999C132.82 84.6299 131.53 84.6899 130.85 84.9899C131.1 84.5099 131.24 83.9799 131.32 83.4499C131.39 83.0899 131.24 82.7499 131.11 82.4299C131.07 82.2199 130.97 81.9699 130.72 81.9699C130.33 81.9699 129.92 81.9399 129.55 82.0799C129.46 82.1199 129.37 82.1699 129.29 82.2199C129.54 81.5799 129.53 80.8399 129.39 80.1599C129.32 79.9499 129.37 79.6299 129.16 79.4899C128.72 79.3699 128.25 79.5999 127.83 79.7299C127.47 79.8399 127.03 79.8899 126.69 80.0899C126.45 80.2499 126.24 80.4699 126.04 80.6799C126.05 80.4699 126.04 80.2699 125.85 80.1799C125.62 80.1799 125.4 80.2899 125.19 80.4099C125.48 79.6799 125.02 77.8799 124.71 77.4699C124.43 77.1399 123.92 77.2199 123.54 77.2699C122.72 77.3199 121.84 77.9799 121.4 78.7699C121.35 78.4099 121.21 78.0499 121.07 77.7099C120.97 77.5899 120.84 77.4999 120.75 77.3699C120.64 77.2199 120.53 77.0299 120.34 76.9799C120.21 76.9599 120.12 77.0399 120.03 77.1199C119.32 77.7199 118.82 78.5299 118.51 79.4099C118.47 79.5499 118.34 79.7899 118.28 80.0099C118.18 79.5299 118.04 79.0599 117.81 78.6199C117.57 77.9799 117.2 77.3099 116.48 77.1599C116.14 77.0999 116 77.4699 115.88 77.7099C115.19 78.7499 115.09 79.9899 114.82 81.1899C114.86 82.5399 115.01 83.8799 115.09 85.2299C115.36 86.2899 115.55 87.4199 116.19 88.3399C116.19 88.3399 116.27 88.3899 116.32 88.3999C116.17 88.7099 116.05 89.0299 115.98 89.3699C115.95 89.5899 115.93 89.8199 115.9 90.0499C115.84 89.7699 115.78 89.4899 115.74 89.2199C115.68 88.4999 115.36 87.8599 115.2 87.1499C115.17 87.0299 115.1 86.8899 114.96 86.8899C114.93 86.8899 114.91 86.8999 114.88 86.9099C114.88 86.8799 114.87 86.8499 114.84 86.8299C114.76 86.7499 114.7 86.6499 114.65 86.5499C114.23 85.7999 114.07 84.7799 113.85 83.9299C113.83 83.4399 114.02 82.9599 114.01 82.4699C114.04 81.5799 113.76 80.6299 114.2 79.8099C114.36 79.9999 114.62 80.3099 114.85 80.0399C114.94 79.9399 114.98 79.7999 114.92 79.6699C114.57 78.8999 114.04 78.9099 113.64 79.6299C113.14 80.5199 113.39 81.6799 113.5 82.6599C113.51 83.4099 113.53 84.1399 113.78 84.8599C113.95 85.6399 114.09 86.4699 114.58 87.1299C114.43 87.3299 114.35 87.6199 114.22 87.8199C113.86 88.4399 113.7 89.1299 113.55 89.8299C113.49 90.4599 113.65 91.0999 113.61 91.7399C113.48 92.7999 113.49 93.9099 113.46 94.9899C113.4 95.6499 113.46 96.3299 113.83 96.8999C113.93 97.0399 113.98 97.2099 114.07 97.3699C112.71 99.0099 111.66 100.89 110.77 102.81C110.1 103.94 109.26 104.96 108.7 106.15C108.25 107.09 108.16 108.15 107.76 109.1C107.34 109.89 106.94 110.69 106.69 111.56C106.26 112.57 105.9 113.63 105.54 114.68C104.81 116 104.11 117.34 103.61 118.77C103.51 119.05 103.35 119.33 103.2 119.62C103.2 118.54 102.91 116.93 102.9 116.42C102.78 115.73 102.5 115.09 102.41 114.39C102.36 113.87 102.37 113.35 102.28 112.84C101.4 109.31 100.69 105.77 99.7002 102.26C99.4702 101.29 99.3302 100.31 99.0902 99.3399C98.8302 98.0199 98.7502 96.6099 98.4202 95.2899C98.3102 93.2299 97.8902 91.1999 97.6202 89.1599C97.4502 88.2299 97.3402 87.2399 97.3402 86.2799C97.0802 83.7999 96.9702 81.4499 96.5602 78.9499C96.5402 78.7899 96.5302 78.6399 96.5302 78.4899C96.6202 77.6399 96.7402 76.7899 96.9702 75.9599C97.0602 75.8899 97.0602 75.7699 97.0202 75.6799C97.3702 75.2099 97.7702 74.7899 98.2002 74.3699C98.8202 73.7499 99.0702 72.8799 99.5802 72.1699C101.28 70.6399 102.03 69.6099 102.44 67.8099C102.47 67.7699 102.5 67.7299 102.54 67.6999C102.74 67.4799 102.98 67.2699 103.26 67.1499C103.78 67.0899 104.28 66.8999 104.8 66.8399C106.46 66.4499 108.03 65.7199 109.56 64.9799C110.26 64.7099 111.04 64.7099 111.71 64.3899C112.37 64.0599 113.09 63.8699 113.73 63.4999C114.48 62.8899 115.2 62.2099 115.83 61.4799C116.29 60.8799 116.77 59.8099 116.12 59.1899C116 59.1199 115.86 59.1299 115.73 59.1399C115.1 59.2099 114.54 59.2699 113.9 59.4499C113.24 59.6599 112.56 59.8099 111.89 59.9499C112.36 59.5399 112.76 59.0399 113.12 58.5299C113.72 57.4399 114.36 56.2599 114.51 55.0099C114.51 54.6399 114.29 54.0899 113.83 54.2299C113.25 54.3699 112.8 54.7699 112.24 54.9499C112.24 54.9499 112.23 54.9499 112.22 54.9499C112.42 54.6999 112.57 54.1999 112.66 54.0299C112.95 53.3299 113.04 52.5599 112.96 51.8199C112.78 50.4599 111.82 51.0799 111.1 51.6199C110.35 52.3499 109.4 52.8399 108.67 53.5899V53.5199C108.7 53.1399 109.08 51.4499 108.29 51.8199C108.03 52.0599 107.76 52.2699 107.47 52.4699C107.97 51.0499 107.96 49.4399 107.6 47.9899C107.31 46.7399 106.17 46.9099 105.25 47.3799C104.84 47.6499 104.56 48.0299 104.16 48.3299C103.81 48.6199 103.43 48.8899 103.14 49.2499C103.08 49.3599 102.91 49.5999 102.74 49.8599C102.6 49.7199 102.41 49.6899 102.17 49.8599C101.6 50.4599 100.9 51.0199 100.37 51.6799C100.44 51.4499 100.5 51.2099 100.53 50.9499C101.11 48.7499 100.96 46.3499 100.06 44.2299C99.2102 42.4699 98.1402 45.5899 97.4802 46.1299C97.0702 46.5799 96.8902 47.1499 96.7402 47.7299C96.4002 48.4499 96.1402 49.1999 96.0802 49.9899C95.9002 49.7599 95.7202 49.5299 95.6002 49.2599C95.4102 48.8699 95.2102 48.8299 95.0302 48.9799C95.0302 48.7799 95.0202 48.5899 94.9902 48.3899C94.9002 47.4599 94.5102 46.5699 94.0102 45.7899C93.7102 45.3999 93.0802 44.4399 92.6502 45.1999C92.3902 45.7499 92.1902 46.2899 91.8302 46.7899C91.3802 47.3899 91.1302 48.1499 91.1202 48.8999C90.6902 48.4199 90.2402 47.9599 89.8402 47.4499C89.5602 47.1199 89.2602 47.4099 89.0102 47.6099C88.7502 47.7399 88.6502 48.0099 88.6302 48.2899C88.4102 49.4499 88.5102 50.5799 88.4702 51.7599C88.5002 52.3099 88.6202 52.8399 88.7402 53.3799C88.3802 52.6699 87.9902 51.9699 87.4602 51.3399C86.8002 50.6899 85.9302 50.3299 85.1702 49.8299C83.8302 48.1499 83.7802 50.1699 83.7802 51.2399C83.7902 51.5299 83.8302 51.8099 83.8802 52.0899C83.7202 51.7699 83.5502 51.4399 83.3302 51.1499C83.1402 50.9099 82.8702 50.7399 82.6602 50.5099C81.7602 49.3399 80.5002 48.7999 79.0702 49.3199C78.6002 49.4899 78.7202 50.0699 78.6802 50.4699C78.6602 51.5599 78.7702 52.6899 79.0802 53.7499C78.8002 53.5499 78.5002 53.3499 78.1902 53.1899C77.6802 52.8899 77.1402 52.4899 76.5202 52.4899C75.9102 52.5699 75.2202 52.5099 74.6802 52.8499C74.2202 53.3099 74.7102 53.9399 74.8802 54.4499C75.2402 55.4399 75.9502 56.2399 76.5202 57.0999C76.9002 57.7199 77.3102 58.3399 77.7702 58.9199C77.6202 58.8199 77.4602 58.7199 77.3002 58.6299C75.8502 57.8999 74.1302 57.7799 72.5302 57.8199C72.0002 57.7899 70.8702 57.4899 71.1202 58.4199C71.5002 59.1099 71.9302 59.7899 72.4302 60.3999C73.1702 61.2099 74.1402 61.7699 74.9202 62.5499C74.2602 62.3799 73.5602 62.2899 72.8802 62.3699C72.3302 62.4099 71.8202 62.7199 71.2702 62.7999C70.6602 62.9299 70.0202 62.8599 69.4102 62.9999C68.9802 63.1299 69.0602 63.6799 69.1702 64.0099C69.7502 65.6799 71.4502 66.2099 72.9902 66.7499C74.2602 67.2399 75.4602 67.9699 76.8302 68.1399C78.2502 68.4199 79.6502 67.9999 81.0702 67.8999C81.5902 67.8499 82.1102 67.7299 82.6302 67.6999C83.0402 67.7099 83.4902 67.8299 83.9402 67.8999C85.5302 68.0099 85.8102 68.0299 86.9502 69.1199C87.2102 69.5399 87.5602 69.9099 87.8502 70.2999C88.7802 71.5699 89.8602 72.6599 90.9902 73.7499C91.4902 74.2999 92.1202 74.7199 92.5502 75.3599C92.8202 75.8499 92.9902 76.3799 93.1602 76.9099C93.1302 76.9699 93.1002 77.0299 93.1002 77.0999C93.0102 78.2199 92.9102 79.3599 92.9402 80.4899C92.9202 81.2299 93.0702 81.9599 93.1702 82.6899C93.2602 83.4399 93.2502 84.2699 93.3302 85.0899C93.3802 85.6399 93.4702 86.1699 93.5502 86.7099C92.7202 84.7699 91.1002 83.3099 89.6302 81.8499C88.8302 80.9999 87.7002 80.7499 86.8402 79.9499C85.8202 79.0399 84.8202 78.0699 83.6502 77.3599C82.9102 76.9499 82.0602 76.8999 81.2802 76.5899C80.6902 76.2699 80.1102 76.1899 79.4602 75.9999C79.0302 75.8299 78.5602 75.7899 78.1102 75.8599C77.7702 75.9499 77.7302 76.4199 77.7802 76.6999C77.9802 77.6799 78.6602 78.4899 79.0802 79.3799C80.1402 81.4899 81.3702 83.5799 83.1902 85.1199C83.8902 85.6899 84.3302 86.5599 84.9202 87.2299C85.7102 88.0199 86.5502 88.7799 87.4202 89.4899C88.1602 89.9999 89.0402 90.3199 89.9102 90.5499C90.6202 90.6899 91.3402 90.5099 92.0502 90.4999C92.5102 90.5199 92.9302 90.7099 93.3502 90.8899C93.3802 90.8899 93.4102 90.8999 93.4402 90.8999C93.5202 90.8999 93.5902 90.8699 93.6402 90.8199C93.6402 91.0999 93.6702 91.3899 93.8402 91.6099C93.9202 92.1499 94.0502 92.6899 94.1802 93.2299C94.2702 93.7799 94.2902 94.3899 94.4002 94.9899C94.7202 96.9599 94.9602 98.8099 95.4402 100.78C95.5002 101.58 95.3802 102.36 95.4402 103.17C95.5802 104.34 95.7302 105.51 96.0902 106.64C96.4102 107.67 96.8102 108.68 97.0202 109.74C97.2302 110.96 97.5102 112.15 98.0202 113.28C98.3502 114.06 98.7702 114.77 98.9502 115.61C99.4302 116.9 99.8002 118.14 100.03 119.5C99.7302 119.21 99.4502 118.98 99.2702 118.85C98.4402 118.23 97.8102 117.38 97.1602 116.59C96.1702 115.02 95.0002 113.64 93.7302 112.28C93.0702 111.56 92.2502 111.02 91.6802 110.22C89.5202 107.37 86.4602 105.44 83.7602 103.15C82.4202 101.74 80.7602 100.7 78.9302 100.04C78.1302 99.5999 77.3902 99.0399 76.5002 98.8099C75.9202 98.6299 74.6602 98.3399 74.6902 99.2999C74.7502 99.8199 75.0902 100.22 75.3902 100.64C75.9102 101.38 76.3702 102.14 76.8502 102.9C77.5502 104.12 77.8402 105.5 78.3302 106.8C78.9002 108.29 79.9302 109.58 81.0302 110.72C81.4902 111.12 82.0002 111.48 82.4302 111.91C84.9702 114.77 85.0702 115.65 88.8402 117.28C89.8402 117.73 90.7002 118.44 91.5502 119.12C92.4702 119.86 93.4702 120.47 94.4802 121.08C94.9602 121.38 95.4602 121.65 95.9502 121.92C96.0102 121.97 96.0802 122.02 96.1302 122.07C96.1802 122.11 96.2202 122.15 96.2602 122.19C96.2802 122.26 96.3202 122.32 96.3802 122.35C97.0702 123.05 97.7502 123.76 98.4302 124.46C98.5902 124.69 98.8202 124.85 99.0602 125.01C99.0902 125.06 99.1302 125.11 99.1802 125.15C100.1 125.72 100.49 126.76 100.81 127.75C101.66 129.81 101.47 132.06 101.49 134.24C101.44 136.6 101.84 138.94 101.75 141.31C101.56 143.68 101.89 146.03 102.14 148.38C102.16 150.37 101.88 152.39 101.91 154.43C101.91 155.43 101.5 156.49 101.86 157.45C101.97 157.61 102.06 157.68 102.14 157.68C102.24 157.68 102.32 157.58 102.38 157.4C102.37 157.53 102.38 157.65 102.47 157.78C102.56 157.9 102.66 157.95 102.75 157.95C103.02 157.95 103.29 157.57 103.4 157.32C104.19 155.9 104.99 154.45 105.38 152.87C105.71 151.21 105.53 149.5 105.62 147.8C105.66 146.66 105.39 145.53 105.33 144.39C105.31 143.09 105.31 141.7 105.17 140.38C105.11 139.32 104.9 138.29 104.96 137.22C104.92 135.43 104.86 133.65 104.77 131.86C104.66 130.81 104.48 129.76 104.54 128.7C104.59 127.86 104.77 126.93 104.99 126.1C105.04 125.84 105.21 125.39 105.2 125.02C105.45 124.29 105.61 123.53 105.83 122.79C106.05 122.08 106.28 121.38 106.55 120.69C106.6 120.62 106.65 120.55 106.68 120.48C106.83 120.19 106.99 119.75 107.13 119.42C107.63 118.51 108.32 117.66 108.61 116.65C109.08 115.92 109.69 115.31 110.4 114.82C111.33 114.22 112.4 113.97 113.5 113.92C113.73 113.92 113.96 113.92 114.2 113.93C114.79 113.95 115.39 113.97 115.96 113.85C116.78 113.77 117.59 113.41 118.41 113.17C118.91 113 119.42 112.85 119.92 112.67C121.55 112.02 122.77 110.63 124.52 110.22C126.51 109.64 128.6 109.3 130.48 108.39C131.11 107.94 131.93 107.57 132.31 106.87C132.56 106.26 131.69 106.29 131.31 106.13C130.16 105.74 128.94 105.81 127.75 105.65C125.75 105.3 123.68 104.99 121.68 105.47C120.04 105.84 118.29 105.34 116.75 106.15C115.35 106.62 114.25 107.61 113.22 108.63C112.27 109.43 111.37 110.3 110.64 111.3C110.78 110.96 110.92 110.61 111.06 110.27C112.64 106.73 114.1 102.92 117.06 100.27C117.11 100.22 117.15 100.17 117.17 100.1C118.14 99.5899 119.16 99.1999 120.2 98.8399C121.15 98.5499 122.14 98.4499 123.08 98.1199C124.2 97.7799 125.39 97.5999 126.33 96.8299C126.34 96.8199 126.36 96.7999 126.37 96.7899C126.45 96.7899 126.52 96.7899 126.59 96.7899C126.85 96.7999 127.02 96.9999 127.21 97.1499C127.79 97.4299 128.47 97.5399 129.1 97.6399C129.2 97.6499 129.3 97.6499 129.39 97.6499C129.97 97.6499 130.52 97.4899 131.11 97.4099C131.6 97.3199 132.18 97.3399 132.64 97.0799C133.08 96.8499 133.47 96.5399 133.88 96.2499C134.19 95.9899 134.58 95.7299 134.68 95.3199C134.7 95.1799 134.63 95.0599 134.52 94.9999M133.25 92.3499C133.45 92.3499 133.64 92.3699 133.83 92.3699C133.15 92.8099 132.4 93.0899 131.63 93.3099C130.97 93.5899 130.32 93.9199 129.63 94.0999C129.29 94.0999 128.96 94.1299 128.64 94.2199C128.59 94.2199 128.54 94.2199 128.48 94.2199C128.16 94.2199 127.84 94.2199 127.52 94.1699C127.09 94.0599 126.65 93.9899 126.21 94.0699C125.91 94.1099 125.66 94.2099 125.37 94.2999C125.34 94.2999 125.31 94.3099 125.28 94.3199C125.28 94.2699 125.28 94.2199 125.25 94.1799C125.17 94.0699 125.03 94.0799 124.92 94.0899C124.77 94.0899 124.63 94.1099 124.48 94.1299C125.54 93.7999 126.62 93.5499 127.73 93.5599C127.84 93.5499 127.99 93.5699 128.15 93.5999C128.48 93.6499 128.84 93.7099 128.94 93.4099C129 93.1199 128.62 93.1599 128.33 93.1799C128.23 93.1899 128.14 93.1999 128.09 93.1999C127.26 93.2299 126.43 93.2099 125.6 93.3599C125.5 93.3899 125.31 93.4199 125.08 93.4699C125.25 93.4199 125.41 93.3699 125.56 93.3399C126.49 93.1199 127.31 92.5299 128.28 92.4699C128.61 92.5099 128.93 92.4999 129.26 92.4899C129.56 92.4799 129.86 92.4699 130.16 92.4899C130.54 92.5599 130.94 92.6599 131.33 92.6099C131.68 92.5499 132 92.4199 132.35 92.3599C132.64 92.3299 132.96 92.3399 133.28 92.3599M120.3 91.4699C120.3 91.4699 120.3 91.4699 120.29 91.4799C120.29 91.4799 120.29 91.4699 120.3 91.4699ZM121.27 90.6099C121.57 90.3099 121.92 90.0599 122.25 89.7999C123.2 88.8799 124.13 87.8399 124.62 86.5899C124.72 86.4199 124.8 86.2499 124.89 86.0799C125.05 85.8799 125.19 85.6699 125.39 85.4899C126.3 84.7299 127.43 84.1399 128.63 84.0099C128.35 85.3099 127.7 86.5199 127 87.6399C126.72 88.1599 126.45 88.6999 125.99 89.0899C125.78 89.2299 125.58 89.3999 125.35 89.5299C124.83 89.5299 124.33 89.8799 123.92 90.1699C123.89 90.1899 123.86 90.2199 123.83 90.2399C123.85 90.2099 123.87 90.1799 123.89 90.1599C124.32 89.4299 124.85 88.7799 125.41 88.1399C125.95 87.3899 126.43 86.5899 127 85.8599C127.21 85.5799 126.9 85.2999 126.66 85.5699C125.63 86.9399 124.39 88.1599 123.52 89.6399C123.36 89.9399 123.12 90.2499 122.9 90.5699C122.94 90.3899 122.98 90.2099 123.03 90.0199C123.16 89.6999 122.93 89.3899 122.62 89.6499C122.09 90.1599 121.48 90.5699 120.9 91.0099C121.02 90.8699 121.15 90.7399 121.28 90.6099M128.58 86.5799C128.58 86.5799 128.49 86.6499 128.45 86.6899C128.47 86.6299 128.49 86.5699 128.51 86.5099C128.52 86.5399 128.55 86.5599 128.58 86.5799ZM124.72 90.3199C124.71 90.3199 124.69 90.3299 124.67 90.3399C124.69 90.3399 124.7 90.3199 124.72 90.3099M125.58 90.2099C125.58 90.2099 125.56 90.1899 125.55 90.1799C125.89 89.9399 126.23 89.7199 126.55 89.4599C127.1 88.9299 127.6 88.3099 127.99 87.6299C128.02 87.5999 128.05 87.5599 128.08 87.5299C128.58 87.0299 129.22 86.6799 129.79 86.2599C130.11 86.0399 130.48 85.9199 130.87 85.8799C130.48 87.7299 129.63 89.5999 128.04 90.7199C126.76 91.2699 125.73 92.1299 124.66 93.0099C124.64 93.0099 124.61 93.0199 124.59 93.0299C125.26 92.2299 126.11 91.5599 126.77 90.7299C127.36 90.0699 128.08 89.5399 128.6 88.8199C128.66 88.7399 128.69 88.5799 128.59 88.5099C128.5 88.4499 128.38 88.4999 128.32 88.5699C128.06 88.8699 127.83 89.1699 127.5 89.4199C126.61 90.0699 125.76 90.8299 125.04 91.6799C125.14 91.4199 125.23 91.1499 125.35 90.8899C125.43 90.6599 125.61 90.4199 125.55 90.1699M133.66 88.4199C133.76 88.4799 134.01 88.5199 134.03 88.6399C133.43 89.4499 132.84 90.3499 132.01 90.9499C131.63 91.1399 131.28 91.3299 130.88 91.4799C130.77 91.4999 130.65 91.5099 130.54 91.5399C130.45 91.4899 130.33 91.5299 130.24 91.5499C129.62 91.6899 129.02 91.9499 128.38 91.9999C128.3 91.9999 128.22 91.9999 128.14 92.0099C128.09 92.0099 128.04 92.0099 127.99 92.0299C127.99 92.0299 127.97 92.0299 127.96 92.0299C127.88 92.0399 127.81 92.0699 127.74 92.0799C127.74 92.0699 127.74 92.0599 127.73 92.0399C128.16 91.7999 128.59 91.5799 129.07 91.4399C129.97 91.1199 130.69 90.4499 131.61 90.1699C131.74 90.1099 131.84 89.9399 131.81 89.7899C131.66 89.2499 130.35 90.3399 130.06 90.4999C129.57 90.7799 129.05 91.0199 128.54 91.2699C128.82 90.9799 129.09 90.6799 129.36 90.3899C129.82 89.9999 130.21 89.5399 130.53 89.0299C130.64 88.9699 130.75 88.9099 130.87 88.8599C131.25 88.6799 131.69 88.6199 132.1 88.5099C132.61 88.3699 133.15 88.1899 133.67 88.3999M133.44 85.0799C134.12 85.2499 133.98 85.6599 133.67 86.1299C133.49 86.4999 133.26 86.8099 132.96 87.0899C132.66 87.3599 132.52 87.7799 132.23 88.0599C132.2 88.0599 132.18 88.0699 132.15 88.0799C131.84 88.1299 131.53 88.2199 131.23 88.3399C131.68 87.8099 132.14 86.9699 132.36 86.7399C132.54 86.5299 132.73 86.3399 132.92 86.1399C133 86.0599 133.05 85.8999 132.96 85.8099C132.88 85.7199 132.75 85.7599 132.67 85.8299C132.05 86.3199 131.6 86.9699 131.15 87.5999C131.18 87.4999 131.2 87.3999 131.23 87.2899C131.34 86.8299 131.29 86.3499 131.37 85.8799C131.48 85.4699 131.29 85.3899 131.04 85.3999C131.2 85.3299 131.37 85.2799 131.54 85.2199C132.16 84.9999 132.79 85.0299 133.44 85.0899M130.35 82.4299C130.35 82.4299 130.44 82.4299 130.49 82.4099C130.59 82.3899 130.69 82.3699 130.75 82.4499C130.86 82.6799 131.04 82.8999 131.06 83.1699C131.08 83.6799 130.77 84.1199 130.65 84.5999C130.52 84.8599 130.42 85.1399 130.27 85.3799C130.19 85.4299 130.13 85.5199 130.07 85.5899C130.04 85.6299 129.99 85.6599 129.96 85.7099C129.66 85.8499 129.36 86.0099 129.08 86.1999C129.44 85.6999 129.56 85.0699 129.71 84.4799C129.73 84.2999 130.05 83.8799 129.78 83.7999C129.69 83.7999 129.61 83.8699 129.58 83.9499C129.4 84.3299 129.3 84.7399 129.19 85.1499C129.08 85.4899 128.9 85.7899 128.66 86.0599C128.66 86.0599 128.65 86.0699 128.64 86.0799C128.84 85.3399 128.97 84.5699 129.1 83.8199C129.1 83.5399 128.92 83.4199 128.66 83.3899C129.11 82.8699 129.59 82.3599 130.34 82.4299M126.72 80.4099C127.16 80.1699 127.64 80.0499 128.13 79.8799C128.4 79.7899 128.7 79.7499 128.98 79.7899C129.36 80.9699 129.01 82.3099 128.24 83.2499C128.2 83.3099 128.12 83.3699 128.07 83.4399C127.65 83.5299 127.22 83.6999 127.03 83.7799C126.66 84.0099 126.29 84.2599 125.91 84.4799C125.97 84.3999 126.02 84.3199 126.08 84.2399C126.46 83.6099 126.9 83.0099 127.32 82.4099C127.39 82.3199 127.41 82.1499 127.29 82.0899C127.19 82.0399 127.08 82.1199 127.02 82.1899C126.75 82.5699 126.47 82.9399 126.2 83.3299C126.04 83.5499 125.89 83.7799 125.73 83.9999C125.99 83.0499 126.12 82.0699 126.06 81.0799C126.24 80.8299 126.49 80.6099 126.73 80.3999M124.55 85.1299C123.85 86.8799 122.55 88.2699 121.4 89.7499C121.61 89.1499 121.66 88.4799 121.84 87.8699C121.92 87.6399 121.96 87.4799 121.97 87.3499C122.18 87.0299 122.43 86.7299 122.62 86.3899C122.8 86.0699 124.01 84.3899 123.43 84.2299C123.27 84.1899 123.1 84.3199 123.03 84.4599C122.74 85.0499 122.45 85.6099 122.09 86.1699C121.87 86.5099 121.59 86.8799 121.34 87.2799C121.11 87.4299 120.88 87.6399 120.71 87.8199C120.7 87.8299 120.68 87.8499 120.66 87.8599C120.7 87.7899 120.75 87.7199 120.79 87.6899C121.08 87.3799 121.26 86.9899 121.42 86.6099C121.73 85.8499 121.99 85.1099 122.17 84.2699C122.17 84.2499 122.17 84.2399 122.17 84.2199C122.53 83.7199 122.9 83.2199 123.3 82.7399C123.81 81.9399 124.47 81.2599 125.38 80.9299C125.05 82.3199 124.95 83.7699 124.54 85.1399M120.57 82.1099C120.05 82.1399 120.05 82.8199 119.95 83.2099C119.68 84.0399 119.61 84.9099 119.43 85.7599C119.29 86.3499 119.09 86.9299 118.9 87.5099C118.77 87.9599 118.66 88.4399 118.52 88.9199C118.51 88.7199 118.48 88.5199 118.42 88.3199C118.39 88.2099 118.34 88.0999 118.29 87.9999C118.46 87.7199 118.29 87.2599 118.35 86.9399C118.35 86.9099 118.34 86.8899 118.33 86.8699C118.53 86.1899 118.92 85.5399 118.94 84.8199C118.96 84.2899 118.95 83.7599 118.92 83.2399C118.93 83.1899 118.94 83.1499 118.96 83.0999C119.14 82.5699 119.44 82.1299 119.7 81.6299C120.07 80.9599 120.41 80.2599 121.11 79.8699C121.59 81.0199 121.89 82.2999 121.7 83.5399C121.59 84.0799 121.37 84.5799 121.24 85.1299C121.05 85.8499 121.01 86.6099 120.67 87.2899C120.51 87.5199 120.39 87.7899 120.24 88.0499C120.19 88.1399 120.1 88.2499 120.02 88.3499C119.73 88.5499 119.43 88.7399 119.19 88.9899C119.08 89.1099 118.99 89.2399 118.9 89.3699C119.08 88.9799 119.24 88.5899 119.35 88.1799C119.89 87.0699 120.26 85.8999 120.22 84.6499C120.11 84.1199 121.28 82.1999 120.58 82.1099M123.5 77.5899C123.81 77.4799 124.15 77.3299 124.45 77.5699C124.62 77.9099 124.66 78.2899 124.79 78.6499C124.93 79.0399 125.04 79.4699 124.96 79.8899C124.93 80.0299 124.91 80.1699 124.88 80.3199C124.87 80.3999 124.82 80.5199 124.83 80.6099C124.03 80.9999 123.4 81.6299 122.89 82.3499C122.97 82.0599 123.04 81.7699 123.04 81.4699C123.07 81.0799 123.21 80.6999 123.28 80.3199C123.29 80.2599 123.26 80.1899 123.19 80.1899C123.13 80.1899 123.08 80.2499 123.06 80.3099C122.93 80.6999 122.8 81.1299 122.73 81.5399C122.62 81.8799 122.47 82.2099 122.34 82.5499C122.39 81.5999 122.29 80.6399 121.75 79.8399C121.69 79.7299 121.62 79.6499 121.56 79.5899C121.59 79.5299 121.61 79.4499 121.58 79.3899C121.92 78.5499 122.61 77.8499 123.48 77.5899M120.23 77.2599C120.37 77.4199 120.4 77.6299 120.51 77.8099C120.7 78.0199 120.75 78.2399 120.84 78.5099C120.96 78.7599 121.14 78.9699 121.15 79.2599C121.16 79.3199 121.15 79.3799 121.12 79.4399C120.95 79.4899 120.78 79.6399 120.57 79.8399C120.01 80.3499 119.54 80.9699 119.16 81.6499C119.22 81.3499 119.28 81.0499 119.42 80.7299C119.48 80.4399 119.47 80.1599 119.55 79.8699C119.58 79.6799 119.35 79.7199 119.33 79.8699C119.18 80.3499 119.12 80.8599 118.91 81.3199C118.84 81.5299 118.83 81.7599 118.78 81.9699C118.77 81.6899 118.69 81.4099 118.6 81.1399C118.74 80.9499 118.68 80.4599 118.67 80.2899C118.67 80.2299 118.64 80.1999 118.61 80.1899C118.61 80.1599 118.61 80.1399 118.6 80.1199C118.98 79.0999 119.37 77.9599 120.23 77.2499M118.36 80.4399H118.38C118.38 80.4399 118.38 80.4899 118.38 80.5199C118.38 80.4899 118.38 80.4699 118.37 80.4399M115.92 86.3999C115.67 85.5399 115.13 84.7899 115.26 83.8499C115.35 83.0699 115.07 82.3299 115.14 81.5499C115.26 80.8599 115.29 80.1499 115.43 79.4599C115.58 78.7999 116.02 78.2999 116.32 77.7099C116.88 77.9899 117.16 78.5399 117.45 79.0599C117.73 79.4799 117.99 79.8899 118 80.4199C118.04 80.8799 118.15 81.3299 118.16 81.8099C118.01 82.6999 118 83.6099 117.96 84.5199C117.92 84.9999 117.98 85.5999 117.95 86.1099C117.96 86.3899 117.84 86.6399 117.76 86.8999C117.74 86.8499 117.7 86.7999 117.64 86.7899C117.54 86.7799 117.45 86.8199 117.37 86.8799C117.2 86.5399 116.97 86.2299 116.83 85.8699C116.77 85.1899 116.7 84.5399 116.63 83.8499C116.6 82.9599 116.86 82.0599 116.58 81.1799C116.51 80.8999 116.46 80.5999 116.43 80.3099C116.41 80.1699 116.26 80.1099 116.14 80.1599C115.75 80.3399 115.94 80.8399 115.92 81.1799C116.11 82.5599 116.33 83.9099 116.42 85.3099C116.38 86.0199 116.77 86.6099 117.08 87.2199C117.08 87.2199 117.08 87.2299 117.07 87.2399C116.89 87.4599 116.74 87.6899 116.59 87.9299C116.26 87.4699 115.96 87.0199 115.91 86.4199M102.44 65.0699C102.36 65.1999 102.25 65.3399 102.23 65.4999C101.83 65.7999 101.46 66.1299 101.11 66.4899C101.56 65.7999 102.14 65.2199 102.73 64.6499C102.63 64.7799 102.53 64.9199 102.44 65.0699ZM115.99 59.9099C116.22 60.8099 115.32 61.4899 114.65 61.9099C114.32 62.1499 114.03 62.4499 113.68 62.6599C113.18 62.9299 112.62 63.0599 112.1 63.2999C111.45 63.6399 110.76 63.8599 110.08 64.1199C109.33 64.3999 108.68 64.8999 107.89 65.0899C106.35 65.4299 104.78 65.6499 103.31 66.2499C103.06 66.3999 102.84 66.5899 102.63 66.7999C102.66 66.5999 102.69 66.3999 102.72 66.1799C102.74 65.9799 102.82 65.7599 102.8 65.5599C103.78 64.0999 105.31 63.1299 106.82 62.2799C108.18 61.7199 109.61 61.4099 111.03 61.0399C111.71 60.8499 112.39 60.7399 113.09 60.6899C114.09 60.5799 115.04 60.2199 115.98 59.8899M113.91 54.9499C113.85 56.0299 113.5 57.1799 112.82 58.0399C112.22 58.6399 111.59 59.2199 110.93 59.7399C110.87 59.7999 110.77 59.8699 110.68 59.9499C110.61 60.0199 110.57 60.1099 110.56 60.2099C109.96 60.3299 109.36 60.4599 108.77 60.6299C107.83 61.0399 106.96 61.5999 106.09 62.1399C105.25 62.5799 104.41 63.0599 103.69 63.6699C103.84 63.4999 103.99 63.3199 104.12 63.1299C104.56 62.6799 105.1 62.2599 105.51 61.7599C105.84 61.3699 106.1 60.9699 106.5 60.6399C106.91 60.2999 107.42 60.1199 107.86 59.8299C108.65 59.2399 109.43 58.7299 110.32 58.2699C110.63 58.1199 110.5 57.4599 110.12 57.5899C109.61 57.8099 109.08 58.0299 108.65 58.3799C108.15 58.7899 107.75 59.3099 107.22 59.6699C105.97 60.6399 104.77 61.6899 103.81 62.9599C103.23 63.5499 102.67 64.1499 102.18 64.8099C101.71 65.2699 101.24 65.7599 100.89 66.3199C100.91 66.1799 100.93 66.0499 100.95 65.9199C101.02 65.8599 101.02 65.7699 100.99 65.6899C101.16 65.3199 101.31 64.9399 101.5 64.5799C101.9 63.9599 102.52 63.5399 103.12 63.1099C104.12 62.1999 105.22 61.3599 106.04 60.2699C106.32 59.8599 106.5 59.3999 106.73 58.9699C107.28 58.4299 107.97 58.0099 108.5 57.4299C109.15 56.8999 109.97 56.6499 110.72 56.2899C111.76 55.7999 112.8 55.2199 113.92 54.9499M110.22 52.9199C110.74 52.5099 111.16 51.9299 111.82 51.7199C112.07 51.6599 112.41 51.4099 112.4 51.8399C112.46 52.6299 112.44 53.4499 112.05 54.1599C111.93 54.4199 111.57 54.6799 111.81 54.9899C111.84 55.0199 111.86 55.0299 111.88 55.0399C110.77 55.3599 109.64 55.7799 108.79 56.6099C108.4 56.9599 108.05 57.3499 107.65 57.6899C108.29 56.7199 108.5 55.5499 108.61 54.3899C109.02 53.7899 109.65 53.3899 110.21 52.9299M108.18 52.9199C107.7 54.3399 107.91 55.8999 107.35 57.2899C107.13 57.7499 106.74 58.0999 106.44 58.4999C106.27 58.7199 106.14 58.9499 105.99 59.1899C105.9 59.3099 105.82 59.4299 105.76 59.5499C105.67 59.6899 105.57 59.8299 105.45 59.9599C104.64 60.7399 103.79 61.4699 103.06 62.3399C102.33 63.2699 101.27 63.9399 100.73 64.9999C100.71 65.0399 100.69 65.0799 100.67 65.1199C100.67 65.0699 100.67 65.0199 100.65 64.9699C100.63 64.8899 100.59 64.8399 100.54 64.7999C100.65 64.6099 100.78 64.4099 100.86 64.2099C101.71 62.2599 103.22 60.7099 104.47 59.0099C104.63 58.7999 104.54 58.3599 104.24 58.3599C103.4 58.9399 103.1 60.0999 102.37 60.8099C101.5 61.5799 100.91 62.5499 100.49 63.6299C100.27 64.1499 99.8002 64.6799 99.7902 65.2499C99.6402 65.4199 99.5002 65.5999 99.3902 65.7799C99.1202 66.1399 98.9202 66.5399 98.7502 66.9499C98.7302 66.4099 98.6602 65.9199 98.5602 65.5999C98.5802 65.5399 98.5902 65.4699 98.6002 65.4099C98.7502 64.5399 99.2002 63.7699 99.6802 63.0399C100.15 62.2399 100.63 61.4399 101.06 60.6099V60.5999C101.15 60.5399 101.22 60.3999 101.22 60.1999C101.28 60.0599 101.33 59.9099 101.39 59.7699C101.75 59.0899 102.22 58.4799 102.7 57.8499C103.28 57.1899 103.67 56.3699 104.37 55.8099C104.89 55.4199 105.43 55.0299 105.91 54.5799C106.66 54.0199 107.55 53.6299 108.15 52.8899M103.45 49.3899C103.69 49.0199 104.04 48.7499 104.41 48.5099C105 48.1199 105.61 47.7499 106.31 47.6299C106.59 47.5899 106.95 47.4899 107.06 47.8399C107.24 48.8699 107.27 49.9899 107.36 51.0399C107.35 51.5399 107.3 52.0699 107.07 52.5199C107.03 52.6399 106.93 52.7599 106.85 52.8799C106.67 52.9999 106.48 53.1199 106.3 53.2499C105.64 53.7099 105.26 54.4399 104.65 54.9399C103.89 55.5299 103.12 56.1099 102.6 56.9399C102.48 57.1199 102.36 57.2899 102.22 57.4699C102.56 56.3499 102.83 55.2199 102.96 54.0599C103.24 53.1899 103.3 52.2899 103.21 51.3799C103.21 51.1199 103.14 50.5399 102.96 50.1299C103.11 49.8699 103.28 49.6099 103.45 49.3599M102.38 50.6899C102.6 52.1199 102.68 53.6399 102.44 55.0999C102.11 56.2899 101.49 57.3699 101.03 58.4999C100.67 59.2299 100.51 60.0399 100.16 60.7699C99.7802 61.3899 99.6602 62.0699 99.3402 62.7299C99.0602 63.2799 98.7002 63.7899 98.4202 64.3399C98.4002 64.3499 98.3702 64.3699 98.3602 64.3999C98.1402 64.8899 97.9802 65.3899 97.6002 65.7999C97.4602 65.9599 97.3502 66.1399 97.2402 66.3299C97.4102 65.8999 97.5802 65.4799 97.7002 65.0499C97.9602 64.1399 98.1302 63.2099 98.4302 62.3099C98.8502 61.3899 99.0502 60.3999 99.3102 59.4299C99.5502 58.7699 99.8502 58.1399 100.09 57.4799C100.34 56.8299 100.57 56.1599 100.74 55.4799C100.87 55.1399 100.56 54.5499 100.15 54.7999C99.8102 55.2099 99.7302 55.8699 99.5702 56.3699C99.4102 57.4599 98.9202 58.4199 98.5002 59.4199C98.1402 60.6399 97.9302 62.0199 97.7202 63.2999C97.4602 64.4099 97.0502 65.4699 96.6502 66.5299C96.6502 66.4999 96.6402 66.4799 96.6302 66.4499C96.7902 66.2399 96.5602 65.8399 96.5502 65.5899C96.5102 65.3699 96.4502 65.1599 96.4302 64.9399C96.4302 64.9099 96.4402 64.8799 96.4502 64.8599C96.4502 64.8599 96.4502 64.8599 96.4502 64.8499C96.4502 64.8499 96.4502 64.8499 96.4502 64.8399C96.7202 63.7199 97.0902 62.5999 97.4202 61.4799C97.7002 60.2699 97.7602 59.0199 97.6902 57.7799C97.7502 57.6999 97.7702 57.5599 97.7102 57.4799C97.9102 56.5299 98.1602 55.4999 98.6502 54.6399C99.0202 54.1099 99.5902 53.7799 100.01 53.2899C100.74 52.3599 101.46 51.4399 102.37 50.6799M96.8602 48.6799C97.1202 48.1299 97.1402 47.4899 97.4202 46.9499C97.7502 46.5399 98.2102 46.2699 98.5302 45.8499C98.9602 45.4699 99.1502 44.8999 99.5702 44.5299C100.02 45.4599 99.8302 46.5699 99.9602 47.5699C100.04 48.6399 100.16 49.7099 100.01 50.7699C99.9602 51.2699 99.8602 51.7499 99.6302 52.1899C99.5302 52.4699 99.1902 53.0099 99.1502 53.4199C98.7702 53.9199 98.4102 54.4199 98.1102 54.9699C98.0502 55.0999 98.0002 55.2299 97.9502 55.3699C97.9502 55.3399 97.9502 55.2999 97.9502 55.2699C98.0302 54.6099 98.2102 53.9699 98.2402 53.2999C98.4502 51.9999 98.7102 50.6699 98.9602 49.3699C99.0502 48.9699 98.5502 48.6599 98.3902 49.1299C98.0602 50.4099 98.3202 51.7599 97.8502 53.0199C97.6602 53.8699 97.5102 54.7299 97.4502 55.6099C97.4502 55.5499 97.4302 55.4799 97.4202 55.4099C97.2302 53.9699 97.5702 52.3499 96.8802 51.0099C96.7702 50.7999 96.6202 50.6199 96.4802 50.4299C96.5202 49.8299 96.5502 49.2199 96.8602 48.6799ZM95.2802 49.6899C95.6402 50.3399 96.1002 50.9499 96.3702 51.6499C96.5602 52.2399 96.6602 52.8499 96.8102 53.4399C97.3702 56.1199 97.0902 58.8899 96.7502 61.5999C96.7502 61.6099 96.7402 61.6199 96.7302 61.6399C96.3902 62.5999 96.0802 63.5599 95.7002 64.5099C95.6802 64.5999 95.6802 64.6699 95.7002 64.7299C95.6702 64.8099 95.6402 64.8899 95.6402 64.9699C95.4402 65.2599 95.2602 65.6899 95.1602 65.8099C94.9702 66.1499 94.7602 66.4999 94.5702 66.8599C94.5702 66.8599 94.5702 66.8599 94.5702 66.8499C94.5802 66.7399 94.5802 66.5399 94.5802 66.2899C94.7002 65.6199 94.8702 64.9599 95.0302 64.2799C95.2102 63.3399 95.2302 62.3699 95.4102 61.4299C95.7002 60.1799 95.5502 58.9099 95.5202 57.6399C95.4602 57.1999 95.7602 55.5399 95.1502 55.5399C94.9302 55.5499 94.8502 55.7999 94.8602 55.9799C94.9802 57.8499 94.8502 59.7199 94.9702 61.5899C94.9702 62.6699 94.7102 63.6999 94.4402 64.7299C94.3402 64.1999 94.1802 63.7599 93.9302 63.6799C93.9302 63.1899 93.8902 62.6999 93.9002 62.2099C93.8802 61.6599 93.8502 61.1199 93.8102 60.5699C93.9702 60.0099 93.6002 58.4299 93.5802 58.0199C93.5102 56.8399 93.4402 55.6199 93.4802 54.4099C93.4902 54.3399 93.4802 54.2699 93.4802 54.1999C93.6802 53.4099 93.9202 52.6399 94.2202 51.8899C94.6502 51.1999 94.9602 50.4499 95.3002 49.7099M93.1802 63.0599C93.2302 63.3499 93.2702 63.6399 93.2902 63.9399C93.2902 64.0699 93.2902 64.1999 93.3502 64.3099C93.3102 64.4199 93.2702 64.5399 93.2402 64.6499C93.2402 64.0499 93.1702 63.3499 93.1802 63.0499M91.5602 48.8099C91.6302 48.0599 92.1002 47.4499 92.4102 46.7899C92.6602 46.3399 92.7502 45.8099 93.0602 45.3999C93.4702 45.9499 93.6702 46.5299 93.8702 47.1899C94.2702 48.0999 94.4202 49.0699 94.4502 50.0499C94.2902 50.4899 94.1602 50.9199 94.0902 51.0899C93.8302 51.8799 93.5002 52.6599 93.2402 53.4499C93.3402 52.7299 93.4702 52.0199 93.4402 51.2999C93.3502 50.2299 93.2402 49.1699 93.1902 48.0999C93.1602 47.7599 92.7802 47.7899 92.8002 48.1299C92.8902 49.5199 92.9802 50.8899 92.8902 52.2999C92.8902 52.4099 92.8702 52.5299 92.8502 52.6399C92.7602 52.0099 92.6402 51.3899 92.3902 50.7899C92.2002 50.2699 91.9002 49.8099 91.5602 49.3899C91.5502 49.1999 91.5402 49.0099 91.5602 48.8199M89.4502 54.6499C89.3302 53.9899 89.2102 53.3299 89.0802 52.6699C88.7002 51.2699 89.0102 49.8499 89.3002 48.4699C89.4002 48.4099 89.4902 48.3299 89.5802 48.2599C89.9802 48.7699 90.5402 49.1299 90.9002 49.6699C91.3602 50.3999 91.6302 51.2799 91.8902 52.1099C93.0302 55.1199 92.7702 58.3499 92.9502 61.5099C92.9702 61.6799 92.9902 61.8399 93.0202 62.0099C92.8502 61.3999 92.6002 60.7999 92.4502 60.1899C92.1102 59.1099 91.9102 57.9899 91.6702 56.8899C91.6302 55.8999 91.3702 54.9399 91.1502 53.9699C91.0202 53.6999 90.9302 52.5399 90.5202 52.7099C90.2702 52.8499 90.3902 53.1699 90.4402 53.3899C90.6002 53.9999 90.6202 54.6399 90.7002 55.2599C90.9402 56.6699 91.2102 58.0699 91.6902 59.4199C91.6902 59.4499 91.7002 59.4799 91.7102 59.5199C91.1002 58.0099 90.3502 56.5499 89.6602 55.0899C89.5902 54.9599 89.5302 54.8399 89.4602 54.7099C89.4602 54.6899 89.4602 54.6699 89.4602 54.6499M84.6502 50.2199C85.0102 50.5699 85.4302 50.8399 85.8302 51.1199C86.1202 51.4499 86.4402 51.7399 86.7802 51.9999C87.6802 52.9299 88.4002 54.0199 89.0902 55.1099C89.1302 55.2699 89.1902 55.3999 89.2902 55.4299C89.9202 56.8299 90.3402 58.3299 90.8202 59.7899C91.2202 61.2199 91.8002 62.5799 92.1902 64.0399C92.4502 64.8399 92.7202 65.6799 92.6502 66.5599C92.4502 65.9499 92.1502 65.3899 91.9202 64.7999C91.7002 64.0399 91.4002 63.3199 91.0002 62.6399C90.5402 61.6399 90.2502 60.5599 89.6902 59.6099C89.3302 59.0499 88.7802 58.6499 88.4202 58.0799C88.0602 57.4999 87.8002 56.8699 87.4302 56.3099C87.2002 56.0399 86.9702 56.4499 87.1202 56.6599C87.7902 57.7499 88.4002 58.8799 89.0602 59.9799C89.4802 60.9399 89.6502 61.8799 90.1502 62.8499C90.3602 63.2699 90.6402 63.6599 90.8602 64.0799C90.9102 64.1899 90.9502 64.3099 91.0002 64.4299C90.9102 64.2699 90.7602 64.1099 90.6202 64.1199C90.5102 63.9299 90.3702 63.7499 90.2402 63.5499C89.2502 62.2599 88.5302 60.5699 87.3502 59.3799C86.9802 59.0799 86.6202 58.7999 86.2602 58.4999C86.2602 58.4899 86.2502 58.4799 86.2402 58.4599C86.1302 58.2299 86.0302 57.9799 85.9402 57.7399C85.5702 56.5699 85.3402 55.3499 84.9402 54.1899C84.6902 52.8799 84.5902 51.5499 84.6602 50.2099M88.6002 64.2599C88.3102 63.7599 88.1302 63.2099 87.8002 62.7399C87.3802 62.0899 86.6802 61.7199 86.1002 61.2399C85.6302 60.7699 85.2902 60.1799 84.7702 59.7599C84.7002 59.6999 84.6202 59.6599 84.5302 59.6799C84.2602 59.7699 84.2402 60.1799 84.4302 60.3599C85.2702 61.3199 86.3302 62.0299 87.1902 62.9599C87.7402 63.6499 88.2302 64.3899 88.7502 65.0999C89.0802 65.6399 89.3302 66.2599 89.7402 66.7599C89.8602 66.8999 89.9302 67.1299 90.0102 67.3299C89.6502 66.9799 89.2502 66.6499 88.9202 66.2799C88.9102 66.2599 88.8902 66.2499 88.8802 66.2399C88.8302 66.0899 88.7502 65.9499 88.6802 65.8299C88.2502 65.0599 87.6402 64.3999 86.8802 63.9399C86.0202 63.3599 85.5202 62.3699 84.7002 61.7399C83.7402 61.0799 83.0502 60.1499 82.3502 59.2399C81.1202 58.0099 79.7702 56.6999 79.4102 54.9299C80.6202 55.3299 81.7402 55.9799 82.9002 56.5599C83.2902 56.7199 83.7202 56.7999 84.0802 57.0499C84.5002 57.3699 84.8002 57.7999 85.2002 58.1599C85.7702 58.9199 86.3302 59.6799 86.8802 60.4499C87.3502 61.1799 87.7402 61.9799 88.3802 62.5899C89.0202 63.2799 89.9002 63.8299 90.2202 64.7499C90.2302 64.8399 90.2602 64.9099 90.2902 64.9699C90.2802 65.2099 90.2902 65.4599 90.3202 65.6999C90.3502 66.4699 90.4502 67.2299 90.5802 67.9799C90.5002 67.8699 90.4102 67.7599 90.3202 67.6499C90.6802 67.3299 88.7802 64.6399 88.6302 64.2699M79.1002 49.8599C79.1002 49.8599 79.1502 49.8199 79.1802 49.8099C80.0902 49.6699 81.0402 49.8199 81.8302 50.3299C82.5002 50.8499 83.1502 51.4099 83.6802 52.0899C83.7702 52.2199 83.8802 52.3399 83.9502 52.4899C83.9602 52.5099 83.9802 52.5299 84.0002 52.5299C84.2202 53.5899 84.5802 54.6299 84.8802 55.6699C84.9202 55.9099 85.1902 56.9599 85.5202 57.8699C85.4602 57.8099 85.4002 57.7599 85.3402 57.6999C85.4502 57.2499 84.5402 56.2899 84.3602 55.9999C83.9302 55.4599 83.5602 54.8799 83.2202 54.2799C82.4802 53.1099 81.5902 52.0399 80.7202 50.9699C80.3502 50.5599 80.0102 51.2399 80.2802 51.5499C80.8702 52.5299 81.8502 53.1199 82.5702 53.9899C82.9902 54.5499 83.1802 55.2199 83.6202 55.7999C83.7402 55.9599 83.8602 56.1199 83.9802 56.2799C83.4002 55.8699 82.6702 55.5999 82.0702 55.1999C81.4302 54.8699 80.7602 54.6199 80.0802 54.3999C79.9302 54.3499 79.7702 54.2899 79.6002 54.2399C79.6002 54.1999 79.6002 54.1699 79.5902 54.1299C79.5502 53.6899 79.3002 52.9799 79.3002 52.7999C79.1602 52.0699 79.1102 51.3299 79.0702 50.5999C79.0702 50.3799 79.0702 50.1099 79.1002 49.8599ZM75.9902 55.5199C75.6002 54.8199 75.1202 54.1599 74.9202 53.3799C75.6802 53.3399 76.4802 53.1799 77.2202 53.4299C77.8902 53.6199 78.6002 53.7899 79.1702 54.2199C79.1002 54.2399 79.0402 54.2599 78.9702 54.3099C78.5802 54.6999 79.6102 56.5799 79.8502 57.1199C80.1302 57.7999 80.5402 58.4799 80.9802 59.0699C81.7102 59.8499 82.5602 60.5099 83.2602 61.3099C83.6402 61.6999 84.0402 62.0499 84.4602 62.3899C83.8102 62.0999 83.1502 61.8699 82.4902 61.5899C81.3602 61.1099 80.3302 60.4599 79.2402 59.9099C79.2402 59.7999 79.2102 59.6999 79.1502 59.6099C78.7902 59.2199 78.3802 58.8799 78.0202 58.4899C77.2702 57.5499 76.4502 56.6399 75.9902 55.5199ZM73.5702 60.1899C73.0002 59.6799 72.5102 59.0199 72.0302 58.4199C72.6502 58.3799 73.2902 58.2699 73.9002 58.3999C74.3102 58.4899 74.7602 58.7099 75.1902 58.8099C76.2502 59.0399 77.2502 59.4699 78.2102 59.9699C78.4102 60.0099 78.7302 60.2999 78.9702 60.3299C80.4102 61.4399 82.2802 61.7799 83.8202 62.7099C84.1702 62.9299 84.5102 63.1599 84.8702 63.3699C85.4202 63.7199 85.8402 64.2499 86.4102 64.5799C86.9102 64.9099 87.4602 65.1599 87.8902 65.5899C88.0002 65.6899 88.0902 65.7899 88.1802 65.8999C88.2902 66.0799 88.3802 66.2799 88.4402 66.4799C88.4802 66.8699 88.6902 67.2799 88.7602 67.6599C88.8102 67.9499 88.8802 68.2299 88.9602 68.4999C88.4402 67.5699 87.9502 66.5799 86.9902 66.0199C86.3002 65.5899 85.6702 65.0299 84.9102 64.7199C83.8002 64.2299 82.8502 63.5599 81.8002 62.9199C81.6702 62.7699 81.5002 62.9499 81.5202 63.0999C81.5802 63.4099 81.9502 63.5199 82.1802 63.6999C82.8002 64.0699 83.3602 64.5499 84.0402 64.8399C84.8102 65.1199 85.6002 65.4099 86.1402 66.0799C86.8202 66.7799 87.8502 67.1699 88.2602 68.1099C88.3102 68.2899 88.3602 68.4699 88.4302 68.6499C88.2902 68.5499 88.1502 68.4399 88.0002 68.3399C87.6802 68.1699 87.3402 67.9399 86.9802 67.8699C86.9002 67.7399 86.7602 67.6499 86.6502 67.5499C86.0502 67.0199 85.4902 66.4199 84.7602 66.0899C83.3202 65.4699 81.7202 65.1999 80.3802 64.5399C79.4202 64.0899 78.4402 63.6499 77.5902 63.0099C76.8902 62.5999 76.1002 62.3299 75.4002 61.9099C74.6802 61.4699 74.1902 60.7599 73.5702 60.2099M89.2302 69.2299C89.1702 69.1899 89.1202 69.1499 89.0702 69.1099C89.1002 69.0699 89.1102 69.0199 89.1202 68.9799C89.1502 69.0699 89.2002 69.1499 89.2302 69.2399M82.5102 66.9299C81.9002 67.0799 81.2802 67.2099 80.6402 67.2099C78.4002 67.0499 76.1102 66.9999 74.0002 66.1299C73.3902 65.8499 72.8302 65.4799 72.2302 65.1899C71.3402 64.7799 70.4202 64.3899 69.8002 63.5999C70.8302 63.3599 71.9102 63.2899 72.9702 63.1999C74.0902 63.2199 75.1802 63.4599 76.2502 63.7699C76.3802 63.7999 76.4802 63.7299 76.5302 63.6399C76.5802 63.6699 76.6302 63.6999 76.6902 63.7399C77.4702 64.3399 78.2302 65.0199 79.2302 65.1999C79.9402 65.4299 80.6602 65.5899 81.4202 65.6899C82.1202 65.8299 82.7502 66.1699 83.3702 66.5299C83.8302 66.7699 84.3602 66.7999 84.8202 67.0299C84.5902 66.9999 84.3602 66.9899 84.0902 66.9799C83.5702 66.9499 83.0402 66.8699 82.5202 66.9499M89.3902 88.6499C87.8902 88.2599 86.6602 87.2599 85.3302 86.5199C84.1502 85.4299 83.1402 84.1599 82.2302 82.8399C81.4902 81.5299 80.7902 80.2099 79.9702 78.9499C79.5002 78.1099 78.7502 77.4399 78.3502 76.5699C79.5102 76.7099 80.5102 77.4199 81.5302 77.9599C82.7102 78.3399 83.8002 78.9099 84.8402 79.5799C85.6702 79.9799 86.4002 80.5199 87.0902 81.1399C87.8602 81.7799 88.7602 82.2399 89.5402 82.8699C90.4402 83.4099 91.3202 83.9699 91.9602 84.8299C92.2502 85.1899 92.5702 85.5299 92.7802 85.9499C93.0002 86.3999 93.2002 86.8699 93.4002 87.3399C93.4402 87.4299 93.5002 87.5199 93.6102 87.5199C93.6402 87.5199 93.6702 87.5099 93.7002 87.4899C93.7402 87.8699 93.7802 88.2499 93.7702 88.6399C93.7702 89.0899 93.7502 89.5799 93.7202 90.0499C92.7102 88.7799 90.7702 89.2899 89.4102 88.6499M104.85 124.31C104.88 124.19 104.91 124.08 104.94 123.96C104.94 123.95 104.94 123.94 104.95 123.93C104.92 124.06 104.89 124.19 104.86 124.33C104.86 124.33 104.86 124.32 104.85 124.31ZM110.35 112.57C111.94 110.43 113.87 108.36 116.52 107.59C117.82 107.01 119.22 106.87 120.61 106.68C121.44 106.51 122.31 106.53 123.18 106.56C123.64 106.57 124.11 106.59 124.56 106.57C126.26 106.51 127.92 106.07 129.63 106.28C130.33 106.45 131.04 106.61 131.72 106.82C128.62 109.71 127.97 108.32 124.61 109.22C123.19 109.66 121.99 110.59 120.65 111.23C119.47 111.66 118.05 112.14 116.84 112.47C115.9 112.55 114.96 112.88 114.02 113.02C112.7 113.24 111.33 113.43 110.13 114.08C109.66 114.35 109.2 114.69 108.78 115.06C108.78 115.05 108.79 115.03 108.8 115.02C109.3 114.32 109.7 113.56 110.05 112.79C110.14 112.79 110.26 112.73 110.33 112.58M122.28 97.6499C121.2 97.6899 120.17 98.0799 119.13 98.3199C118.34 98.4699 117.28 98.6399 116.85 99.4199V99.4099C116.85 99.3999 116.86 99.3799 116.87 99.3699C116.85 99.3999 116.84 99.4399 116.82 99.4799C116.57 99.6099 116.37 100.06 116.22 100.26C115.59 101.53 114.39 102.42 113.58 103.58C112.12 105.42 111.85 107.91 110.78 109.96C110.06 111.05 109.36 112.14 108.87 113.35C108.33 114.54 107.59 115.62 107.14 116.84C106.89 117.52 106.71 118.21 106.54 118.9C106.42 119.22 106.31 119.55 106.25 119.87C106.18 120.08 105.96 120.42 106.01 120.65C105.91 120.82 105.82 121.01 105.74 121.09C105.52 121.45 105.27 121.8 105.05 122.18C105 122.26 104.94 122.36 104.89 122.48C104.84 122.58 104.79 122.69 104.75 122.79C104.54 123.12 104.34 123.47 104.31 123.86C104.25 124.08 104.22 124.37 104.2 124.68C104.14 124.98 104.13 125.24 104.18 125.43C104.18 125.98 104.2 126.49 104.18 126.66C104.18 126.67 104.18 126.68 104.18 126.69C104.15 127.36 104.15 128.02 104.15 128.69C104.19 129.83 104.03 130.94 104.19 132.09C104.19 133.27 104.12 134.45 104.28 135.63C104.41 136.91 104.62 138.18 104.77 139.46C104.79 140.43 104.61 141.37 104.67 142.37C104.81 143.67 104.96 144.95 104.97 146.26C105.09 147.7 105.25 149.15 105.02 150.59C104.8 152.03 104.38 153.38 103.73 154.72C103.4 155.37 103.04 156.01 102.74 156.68C102.68 156.81 102.6 156.95 102.54 157.09C102.9 155.5 102.77 151.17 102.8 150.75C102.83 148.38 103.06 146 102.99 143.63C102.92 142.13 102.8 140.63 102.89 139.12C103.07 136.89 103.23 134.62 102.84 132.4C102.61 130.65 102.19 129.04 101.5 127.36C101.26 126.59 100.98 125.8 100.55 125.12C100.39 124.73 100.06 124.39 99.8002 124.08C99.1802 123.31 98.4402 122.65 97.6002 122.13C97.3702 121.98 97.1502 121.81 96.9302 121.62C96.9002 121.59 96.8602 121.56 96.8302 121.53C96.2202 120.99 95.6602 120.36 95.0702 119.82C93.9802 118.92 92.7402 118.22 91.5402 117.47C89.9402 116.46 88.4502 115.28 86.7702 114.39C84.9302 113.3 83.3102 111.89 81.8002 110.38C80.2202 108.66 79.2402 106.55 78.4002 104.39C78.0802 103.54 77.4702 102.7 76.9502 101.95C76.4602 101.25 76.1502 100.46 75.7102 99.7399C78.6502 100.47 81.3102 102.15 83.8502 103.76C84.8802 104.44 85.6102 105.51 86.6002 106.24C87.2102 106.71 87.9002 107.07 88.4602 107.61C88.9302 108.06 89.3002 108.59 89.8002 109.01C91.5602 110.27 92.7002 112.04 94.1202 113.67C95.0102 114.53 95.7102 115.51 96.4102 116.55C97.6702 118.12 98.7802 119.75 100.08 121.31C100.31 121.62 100.53 121.93 100.72 122.25C100.85 122.55 101.19 122.74 101.47 122.5C101.92 122.08 101.63 121.36 101.12 120.66C101.09 120.57 101.07 120.49 101.05 120.42C100.6 119.52 100.66 118.5 100.34 117.56C100.12 116.91 99.8602 116.28 99.6602 115.62C99.4902 115.03 99.4702 114.44 99.2702 113.84C98.7902 112.36 98.1902 110.93 97.8502 109.41C97.4902 107.84 97.2902 106.24 96.8402 104.7C96.7102 104.05 96.3802 103.47 96.1502 102.86C96.0102 102.36 95.9702 101.84 95.9302 101.32C95.8602 99.5599 95.4202 97.8899 95.3402 96.1199C95.1502 95.0699 94.9302 94.0199 94.6702 92.9799C94.5002 92.4499 94.3102 91.9199 94.3602 91.3599C94.3402 91.0599 94.5102 90.5199 94.1202 90.4299C94.1202 90.0799 94.1502 89.7299 94.1502 89.3799C94.1502 88.6799 94.0202 87.9899 94.0202 87.2899C94.0202 86.4799 94.0802 85.6399 94.0402 84.8299C94.0002 83.9699 93.8902 83.1199 93.8702 82.2599C93.8502 81.1699 94.1002 80.0199 94.1202 78.9199C94.1002 78.5599 94.1602 77.5799 93.9502 77.0399C93.9502 76.9399 93.9502 76.8499 93.9502 76.7499C93.9502 75.9799 93.4102 75.3799 92.9702 74.7999C92.5602 74.2699 91.9402 73.9699 91.4902 73.4899C90.9102 72.6499 90.0702 72.0599 89.2602 71.4699C88.7402 71.0099 88.4502 70.3899 88.0402 69.8299C87.8702 69.6099 87.7002 69.3899 87.5402 69.1599C87.5802 69.0699 87.5802 68.9599 87.4802 68.9099C87.4602 68.8799 87.4402 68.8499 87.4202 68.8099C87.4202 68.8099 87.4302 68.8099 87.4402 68.8199C87.9202 69.0799 88.3302 69.3699 88.8002 69.6799C89.1802 69.8799 89.5402 70.1099 89.8702 70.3799C90.0202 70.6299 90.1302 70.9299 90.3502 71.0799C90.4302 71.0999 90.4802 71.0799 90.5302 71.0399C90.5602 71.0599 90.5902 71.0699 90.6202 71.0699C90.6702 71.0699 90.7102 71.0499 90.7402 71.0099C90.8202 70.9099 90.8102 70.7599 90.7402 70.6599C90.5602 70.4199 90.3802 70.1899 90.1702 69.9799C89.9802 69.7199 89.7902 69.4699 89.6202 69.1999C89.3602 68.6299 89.1602 68.0599 89.0302 67.4399C89.6502 68.0599 90.3102 68.6499 90.7302 69.4399C90.9502 69.8899 90.9902 70.3799 91.1702 70.8499C91.1702 70.8599 91.1702 70.8799 91.1802 70.8899C91.2702 71.1799 91.4602 71.1799 91.5802 71.0699C91.6002 71.0699 91.6202 71.0499 91.6402 71.0399C91.8302 70.9099 91.8502 70.6299 91.7702 70.4299C91.6502 70.1499 91.5302 69.8599 91.4102 69.5799C91.0602 68.1499 90.6502 66.7199 90.7302 65.2299C91.0302 65.8199 91.4102 66.3699 91.6802 66.9799C92.1002 68.2999 92.5702 69.6099 92.9102 70.9499C92.9502 71.1099 93.0902 71.2699 93.2602 71.2699C93.2802 71.2699 93.3102 71.2699 93.3302 71.2599C93.8702 71.0799 93.4802 69.8999 93.4002 69.4799C93.3802 69.4199 93.3502 69.3599 93.3302 69.2999C93.3002 68.8699 93.2702 68.4499 93.2502 68.0199C93.2502 66.9799 93.2902 65.9199 93.7502 64.9599C93.8902 65.5999 93.9902 66.2399 93.8902 66.8899C93.9302 67.4799 93.9602 68.0699 94.0302 68.6599C94.0302 68.6599 94.0302 68.6699 94.0302 68.6799C94.0302 68.7099 94.0302 68.7299 94.0302 68.7599C94.0402 68.8099 94.0702 68.8399 94.1102 68.8599C94.3002 69.1699 94.7302 69.0699 94.7602 68.6099C94.7802 68.3199 94.7402 68.0299 94.7002 67.7499C95.0402 66.8899 95.6102 66.1399 95.9602 65.2899C96.0402 66.5999 96.5202 67.9099 96.2302 69.2199C96.1702 69.5199 95.9802 69.9999 96.3602 70.1599C96.3802 70.1599 96.4002 70.1599 96.4202 70.1599C96.8202 70.1599 96.8202 69.2799 96.9102 68.9899C96.9202 68.8899 96.9202 68.7899 96.9302 68.6999C97.2602 67.8799 97.6202 67.0699 98.0902 66.3199C98.0602 67.0299 98.0702 67.7399 98.0202 68.4499C97.9902 68.7899 97.7902 69.4099 98.2102 69.6099C98.5502 69.7699 98.7302 68.9799 98.7802 68.0299C98.8902 67.7299 99.0002 67.4399 99.1002 67.1499C99.2702 66.5999 99.6202 66.0999 100.09 65.7499C99.9002 66.4799 100.01 67.2399 99.8402 67.9699C99.8002 68.1399 99.7202 68.3499 99.6902 68.5399C99.6602 68.6499 99.6402 68.7599 99.6502 68.8799C99.6602 69.0399 99.8502 69.1899 99.9802 69.0299C99.9802 69.0299 99.9802 69.0199 99.9802 69.0099C100.22 68.9999 100.26 68.6499 100.31 68.3899C100.87 67.5399 101.55 66.7799 102.33 66.1399C102.12 66.8899 101.75 67.6499 101.45 68.3999C101.27 68.9099 101.05 69.4299 100.69 69.8399C100.1 70.6899 99.1302 71.2099 98.6002 72.1099C98.0902 73.0399 97.3802 73.8299 96.9202 74.7799C96.7102 75.2799 96.5102 75.7999 96.3502 76.3199C96.3502 76.3299 96.3502 76.3499 96.3402 76.3599C96.3202 76.3899 96.3002 76.4199 96.2902 76.4599C96.2702 76.5299 96.2602 76.5999 96.2402 76.6599C96.0502 77.1899 95.7602 78.0399 95.9402 78.4099C95.8402 79.4399 95.8402 80.4799 95.7902 81.5199C95.7402 82.3199 95.7002 83.1199 95.8002 83.9199C96.1502 86.8399 96.7202 89.7299 97.0402 92.6699C97.2802 94.1199 97.5502 95.5599 98.1002 96.9299C98.4902 98.5099 98.6002 100.08 98.8402 101.7C99.2502 104.24 100.24 106.61 100.98 109.07C101.25 110.18 101.18 111.34 101.48 112.44C101.85 113.57 102.06 114.69 102.34 115.86C102.82 117.31 103.05 118.84 102.83 120.37C102.8 120.48 102.83 120.65 102.97 120.65H102.98C102.98 120.65 103 120.63 103.02 120.62C103.06 120.74 103.15 120.8 103.24 120.8C103.36 120.8 103.48 120.7 103.48 120.49C104.18 119.13 104.8 117.75 105.35 116.31C105.8 115.43 106.16 114.52 106.6 113.64C107.23 112.81 107.6 111.84 107.94 110.87C108.29 110.04 108.54 109.17 108.84 108.33C109.43 106.92 110.16 105.58 110.73 104.17C111.05 103.4 111.32 102.64 111.72 101.89C112.61 100.5 113.81 99.2599 114.6 97.8099C114.65 97.7299 114.66 97.6199 114.64 97.5199C114.72 97.4199 114.75 97.2799 114.65 97.1899C114.61 97.1299 114.61 97.0599 114.59 96.9899C114.48 96.5899 114.29 96.2199 114.18 95.8199C114.07 95.0099 114.09 94.1899 114.02 93.3699C113.88 92.4699 114.02 91.5799 114.08 90.6699C114.14 89.6499 114.33 88.5999 114.84 87.6899C115 88.2799 115.42 88.7599 115.58 89.3499C115.69 89.8899 115.74 90.4699 115.8 91.0299C115.74 91.3299 115.7 91.6399 115.59 91.9299C115.48 92.0399 115.42 92.1799 115.42 92.3299C115.52 92.9999 116.39 92.4399 116.2 91.9599C116.57 90.4199 116.31 88.6499 117.41 87.3499C117.43 87.7399 117.6 88.0899 117.75 88.4499C117.89 89.1499 117.96 89.8999 117.83 90.6099C117.74 91.0199 117.65 91.3899 117.48 91.7799C117.32 92.0199 117.01 92.5799 117.48 92.6799C117.77 92.6799 117.89 92.4699 117.96 92.2299C118.41 91.5399 118.55 90.7199 118.97 90.0099C119.15 89.6799 119.31 89.3199 119.62 89.0899C120.21 88.6599 120.83 88.3899 121.4 87.8999C121.4 87.8999 121.4 87.8999 121.41 87.8999C121.3 89.4099 120.31 90.5799 119.56 91.8499C119.38 92.2899 117.4 94.2499 118.15 94.5099H118.18C118.52 94.5099 118.66 94.1499 118.8 93.8199C118.97 93.5799 119.13 93.3399 119.27 93.0799C119.62 92.6799 120.12 92.4199 120.47 92.0099C120.92 91.3899 121.54 90.9399 122.19 90.5599C121.84 91.6599 121.59 92.8199 120.78 93.6999C120.49 94.1699 119.63 94.3899 119.77 95.0499C119.86 95.1899 119.97 95.2499 120.1 95.2499C120.84 95.2499 122.06 93.1399 122.26 92.6799C122.26 92.6799 122.26 92.6699 122.26 92.6599C122.27 92.6399 122.28 92.6299 122.29 92.6099C122.89 91.5599 124.09 90.9999 125.16 90.5099C124.29 91.6799 124.02 93.2099 122.91 94.2499C122.6 94.5399 122.23 94.7499 121.89 94.9999C121.75 95.0899 121.65 95.2899 121.71 95.4599C121.75 95.5199 121.81 95.5499 121.86 95.5699C121.95 95.6499 122.1 95.6499 122.22 95.5099C122.4 95.4199 122.6 95.2699 122.8 95.0799C123.39 94.7499 124.02 94.5299 124.71 94.5699C124.29 95.2399 123.74 95.7899 123.02 96.1199C122.72 96.2899 122.39 96.4299 122.06 96.5299C121.87 96.5899 121.73 96.8999 121.91 97.0499C121.95 97.0499 121.98 97.0499 122.02 97.0499C122.41 97.0499 122.81 96.8899 123.18 96.6599C123.22 96.6899 123.29 96.6999 123.37 96.6599C123.69 96.5399 124 96.3699 124.35 96.4199C124.83 96.3799 125.29 96.3199 125.78 96.3799C124.79 97.1999 123.55 97.5999 122.27 97.6599M132.13 96.5799C131.28 96.7199 130.46 96.7499 129.59 96.7299C129.08 96.6699 128.63 96.6099 128.11 96.6499C127.84 96.6799 127.66 96.5299 127.41 96.4299C127.23 96.3599 127.04 96.3399 126.86 96.3399C127.03 96.1299 127.16 95.8899 127.08 95.6999C128.1 95.5199 129.1 95.7999 130.12 95.8399C130.22 95.8399 130.33 95.8499 130.45 95.8699C130.75 95.9099 131.08 95.9599 131.18 95.6299C131.21 95.4999 131.16 95.3699 131.02 95.3499C130.37 95.2299 129.71 95.2399 129.06 95.3099C128.54 95.2699 128.03 95.1899 127.51 95.2199C126.76 95.2199 126 95.0699 125.26 95.2699C125.08 95.3299 124.78 95.3699 124.48 95.4299C124.52 95.3699 124.57 95.3099 124.61 95.2499C124.7 95.1299 124.8 95.0099 124.9 94.8999C124.91 94.9099 124.92 94.9299 124.94 94.9299C124.99 94.9299 125.04 94.9399 125.09 94.9399C125.5 94.9399 125.87 94.7499 126.27 94.6699C127.57 94.7199 128.9 94.7899 130.19 94.5299C131.07 94.5199 131.94 94.5299 132.8 94.7599C133.18 94.9099 133.47 95.2299 133.82 95.4399C133.22 95.7599 132.76 96.3099 132.13 96.5799Z" fill="#D9CFC6"/>
</g>
<defs>
<clipPath id="clip0_13_2066">
<rect width="197.13" height="157.93" fill="white"/>
</clipPath>
</defs>
</svg>
