<svg width="176" height="155" viewBox="0 0 176 155" fill="none" xmlns="http://www.w3.org/2000/svg">
<g clip-path="url(#clip0_13_2113)">
<path d="M16.5351 53.6578C15.7678 52.8224 15.701 51.6155 15.1282 50.6468C14.5801 49.6555 13.8128 48.8202 13.0455 47.9848L8.73502 43.2924C7.42609 41.8674 6.06802 40.4876 4.66082 39.1529C3.84895 38.8115 2.89167 38.5584 2.28234 37.8951C1.24422 36.765 2.48863 35.2595 3.34851 34.4696C3.98728 33.8829 5.18367 33.5086 5.88327 34.2702C6.22179 34.6388 6.39033 35.1181 6.55887 35.5975C7.07449 36.7999 7.88093 37.8257 8.76107 38.7839C10.1151 40.258 11.59 41.6663 12.9667 43.165C14.1853 44.4917 15.2074 45.9989 16.4261 47.3256C17.4416 48.4311 18.2906 49.0102 19.8521 48.9348C21.3242 47.6279 22.7717 46.3435 24.1967 45.0346C26.2849 43.1163 24.2073 41.4463 25.4848 40.2727C26.0253 39.7762 26.6321 39.9437 27.0834 40.435C27.9636 41.3932 28.894 43.3923 28.4383 44.6715C28.2749 45.184 21.7132 51.2567 20.7305 52.1595C19.8461 52.9719 17.6861 54.9107 16.5351 53.6578Z" fill="#D9CFC6"/>
<path d="M30.4864 14.8678C30.7494 14.7231 31.0315 14.6821 31.3296 14.6704C32.8204 14.6117 34.3143 16.1504 35.396 17.0783C38.2215 19.4455 41.1449 21.6447 43.9704 24.0119C45.7917 25.5228 47.5122 27.1273 49.5585 28.2859C50.1081 28.5928 50.7322 28.8967 51.0539 29.4812C51.6489 30.5627 50.3366 31.3609 49.5474 31.7951C48.5829 32.3258 46.892 32.9896 46.1844 31.7035C45.8949 31.1774 45.7224 30.587 45.4329 30.0609C44.1303 27.6934 42.4496 28.2374 40.4914 29.3149L37.7439 30.8265C35.5226 32.0487 33.4737 33.0999 34.9371 35.7596C35.9664 37.6302 36.9954 38.7394 34.5403 40.0902C33.6927 40.5566 32.1611 41.0947 31.5661 40.0132C31.2444 39.4287 31.4124 38.7651 31.5088 38.179C31.8723 35.6564 31.2376 33.1879 30.8718 30.7239C30.7489 29.8777 30.6845 28.9993 30.5908 28.137C30.3608 24.9509 29.7874 21.7634 29.4829 18.5802C29.3584 17.316 29.2003 15.5754 30.4864 14.8678ZM33.9888 27.6001C34.9376 29.3245 36.0949 28.3831 37.4394 27.6434C38.404 27.1127 40.2863 26.3816 39.5144 24.9787C39.0319 24.1018 33.9436 19.6289 33.3298 19.9666C32.3069 20.5295 33.442 26.6063 33.9888 27.6001Z" fill="#D9CFC6"/>
<path d="M44.455 9.12796C44.126 7.97295 45.5151 7.12632 46.4134 6.87042C47.1514 6.66021 49.0305 6.1943 49.323 7.22098L50.3009 10.6539C52.0587 12.9282 53.7523 15.2207 55.6982 17.3026C56.3117 17.995 56.9481 18.6462 57.4745 19.3982C57.9917 20.118 59.4289 22.2408 60.4556 21.9483C61.386 21.6833 61.4472 19.5846 61.5028 18.8056C61.5493 17.9946 61.6691 17.1974 61.8209 16.391C61.9775 15.4792 62.0607 14.5537 62.1027 13.6052C62.1913 11.6027 62.5228 9.60051 62.8956 7.62123C62.5207 6.54866 62.1458 5.4761 61.8259 4.35317C61.4695 3.10191 62.7851 2.48433 63.7797 2.20101C64.7422 1.92683 66.2499 1.74015 66.6064 2.99142C66.8074 3.69726 66.2474 4.89739 66.0269 5.58457C65.0534 8.25531 65.1885 11.1652 64.9068 13.9511C64.6159 16.7048 64.293 19.4677 64.0021 22.2215C63.8726 23.7152 63.6498 27.3168 61.9173 27.8103C61.5644 27.9108 61.1749 27.883 60.8083 27.814C59.5209 27.5564 57.8591 25.4976 57.0718 24.4384C54.5908 21.0868 51.9677 17.845 49.3355 14.5711C48.2139 13.1909 47.0602 11.8199 45.7506 10.632C45.2423 10.1871 44.6378 9.76964 44.455 9.12796Z" fill="#D9CFC6"/>
<path d="M81.6603 0.39195C81.9601 0.376289 82.2319 0.462313 82.5053 0.581648C83.8727 1.17834 84.547 3.21426 85.1163 4.52074C86.6281 7.88254 88.3013 11.1357 89.8131 14.4975C90.7941 16.651 91.6436 18.8448 92.9807 20.7793C93.3417 21.2949 93.771 21.8404 93.8058 22.5067C93.8702 23.7393 92.3412 23.886 91.4417 23.933C90.3423 23.9904 88.5312 23.8512 88.4546 22.3853C88.4233 21.7857 88.5252 21.179 88.4939 20.5794C88.3529 17.8809 86.6032 17.6382 84.3711 17.7548L81.2395 17.9184C78.7076 18.0506 76.4054 18.1041 76.5638 21.1357C76.6752 23.2678 77.1182 24.7145 74.3198 24.8607C73.3536 24.9112 71.7406 24.7282 71.6762 23.4955C71.6414 22.8293 72.0817 22.3052 72.4238 21.8196C73.8501 19.7074 74.3544 17.2091 75.0987 14.8318C75.3568 14.0166 75.6815 13.1979 75.9729 12.3809C77.1541 9.41296 78.0267 6.29408 79.1396 3.29627C79.5784 2.10416 80.1945 0.468515 81.6603 0.39195ZM79.2653 13.3782C79.368 15.3437 80.8199 15.0006 82.3524 14.9206C83.4517 14.8632 85.4645 15.0253 85.381 13.4262C85.3288 12.4267 82.6977 6.18372 81.9981 6.22026C80.8321 6.28117 79.2061 12.2455 79.2653 13.3782Z" fill="#D9CFC6"/>
<path d="M97.351 22.5908C97.4479 22.1339 97.6683 21.7373 97.9145 21.3803C98.765 21.3901 100.123 14.8236 100.31 13.9425C100.87 11.2991 101.405 8.61611 101.842 5.9124C101.998 4.85425 102.131 4.0641 101.908 3.02775C101.809 2.52936 101.717 1.99832 101.821 1.5088C102.042 0.464496 103.183 0.229014 104.097 0.422742L104.384 0.517646C106.151 1.02872 106.795 2.4952 107.53 4.01507C109.543 8.19298 111.602 12.3125 113.464 16.5607C113.763 17.2381 114.856 19.4818 115.542 19.6271C116.749 19.8831 117.16 16.0144 117.292 15.3944L119.007 7.30096C118.833 6.51381 118.472 5.48242 118.638 4.69919C118.846 3.72015 119.757 3.60633 120.605 3.78622C121.649 4.00762 123.839 4.77874 123.534 6.21466C123.362 7.03053 122.545 7.50529 122.066 8.15406C121.82 8.51108 120.104 16.6045 119.952 17.3224C119.807 18.0078 118.084 26.1338 117.798 26.5165C117.359 27.1396 116.766 27.5253 115.982 27.3593C115.428 27.2416 114.961 26.8699 114.613 26.4209C113.323 24.7834 106.726 8.44842 105.29 8.14399C105.258 8.13707 105.12 8.14203 105.048 8.16083C104.524 8.22022 104.084 10.6164 104.008 10.9754C103.472 13.1807 102.799 15.391 102.322 17.6427C102.038 18.9808 101.685 20.6451 102.049 21.9841C102.181 22.4894 102.273 23.0204 102.162 23.5426C101.899 24.7827 100.543 24.9045 99.4991 24.6831C98.4548 24.4617 97.0742 23.8962 97.351 22.5908Z" fill="#D9CFC6"/>
<path d="M137.989 10.4363C141.174 12.0469 144.983 14.4956 146.489 17.8741C147.937 21.1478 147.203 25.1877 145.637 28.2839C143.048 33.4046 138.785 35.9965 132.986 35.0457C131.42 34.8149 129.619 33.9416 128.19 33.2191C127.118 32.6772 126.061 32.1056 125.019 31.5788C124.096 31.1122 122.921 30.4058 123.538 29.1851C124.005 28.2622 125.022 27.6551 125.652 26.7776C126.433 25.6771 127.05 24.3819 127.668 23.1612C129.444 19.6482 131.175 16.0753 132.966 12.5325C132.955 11.7417 132.886 10.5479 133.262 9.80361C133.984 8.37459 137.006 9.93963 137.989 10.4363ZM130.214 30.9902C136.049 33.9404 140.297 31.5274 143.066 26.0495C145.294 21.6433 143.705 16.5786 139.269 14.3359C136.441 12.906 136.018 14.1126 134.739 16.4194C133.912 17.9076 132.936 19.3206 132.169 20.839C131.115 22.9229 130.091 25.022 129.216 27.1963C128.733 28.4474 128.236 29.5044 129.41 30.5092C129.648 30.7042 129.946 30.8548 130.214 30.9902Z" fill="#D9CFC6"/>
<path d="M165.68 29.0352C165.907 29.2308 166.045 29.4806 166.16 29.7557C166.738 31.1312 165.821 33.0699 165.331 34.4083C164.105 37.8845 163.071 41.3935 161.845 44.8697C161.069 47.1052 160.17 49.2791 159.802 51.6018C159.708 52.2241 159.642 52.9152 159.207 53.4214C158.403 54.3579 157.195 53.4088 156.512 52.8221C155.677 52.1049 154.462 50.7542 155.418 49.6406C155.81 49.185 156.302 48.8163 156.693 48.3607C158.453 46.3106 157.355 44.9274 155.659 43.4714L153.28 41.4286C151.356 39.777 149.653 38.2268 147.676 40.5301C146.285 42.1499 145.607 43.5026 143.481 41.6772C142.747 41.0469 141.706 39.8013 142.51 38.8648C142.945 38.3586 143.625 38.2832 144.208 38.1679C146.697 37.6237 148.787 36.1636 150.966 34.9569C151.715 34.5451 152.515 34.1767 153.29 33.7865C156.193 32.4538 158.977 30.7989 161.851 29.3974C162.991 28.8376 164.566 28.079 165.68 29.0352ZM154.984 36.7804C153.702 38.2737 154.99 39.0274 156.154 40.0271C156.989 40.7442 158.334 42.2506 159.377 41.0357C160.029 40.2764 162.433 33.9427 161.902 33.4863C161.016 32.7257 155.723 35.9198 154.984 36.7804Z" fill="#D9CFC6"/>
<path d="M107.52 120C109.07 118.54 110.31 116.84 111.44 115.04C113.09 112.39 118.14 105.86 114.49 103.31C114.06 103.12 113.63 103.03 113.21 103.03C110.68 103.03 108.41 106.18 106.88 107.85C105.87 108.9 104.79 109.92 104.03 111.18C103.01 113.06 101.84 114.86 100.89 116.78C100.31 118.02 99.7998 119.31 99.0198 120.45C98.2398 121.62 97.1398 122.56 96.3198 123.72C95.5198 124.83 94.7198 125.94 93.7498 126.91C91.7998 128.35 91.0398 130.69 89.8698 132.7C89.0298 133.75 88.3498 134.89 87.8098 136.08C87.8398 135.94 87.8498 135.8 87.8698 135.66C88.4898 133.28 89.5498 131.02 90.0298 128.59C90.7698 124.86 92.0598 121.28 93.4398 117.75C94.5598 115.41 95.8998 113.19 96.9798 110.83C98.3198 108.51 99.5398 106.12 100.42 103.58C101.95 100.35 103.89 97.3102 105.94 94.3902C107.54 92.2402 108.34 89.3302 109.56 86.9202C110.5 84.7502 112.28 82.9202 112.63 80.5302C113.01 78.5002 111.9 75.8502 109.62 75.6402C109.55 75.6402 109.48 75.6402 109.42 75.6402C107.5 75.6402 106.85 77.7902 105.83 79.1202C102.5 83.4402 100.78 88.7502 98.8398 93.8002C98.3698 95.1102 98.0698 96.4802 97.6398 97.8002C97.0598 99.4502 96.1898 100.99 95.7598 102.7C95.2898 104.27 95.1598 105.92 94.6898 107.49C94.6498 107.61 94.6098 107.73 94.5598 107.86C94.4898 107.96 94.4198 108.06 94.3398 108.16C94.5598 106.93 94.6498 105.8 94.7498 104.53C94.6498 103.09 94.4698 101.61 94.2498 100.15C94.2798 100.08 94.2998 100 94.3098 99.9002C94.0498 97.3502 93.9298 94.8002 93.9298 92.2302C93.9798 90.0702 94.7398 88.0002 94.8798 85.8502C95.1498 83.2302 94.7298 80.6402 95.2598 78.0002C96.0298 74.7502 97.9198 71.9002 98.7798 68.6702C99.2998 66.6702 99.5698 64.6202 99.9498 62.6002C100.06 61.1602 101.63 58.2702 100.07 57.3502C99.8398 57.2502 99.6198 57.2002 99.4098 57.2002C97.6098 57.2002 96.2998 60.5302 95.5798 61.8602C94.4198 64.0202 93.7798 66.3802 93.0198 68.7002C90.6398 74.8902 89.3498 75.8202 90.4598 82.8502C90.6198 83.9402 90.6598 85.0402 90.6698 86.1402C90.3898 85.7102 90.1198 85.2702 89.8298 84.8502C88.6198 82.1502 87.0998 79.5802 85.3398 77.1902C84.1798 75.3802 83.1198 73.4702 81.5798 71.9502C80.3498 70.6802 78.9198 69.7702 77.5298 68.7102C77.3898 68.5202 77.1298 68.3602 76.8998 68.2602C76.9098 68.2602 76.9298 68.2702 76.9398 68.2802C76.7998 68.1902 76.6398 68.1902 76.4898 68.2302C76.1298 68.0902 75.5898 68.5102 75.7998 68.8902C75.9698 69.1002 76.1798 69.2702 76.3898 69.4302C76.9198 69.8502 77.4398 70.2802 77.9198 70.7602C80.0898 73.1802 82.7098 75.1902 84.6398 77.8202C85.2998 79.0002 85.8998 80.2202 86.4598 81.4502C84.1898 79.1502 81.9498 76.5202 78.8298 75.4402C78.6098 75.3702 78.3898 75.3402 78.1798 75.3402C77.0398 75.3402 76.2098 76.2602 77.1498 77.4402C78.7098 79.8502 81.4798 81.1002 83.6198 82.9002C84.3698 83.7402 85.3398 84.3302 86.1598 85.0902C87.5198 87.2702 89.0598 89.3302 90.5598 91.4202C90.7498 91.8702 90.9398 92.3202 91.1298 92.7702C91.4798 93.5202 91.7198 94.2802 91.8898 95.0602C91.9198 95.3702 91.9398 95.6902 91.9498 96.0102C91.9898 96.6502 91.9898 97.3402 92.2298 97.9402C92.2998 99.4002 92.2398 100.89 92.2498 102.34C92.5898 106.16 91.8298 109.93 91.2698 113.69C90.8898 116.08 90.5398 118.5 89.7398 120.8C89.2198 122.19 88.5998 123.56 88.0398 124.94C88.1998 123.52 88.3598 122.1 88.4698 120.68C88.5398 119.22 88.2998 117.77 88.3298 116.31C88.3598 115.4 88.4598 114.34 88.4098 113.28C88.1298 110.91 88.2298 108.55 88.4398 106.18C88.4398 102.41 87.0498 98.8002 85.6198 95.3702C84.5898 92.7402 85.2298 87.6702 81.5998 87.0902C81.5698 87.0902 81.5398 87.0902 81.5098 87.0902C80.4398 87.0902 79.4098 87.7902 78.9598 88.7602C78.3698 90.1802 77.8198 91.6802 77.7298 93.2302C77.7298 94.5902 78.1898 95.9102 78.3698 97.2602C78.6398 98.7902 78.9398 100.36 79.7198 101.73C80.6198 103.11 81.6998 104.41 81.8598 106.13C82.2998 108.98 82.8798 111.82 82.7998 114.72C82.7598 116.39 83.1198 118.01 83.4598 119.63C83.6998 121.28 83.6798 122.94 83.8698 124.59C84.2898 127.46 84.6998 130.35 84.1698 133.24C83.3798 136.5 83.9898 139.82 84.2598 143.1C84.2498 143.71 84.2098 144.32 84.1498 144.93C83.4498 142.85 82.8798 140.71 82.0898 138.66C80.2798 134.63 78.2598 130.67 76.9898 126.42C76.5898 124.99 76.0598 123.58 75.2598 122.32C74.4898 121.17 73.7498 119.97 73.5298 118.58C73.2298 116.42 72.4298 114.41 71.3098 112.55C70.0298 110.15 69.3498 107.44 67.5998 105.3C67.0698 104.55 66.5798 103.71 65.7698 103.23C65.4398 103.04 65.0698 102.95 64.7098 102.95C63.8898 102.95 63.0598 103.39 62.5898 104.08C61.5098 105.99 61.6898 108.42 61.9898 110.53C62.2798 112.18 63.4998 113.38 64.0198 114.96C64.5598 116.57 65.0498 118.26 65.9798 119.71C66.8698 121.06 67.7498 122.41 68.5398 123.82C69.1798 125.11 69.7798 126.42 70.6098 127.6C71.4998 128.84 72.6198 129.89 73.5398 131.11C74.8298 132.82 75.2898 134.98 76.3898 136.8C77.8898 139.07 79.2798 141.39 80.4098 143.87C81.0198 145.07 81.9298 146.11 82.4098 147.37C82.7998 148.59 82.8898 149.87 83.0498 151.13C83.1298 151.97 83.3198 152.79 83.5098 153.61C83.5998 153.84 83.9398 153.98 84.1898 153.92C84.3198 154.16 84.6498 154.28 84.9098 154.28C85.2498 154.28 85.6798 154.08 85.6898 153.69C85.6998 153.23 85.7198 152.77 85.7498 152.31C85.8698 152.22 85.9698 152.1 86.0198 151.94C86.2698 151.12 86.5498 150.3 86.7998 149.48C87.3198 147.92 87.8098 146.35 88.1698 144.75C88.7498 142.28 90.2398 140.21 91.5698 138.1C92.2398 137.08 93.1998 136.31 94.0398 135.45C95.2598 134.12 96.4298 132.75 97.5598 131.34C98.2298 130.52 98.9798 129.77 99.6498 128.96C100.71 127.71 101.42 126.21 102.56 125.04C104.41 123.55 105.9 121.71 107.5 119.97M65.1998 104.54C65.1998 104.54 65.1698 104.54 65.1598 104.54C65.1598 104.54 65.1698 104.53 65.1798 104.52C65.1798 104.52 65.1898 104.53 65.1998 104.54ZM93.6498 75.7902C93.6498 75.7902 93.6498 75.7602 93.6498 75.7502C93.6498 75.7502 93.6598 75.7502 93.6698 75.7502C93.6698 75.7702 93.6498 75.7802 93.6398 75.8002M109.69 77.5102C109.69 77.5102 109.67 77.5102 109.66 77.5102C109.66 77.5102 109.66 77.5102 109.67 77.5002C109.67 77.5002 109.67 77.5102 109.68 77.5202" fill="#D9CFC6"/>
<path d="M68.6598 59.9802C67.8498 59.9802 67.1098 60.5502 67.6098 61.4402C68.1798 62.4602 69.2398 63.0602 70.0398 63.8802C70.8698 64.7702 71.7498 65.6102 72.6998 66.3602C73.2498 66.8402 74.0098 67.3802 74.7498 66.9802C75.9098 66.9302 75.0998 65.5402 74.7898 64.9802C74.4098 64.2702 74.0598 63.5202 73.5298 62.9002C72.2998 61.6302 70.8998 60.2202 69.0598 60.0202C68.9298 59.9902 68.7998 59.9702 68.6698 59.9702" fill="#D9CFC6"/>
<path d="M78.2399 63.6601C78.8099 62.4201 79.6399 58.7501 78.4099 57.8101C78.1299 57.6701 77.8799 57.6001 77.6599 57.6001C76.3599 57.6001 76.1699 59.9001 75.8799 60.9801C75.6499 61.8801 75.4399 62.7901 75.4599 63.7201C75.3699 64.6801 75.8499 65.2801 76.8299 65.3301C77.7699 65.7301 77.9099 64.2401 78.2399 63.6601Z" fill="#D9CFC6"/>
<path d="M68.4998 70.67C69.6798 70.8 70.9398 70.73 71.9898 70.13C72.6398 69.78 73.5898 69.75 73.9998 69.08C74.2498 67.96 72.2098 67.85 71.4598 67.74C70.4398 67.64 69.4298 67.4 68.4098 67.29C68.1598 67.25 67.9298 67.23 67.7298 67.23C65.0998 67.23 66.0798 70.33 68.4998 70.67Z" fill="#D9CFC6"/>
<path d="M78.5702 67.0699C79.0302 67.4899 79.7102 67.3999 80.2902 67.3999C80.6902 67.4499 81.0902 67.4999 81.5002 67.5599C82.7402 67.7299 84.1202 68.2499 85.4202 68.1999C88.3002 67.6699 84.1002 65.1499 82.7002 65.1499C82.6402 65.1499 82.5902 65.1499 82.5402 65.1599C81.1502 65.1199 79.6402 65.1799 78.4302 65.9499C77.8202 66.3099 77.8102 66.9599 78.5802 67.0599" fill="#D9CFC6"/>
<path d="M75.1099 78.1298C76.0399 76.3898 75.7599 74.2198 75.5499 72.3298C75.4899 71.6398 75.9799 70.6198 75.1899 70.1998C74.9999 70.1098 74.8299 70.0698 74.6599 70.0698C73.8199 70.0698 73.3599 71.1598 73.0899 71.9098C72.6999 72.7598 72.3899 73.6498 72.2999 74.5798C72.1399 75.7598 72.2199 77.1398 73.0299 78.0798C73.5399 78.6898 74.5699 78.7398 75.0999 78.1398" fill="#D9CFC6"/>
<path d="M65.61 55.98C64.9 55.42 64.47 54.53 63.61 54.17C63.23 54.02 62.89 53.96 62.61 53.96C61.37 53.96 61.09 55.22 62.4 56.34C63.16 57.15 64.4 57.48 65.42 57.88C65.72 57.99 66.02 58.14 66.34 58.16C66.78 58.17 67.13 57.72 66.77 57.36C66.64 56.77 66.01 56.42 65.62 55.98M63.36 55.34C63.33 55.3 63.31 55.26 63.28 55.22C63.31 55.23 63.34 55.25 63.37 55.27C63.38 55.27 63.4 55.29 63.41 55.3C63.39 55.32 63.38 55.34 63.36 55.36" fill="#D9CFC6"/>
<path d="M74.14 58.55C74.39 56.98 73.86 52.45 72.23 51.8C72.19 51.8 72.14 51.79 72.1 51.79C71.69 51.79 71.34 52.14 71.2 52.51C70.65 53.67 70.99 54.99 71.17 56.19C71.34 57.31 71.88 58.42 72.67 59.23C73.21 59.62 74.22 59.29 74.13 58.54" fill="#D9CFC6"/>
<path d="M63.7999 64.91C64.8399 64.96 65.7699 64.38 66.7899 64.28C67.4699 64.18 67.5599 63.57 66.9499 63.26C66.7299 62.4 63.2299 61.9 62.3399 61.77C62.2299 61.76 62.1099 61.75 61.9899 61.75C61.2599 61.75 60.4499 61.99 60.2799 62.77C60.2599 64.2 62.6799 64.73 63.8099 64.92" fill="#D9CFC6"/>
<path d="M66.6301 52.1798C66.7201 53.1598 67.3501 53.9898 67.7001 54.8898C67.6901 55.2398 67.7801 55.6098 68.0901 55.8098C68.2201 56.4798 69.3801 56.5298 69.4201 55.8098C69.8801 55.4998 69.8801 54.8898 69.8701 54.3798C69.8701 53.3398 69.4601 52.2798 68.6101 51.6298C68.3601 51.3998 68.0001 51.2798 67.6501 51.2798C67.1201 51.2798 66.6301 51.5598 66.6201 52.1698" fill="#D9CFC6"/>
<path d="M61.08 59.66C61.69 59.82 62.31 59.76 62.92 59.71C63.38 59.67 63.83 59.62 64.28 59.67C64.55 59.67 64.91 59.48 64.85 59.17C64.76 58.79 64.31 58.8 64 58.75C63.4 58.23 62.59 58.01 61.84 57.82C61.62 57.76 61.41 57.73 61.22 57.73C59.87 57.73 59.36 59.12 61.07 59.68" fill="#D9CFC6"/>
</g>
<defs>
<clipPath id="clip0_13_2113">
<rect width="175.32" height="154.31" fill="white"/>
</clipPath>
</defs>
</svg>
