<svg width="217" height="151" viewBox="0 0 217 151" fill="none" xmlns="http://www.w3.org/2000/svg">
<path d="M150.54 98.3802C150.44 98.3702 150.37 98.3902 150.29 98.4302C150.23 98.4302 150.16 98.4202 150.1 98.4602C149.89 98.6002 149.89 98.9902 150.13 99.1102C149.75 100.74 148.91 102.21 148.45 103.81C148.02 105.11 147.56 106.4 146.88 107.59C146.43 108.34 145.94 109.06 145.51 109.82C144.57 111.45 143.59 113.24 143.04 115.18C142.83 115.85 142.59 116.66 142.27 117.44C141.32 119.56 140.19 121.6 139.26 123.73C138.57 125.51 137.89 127.2 137.12 128.97C136.66 130.11 136.21 131.25 135.6 132.32C135.06 133.29 134.34 134.14 133.8 135.11C133.08 136.34 132.61 137.71 132.2 139.07C132.2 139.08 132.2 139.09 132.2 139.1C131.13 139.49 130.04 139.83 128.94 140.14C128.96 140.11 128.98 140.08 129 140.05C130.12 138.07 131.1 136.02 131.83 133.86C132.41 132.06 132.86 130.22 133.64 128.48C135.09 125.11 136.73 121.82 138.35 118.52C139.22 116.7 140.47 115.1 141.46 113.34C142.25 112.03 142.85 110.62 143.57 109.27C144.13 108.33 144.71 107.39 145.09 106.36C145.5 105.32 145.71 104.22 146 103.14C146.25 102.39 146.48 101.54 146.75 100.78C146.8 100.73 146.86 100.72 146.93 100.67C147.02 100.61 147.05 100.49 147.03 100.39C147.01 100.3 146.93 100.21 146.83 100.22C146.78 100.22 146.74 100.25 146.7 100.27C146.22 100.45 146.15 101.04 146 101.47C145.76 102.55 145.36 103.57 144.87 104.56C144.28 105.83 143.77 107.15 143.11 108.38C142.55 109.36 141.84 110.24 141.27 111.21C140.69 112.2 140.23 113.27 139.79 114.34C138.36 117.92 135.44 120.76 134.12 124.42C133.21 126.64 132.75 129.01 131.88 131.24C131.47 132.24 131 133.23 130.55 134.22C129.86 135.73 129.06 137.19 128.45 138.74C128.29 139.12 128.1 139.54 127.91 139.98C127.61 139.75 127.3 139.53 127.12 139.33C126.48 138.57 125.97 137.7 125.3 136.96C125.1 136.71 124.89 136.46 124.67 136.23C124.75 135.91 124.83 135.59 124.92 135.27C125.25 134.02 125.74 132.83 126.33 131.68C126.47 131.34 127.16 130.07 126.6 129.92C126.54 129.92 126.51 129.95 126.46 129.98C125.96 130.61 125.31 131.2 125.12 132.01C124.93 132.63 124.88 133.27 124.6 133.87C124.39 134.34 124.32 134.85 124.11 135.32C124.08 135.41 124.04 135.5 124.01 135.58C123.44 135.05 122.82 134.57 122.16 134.14C120.87 133.23 119.6 132.28 118.16 131.6C117.42 131.21 116.64 130.81 116.12 130.13C115.84 129.79 115.74 129.35 115.43 129.04C115.32 128.93 115.19 128.85 115.05 128.79C115.17 128.43 115.29 128.07 115.4 127.72C115.62 127.16 115.84 126.6 115.97 126C116.44 125.18 116.7 124.24 116.82 123.32C116.82 123.24 116.79 123.16 116.71 123.13C116.43 123.09 116.32 123.8 116.25 124.02C116.06 124.61 115.9 125.2 115.67 125.77C115.61 126.14 114.66 127.43 114.15 128.45C113.26 128.13 112.36 127.82 111.47 127.5C109.85 126.7 108.03 126.7 106.32 126.26C106.22 126.23 106.13 126.2 106.03 126.17C106.04 126.13 106.06 126.1 106.07 126.07C106.46 124.89 107.11 123.84 107.7 122.77C107.97 122.23 108.21 121.68 108.52 121.16C108.85 120.66 109.32 120.26 109.62 119.74C110.44 118.32 110.93 116.73 111.56 115.22C111.69 114.67 112.81 113.27 112.13 112.92C111.93 112.84 111.77 113.03 111.72 113.21C111.51 113.71 111.35 114.24 111.14 114.74C110.51 116.07 109.78 117.37 108.99 118.61C108.14 119.88 106.75 120.72 106.11 122.14C105.49 123.33 104.95 124.49 104.2 125.63C104.2 125.63 104.2 125.63 104.2 125.64C103.51 125.44 102.82 125.23 102.15 124.96C101.74 124.83 101.3 124.65 100.86 124.53C101.04 124.25 101.14 123.79 101.26 123.53C101.67 122.42 102.07 121.3 102.54 120.21C103.42 118.17 104.4 116.21 105.13 114.1C106 111.54 107.13 109.09 108.36 106.68C109.19 104.99 110.28 103.47 111.31 101.9C112.1 100.68 112.64 99.3202 113.08 97.9502C113.63 96.0302 114.59 94.2602 115.2 92.3602C115.7 90.8302 115.94 89.2402 116.49 87.7302C117.03 86.3002 117.75 84.9402 118.24 83.5002C118.26 83.4102 118.28 83.3102 118.27 83.2102C118.48 83.1602 118.7 83.1002 118.91 83.0602C119.2 83.7402 120.34 84.0102 120.95 84.3402C121.13 84.4302 121.3 84.5002 121.48 84.5802C121.51 84.8602 121.52 85.1302 121.5 85.4102C121.48 85.5402 121.48 85.6902 121.47 85.8102C121.47 85.8302 121.47 85.8602 121.46 85.8802C121.46 85.8902 121.46 85.9002 121.46 85.9202C121.46 85.9402 121.46 85.9602 121.46 85.9902C121.33 86.8702 121.05 87.7202 120.78 88.5802C120.65 88.9602 120.56 89.3602 120.48 89.7602C120.47 89.8202 120.48 89.8802 120.51 89.9302C120.55 89.9602 120.58 89.9802 120.61 89.9802C120.96 89.9802 121.32 88.4502 121.48 88.2202C121.74 87.6302 121.96 87.0102 122.13 86.3902C122.27 85.9502 122.47 85.4702 122.67 85.0302C123.81 85.4102 124.98 85.6902 126.13 86.0302C127.57 86.4302 128.94 87.3002 130.37 87.7502C130.83 87.9002 131.29 88.0402 131.76 88.1802C131.46 89.1702 131.14 90.1402 130.74 91.0902C130.68 91.2002 130.62 91.3102 130.56 91.4202C130.41 91.7702 129.82 92.5702 129.73 93.1402C129.11 94.3302 127.81 96.6902 128.04 97.5602C128.04 97.5702 128.05 97.5802 128.06 97.5902C128.02 97.7502 128.05 97.9302 128.17 98.0402C128.22 98.0802 128.27 98.1002 128.32 98.1002C128.42 98.1002 128.52 98.0302 128.58 97.9202C128.61 97.8602 128.64 97.8002 128.67 97.7502C128.74 97.7002 128.81 97.6302 128.86 97.5402C129.55 96.7402 130.13 95.8502 130.59 94.9102C131.5 92.8302 132.41 90.7402 133.26 88.6302C133.78 88.8102 134.29 89.0002 134.79 89.2402C136.56 90.0302 137.32 91.9502 138.8 93.1102C138.79 93.1202 138.78 93.1402 138.77 93.1602C138.43 93.7202 138.04 94.2502 137.73 94.8202C137.13 95.3102 136.9 96.0502 136.46 96.6502C136.4 96.7802 136.27 96.9202 136.14 97.0602C136.12 97.0702 136.1 97.0902 136.09 97.1102C135.88 97.3402 135.71 97.5702 135.88 97.8102C135.86 97.8802 135.84 97.9502 135.82 98.0102C135.56 98.5802 135.38 99.1802 135.22 99.7902C135.22 99.8002 135.21 99.8202 135.21 99.8302C134.85 100.62 134.52 101.43 134.2 102.24C133.85 102.88 133.56 103.57 133.35 104.28C133.26 104.58 133.16 104.87 133.06 105.17C132.65 105.96 132.23 106.75 131.74 107.49C131.68 107.57 131.69 107.7 131.75 107.78C131.79 107.81 131.82 107.83 131.85 107.83C131.86 107.83 131.87 107.83 131.89 107.83C131.78 108.08 131.66 108.33 131.53 108.57C131.45 108.74 131.36 108.91 131.29 109.09C131.26 109.17 131.21 109.29 131.29 109.35C131.3 109.36 131.32 109.37 131.34 109.37C131.38 109.37 131.41 109.34 131.43 109.31C132.12 108.41 132.66 107.44 133.17 106.42C133.53 105.66 134.01 104.96 134.38 104.2C134.72 103.42 135.05 102.65 135.37 101.86C135.6 101.04 136.02 100.3 136.32 99.5102C136.47 99.0602 136.61 98.6102 136.8 98.1802C137.08 97.4202 137.71 96.8402 138.12 96.1502C138.33 95.6902 138.6 95.2802 138.96 94.9202C139.19 94.6702 139.41 94.4102 139.63 94.1502C139.73 94.0402 139.86 93.9102 139.84 93.7602C139.9 93.7902 139.96 93.8102 140.02 93.8402C141.13 94.6202 142.22 95.4202 143.42 96.0502C145.34 96.8502 145.41 97.2702 146.41 99.0102C146.48 99.1202 146.6 99.1902 146.71 99.1902C146.8 99.1902 146.9 99.1502 146.97 99.0602C147.15 98.8602 147.15 98.5302 147.01 98.3202C146.66 97.7702 146.34 97.1902 145.97 96.6502C145.57 96.0202 144.96 95.5902 144.35 95.1802C143.74 94.7302 143.15 94.2502 142.55 93.8002C141.92 93.3202 141.28 92.8502 140.65 92.3702C140.15 91.7402 139.49 91.2902 138.88 90.7902C137.42 89.5802 136.12 88.1602 134.38 87.3202C134.23 87.2402 134.08 87.1702 133.93 87.0902C134.98 86.6602 136.06 86.3002 137.08 85.8002C137.51 86.0402 137.93 86.3102 138.33 86.6102C139.06 87.0902 139.57 87.9502 140.1 88.6502C140.9 89.6502 142.03 90.2902 143.28 90.5802C144.81 90.8902 146.18 91.7602 147.34 92.7802C147.76 93.2002 148.01 93.7402 148.38 94.2102C148.77 94.7902 149.24 95.3102 149.6 95.9102C149.88 96.3402 149.91 96.8602 150.02 97.3502C150.07 97.5802 150.16 97.8502 150.38 97.9602C150.46 98.0002 150.54 98.0202 150.62 98.0202C150.72 98.0202 150.82 97.9802 150.9 97.9102C151.45 97.3602 150.92 96.4002 150.72 95.7802C150.13 94.6202 149.08 93.7902 148.38 92.7002C147.88 92.2202 147.3 91.8002 146.72 91.4302C146.04 90.9802 145.44 90.4602 144.74 90.0302C143.71 89.4302 142.6 88.9702 141.66 88.2202C140.83 87.6302 140.27 86.8802 139.53 86.1602C138.31 85.1202 137.21 83.8702 135.66 83.3102C134.06 82.4702 132.23 82.7202 130.53 82.2802C130.15 82.1602 129.76 81.9502 129.4 81.7602C128.86 81.4902 128.26 81.3502 127.67 81.2002C126.82 80.9702 125.92 80.9402 125.11 80.6002C124.88 80.4702 124.69 80.4902 124.61 80.6502C124.44 80.6602 124.26 80.7002 124.13 80.7002C123.09 80.9502 122.06 81.2502 120.99 81.4102C119.83 81.6702 118.62 81.8802 117.53 82.3802C117.18 82.5502 116.95 83.1302 117.36 83.3502C117.4 83.3602 117.43 83.3702 117.47 83.3702C117.52 83.3702 117.57 83.3702 117.63 83.3502C117.58 83.4602 117.54 83.5802 117.49 83.6902C116.76 85.2202 116.26 86.8402 115.6 88.4002C115.55 88.5302 115.49 88.6502 115.44 88.7802C115.34 88.6902 115.22 88.6102 115.15 88.5302C114.34 87.8702 113.4 87.4102 112.44 87.0102C111.48 86.5802 110.42 86.4002 109.47 85.9302C108.82 85.6102 108.23 85.1802 107.52 85.0002C106.7 84.8102 105.84 84.8502 105.01 84.6402C104.12 84.4002 103.28 83.9802 102.34 83.9402C101.15 83.8102 99.95 83.7102 98.76 83.7702C98.63 83.7702 98.49 83.7902 98.42 83.8802C98.38 83.8502 98.32 83.8402 98.25 83.8702C98.14 83.9302 98.02 83.9902 97.9 84.0502C97.09 84.4502 96.42 85.1002 95.7 85.6502C95.74 85.1902 95.45 84.4902 95.37 84.1802C95.17 83.5702 94.99 82.9502 94.8 82.3402C94.49 81.2202 94.2 80.1802 93.86 79.0502C93.3 77.0202 93.05 74.8802 93.24 72.7502C93.01 70.0002 93.24 67.2202 93.24 64.4502C93.21 63.4502 92.13 63.4802 92.11 64.4502C92.05 66.7902 92 69.1202 91.95 71.4602C91.66 72.7602 91.91 74.0802 92.22 75.3502C92.65 77.0602 92.87 78.8202 93.3 80.5402C93.77 82.2102 94.34 83.8602 94.98 85.4802C95.03 85.6602 95.04 85.9202 95.2 86.0302C94.67 86.4102 94.08 86.7402 93.58 87.1702C93.35 87.3502 92.99 87.5702 93.12 87.9102C93.14 87.9502 93.16 87.9702 93.19 87.9702C93.14 88.0402 93.09 88.1302 93.05 88.2002C92.87 88.5602 92.68 88.9102 92.52 89.2802C91.89 91.0802 90.68 92.6202 90.02 94.4102C89.78 95.0202 89.63 95.6602 89.42 96.2702C89.22 96.8302 88.98 97.3802 88.76 97.9402C88.18 95.5802 87.84 93.1602 87.01 90.8602C86.68 89.8002 86.61 88.6902 86.38 87.6102C86.11 86.3302 85.79 85.0502 85.88 83.7302C85.98 82.4102 86.36 81.1402 86.59 79.8402C86.91 78.2102 86.88 76.6102 87.1 74.9402C87.36 73.3302 87.93 71.7902 88.13 70.1702C88.26 69.2702 88.28 68.3602 88.43 67.4702C88.66 66.2902 88.99 65.1302 89.14 63.9402C89.38 62.1102 89.32 60.2602 89.6 58.4402C89.89 56.7002 90.59 55.0602 90.95 53.3302C92.75 55.7102 93.71 58.6102 95.46 61.0302C96.52 62.3602 97.5 63.7602 98.5 65.1302C99.28 66.2202 100.13 67.2702 100.8 68.4302C101.22 69.1902 101.49 70.0102 101.87 70.7902C102.23 71.5302 102.57 72.2102 102.82 73.0202C103.16 74.1502 103.13 75.3402 103.23 76.5102C103.38 78.3302 103.56 80.1402 103.3 81.9702C103.29 82.2502 102.95 82.8002 103.36 82.9502C103.52 82.9802 103.62 82.8202 103.64 82.6802C103.9 79.9602 104.51 77.1402 103.88 74.4302C102.89 71.3602 101.9 68.1902 100.02 65.5402C99.3 64.4902 98.36 63.6902 97.5 62.7602C96.28 61.3302 95.61 59.5202 94.8 57.8302C93.97 56.1302 92.91 54.5502 91.96 52.9102C91.59 52.3902 90.97 50.7102 90.19 51.6002C89.85 52.1802 89.92 52.9002 89.8 53.5502C89.63 54.4002 89.47 55.2502 89.35 56.1002C89.18 57.6202 88.97 59.1302 88.66 60.6302C88.29 62.7002 88.07 64.7802 87.72 66.8502C87.4 68.5902 87.08 70.3302 86.91 72.1002C86.79 73.6102 86.69 75.1302 86.41 76.6202C86.06 78.5002 85.69 80.3802 85.5 82.2902C85.45 83.2802 85.51 84.2802 85.5 85.2702C85.49 86.2802 85.51 87.2902 85.73 88.2802C85.92 89.1802 86.22 89.9802 86.41 90.9002C86.6 92.3202 87.24 93.5402 87.69 94.8902C87.77 95.1702 87.83 95.4402 87.88 95.7102C87.7 95.4102 87.49 95.1102 87.27 94.8402C86.44 93.8202 85.7 92.7302 84.79 91.7802C83.95 91.0202 83.43 90.0202 82.77 89.1202C82.35 88.5502 81.9 88.0102 81.45 87.4702C80.65 86.3102 79.57 85.4202 78.41 84.6402C77 83.5702 75.84 82.3402 74.55 81.1002C73.37 79.9002 72.09 78.8202 70.86 77.6802C70.26 77.0902 69.74 76.4302 69.21 75.7702C68.57 74.9202 67.76 74.2002 67.2 73.3102C67.07 73.1202 66.81 73.1702 66.72 73.3702C66.56 73.7602 66.87 74.1302 66.95 74.5102C67.28 75.8002 67.51 77.1102 67.78 78.4102C68.26 81.2802 69.29 84.0202 70.24 86.7602C70.75 88.0602 71.27 89.3502 71.66 90.7002C72.19 92.6002 72.53 94.5502 72.9 96.4802C73.22 98.4302 73.82 100.31 74.4 102.2C74.81 103.67 75.09 105.2 75.87 106.54C76.54 107.84 77.59 108.86 78.5 109.99C79.23 110.99 79.84 112.09 80.61 113.06C81.16 113.74 81.59 114.54 82.25 115.12C82.28 115.14 82.32 115.16 82.35 115.17C82.02 116.04 81.83 116.96 81.59 117.86C81.15 119.35 80.38 120.71 79.87 122.17C79.37 123.47 79.02 124.82 78.33 126.04C77.55 127.27 76.87 128.57 76.38 129.95C76 130.88 75.8 131.88 75.43 132.83C75.09 133.71 74.81 134.62 74.53 135.52C74.47 135.72 74.5 136 74.7 136.12C74.74 136.15 74.79 136.16 74.84 136.16C74.92 136.16 74.99 136.12 75.05 136.07C75.24 136.08 75.38 136.1 75.57 136.12C76.83 136.25 78.11 136.42 79.32 136.83C80.67 137.29 82.1 137.14 83.48 137.32C84.3 137.5 85.05 137.9 85.86 138.13C87.58 138.72 89.72 138.32 91.04 139.79C91.75 140.58 92.82 140.83 93.76 141.24C94.88 141.66 95.84 142.43 96.89 143.01C97.49 143.29 97.95 143.73 98.4 144.19C98.4 144.2 98.4 144.21 98.4 144.22C98.42 144.25 98.45 144.28 98.49 144.29C98.66 144.47 98.83 144.65 99.01 144.82C99.41 145.21 99.85 145.56 100.26 145.93C100.88 146.52 101.49 147.14 102.3 147.46C102.33 147.47 102.35 147.48 102.38 147.48C102.4 147.48 102.41 147.48 102.42 147.47C102.44 147.55 102.48 147.61 102.56 147.65C103.77 147.45 105.06 147.59 106.28 147.37C106.66 147.31 107.05 147.25 107.43 147.19C107.56 147.17 107.6 147.01 107.59 146.9C107.59 146.83 107.54 146.74 107.47 146.7C108.16 144.9 109.33 143.26 110.04 141.46C110.34 140.78 110.78 140.17 111.06 139.47C111.35 138.71 111.57 137.97 111.92 137.22C112.45 136.09 113.23 135.09 113.8 133.98C114.33 133.14 114.82 132.23 115.02 131.24C115.88 132.46 117.08 133.4 118.31 134.24C118.84 134.63 119.34 135.06 119.88 135.44C120.94 136.22 122.14 136.75 123.23 137.46C124.4 138.19 125.48 139.05 126.4 140.08C126.82 140.43 127.26 140.75 127.67 141.1C127.7 141.21 127.76 141.31 127.85 141.38C127.93 141.44 128 141.46 128.07 141.47C128.1 141.5 128.13 141.52 128.15 141.55C128.2 141.59 128.26 141.6 128.31 141.6C128.4 141.6 128.49 141.56 128.56 141.49C129.65 141.46 131.41 140.97 132.69 140.34C132.82 140.39 132.94 140.42 133.04 140.42C133.44 140.42 133.66 140.08 133.81 139.65C133.86 139.6 133.92 139.56 133.96 139.51C134.15 139.33 134.15 138.98 134.03 138.75C134.09 138.46 134.14 138.18 134.21 137.98C134.72 136.12 135.68 134.47 136.59 132.78C137.11 131.79 137.57 130.84 138.15 129.88C139.31 128.17 140.31 126.46 141.24 124.58C142.01 123.17 142.44 121.63 142.92 120.11C143.5 118.43 144.25 116.81 144.88 115.15C145.65 113.47 146.53 111.83 147.14 110.08C148.04 107.86 148.76 105.57 149.65 103.34C149.86 102.59 151.66 98.6202 150.61 98.3902M109.48 119.02C109.48 119.02 109.44 119.1 109.42 119.14C109.41 119.14 109.4 119.13 109.39 119.13C109.42 119.09 109.45 119.06 109.48 119.02ZM107.32 122.49C107.13 122.89 106.95 123.3 106.74 123.69C106.63 123.88 106.51 124.07 106.39 124.26C106.72 123.69 106.97 123.05 107.33 122.5M133.92 103.94C133.73 104.41 133.56 104.89 133.33 105.34C133.22 105.54 133.1 105.75 132.98 105.96C133.17 105.51 133.34 105.04 133.52 104.59C133.53 104.56 133.55 104.53 133.56 104.5C133.57 104.47 133.58 104.45 133.6 104.42C133.8 104.03 133.97 103.63 134.13 103.22C134.06 103.46 134 103.7 133.93 103.94M135.87 99.3602C136.16 98.3702 136.7 97.5002 137.3 96.6702C136.83 97.5702 136.3 98.4402 135.87 99.3602ZM121.4 87.7202C121.47 87.4602 121.52 87.1902 121.56 86.9202C121.58 86.9202 121.6 86.9102 121.61 86.8902C121.56 87.1202 121.5 87.3602 121.44 87.5902V87.5802C121.43 87.6302 121.41 87.6802 121.4 87.7202ZM121.73 86.3402C121.73 86.2902 121.75 86.2402 121.76 86.1902C121.76 86.1902 121.76 86.1902 121.77 86.1902C121.76 86.2402 121.75 86.2902 121.73 86.3402ZM121.76 84.9202C121.76 84.8402 121.76 84.7702 121.76 84.6902C121.8 84.7002 121.83 84.7202 121.87 84.7302C121.81 84.7802 121.78 84.8502 121.76 84.9202ZM136.04 85.6902C136.04 85.6902 136.08 85.6902 136.1 85.6802C136.08 85.6802 136.06 85.6902 136.04 85.7002M135.98 85.3202C135.98 85.3202 135.95 85.2802 135.93 85.2602C135.97 85.2802 136 85.3002 136.04 85.3102C136.02 85.3102 136 85.3102 135.98 85.3202ZM135.13 84.9902C135.13 84.9902 135.13 84.9402 135.13 84.9102C135.16 84.9202 135.18 84.9302 135.21 84.9402C135.18 84.9602 135.15 84.9702 135.13 84.9802M136.34 85.6102C136.34 85.6102 136.39 85.5302 136.39 85.4802C136.43 85.5002 136.48 85.5302 136.52 85.5502C136.46 85.5702 136.4 85.5902 136.34 85.6102ZM124.38 81.6902C124.61 81.6202 124.9 81.5902 125.08 81.4602C126.01 81.9502 127.75 82.1302 128.47 82.3902C129.33 82.6902 130.19 83.2002 131.08 83.4802C131.74 83.7202 132.42 83.9002 133.08 84.1302C133.54 84.3002 134 84.4702 134.46 84.6402C134.13 84.9302 133.78 85.2002 133.52 85.5602C133.39 85.7402 133.2 85.9402 133.05 86.1402C132.82 86.2502 132.54 86.3402 132.34 86.5102C131.57 86.2702 130.79 86.0902 130.01 85.9202C127.39 85.3102 124.73 84.8102 122.28 83.6602C121.58 83.4002 120.87 83.1602 120.2 82.8202C121.64 82.6302 123.03 82.2202 124.39 81.6802M115.15 89.3102C114.7 90.3602 114.24 91.4202 113.87 92.4902C113.79 92.7202 113.71 92.9502 113.63 93.1802C112.5 92.2802 111.28 91.5002 110.16 90.5802C109.97 90.4302 109.77 90.2902 109.56 90.1602C109.58 90.1002 109.6 90.0502 109.62 89.9902C110.2 89.8402 110.77 89.6602 111.32 89.4602C111.9 89.2502 112.5 89.0802 113.08 88.8502C113.2 88.8002 113.31 88.7502 113.39 88.6402C113.47 88.4502 113.45 88.3302 113.39 88.2402C113.99 88.5802 114.62 88.8702 115.15 89.3102ZM107.98 91.6802C108.04 91.3902 108.07 91.1002 108.14 90.8102C108.16 90.7302 108.23 90.5302 108.25 90.3602C108.31 90.4002 108.38 90.4402 108.45 90.4802C108.43 90.5702 108.41 90.6502 108.39 90.7002C108.3 90.6802 108.22 90.7502 108.2 90.8402C108.14 91.1202 108.06 91.4002 107.98 91.6802ZM108.7 89.5702C108.81 89.4802 108.92 89.3902 109.04 89.3102C109.08 89.2802 109.2 89.2002 109.27 89.1502C109.28 89.2002 109.32 89.2502 109.37 89.2702C109.38 89.2702 109.4 89.2702 109.41 89.2702C109.18 89.3702 108.95 89.4802 108.71 89.5702M111.87 88.1302C111.87 88.1302 111.87 88.1102 111.87 88.0902C111.93 88.0902 112 88.0902 112.06 88.1002C111.99 88.1102 111.92 88.1202 111.87 88.1302ZM112.9 87.9702C112.96 88.0002 113.01 88.0302 113.07 88.0602C113 88.0502 112.92 88.0402 112.84 88.0402C112.86 88.0202 112.88 87.9902 112.9 87.9702ZM96.86 85.5002C97.41 85.1702 97.81 84.6702 98.34 84.3102C98.37 84.2902 98.39 84.2702 98.4 84.2502C98.45 84.2902 98.51 84.2902 98.57 84.2502C99.62 84.2302 100.67 84.1202 101.71 84.3402C102.82 84.5902 103.81 85.2802 104.97 85.3302C106.77 85.5802 108.44 86.3202 110.21 86.7002C110.73 86.8602 111.23 87.0902 111.71 87.3302C111.59 87.3402 111.47 87.3702 111.36 87.4302C111.34 87.4302 111.32 87.4302 111.3 87.4302C111.19 87.3902 111.07 87.4002 110.96 87.4502C110.89 87.4502 110.83 87.4802 110.78 87.5402C110.38 87.7402 110.01 88.0002 109.63 88.2402C109.37 88.4502 108.53 88.9502 108.1 89.4502C107.81 89.3302 107.52 89.2202 107.23 89.1202C105.97 88.6102 104.76 87.9902 103.45 87.6002C102.6 87.3202 101.58 87.2802 100.66 87.2402C99.87 87.1502 99.07 87.0502 98.27 87.0602C96.92 87.1702 95.56 87.1702 94.21 87.1102C94.51 86.8802 94.82 86.6602 95.13 86.4402C95.67 86.0802 96.31 85.8702 96.87 85.5002M98.53 87.7702C98.58 87.7702 98.63 87.7702 98.68 87.7702C98.62 87.9502 98.54 88.1302 98.48 88.3202C98.45 88.2402 98.37 88.1502 98.28 88.1502C98.28 88.1502 98.26 88.1202 98.25 88.1102C98.35 88.0002 98.44 87.8802 98.54 87.7702M80.81 112.03C80.12 111.15 79.41 110.29 78.78 109.37C77.69 107.84 76.89 106.13 76.13 104.42C75.29 102.52 75.15 100.45 74.82 98.4302C74.41 95.6002 73.16 93.0202 72.34 90.3002C71.21 85.9002 70.07 81.5002 68.65 77.1502C69.41 78.4902 70.62 79.4602 71.91 80.2802C72.88 80.9702 73.62 81.9002 74.42 82.7602C75.34 83.7902 76.36 84.7402 77.55 85.4502C78.61 86.0502 79.83 86.4002 80.56 87.4402C81.68 88.9202 82.26 90.7602 83.44 92.2002C85.31 93.9802 87.25 95.9702 87.74 98.6102C87.84 98.8902 87.88 99.4002 88.13 99.5902C87.83 100.75 87.68 101.93 87.26 103.07C86.57 104.65 85.81 106.21 85.13 107.8C85.12 107.71 85.1 107.62 85.08 107.54C84.99 107.11 84.85 106.7 84.73 106.29C84.32 104.54 83.47 102.94 82.93 101.23C81.95 97.9402 80.81 95.1502 78.51 92.5302C77.66 91.3502 76.94 90.0902 76.22 88.8402C76.06 88.5902 75.96 88.2302 75.62 88.1602C75 88.0802 74.79 88.9302 75.02 89.3802C75.5 90.4102 76 91.4402 76.66 92.3702C77.35 93.2902 78.32 93.9902 78.89 95.0102C79.57 96.2202 80.07 97.5202 80.68 98.7802C81.12 99.7002 81.69 100.55 82.15 101.46C83.22 103.64 83.87 106.02 84.73 108.27C84.77 108.32 84.83 108.34 84.88 108.34C84.88 108.34 84.88 108.34 84.89 108.34C84.41 109.49 83.99 110.66 83.68 111.87C83.4 112.7 83 113.48 82.64 114.27C82.6 114.26 82.56 114.26 82.5 114.27C81.87 113.58 81.35 112.79 80.78 112.05M79.6 136.08C79.6 136.08 79.62 136.07 79.63 136.06C79.63 136.06 79.63 136.06 79.64 136.06C79.64 136.09 79.64 136.12 79.64 136.16C79.61 136.16 79.57 136.16 79.54 136.16C79.56 136.14 79.58 136.12 79.6 136.1M80.77 134.34C80.72 134.4 80.67 134.46 80.62 134.52C80.71 134.37 80.8 134.21 80.88 134.05C80.84 134.14 80.8 134.24 80.77 134.34ZM88.64 136.99C88.64 136.99 88.69 136.95 88.71 136.92C88.71 136.93 88.71 136.95 88.7 136.96C88.68 137.04 88.66 137.11 88.64 137.19C88.64 137.12 88.64 137.06 88.64 136.99ZM99.84 144.69C99.84 144.69 99.81 144.67 99.79 144.66C99.82 144.65 99.84 144.63 99.86 144.6C99.85 144.63 99.84 144.66 99.83 144.69M99.41 144.39C99.33 144.34 99.26 144.28 99.18 144.23C99.27 144.19 99.35 144.12 99.41 144.03C99.41 144.03 99.42 144.04 99.43 144.04C99.39 144.13 99.38 144.26 99.41 144.38M101.77 146.41C101.24 146 100.85 145.44 100.31 145.04C100.31 145.04 100.3 145.04 100.29 145.03C100.46 144.82 100.58 144.39 100.69 144.23C101.33 143.11 101.69 141.87 102.15 140.67C102.75 139.47 103.26 138.24 103.54 136.92C103.93 135.45 105.1 134.28 105.33 132.76C105.44 131.64 104.77 131.28 104.23 132.39C103.8 133.16 103.61 134.04 103.27 134.85C102.8 135.97 102.4 137.12 101.97 138.27C101.46 139.35 100.73 140.35 100.18 141.43C99.73 142.26 99 142.9 98.48 143.69C98.09 143.34 97.72 142.96 97.3 142.63C96.3 141.78 95.37 140.83 94.13 140.33C93.44 140.04 92.7 139.92 92.01 139.65C91.58 139.45 91.19 139.17 90.8 138.9C90.15 138.53 89.46 138.26 88.75 138C88.93 137.71 88.99 136.97 89.08 136.76C89.27 135.61 89.7 134.53 89.98 133.4C90.18 132.37 90.35 131.33 90.84 130.38C91.23 129.54 91.79 128.79 92.15 127.94C92.36 127.44 92.49 126.9 92.7 126.4C93.55 124.48 94.51 122.58 94.84 120.48C94.87 120.02 96.01 116.88 95.37 116.93C95.32 116.52 94.87 116.51 94.79 116.89C94.67 117.44 94.56 117.99 94.4 118.52C94.01 119.77 93.54 121 93.17 122.26C92.55 124.15 91.84 126.01 90.94 127.79C90.56 128.58 90.37 129.44 89.96 130.21C89.62 130.91 89.48 131.68 89.36 132.44C89.19 132.98 88.98 133.5 88.76 134.01C88.67 134.05 88.63 134.14 88.61 134.23C88.46 134.82 88.31 135.47 88.13 136.06C88.09 136.25 87.53 137.75 87.96 137.58C87.99 137.61 88.02 137.62 88.06 137.63C88.07 137.63 88.08 137.63 88.09 137.63C88.12 137.71 88.18 137.77 88.26 137.79C88.32 137.8 88.38 137.79 88.42 137.74C88.42 137.78 88.43 137.82 88.44 137.86C88.25 137.79 88.06 137.72 87.87 137.65C86.37 137.11 84.83 136.68 83.25 136.46C82.39 136.28 81.52 136.23 80.64 136.19C81.47 135.31 82.14 132.5 82.35 131.78C82.48 131.33 82.66 130.77 82.81 130.29C82.89 130.05 82.99 129.75 82.84 129.53C82.72 129.32 82.42 129.36 82.33 129.58C81.88 131.38 80.84 132.96 79.95 134.58C79.7 134.99 79.44 135.4 79.13 135.77C79.06 135.86 79.03 135.98 79.05 136.09C78.49 136.04 77.93 135.95 77.37 135.8C76.72 135.65 76.06 135.57 75.39 135.56C75.35 135.56 75.3 135.56 75.24 135.56C75.47 134.99 75.65 134.4 75.83 133.81C76.34 131.85 77.24 130.04 78 128.17C78.54 126.9 78.97 125.59 79.52 124.33C80.2 122.86 81.03 121.46 81.54 119.92C82.41 117.46 83.18 114.99 83.92 112.48C84.43 110.91 85.27 109.48 85.96 107.99C86.95 105.61 87.67 103.13 88.67 100.75C89.19 99.4502 89.51 98.0802 89.89 96.7402C90.5 95.0102 91.25 93.3202 91.87 91.5902C92.25 90.6402 92.8 89.7102 93.23 88.7602C93.33 88.4902 93.77 88.0202 93.4 87.8002C93.35 87.7902 93.31 87.7902 93.28 87.8002C93.42 87.6902 93.56 87.5802 93.7 87.4702C93.75 87.5102 93.81 87.5202 93.88 87.5202C94.55 87.5702 95.21 87.5502 95.88 87.5202C96.56 87.4902 97.23 87.5602 97.89 87.6802C97.89 87.6802 97.9 87.6802 97.91 87.6802C97.83 87.7902 97.76 87.9102 97.69 88.0102C97.54 87.6602 97.11 88.4702 97.07 88.6602C96.84 89.4902 96.61 90.3102 96.3 91.1202C96.06 91.8002 95.88 92.5002 95.65 93.1902C95.21 94.2902 94.71 95.4002 94.61 96.6102C94.49 97.3502 94.29 98.0702 94.02 98.7602C93.96 99.0502 93.72 99.3502 93.84 99.6402C93.9 99.7202 93.96 99.7502 94.03 99.7502C94.58 99.7502 95.29 97.2502 95.55 96.9102C95.87 96.2202 96.28 95.5802 96.58 94.8802C96.98 93.8902 97.22 92.8502 97.52 91.8302C98.01 90.4802 98.44 89.1002 98.97 87.7602C99.48 87.7802 99.99 87.7802 100.5 87.8302C101.68 87.9602 102.77 88.4702 103.92 88.7102C105.21 88.9602 106.5 89.2502 107.64 89.9602C107.71 90.0102 107.79 90.0502 107.86 90.0902C107.88 90.1402 107.92 90.1802 107.96 90.2302C107.98 90.2402 108.01 90.2502 108.04 90.2602C107.98 90.8002 107.75 91.2902 107.58 91.7902C107.54 91.9402 107.49 92.0802 107.45 92.2202C107.32 92.3302 107.25 92.5302 107.25 92.7002C107.25 92.7402 107.25 92.7802 107.26 92.8202C107.06 93.4602 106.83 94.0902 106.58 94.7102C106.22 95.6502 106.13 96.6802 105.61 97.5702C104.93 98.7602 104.48 100.06 104.08 101.37C104.03 101.53 103.87 101.85 104.09 101.94C104.09 101.94 104.11 101.94 104.12 101.94C104.19 101.94 104.24 101.89 104.27 101.83C104.51 101.28 104.78 100.7 105.05 100.15C105.43 99.1602 105.88 98.2102 106.32 97.2502C106.66 96.5202 106.89 95.7402 107.27 95.0402C107.93 94.0902 108.43 92.9702 108.85 91.8802C108.99 91.5902 109.12 91.2802 109.24 90.9702C109.26 90.9802 109.29 91.0002 109.31 91.0202C110 91.5402 110.57 92.1802 111.28 92.6802C111.96 93.1202 112.67 93.5102 113.34 93.9702C113.16 94.4902 112.98 95.0102 112.78 95.5302C112.14 96.9902 111.37 98.4002 110.69 99.8402C109.8 101.65 109.01 103.46 108.2 105.31C107.7 106.39 106.99 107.35 106.35 108.35C104.28 111.51 103.49 115.23 102.33 118.78C101.92 119.98 101.41 121.08 100.83 122.23C100.63 122.8 99.79 123.78 100.03 124.41C99.87 124.41 99.7 124.45 99.54 124.51C99.4 124.58 99.32 124.72 99.31 124.87C99.26 125.11 99.55 125.38 99.72 125.11C100.52 125.07 101.2 125.56 101.91 125.86C102.76 126.22 103.66 126.39 104.54 126.65C106.2 127.23 107.85 128.16 109.51 128.82C109.79 128.94 110.08 129.05 110.36 129.16C110.13 129.64 109.93 130.13 109.79 130.64C109.19 132.66 108.49 134.74 107.51 136.63C106.83 137.75 106.12 138.93 105.52 140.11C105.14 140.84 104.62 141.49 104.24 142.23C103.72 143.25 103.56 144.4 103.12 145.45C102.91 145.93 102.71 146.44 102.53 146.93C102.41 146.67 101.98 146.59 101.75 146.39M101.06 141.75C101.1 141.61 101.18 141.51 101.26 141.4C101.21 141.53 101.16 141.66 101.1 141.79C101.08 141.78 101.07 141.76 101.05 141.75M104.56 132.74C104.62 132.65 104.68 132.55 104.75 132.46C104.76 132.44 104.78 132.43 104.79 132.41C104.79 132.62 104.75 132.82 104.7 133.03C104.7 132.97 104.68 132.91 104.65 132.86C104.63 132.81 104.6 132.77 104.56 132.74ZM90.26 131.01C90.47 130.23 90.71 129.46 90.99 128.7C91.04 128.69 91.08 128.66 91.1 128.62C91.21 128.42 91.33 128.23 91.44 128.03C91.03 129.01 90.67 130.02 90.26 131.01ZM93.66 123.13C93.66 123.13 93.66 123.11 93.66 123.1C94.01 121.96 94.38 120.81 94.73 119.67C94.63 120.89 94.03 121.97 93.65 123.12M96.08 93.3002C95.99 94.1002 95.62 94.8602 95.34 95.6202C95.59 94.8502 95.75 94.0502 96.08 93.3002ZM113.64 132.71C113.13 133.54 112.81 134.46 112.35 135.31C111.73 136.93 110.71 138.38 110.11 140.01C109.59 141.41 108.71 142.66 108.28 144.11C108.07 144.81 107 145.96 107.07 146.71C106.05 146.84 105.01 146.8 103.98 146.86C103.64 146.87 103.3 146.87 102.96 146.92C103.08 146.62 103.2 146.31 103.3 146C103.77 144.4 104.57 142.92 105.35 141.44C105.85 140.61 106.52 139.89 106.92 139C107.41 137.91 107.77 136.78 108.4 135.75C109.07 134.58 109.71 133.36 110.06 132.05C110.28 131.14 110.41 130.2 110.75 129.32C111.98 129.76 113.23 130.14 114.45 130.62C114.25 131.35 114.06 132.06 113.61 132.71" fill="#D9CFC6"/>
<path d="M118.46 139.92C117.64 140.47 116 141.14 116.69 142.36C116.92 142.84 117.17 143.35 117.63 143.65C117.73 143.7 117.84 143.72 117.94 143.72C118.37 143.72 118.78 143.36 119.15 143.19C119.56 142.97 120.05 142.97 120.43 142.69C121.5 141.9 120.67 140.84 120.19 139.98C119.83 139.46 118.69 139.15 118.45 139.92M119.3 142.33C118.72 142.51 118.34 143.07 117.78 143.24C117.35 143.07 117.19 142.52 117.03 142.11C116.99 141.97 116.91 141.73 117.08 141.61C117.51 141.2 118.06 140.96 118.53 140.61C118.8 141.1 119.48 140.79 119.89 141.07C120.07 141.29 120.28 141.5 120.39 141.76C120.24 142.19 119.65 142.13 119.3 142.32" fill="#D9CFC6"/>
<path d="M115.11 141.47C115.22 141.05 115.46 140.54 115.19 140.14C115.04 139.9 114.66 139.71 114.6 140.12C114.35 139.75 113.92 140.12 113.68 140.32C112.99 140.86 112.65 142.17 113.75 142.43C113.85 142.46 113.94 142.48 114.03 142.48C114.56 142.48 114.97 141.96 115.12 141.47M113.58 141.57C113.66 141.22 114 141 114.3 140.82C114.58 140.98 114.7 140.6 114.67 140.39C114.73 140.47 114.87 140.44 114.92 140.53C114.82 140.98 114.66 141.63 114.13 141.71C113.94 141.71 113.72 141.7 113.58 141.57Z" fill="#D9CFC6"/>
<path d="M115.47 144.67C115.26 144.5 114.75 144.54 114.82 144.9C114.18 144.7 113.73 145.63 114.2 146.05C114.33 146.16 114.48 146.21 114.63 146.21C115.31 146.21 116.04 145.21 115.47 144.67ZM114.67 145.55C114.61 145.55 114.54 145.55 114.48 145.53C114.52 145.4 114.62 145.39 114.73 145.39C114.75 145.39 114.76 145.39 114.78 145.39H114.87C115.03 145.38 115.09 145.18 115.04 145.04C115.11 145.01 115.22 145.01 115.28 145.09C115.22 145.35 114.93 145.52 114.68 145.55" fill="#D9CFC6"/>
<path d="M84.6201 141.1C84.2201 140.98 83.8201 141.1 83.4201 141.13C83.0801 141.19 82.1801 141.01 82.4501 141.62C82.0601 141.75 81.0001 142.61 81.1301 143.06C81.2201 143.41 81.7001 143.33 81.8601 143.62C82.0901 143.91 82.1701 144.29 82.3001 144.63C82.3701 144.81 82.4401 145.03 82.6501 145.07C82.6801 145.07 82.7001 145.07 82.7301 145.07C82.9101 145.07 83.0801 144.95 83.2001 144.84C83.5401 144.52 83.8401 144.15 84.2601 143.93C84.7701 143.62 85.6701 143.84 85.8401 143.11C85.9501 142.29 85.4001 141.35 84.6101 141.09M84.0401 143.35C83.4801 143.6 83.1001 144.08 82.6401 144.45C82.3801 143.89 82.1601 143.21 81.5601 142.89C81.8401 142.63 82.1701 142.24 82.5701 142.23C82.9001 142.43 83.1101 142 82.9301 141.73C84.0401 141.77 84.9801 141.57 85.2501 142.93C84.8701 143.12 84.4101 143.12 84.0401 143.34" fill="#D9CFC6"/>
<path d="M80.1102 139.06C79.9302 138.9 79.6202 138.53 79.3902 138.8C79.0502 138.74 78.7702 139.01 78.6702 139.32C78.4902 139.79 78.8502 140.33 79.3402 140.37C79.3902 140.38 79.4402 140.39 79.4902 140.39C80.1302 140.39 80.6802 139.55 80.1102 139.07M79.5902 139.89C79.3502 139.92 78.9602 139.72 79.0502 139.44C79.0802 139.38 79.1202 139.34 79.1702 139.3C79.1702 139.3 79.1902 139.29 79.2002 139.28C79.2602 139.25 79.3202 139.26 79.3802 139.26C79.4802 139.42 79.6902 139.34 79.8302 139.44C79.8702 139.46 79.9702 139.52 80.0102 139.57C79.9802 139.75 79.7702 139.87 79.6002 139.89" fill="#D9CFC6"/>
<path d="M79.1901 143.58C79.1001 143.58 79.0401 143.63 79.0201 143.71C78.5201 143.72 78.2501 144.54 78.6301 144.88C78.7701 145.02 78.9501 145.09 79.1301 145.09C79.4701 145.09 79.8001 144.85 79.7901 144.44C79.7901 144.08 79.5801 143.64 79.1901 143.59M79.2101 144.55C79.0901 144.55 78.9701 144.51 78.8801 144.44C78.9001 144.39 78.9301 144.34 78.9701 144.29C79.0401 144.36 79.1501 144.38 79.2301 144.31C79.3001 144.25 79.3401 144.14 79.3301 144.04C79.5201 144.2 79.4901 144.53 79.2101 144.55Z" fill="#D9CFC6"/>
<path d="M84.2802 145.31C84.0502 145.31 83.9302 145.57 83.9302 145.77C83.9302 145.97 84.0502 146.23 84.2802 146.23C84.5102 146.23 84.6302 145.97 84.6302 145.77C84.6302 145.57 84.5102 145.31 84.2802 145.31Z" fill="#D9CFC6"/>
<path d="M82.3698 139.82C82.3698 139.65 82.2698 139.42 82.0598 139.42C81.8498 139.42 81.7598 139.65 81.7598 139.82C81.7598 139.99 81.8598 140.22 82.0598 140.22C82.2598 140.22 82.3698 139.99 82.3698 139.82Z" fill="#D9CFC6"/>
<path d="M79.8599 141.07C79.7199 141.07 79.6499 141.23 79.6499 141.35C79.6499 141.47 79.7199 141.63 79.8599 141.63C79.9999 141.63 80.0699 141.47 80.0699 141.35C80.0699 141.23 79.9999 141.07 79.8599 141.07Z" fill="#D9CFC6"/>
<path d="M77.6 141.34C77.42 141.34 77.33 141.54 77.33 141.7C77.33 141.7 77.32 141.7 77.31 141.7C77.27 141.7 77.25 141.75 77.25 141.78C77.25 141.81 77.27 141.86 77.31 141.86C77.33 141.86 77.34 141.85 77.35 141.83C77.39 141.94 77.47 142.05 77.6 142.05C77.78 142.05 77.87 141.85 77.87 141.69C77.87 141.53 77.78 141.33 77.6 141.33" fill="#D9CFC6"/>
<path d="M81.2798 147.22C81.1298 147.22 81.0498 147.39 81.0498 147.52C81.0498 147.65 81.1298 147.82 81.2798 147.82C81.4298 147.82 81.5098 147.65 81.5098 147.52C81.5098 147.39 81.4298 147.22 81.2798 147.22Z" fill="#D9CFC6"/>
<path d="M119.11 145.2C118.96 145.2 118.88 145.38 118.88 145.51C118.88 145.64 118.96 145.82 119.11 145.82C119.26 145.82 119.34 145.64 119.34 145.51C119.34 145.38 119.26 145.2 119.11 145.2Z" fill="#D9CFC6"/>
<path d="M116.91 137.33C116.91 137.19 116.83 137.01 116.66 137.01C116.49 137.01 116.42 137.19 116.42 137.33C116.42 137.47 116.5 137.65 116.66 137.65C116.82 137.65 116.91 137.47 116.91 137.33Z" fill="#D9CFC6"/>
<path d="M111.12 142.56C111.04 142.56 111 142.65 111 142.72C111 142.79 111.04 142.88 111.12 142.88C111.2 142.88 111.24 142.79 111.24 142.72C111.24 142.65 111.2 142.56 111.12 142.56Z" fill="#D9CFC6"/>
<path d="M122.85 142.69C122.67 142.69 122.59 142.89 122.59 143.04C122.59 143.19 122.68 143.39 122.85 143.39C123.02 143.39 123.11 143.19 123.11 143.04C123.11 142.89 123.02 142.69 122.85 142.69Z" fill="#D9CFC6"/>
<path d="M117.7 148.08C117.54 148.08 117.45 148.27 117.45 148.41C117.45 148.55 117.54 148.74 117.7 148.74C117.86 148.74 117.95 148.55 117.95 148.41C117.95 148.27 117.86 148.08 117.7 148.08Z" fill="#D9CFC6"/>
<path d="M113.02 149.67C112.91 149.67 112.85 149.79 112.85 149.89C112.85 149.99 112.91 150.11 113.02 150.11C113.13 150.11 113.19 149.98 113.19 149.89C113.19 149.8 113.13 149.67 113.02 149.67Z" fill="#D9CFC6"/>
<path d="M110.85 147.3C110.72 147.3 110.66 147.44 110.66 147.55C110.66 147.66 110.72 147.8 110.85 147.8C110.98 147.8 111.04 147.66 111.04 147.55C111.04 147.44 110.97 147.3 110.85 147.3Z" fill="#D9CFC6"/>
<path d="M115.56 146.63C115.39 146.63 115.31 146.82 115.31 146.96C115.31 147.1 115.39 147.29 115.56 147.29C115.73 147.29 115.81 147.1 115.81 146.96C115.81 146.82 115.73 146.63 115.56 146.63Z" fill="#D9CFC6"/>
<path d="M111.7 144.91C111.41 144.91 111.26 145.24 111.26 145.49C111.26 145.74 111.41 146.07 111.7 146.07C111.99 146.07 112.14 145.74 112.14 145.49C112.14 145.24 111.99 144.91 111.7 144.91Z" fill="#D9CFC6"/>
<path d="M12.3334 81.6281C7.81112 79.5289 5.60947 74.9922 7.78939 70.2959C9.02064 67.6434 11.6954 65.5817 14.674 66.9643C15.6741 67.4286 16.7986 68.479 16.2334 69.6966C15.9407 70.3271 15.0913 70.6199 14.439 70.3171C13.765 70.0043 13.4536 69.2519 12.7796 68.939C11.5186 68.3537 9.96426 70.222 9.51011 71.2004C7.81461 74.853 10.2964 77.5906 13.6012 79.1246C17.2321 80.81 20.8123 80.3842 22.5684 76.6011C23.1638 75.3184 22.3304 72.1039 22.5928 71.5386C22.7543 71.1907 23.1829 71.1783 23.4655 71.3095C25.2701 72.1471 24.8736 75.8478 24.2308 77.3464L23.8776 78.1074C21.7179 82.7601 16.7253 83.6667 12.3334 81.6281Z" fill="#D9CFC6"/>
<path d="M16.6789 54.6873C16.7971 54.5069 16.9623 54.3858 17.1476 54.2779C18.0739 53.7385 19.5404 54.2118 20.5395 54.4363C23.1302 54.9868 25.7264 55.3976 28.3171 55.9481C29.982 56.2934 31.6145 56.7321 33.3035 56.7781C33.7557 56.7877 34.2541 56.7703 34.6552 57.033C35.3971 57.5188 34.8332 58.4675 34.4786 59.009C34.0453 59.6707 33.1958 60.6616 32.3134 60.0838C31.9525 59.8474 31.6441 59.5308 31.2831 59.2945C29.6589 58.2308 28.7755 59.1422 27.8956 60.4857L26.6612 62.3706C25.6632 63.8946 24.7169 65.252 26.5417 66.447C27.8251 67.2875 28.8519 67.6447 27.7488 69.3291C27.3679 69.9107 26.5772 70.7681 25.8352 70.2823C25.4342 70.0196 25.3172 69.5419 25.181 69.1375C24.5618 67.414 23.3274 66.0612 22.2652 64.6206C21.9021 64.125 21.5653 63.5892 21.2153 63.0735C19.9961 61.1289 18.5583 59.2991 17.2927 57.3815C16.7878 56.6211 16.1011 55.5696 16.6789 54.6873ZM23.191 61.588C24.3741 62.3628 24.7915 61.3754 25.3956 60.453C25.8289 59.7913 26.7773 58.6932 25.8148 58.0628C25.2132 57.6689 20.477 56.5443 20.2012 56.9654C19.7416 57.6672 22.5092 61.1415 23.191 61.588Z" fill="#D9CFC6"/>
<path d="M40.1451 44.4504C41.0853 45.3401 44.8749 45.0321 45.4146 45.5428C45.7976 45.9053 45.6944 46.4677 45.3485 46.8333C43.5691 48.7136 40.4899 45.2717 36.75 49.2238C36.1404 49.868 35.8221 50.6228 36.5533 51.3148C37.1975 51.9244 38.3534 52.0282 38.8757 52.5224C39.5721 53.1815 38.7492 54.0859 38.2879 54.5734C37.7772 55.1131 36.7858 56.056 36.0372 55.3476C35.6194 54.9522 35.4788 54.1591 35.2953 53.6555C33.5882 52.007 31.8811 50.3585 30.1574 48.7274C29.1651 47.7883 28.1158 46.6304 27.009 45.847C26.3521 45.3904 25.4141 45.1958 24.857 44.6686C23.7254 43.5977 26.175 41.4276 26.8669 40.6964C29.6678 37.7366 33.8545 35.2304 37.4062 38.5914L38.1888 39.2989C40.0517 41.0618 39.5358 43.8737 40.1451 44.4504ZM35.258 47.3829C35.6534 46.965 35.9792 46.4813 36.2701 45.9646C37.3873 44.0517 38.054 42.4055 36.1911 40.6427C33.9626 38.5338 31.2794 38.9978 29.2859 41.1044C27.3088 43.1936 28.641 44.1573 30.2776 45.706C30.7302 46.1344 32.8176 48.0437 33.3306 48.1991C34.0817 48.3818 34.7637 47.9052 35.258 47.3829Z" fill="#D9CFC6"/>
<path d="M49.9978 29.0467C51.194 30.6365 53.3494 29.4346 55.1077 31.7713C57.8892 35.4679 55.7222 38.4484 52.7108 40.9843C52.0118 41.5703 51.308 42.1898 50.561 42.7519C49.8141 43.314 47.9945 44.6831 47.173 43.5914C46.8992 43.2275 46.7922 42.288 46.7052 41.8135C45.7826 40.4679 44.8409 39.1366 43.8465 37.815C42.5061 36.0338 41.07 34.3246 39.7297 32.5433C39.1244 31.7389 38.5016 32.0275 37.9107 31.2422C37.1901 30.2845 38.842 29.0115 39.4933 28.5215C40.2019 27.9883 40.9394 27.4933 41.6625 26.9792C43.5923 25.5572 45.0623 24.481 47.5185 25.5126C47.9886 25.6989 48.3679 26.0434 48.6705 26.4457C49.2614 27.231 49.4069 28.2614 49.9978 29.0467ZM42.9355 28.6312C41.6331 29.6112 41.3081 30.2157 42.3601 31.6139C43.2681 32.8206 44.0029 33.6776 45.4778 32.5678C46.8759 31.5158 47.8992 29.8458 46.6886 28.2369C45.4924 26.6472 44.123 27.7376 42.9355 28.6312ZM51.0547 39.6206C51.4952 39.2892 51.9069 38.9194 52.3042 38.5304C54.1518 36.7202 54.7826 35.4056 53.0964 33.1647C51.6552 31.2494 48.9536 32.6822 47.4788 33.792C45.2187 35.4926 45.5409 36.1201 47.1118 38.2078C48.1783 39.6252 49.2543 40.9754 51.0547 39.6206Z" fill="#D9CFC6"/>
<path d="M60.0979 15.7165C64.4205 13.5886 69.1267 15.2793 71.2441 19.5804C72.4933 22.1181 73.2581 24.9743 72.1262 27.7223C71.887 28.2675 70.2883 30.2301 69.803 30.7095C69.2422 31.2527 68.5113 31.5591 67.8016 31.9084C63.2855 34.1316 58.8495 32.0674 56.7004 27.7018C55.9805 26.2394 55.3119 23.4159 55.3649 21.7868C55.3907 21.0795 55.9443 19.9787 56.2699 19.3376C57.1053 17.724 58.485 16.5105 60.0979 15.7165ZM66.9868 30.1989C70.6427 28.3992 70.7847 24.5087 69.1438 21.1754C67.5452 17.9281 64.5574 15.712 61.009 17.4588C57.1595 19.3538 57.2762 23.01 58.9912 26.4939C60.5157 29.5907 63.5889 31.8716 66.9868 30.1989ZM55.1331 15.943C54.5509 14.7602 55.7602 13.3634 56.1952 12.3477C56.3799 11.9629 57.206 10.1135 57.6146 9.91237C58.0233 9.71122 58.451 9.87467 58.6522 10.2833C59.1286 11.251 56.8598 15.8144 55.9996 16.2378C55.677 16.3966 55.2708 16.2226 55.1331 15.943Z" fill="#D9CFC6"/>
<path d="M77.4285 26.0014C77.3436 25.6767 77.3576 25.351 77.4008 25.0424C77.9502 24.7749 76.7085 20.1196 76.5448 19.4934C76.0538 17.615 75.5335 15.7194 74.9436 13.842C74.7032 13.1121 74.5345 12.5615 74.0573 11.9678C73.8332 11.6795 73.6032 11.368 73.5122 11.0202C73.3182 10.2781 73.9755 9.75941 74.6248 9.58966L74.8396 9.55829C76.1393 9.31763 77.0251 10.0523 77.9865 10.792C80.6246 12.8277 83.2737 14.8109 85.8372 16.9404C86.2478 17.279 87.6722 18.3684 88.1592 18.2411C89.0173 18.0168 88.0358 15.3994 87.9206 14.9588L86.4171 9.20752C86.0519 8.75795 85.4879 8.21167 85.3424 7.6551C85.1605 6.95938 85.7089 6.59304 86.3119 6.43542C87.054 6.24142 88.7087 6.03184 88.9754 7.05223C89.127 7.632 88.7552 8.19993 88.6566 8.77075C88.6134 9.07935 90.1169 14.8306 90.2503 15.3408C90.3776 15.8278 91.8871 21.6023 91.8268 21.9402C91.7453 22.4817 91.4884 22.9205 90.9318 23.066C90.5376 23.1691 90.1181 23.0806 89.7499 22.9043C88.3942 22.2676 78.8977 13.8985 77.8773 14.1653C77.8541 14.1713 77.7674 14.2188 77.7271 14.2541C77.4095 14.461 77.8985 16.1418 77.9651 16.3969C78.331 17.9859 78.6102 19.6225 79.0285 21.2226C79.277 22.1735 79.5862 23.3562 80.2511 24.0991C80.4983 24.3813 80.7284 24.6928 80.8254 25.0638C81.0558 25.9451 80.2241 26.4598 79.482 26.6538C78.7399 26.8478 77.671 26.929 77.4285 26.0014Z" fill="#D9CFC6"/>
<path d="M109.955 4.81569C110.171 4.81919 110.362 4.8942 110.552 4.99318C111.503 5.48808 111.886 6.98064 112.23 7.94515C113.148 10.4293 114.188 12.8435 115.107 15.3276C115.704 16.9196 116.205 18.5339 117.069 19.9863C117.302 20.3737 117.583 20.7858 117.575 21.2651C117.561 22.1519 116.458 22.1819 115.811 22.1714C115.02 22.1586 113.728 21.9698 113.745 20.9153C113.752 20.4839 113.855 20.054 113.862 19.6226C113.894 17.6813 112.651 17.4214 111.046 17.3953L108.793 17.3588C106.971 17.3292 105.318 17.2544 105.283 19.4354C105.258 20.9693 105.505 22.0281 103.491 21.9954C102.796 21.9841 101.649 21.7737 101.663 20.8869C101.671 20.4076 102.013 20.0535 102.282 19.7223C103.408 18.2782 103.892 16.5121 104.542 14.8445C104.767 14.2728 105.04 13.7019 105.289 13.1306C106.282 11.061 107.061 8.86811 108.006 6.77381C108.379 5.94081 108.901 4.79857 109.955 4.81569ZM107.601 14.0071C107.578 15.4212 108.635 15.2466 109.738 15.2645C110.529 15.2773 111.964 15.4924 111.982 14.342C111.994 13.623 110.414 9.01845 109.911 9.01028C109.072 8.99666 107.614 13.1923 107.601 14.0071Z" fill="#D9CFC6"/>
<path d="M120.427 13.5902C121.355 8.69161 125.215 5.44637 130.302 6.41032C133.175 6.95478 135.829 9.04343 135.217 12.2699C135.012 13.3532 134.269 14.7006 132.95 14.4507C132.267 14.3213 131.775 13.5694 131.909 12.8628C132.047 12.1328 132.7 11.6466 132.839 10.9165C133.098 9.55059 130.906 8.50092 129.846 8.30009C125.889 7.55035 123.843 10.6268 123.164 14.2065C122.419 18.1395 123.708 21.5066 127.806 22.2831C129.196 22.5464 132.108 20.9515 132.721 21.0675C133.097 21.1389 133.214 21.5514 133.156 21.8576C132.786 23.8123 129.101 24.3338 127.49 24.0775L126.666 23.9213C121.626 22.9662 119.525 18.3475 120.427 13.5902Z" fill="#D9CFC6"/>
<path d="M140.387 26.5144C140.48 26.2678 140.855 25.8203 141.038 25.6078C141.688 25.3157 143.634 20.1833 143.94 19.3764C144.229 18.6144 145.751 14.6026 145.663 13.9542C145.571 13.0477 144.726 12.5732 143.941 12.2757C141.902 11.5022 140.961 12.6321 140.176 12.3346C139.683 12.1476 139.593 11.5749 139.763 11.1267C140.094 10.2526 141.225 9.50216 142.178 9.55622C142.731 9.58633 147.362 11.3683 148.124 11.6573C149.424 12.1503 150.732 12.6209 152.029 13.1896C152.953 13.5915 154.136 13.9887 154.511 15.0281C154.702 15.5366 154.762 16.1232 154.566 16.6387C154.396 17.0869 153.932 17.5004 153.439 17.3134C152.766 17.0584 152.57 15.5483 150.687 14.8343C150.06 14.5963 148.973 14.2864 148.393 14.7331C147.822 15.1574 145.436 21.5843 145.096 22.4808C144.594 23.8031 143.842 25.3125 143.926 26.7801C143.937 27.0915 143.938 27.4254 143.828 27.7167C143.462 28.6805 142.456 28.427 141.716 28.1465C141.044 27.8915 140.021 27.4781 140.387 26.5144Z" fill="#D9CFC6"/>
<path d="M151.55 31.1813C151.753 30.8007 152.091 30.5737 152.399 30.303C153.068 29.7095 153.549 28.9608 153.955 28.1995C154.858 26.5076 158.102 20.6312 158.387 19.1803C158.51 18.5938 158.386 17.6039 158.645 17.1175C159.096 16.2716 160.138 16.6101 160.794 16.9599C161.555 17.366 162.438 18.0542 161.93 19.0059C161.738 19.3655 161.431 19.6361 161.145 19.9181C160.032 21.0361 159.287 22.4319 158.543 23.8277C157.584 25.6253 155.202 30.1412 154.97 32.001C154.938 32.4183 154.947 32.8583 154.733 33.2601C154.349 33.9791 153.354 33.5024 152.847 33.2316C152.149 32.8593 151.064 32.0907 151.55 31.1813Z" fill="#D9CFC6"/>
<path d="M165.666 21.2126C166.169 20.5109 167.266 20.9131 167.812 21.3037C168.26 21.6246 169.363 22.4727 168.916 23.0964L167.424 25.1821C166.932 27.1879 166.4 29.1658 166.1 31.1913C165.985 31.846 165.904 32.4952 165.717 33.1276C165.543 33.7404 164.993 35.4982 165.617 35.9446C166.182 36.3491 167.389 35.4446 167.852 35.1274C168.329 34.7907 168.831 34.5013 169.352 34.226C169.935 33.906 170.492 33.5387 171.044 33.138C172.21 32.292 173.484 31.5826 174.764 30.9067C175.199 30.216 175.634 29.5254 176.123 28.8431C176.667 28.0829 177.602 28.5463 178.207 28.9788C178.791 29.3973 179.571 30.1615 179.027 30.9217C178.72 31.3505 177.795 31.5726 177.31 31.7561C175.373 32.4035 173.797 33.7814 172.105 34.8694C170.426 35.9378 168.728 36.9923 167.05 38.0608C166.152 38.6563 164.027 40.1423 162.975 39.389C162.76 39.2356 162.602 39.0041 162.477 38.7672C162.045 37.9281 162.46 36.0727 162.703 35.1561C163.477 32.2617 164.126 29.3365 164.789 26.3918C165.064 25.1438 165.318 23.8817 165.4 22.614C165.423 22.1291 165.387 21.6025 165.666 21.2126Z" fill="#D9CFC6"/>
<path d="M186.729 37.052C186.881 37.2045 186.966 37.3908 187.034 37.5942C187.374 38.6109 186.612 39.9504 186.189 40.8829C185.123 43.3074 184.192 45.7658 183.126 48.1903C182.449 49.7501 181.688 51.2591 181.299 52.9035C181.198 53.3442 181.113 53.8358 180.775 54.175C180.148 54.8026 179.334 54.0574 178.876 53.6001C178.316 53.0411 177.519 52.0078 178.264 51.2615C178.569 50.9562 178.942 50.7186 179.247 50.4133C180.618 49.0395 179.906 47.9891 178.769 46.8543L177.175 45.2622C175.886 43.9749 174.75 42.7723 173.208 44.3158C172.124 45.4013 171.566 46.3339 170.141 44.9111C169.649 44.42 168.97 43.4713 169.597 42.8437C169.936 42.5045 170.427 42.4872 170.851 42.436C172.664 42.1805 174.24 41.2472 175.867 40.5003C176.426 40.2457 177.019 40.0249 177.595 39.7872C179.747 38.9891 181.831 37.9537 183.966 37.1048C184.813 36.7652 185.983 36.3068 186.729 37.052ZM178.647 42.0238C177.648 43.0245 178.53 43.6341 179.31 44.4132C179.87 44.9722 180.752 46.1241 181.565 45.31C182.073 44.8011 184.138 40.3928 183.782 40.0372C183.188 39.4443 179.223 41.4471 178.647 42.0238Z" fill="#D9CFC6"/>
<path d="M197.856 49.1993C199.321 51.3051 200.892 54.1536 200.691 56.8039C200.489 59.3679 198.645 61.6713 196.599 63.0944C193.214 65.448 189.633 65.631 186.291 63.0499C185.38 62.3695 184.54 61.2024 183.883 60.2577C183.39 59.5492 182.917 58.827 182.438 58.1382C182.014 57.5281 181.512 56.6802 182.319 56.1191C182.929 55.6949 183.78 55.6584 184.478 55.3189C185.347 54.8897 186.18 54.2816 186.987 53.7206C189.309 52.1059 191.624 50.4382 193.966 48.8099C194.228 48.3061 194.592 47.5276 195.084 47.1855C196.029 46.5287 197.405 48.5498 197.856 49.1993ZM185.923 59.5396C188.605 63.397 192.115 63.3217 195.736 60.804C198.649 58.7788 199.373 55.0344 197.335 52.102C196.035 50.2323 195.355 50.8507 193.759 51.8726C192.728 52.5311 191.629 53.0912 190.625 53.7891C189.248 54.7469 187.884 55.7244 186.588 56.8004C185.856 57.4264 185.18 57.925 185.58 58.9612C185.664 59.1657 185.8 59.3625 185.923 59.5396Z" fill="#D9CFC6"/>
<path d="M209.991 70.2656C211.942 74.6708 210.062 79.3047 205.679 81.2462C203.093 82.3917 200.208 83.0403 197.508 81.7981C196.973 81.537 195.077 79.8602 194.617 79.3558C194.097 78.7735 193.821 78.0308 193.5 77.3076C191.462 72.7051 193.704 68.3563 198.153 66.3857C199.643 65.7256 202.491 65.1719 204.117 65.2908C204.823 65.3452 205.9 65.9429 206.528 66.2941C208.106 67.1942 209.263 68.6218 209.991 70.2656ZM195.241 76.5626C196.892 80.2884 200.773 80.5878 204.17 79.0831C207.48 77.6173 209.815 74.7216 208.213 71.1054C206.475 67.1824 202.817 67.151 199.267 68.7236C196.111 70.1215 193.708 73.0998 195.241 76.5626Z" fill="#D9CFC6"/>
</svg>
