<svg width="405" height="339" viewBox="0 0 405 339" fill="none" xmlns="http://www.w3.org/2000/svg">
<g clip-path="url(#clip0_69_2399)">
<path d="M17.13 152.67C17.13 150.32 15.9 150.34 13.96 150.34C13.16 150.34 12.34 150.23 11.54 150.23C9.94 150.23 9.26 150.55 9.26 152.26C9.26 153.42 9.74 154.52 9.74 155.68C9.74 156.52 8.8 156.8 8.12 156.8C7.28 156.8 6.13 156.5 6.13 155.45C6.13 154.72 6.75 153.9 6.93 153.14C7.02 152.64 7.02 152.11 7.02 151.61C7.02 148.92 7 146.22 7 143.53C7 142.59 6.32 141.82 6.32 140.86C6.32 140.06 7.37 139.9 7.99 139.9C8.67 139.9 9.88 139.97 9.88 140.9C9.88 141.17 9.79 141.42 9.7 141.68C9.2 143.12 9.11 143.51 9.11 145.04C9.11 145.91 9.11001 147.32 9.89001 147.87C10.3 148.17 13.25 148.33 13.91 148.33C17.06 148.33 17.13 147.53 17.13 144.68C17.13 143.68 17.08 142.85 16.72 141.92C16.61 141.65 16.47 141.37 16.47 141.08C16.47 140.17 17.47 139.78 18.25 139.78C18.93 139.78 20.03 140.1 20.03 140.94C20.03 141.26 19.87 141.56 19.76 141.85C19.35 142.88 19.28 143.56 19.28 144.66C19.28 147.13 19.37 149.59 19.37 152.08C19.37 152.6 19.37 153.13 19.48 153.65C19.62 154.31 20.19 155.13 20.19 155.77C20.19 156.75 19.28 156.89 18.5 156.89C17.82 156.89 16.58 156.8 16.58 155.86C16.58 154.76 17.15 153.76 17.15 152.66L17.13 152.67Z" fill="#E3D9D0"/>
<path d="M32.9 150.07C32.9 151.64 31.26 151.9 30.02 151.9C28.99 151.9 25 151.53 25 152.84C25 154.03 26.64 155.01 27.72 155.01C29.57 155.01 30.76 153.53 31.58 153.53C32.04 153.53 32.33 153.96 32.33 154.4C32.33 156.09 28.86 156.98 27.51 156.98C27.24 156.98 26.96 156.93 26.71 156.87C23.86 156.23 22.24 154.11 22.24 151.19C22.24 147.61 24.61 144.8 28.31 144.8C31.14 144.8 32.9 147.49 32.9 150.1V150.07ZM27.81 149.79C28.43 149.79 30.53 149.79 30.53 148.85C30.53 147.87 29.09 146.8 28.18 146.8C27.11 146.8 25.17 147.55 25.17 148.85C25.17 149.99 27.06 149.79 27.82 149.79H27.81Z" fill="#E3D9D0"/>
<path d="M35.07 148.29C35.71 146.28 38.29 144.93 40.32 144.93C40.85 144.93 41.37 144.98 41.87 145.09C43.26 145.46 44.59 146.96 44.59 148.42C44.59 149.22 44.22 149.93 43.33 149.93C41.23 149.93 43.17 146.69 40.2 146.69C38.12 146.69 36.75 148.72 36.75 150.66C36.75 152.6 37.91 155.09 40.22 155.09C42.11 155.09 43.26 153.65 44.03 153.65C44.42 153.65 44.65 153.99 44.65 154.36C44.65 155.02 43.62 155.84 43.12 156.21C42.34 156.76 41.2 156.94 40.27 156.94C36.78 156.94 35.07 154.47 34.61 151.26C34.59 151.15 34.59 151.05 34.59 150.94C34.59 150.05 34.8 149.14 35.07 148.29Z" fill="#E3D9D0"/>
<path d="M47.83 153.88L47.85 142.65C47.6 142.13 47.3 141.55 47.3 140.98C47.3 140.41 47.76 140.07 48.3 140.07C48.67 140.07 49.01 140.28 49.28 140.5C50.65 141.71 49.35 144.97 51.06 144.97C51.77 144.97 52.43 144.72 53.11 144.72C57.45 144.72 57.52 148.94 57.7 152.18C57.75 152.98 57.77 153.46 58.09 154.19C58.25 154.56 58.41 154.94 58.41 155.35C58.41 156.24 57.63 156.65 56.81 156.65C56.13 156.65 55.08 156.28 55.08 155.44C55.08 154.78 55.7 154.32 55.7 153.52C55.7 151.56 56.09 146.74 53.19 146.74C50.29 146.74 49.95 149.66 49.95 151.97C49.95 152.91 49.97 153.73 50.29 154.62C50.4 154.94 50.52 155.24 50.52 155.58C50.52 156.42 49.47 156.81 48.76 156.81C48.17 156.81 47.28 156.47 47.28 155.74C47.28 155.12 47.83 154.37 47.83 153.87V153.88Z" fill="#E3D9D0"/>
<path d="M71.46 151.07V151.57C71.46 154.33 68.65 156.91 65.94 156.91C62.29 156.91 60.1 153.94 60.1 150.5C60.1 147.06 62.47 144.79 65.92 144.79C69.75 144.79 71.42 147.55 71.47 151.07H71.46ZM69.04 150.94C69.04 148.98 68.22 146.58 65.96 146.58C63.7 146.58 62.44 148.43 62.44 150.57C62.44 152.56 63.47 155.07 65.73 155.07C67.99 155.07 69.04 153.04 69.04 150.94Z" fill="#E3D9D0"/>
<path d="M9.91 178.4C9.91 179.15 9.96 180.77 10.18 181.41C10.36 181.96 11.02 182.73 11.02 183.28C11.02 183.87 10.43 184.24 9.88 184.24C9.26 184.24 8.67 183.92 8.05 183.92C7.52 183.92 7.02 184.03 6.52 184.15C5.84 184.29 5.1 184.33 4.4 184.33C3.87 184.33 3.35 184.31 2.85 184.19C1.34 183.82 0 182.39 0 180.83V180.6C0 177.61 1.96 177.63 1.96 176.95C1.96 176.47 1.07 176.04 1.07 174.96C1.07 172.95 3.58 172.22 5.2 172.22C8.4 172.22 9.83 175.64 9.9 178.38L9.91 178.4ZM7.56 180.24C7.56 178.92 5.89 178.8 4.93 178.8C3.74 178.8 2.24 178.87 2.24 180.44C2.24 181.6 3.11 182.49 4.27 182.49C5.62 182.49 7.56 181.85 7.56 180.23V180.24ZM3.72 176.14C3.72 176.82 5.25 176.8 5.68 176.8C6.23 176.8 7.12 176.91 7.12 176.14C7.12 175.25 5.96 174.18 5.09 174.18C4.22 174.18 3.72 175.39 3.72 176.14Z" fill="#E3D9D0"/>
<path d="M34.99 180.13V179.4C34.99 177.73 34.9699 173.9 32.57 173.9C31.15 173.9 30.08 175.32 29.53 176.48C29.55 177.62 29.53 178.76 29.53 179.9C29.53 180.33 29.53 180.77 29.62 181.2C29.73 181.77 30.12 182.27 30.12 182.89C30.12 183.71 29.12 184.12 28.43 184.12C27.65 184.12 26.65 183.73 26.65 182.84C26.65 182.45 26.86 182.09 26.99 181.74C27.36 180.85 27.4 179.91 27.4 178.98C27.4 177.29 27.5599 173.98 25.1399 173.98C22.7199 173.98 22.1299 176.65 22.1299 178.66V179.82C22.1299 180.92 22.8099 181.85 22.8099 182.92C22.8099 183.81 21.8499 184.06 21.1399 184.06C20.4299 184.06 19.43 183.9 19.43 182.96C19.43 182.39 19.7 181.86 19.93 181.34C19.98 179.97 20.04 178.6 20.04 177.21C20.04 175.82 19.9299 175.25 19.3799 173.92C19.2899 173.71 19.2 173.49 19.2 173.26C19.2 172.55 19.88 172.23 20.5 172.23C21.12 172.23 21.6899 172.53 22.2999 172.53C23.5099 172.53 24.65 172.01 25.86 172.01C27.07 172.01 28.03 172.88 29.1 172.88C30.17 172.88 30.9 171.97 31.95 171.97C38.2 171.97 36.24 178.22 37.77 182.17C37.88 182.49 38.09 182.79 38.09 183.13C38.09 183.93 36.81 184.18 36.2 184.18C35.45 184.18 34.4199 183.79 34.4199 182.9C34.4199 181.94 34.97 181.07 34.97 180.12L34.99 180.13Z" fill="#E3D9D0"/>
<path d="M49.46 178.4C49.46 179.15 49.51 180.77 49.73 181.41C49.91 181.96 50.57 182.73 50.57 183.28C50.57 183.87 49.9801 184.24 49.43 184.24C48.8101 184.24 48.22 183.92 47.6 183.92C47.07 183.92 46.57 184.03 46.07 184.15C45.39 184.29 44.6501 184.33 43.9501 184.33C43.4201 184.33 42.9001 184.31 42.4001 184.19C40.8901 183.82 39.55 182.39 39.55 180.83V180.6C39.55 177.61 41.51 177.63 41.51 176.95C41.51 176.47 40.62 176.04 40.62 174.96C40.62 172.95 43.13 172.22 44.75 172.22C47.95 172.22 49.3801 175.64 49.4501 178.38L49.46 178.4ZM47.1101 180.24C47.1101 178.92 45.4401 178.8 44.4901 178.8C43.3001 178.8 41.8 178.87 41.8 180.44C41.8 181.6 42.6701 182.49 43.8301 182.49C45.1801 182.49 47.12 181.85 47.12 180.23L47.1101 180.24ZM43.28 176.14C43.28 176.82 44.8101 176.8 45.2401 176.8C45.7901 176.8 46.68 176.91 46.68 176.14C46.68 175.25 45.5201 174.18 44.6501 174.18C43.7801 174.18 43.28 175.39 43.28 176.14Z" fill="#E3D9D0"/>
<path d="M60.7201 181.98C60.9901 181.16 60.9301 180.2 60.9301 179.33C60.9301 177.46 60.8601 174.03 58.2601 174.03C57.3901 174.03 56.7801 174.49 56.2501 175.15C55.2501 176.41 55.3801 176.7 55.3101 178.25C55.2901 178.77 55.2601 179.28 55.2601 179.8C55.2601 180.51 55.3301 181.24 55.5601 181.92C55.6501 182.19 55.7201 182.47 55.7201 182.74C55.7201 183.68 54.9901 184.09 54.1401 184.09C53.3901 184.09 52.4301 183.79 52.4301 182.88C52.4301 182.47 52.5901 182.13 52.7501 181.76C53.1401 180.82 53.1801 179.59 53.1801 178.59C53.1801 177.2 53.1801 175.46 52.6101 174.18C52.4701 173.86 52.3101 173.52 52.3101 173.18C52.3101 172.52 52.8101 172.24 53.4101 172.24C54.0701 172.24 54.6901 172.58 55.3501 172.58C56.3301 172.58 57.2401 172.24 58.4501 172.24C64.3401 172.24 61.9201 178.86 63.5201 182.01C63.6601 182.31 63.7901 182.63 63.7901 182.97C63.7901 183.84 62.8801 184.18 62.1501 184.18C61.3301 184.18 60.5301 183.86 60.5301 182.92C60.5301 182.58 60.6201 182.28 60.7101 181.96L60.7201 181.98Z" fill="#E3D9D0"/>
<path d="M76.86 178.46V178.96C76.86 181.72 74.05 184.3 71.34 184.3C67.69 184.3 65.5 181.33 65.5 177.89C65.5 174.45 67.87 172.18 71.32 172.18C75.15 172.18 76.82 174.94 76.87 178.46H76.86ZM74.44 178.33C74.44 176.37 73.62 173.97 71.36 173.97C69.1 173.97 67.84 175.82 67.84 177.96C67.84 179.95 68.87 182.46 71.13 182.46C73.39 182.46 74.44 180.43 74.44 178.33Z" fill="#E3D9D0"/>
<path d="M337.35 153.22C337.35 151.01 336.19 151.03 334.36 151.03C333.61 151.03 332.83 150.92 332.08 150.92C330.58 150.92 329.93 151.22 329.93 152.83C329.93 153.93 330.38 154.96 330.38 156.05C330.38 156.84 329.5 157.1 328.85 157.1C328.06 157.1 326.98 156.82 326.98 155.83C326.98 155.14 327.56 154.37 327.73 153.66C327.82 153.19 327.82 152.69 327.82 152.22C327.82 149.69 327.8 147.15 327.8 144.62C327.8 143.74 327.16 143.01 327.16 142.11C327.16 141.36 328.15 141.21 328.73 141.21C329.37 141.21 330.51 141.27 330.51 142.16C330.51 142.42 330.42 142.65 330.34 142.89C329.87 144.24 329.78 144.61 329.78 146.05C329.78 146.87 329.78 148.2 330.51 148.71C330.9 148.99 333.67 149.14 334.29 149.14C337.25 149.14 337.32 148.39 337.32 145.7C337.32 144.75 337.28 143.98 336.93 143.1C336.82 142.84 336.69 142.58 336.69 142.31C336.69 141.45 337.64 141.09 338.37 141.09C339.01 141.09 340.05 141.39 340.05 142.19C340.05 142.49 339.9 142.77 339.79 143.05C339.4 144.02 339.34 144.66 339.34 145.69C339.34 148.01 339.43 150.33 339.43 152.67C339.43 153.16 339.43 153.66 339.54 154.15C339.67 154.77 340.21 155.55 340.21 156.15C340.21 157.07 339.35 157.2 338.62 157.2C337.98 157.2 336.82 157.11 336.82 156.23C336.82 155.2 337.36 154.25 337.36 153.22H337.35Z" fill="#E3D9D0"/>
<path d="M352.2 150.77C352.2 152.25 350.65 152.49 349.49 152.49C348.52 152.49 344.76 152.15 344.76 153.37C344.76 154.49 346.31 155.41 347.32 155.41C349.06 155.41 350.18 154.01 350.95 154.01C351.38 154.01 351.66 154.42 351.66 154.83C351.66 156.42 348.39 157.26 347.13 157.26C346.87 157.26 346.61 157.22 346.38 157.15C343.69 156.55 342.17 154.55 342.17 151.8C342.17 148.43 344.4 145.79 347.88 145.79C350.54 145.79 352.2 148.32 352.2 150.77ZM347.41 150.52C347.99 150.52 349.97 150.52 349.97 149.64C349.97 148.72 348.62 147.71 347.76 147.71C346.75 147.71 344.92 148.42 344.92 149.64C344.92 150.71 346.7 150.52 347.41 150.52Z" fill="#E3D9D0"/>
<path d="M354.24 149.1C354.84 147.21 357.27 145.94 359.18 145.94C359.67 145.94 360.17 145.98 360.64 146.09C361.95 146.43 363.2 147.85 363.2 149.23C363.2 149.98 362.86 150.65 362.02 150.65C360.04 150.65 361.87 147.6 359.08 147.6C357.13 147.6 355.84 149.51 355.84 151.34C355.84 153.17 356.94 155.51 359.11 155.51C360.89 155.51 361.97 154.16 362.7 154.16C363.07 154.16 363.28 154.48 363.28 154.83C363.28 155.45 362.31 156.23 361.84 156.57C361.11 157.09 360.04 157.26 359.15 157.26C355.86 157.26 354.25 154.94 353.82 151.91C353.8 151.8 353.8 151.72 353.8 151.61C353.8 150.77 353.99 149.91 354.25 149.12L354.24 149.1Z" fill="#E3D9D0"/>
<path d="M366.25 154.36L366.27 143.79C366.03 143.3 365.75 142.76 365.75 142.22C365.75 141.68 366.18 141.36 366.7 141.36C367.04 141.36 367.37 141.55 367.62 141.77C368.91 142.91 367.68 145.98 369.3 145.98C369.97 145.98 370.59 145.74 371.23 145.74C375.31 145.74 375.38 149.71 375.55 152.76C375.59 153.51 375.61 153.96 375.92 154.65C376.07 154.99 376.22 155.36 376.22 155.75C376.22 156.59 375.49 156.97 374.72 156.97C374.08 156.97 373.09 156.63 373.09 155.83C373.09 155.21 373.67 154.78 373.67 154.03C373.67 152.18 374.04 147.65 371.31 147.65C368.58 147.65 368.26 150.4 368.26 152.57C368.26 153.45 368.28 154.22 368.58 155.06C368.69 155.36 368.79 155.64 368.79 155.96C368.79 156.75 367.8 157.12 367.14 157.12C366.58 157.12 365.74 156.8 365.74 156.11C365.74 155.53 366.26 154.82 366.26 154.35L366.25 154.36Z" fill="#E3D9D0"/>
<path d="M388.48 151.72V152.19C388.48 154.79 385.84 157.22 383.28 157.22C379.84 157.22 377.78 154.43 377.78 151.18C377.78 147.93 380.01 145.81 383.26 145.81C386.87 145.81 388.44 148.41 388.48 151.72ZM386.21 151.59C386.21 149.74 385.44 147.49 383.31 147.49C381.18 147.49 380 149.23 380 151.25C380 153.12 380.97 155.48 383.09 155.48C385.21 155.48 386.2 153.57 386.2 151.59H386.21Z" fill="#E3D9D0"/>
<path d="M310.7 174.88C311.3 172.99 313.73 171.72 315.64 171.72C316.13 171.72 316.63 171.76 317.1 171.87C318.41 172.21 319.66 173.63 319.66 175.01C319.66 175.76 319.32 176.43 318.48 176.43C316.5 176.43 318.33 173.38 315.54 173.38C313.58 173.38 312.3 175.29 312.3 177.12C312.3 178.95 313.4 181.29 315.57 181.29C317.35 181.29 318.43 179.94 319.16 179.94C319.53 179.94 319.74 180.26 319.74 180.61C319.74 181.23 318.77 182.01 318.3 182.35C317.57 182.87 316.5 183.04 315.61 183.04C312.32 183.04 310.71 180.72 310.28 177.69C310.26 177.58 310.26 177.5 310.26 177.39C310.26 176.55 310.45 175.69 310.71 174.9L310.7 174.88Z" fill="#E3D9D0"/>
<path d="M332.7 177.5V177.97C332.7 180.57 330.06 183 327.5 183C324.06 183 322 180.21 322 176.96C322 173.71 324.23 171.59 327.48 171.59C331.09 171.59 332.66 174.19 332.7 177.5ZM330.43 177.37C330.43 175.52 329.66 173.27 327.53 173.27C325.4 173.27 324.22 175.01 324.22 177.03C324.22 178.9 325.19 181.26 327.31 181.26C329.43 181.26 330.42 179.35 330.42 177.37H330.43Z" fill="#E3D9D0"/>
<path d="M342.31 180.81C342.57 180.04 342.5 179.13 342.5 178.32C342.5 176.56 342.44 173.34 339.99 173.34C339.17 173.34 338.59 173.77 338.1 174.39C337.15 175.57 337.28 175.85 337.22 177.31C337.2 177.8 337.18 178.28 337.18 178.77C337.18 179.44 337.24 180.12 337.46 180.77C337.55 181.03 337.61 181.29 337.61 181.54C337.61 182.42 336.92 182.81 336.13 182.81C335.42 182.81 334.52 182.53 334.52 181.67C334.52 181.28 334.67 180.96 334.82 180.62C335.19 179.74 335.23 178.58 335.23 177.63C335.23 176.32 335.23 174.69 334.69 173.48C334.56 173.18 334.41 172.86 334.41 172.53C334.41 171.91 334.88 171.65 335.44 171.65C336.06 171.65 336.64 171.97 337.27 171.97C338.19 171.97 339.05 171.65 340.19 171.65C345.73 171.65 343.46 177.88 344.96 180.84C345.09 181.12 345.22 181.42 345.22 181.74C345.22 182.56 344.36 182.88 343.67 182.88C342.9 182.88 342.15 182.58 342.15 181.7C342.15 181.38 342.24 181.1 342.32 180.8L342.31 180.81Z" fill="#E3D9D0"/>
<path d="M362.07 177.43C362.07 178.14 362.11 179.66 362.33 180.27C362.5 180.79 363.12 181.52 363.12 182.03C363.12 182.59 362.56 182.93 362.05 182.93C361.47 182.93 360.91 182.63 360.33 182.63C359.84 182.63 359.36 182.74 358.89 182.84C358.25 182.97 357.56 183.01 356.89 183.01C356.4 183.01 355.9 182.99 355.43 182.88C354.01 182.54 352.74 181.18 352.74 179.72V179.51C352.74 176.7 354.59 176.72 354.59 176.07C354.59 175.62 353.75 175.21 353.75 174.2C353.75 172.31 356.11 171.62 357.64 171.62C360.65 171.62 362 174.84 362.07 177.42V177.43ZM359.86 179.17C359.86 177.92 358.29 177.82 357.39 177.82C356.27 177.82 354.86 177.88 354.86 179.37C354.86 180.47 355.68 181.3 356.77 181.3C358.04 181.3 359.86 180.7 359.86 179.17ZM356.25 175.31C356.25 175.95 357.69 175.93 358.1 175.93C358.62 175.93 359.45 176.04 359.45 175.31C359.45 174.47 358.35 173.46 357.54 173.46C356.73 173.46 356.25 174.6 356.25 175.31Z" fill="#E3D9D0"/>
<path d="M379.69 179.07V178.38C379.69 176.81 379.67 173.2 377.41 173.2C376.08 173.2 375.07 174.53 374.55 175.63C374.57 176.7 374.55 177.78 374.55 178.85C374.55 179.26 374.55 179.67 374.64 180.07C374.75 180.61 375.11 181.08 375.11 181.66C375.11 182.43 374.16 182.82 373.52 182.82C372.79 182.82 371.84 182.45 371.84 181.62C371.84 181.25 372.03 180.91 372.16 180.59C372.5 179.75 372.55 178.87 372.55 177.99C372.55 176.4 372.7 173.29 370.42 173.29C368.14 173.29 367.58 175.8 367.58 177.69V178.79C367.58 179.82 368.22 180.7 368.22 181.71C368.22 182.55 367.32 182.78 366.65 182.78C365.98 182.78 365.04 182.63 365.04 181.75C365.04 181.21 365.3 180.72 365.51 180.22C365.55 178.93 365.62 177.64 365.62 176.33C365.62 175.02 365.51 174.48 365 173.24C364.91 173.05 364.83 172.83 364.83 172.62C364.83 171.95 365.47 171.65 366.05 171.65C366.63 171.65 367.17 171.93 367.75 171.93C368.89 171.93 369.96 171.44 371.1 171.44C372.24 171.44 373.14 172.26 374.15 172.26C375.16 172.26 375.85 171.4 376.84 171.4C382.73 171.4 380.88 177.29 382.32 181C382.43 181.3 382.62 181.58 382.62 181.9C382.62 182.65 381.42 182.89 380.84 182.89C380.13 182.89 379.16 182.52 379.16 181.69C379.16 180.79 379.68 179.97 379.68 179.07H379.69Z" fill="#E3D9D0"/>
<path d="M394.79 177.5V177.97C394.79 180.57 392.15 183 389.59 183C386.15 183 384.09 180.21 384.09 176.96C384.09 173.71 386.32 171.59 389.57 171.59C393.18 171.59 394.75 174.19 394.79 177.5ZM392.51 177.37C392.51 175.52 391.74 173.27 389.61 173.27C387.48 173.27 386.3 175.01 386.3 177.03C386.3 178.9 387.27 181.26 389.39 181.26C391.51 181.26 392.5 179.35 392.5 177.37H392.51Z" fill="#E3D9D0"/>
<path d="M396.96 181.06C397.3 180.29 397.33 178.5 397.33 177.62C397.33 176.52 397.31 174.51 396.86 173.52C396.71 173.24 396.6 172.9 396.6 172.57C396.6 171.99 397.07 171.69 397.63 171.69C398.08 171.69 398.49 171.88 398.94 171.88C400.04 171.88 401.11 171.49 402.21 171.49C403.03 171.49 404.14 171.9 404.14 172.89C404.14 173.45 403.67 173.99 403.09 173.99C402.51 173.99 401.99 173.69 401.46 173.69C401.29 173.69 401.09 173.73 400.97 173.8C399.08 174.53 399.19 176.72 399.19 178.42C399.19 179.39 399.25 180.12 399.6 181.02C399.69 181.21 399.86 181.64 399.86 181.86C399.86 182.65 398.89 182.91 398.27 182.91C397.6 182.91 396.79 182.7 396.79 181.88C396.79 181.6 396.88 181.32 396.98 181.06H396.96Z" fill="#E3D9D0"/>
<path d="M193.99 242.39C192.55 244.62 190.46 246.79 189.61 247.43C189.31 247.66 188.99 247.86 188.65 248.02C188.64 248.02 188.62 248.03 188.61 248.04C187.85 248.41 188.11 249.59 188.96 249.6C188.97 249.6 188.98 249.6 189 249.6H208.15C208.79 249.6 209.18 249.64 209.5 249.6C209.92 249.54 209.94 249.01 209.94 249.01C209.99 248.41 209.43 248.26 209 248.07C207.94 247.58 207.18 246.73 206.42 245.87C204.19 243.36 202.62 240.2 201.68 236.99C201.2 235.36 200.89 233.67 200.8 231.98C200.49 225.94 200.85 219.93 200.75 213.88C200.72 212.32 200.69 210.76 200.67 209.2C200.67 208.61 200.65 208.02 200.64 207.43C200.55 201.36 203.77 198.51 203.77 198.51L216.73 184.9C223.29 178.48 228.51 170.55 231.57 161.88C232.33 159.73 234.47 151.8 229.29 154.46C226.36 155.96 225.23 158.91 223.82 161.67C222.53 164.2 221.25 166.74 219.93 169.26C217.34 174.23 214.62 179.15 211.45 183.78C208.64 187.88 205.96 192.49 202.5 196.06C202.33 196.24 202.15 196.41 201.91 196.49C200.57 196.98 200.64 194.98 200.65 194.27L200.73 180.55C200.75 177.1 201.7 173.7 203.56 170.79C204.69 169.03 206.02 167.38 207.34 165.78C212.43 159.67 217.76 153.7 222.46 147.27C225.94 142.51 228.76 137.48 231.5 132.26C234.62 126.31 233.16 120.36 233.16 120.36C232.87 119.38 232.67 117.53 232.67 117.53C232.28 115.68 230.82 116.07 230.82 116.07C229.72 116.66 228.9 118.02 228.17 118.99C227.26 120.2 226.39 121.45 225.56 122.71C223.89 125.24 222.36 127.86 220.92 130.54C217.96 136.05 215.2 141.67 212.59 147.35C210.15 152.4 207.75 157 204.99 161.87C204.35 163 203.75 164.25 202.42 164.58C200.56 165.03 199.77 163.12 199.97 161.8C200.75 156.56 203.86 152.13 205.71 147.26C206.49 145.22 207.23 143.16 207.89 141.08C209.45 136.75 209.45 131.72 209.11 127.19C209.09 126.94 208.95 124.05 208.02 124.79C205.91 126.45 204.76 129.96 204.76 129.96C203.04 134.69 201.88 146.06 201.88 146.06C201.62 148.75 200.79 148.62 200.79 148.62C199.77 148.62 200.02 147.22 200.02 147.22V120.48C200.02 118.2 199.82 115.84 200.58 113.65C201.24 111.75 202.73 110.42 203.94 108.89C205.09 107.44 205.82 105.69 206.47 103.98C207.09 102.33 207.65 100.63 208.07 98.91C209.03 95.08 211.39 93.1 211.39 93.1C212.92 92.01 212.6 90.8 212.6 90.8C212.28 89.71 210.71 90.1 210.71 90.1C210.59 86.03 212.2 81.71 216.68 80.93C218.35 80.64 219.95 81.14 221.44 81.84C222.85 82.5 224.29 83.57 225.88 83.72C226.7 83.8 227.57 83.61 228.23 83.11C229.19 82.38 229.47 81.05 229.08 79.95C228.92 79.49 228.71 79.03 228.72 78.55C228.75 77.01 229.82 75.35 228.03 74.3C227.57 74.03 227.04 73.91 226.51 73.91C223.72 73.91 221.1 75.28 218.35 75.59C217.82 75.65 217.25 75.57 216.79 75.26C216.47 75.05 216.23 74.7 216.22 74.32C216.17 72.9 218.77 72.1 219.77 71.6C221.07 70.96 222.79 69.83 222.86 68.21C222.92 66.57 221.45 66 220.06 66.07C218.91 66.13 217.7 66.09 216.73 65.4C215.75 64.71 215.43 63.42 214.33 62.87C212.36 61.88 210.55 63.61 209.58 65.18C208.04 67.68 206.91 70.35 205.81 73.06C205.54 73.74 204.43 74.8 203.6 73.84C202.98 73.12 203.45 71.92 203.78 71.08C204.92 68.15 206.23 65.31 207.04 62.25C207.49 60.56 208.27 58.31 207 56.79C205.52 55.02 203.79 56.13 202.02 56.63C200.42 57.08 198.97 55.97 197.4 55.86C196.32 55.79 194.95 55.9 193.97 56.4C192.95 56.91 191.85 56.85 190.8 56.47C190.21 56.25 189.62 55.99 189 55.89C187.83 55.71 186.77 56.32 186.2 57.32C185.12 59.21 186.31 62.62 186.31 62.62C186.67 63.52 187.02 64.41 187.38 65.31C188.33 67.69 189.46 70.08 190.23 72.53C190.33 72.87 190.4 73.23 190.34 73.58C190.25 74.12 189.87 74.51 189.31 74.34C188.66 74.14 188.34 73.43 188.02 72.9C187.2 71.56 186.56 70.09 185.87 68.68C185.28 67.47 184.77 66.12 183.96 65.04C183.43 64.33 182.76 63.69 181.93 63.33C180.26 62.61 178.81 63.25 177.57 64.45C176.31 65.67 174.57 65.47 172.96 65.53C170.6 65.61 169.78 68.21 171.36 69.86C172.34 70.87 173.62 71.51 174.91 72.03C175.82 72.39 177.39 72.63 177.29 73.93C177.23 74.79 176.36 75.27 175.6 75.4C173.28 75.81 171.43 74.93 169.3 74.24C167.91 73.79 166.17 73.57 165.15 74.95C164.53 75.8 164.67 76.81 164.62 77.79C164.57 78.74 163.97 79.51 163.84 80.44C163.54 82.65 166.24 83.58 168 83.38C169.42 83.22 170.48 82.38 171.74 81.83C173.07 81.25 174.52 80.97 175.98 81.01C177.27 81.05 178.75 81.48 179.9 82.08C182.24 83.33 182.92 86.59 182.97 89.17C182.97 89.57 182.7 89.95 182.31 90.03C181.25 90.26 180.88 91.56 181.57 92.37C181.79 92.63 182.06 92.84 182.29 92.99C185.08 94.84 185.48 99.34 186.54 102.24C187.63 105.21 189.13 107.33 191.16 109.76C192.13 110.92 193.45 111.89 194.33 113.16C195.42 114.73 195.54 116.68 195.54 118.53L195.43 136.12L195.67 151.78C195.67 153.41 195.01 153.17 195.01 153.17C194.35 152.99 194.17 151.91 194.17 151.91L191.94 145.22C189.52 138.4 187.9 131.34 186.19 124.33C184.68 118.13 183.59 111.76 180.8 105.96C179.98 104.28 178.27 100.95 176.04 100.95C173.52 100.95 178.15 120.5 178.65 122.28C182.42 135.77 189.01 148.23 194.62 161C195.38 162.74 196.37 164.63 196.22 166.58C196.04 168.83 193.83 168.34 192.6 167.26C186.52 161.9 178.33 151.12 178.33 151.12C173.69 144.65 170.06 137.51 164.62 131.62C163.67 130.58 162.66 129.61 161.67 128.62C160.52 127.47 159.65 125.74 158.21 124.95C156.03 123.75 156.81 127.42 156.99 128.2C157.39 129.92 157.9 131.61 158.51 133.26C159.71 136.49 161.31 139.56 163.11 142.5C167.65 149.91 173.23 156.07 179.95 161.54C183.95 164.8 188.07 167.93 192.28 170.92C196.15 173.84 195.88 177.75 195.88 177.75L195.73 189.22C195.83 191.13 194.77 192.98 192.59 192.07C190.5 191.2 188.53 188.86 186.89 187.32C184.95 185.5 183.09 183.61 181.28 181.67C177.62 177.74 174.23 173.57 171.07 169.23C167.77 164.71 164.7 159.88 161.81 155.15C161.05 153.9 158.05 149.47 156.07 151.01C154.12 152.52 155.81 156.23 156.38 158.06C157.25 160.9 158.29 163.68 159.53 166.39C161.94 171.67 165.09 176.63 169.01 180.94C172.41 184.68 176.5 187.78 180.75 190.47C183.48 192.21 186.34 193.74 189.25 195.17C192.68 196.86 195.32 198.66 196 201.8C196.7 205.03 196.8 209.12 196.78 212.36C196.78 212.36 196.74 231.29 196.35 235.04C196.35 235.04 195.93 239.39 194.01 242.36L193.99 242.39ZM191.24 97.56C192.09 98.81 194.05 102.25 194.81 108.12C194.84 108.34 194.56 108.46 194.42 108.29C193.36 106.9 190.91 103.11 190.84 97.69C190.84 97.48 191.12 97.39 191.24 97.57V97.56ZM194.17 93.41C193.81 93.41 193.53 93.12 193.53 92.76C193.53 92.47 193.53 92.19 193.53 91.9C193.53 91.52 193.51 91.14 193.49 90.75C193.47 90.29 193.43 89.84 193.38 89.38C193.33 88.87 193.25 88.35 193.17 87.84C193.07 87.29 192.96 86.74 192.82 86.19C192.67 85.62 192.5 85.05 192.29 84.49C192.2 84.25 192.11 84.01 192.01 83.77C191.99 83.71 191.96 83.65 191.93 83.6C191.89 83.5 191.78 83.46 191.68 83.45C191.62 83.45 191.56 83.45 191.51 83.45C191.43 83.45 191.36 83.44 191.28 83.43C191.28 83.43 191.27 83.43 191.26 83.43C191.04 83.4 190.83 83.34 190.63 83.25C190.24 83.07 189.9 82.79 189.65 82.44C189.4 82.09 189.25 81.65 189.23 81.21C189.23 81.16 189.23 81.12 189.23 81.07C189.23 79.78 190.33 78.68 191.62 78.68C192.91 78.68 194.01 79.75 194.01 81.07C194.01 81.69 193.78 82.25 193.39 82.67C193.12 82.97 193.04 83.39 193.22 83.75C193.9 85.08 194.91 87.9 194.83 92.78C194.83 93.13 194.54 93.41 194.19 93.41H194.17ZM203.22 97.9C203.2 99.33 202.89 103.91 200.11 108.07C200.02 108.21 199.82 108.13 199.82 107.95C199.82 106.32 200.07 101.25 202.95 97.77C203.05 97.65 203.23 97.74 203.23 97.91L203.22 97.9ZM197.18 109.5C196.67 107.8 195.09 101.62 196.8 95.73C196.85 95.55 197.11 95.54 197.18 95.72C197.77 97.33 198.88 102.67 197.42 109.49C197.39 109.62 197.21 109.63 197.17 109.5H197.18ZM197.14 92.52C196.99 86.76 197.99 82.14 198.46 80.3C198.55 79.94 198.49 79.54 198.25 79.26C197.81 78.74 197.59 78.03 197.72 77.27C197.89 76.28 198.71 75.49 199.7 75.34C201.51 75.07 203.11 76.79 202.26 78.7C201.89 79.54 201.35 79.83 200.37 79.96C200.37 79.96 199.95 79.98 199.77 80.41C198.12 84.85 198.34 90.52 198.41 92.49C198.42 92.85 198.13 93.15 197.77 93.15C197.43 93.15 197.14 92.87 197.13 92.53L197.14 92.52Z" fill="#E3D9D0"/>
<path d="M178.8 196.84H168.67C168.74 199.06 169.99 200.54 171.25 201.69C173.75 203.98 177.79 206.96 175.87 210.25C174.53 212.54 172.32 212.22 170.23 211.55C152.04 205.69 148.69 185.35 148.69 185.35H141.66C141.65 186.03 144.28 201.44 155.53 211.22C155.54 211.23 155.71 211.43 155.72 211.45C156.39 212.5 155.35 213.82 154.15 213.42C153.65 213.25 153.16 212.76 153.16 212.76C140.29 201.09 138.75 185.36 138.75 185.36H131.25C131.25 185.36 134.2 208.14 149 218.54C149.41 218.82 149.47 219.2 149.42 219.52C149.31 220.27 148.53 220.75 147.8 220.55C147.26 220.4 146.82 220.07 146.82 220.07C130.84 208.76 128.18 185.37 128.18 185.37H120.31C120.31 185.37 123.06 210.88 140.83 224.79C141.39 225.23 141.62 225.5 141.8 225.86C142.05 226.36 142.1 227.06 141.43 227.55C140.93 227.92 140.13 227.75 139.67 227.42C138.97 226.92 138.25 226.3 137.59 225.75C119.68 210.68 117.58 186.02 117.51 185.38H109.37C109.37 185.38 111.8 222.6 143.25 242.23C143.25 242.23 159.06 252.43 174.11 248.1C182.78 245.61 189.15 238.38 190.69 229.49C192.04 221.67 190.59 210.32 178.8 196.86V196.84Z" fill="#E3D9D0"/>
<path d="M218.53 196.84H228.66C228.59 199.06 227.34 200.54 226.08 201.69C223.58 203.98 219.54 206.96 221.46 210.25C222.8 212.54 225.01 212.22 227.1 211.55C245.29 205.69 248.64 185.35 248.64 185.35H255.67C255.68 186.03 253.05 201.44 241.8 211.22C241.79 211.23 241.62 211.43 241.61 211.45C240.94 212.5 241.98 213.82 243.18 213.42C243.68 213.25 244.17 212.76 244.17 212.76C257.04 201.09 258.58 185.36 258.58 185.36H266.08C266.08 185.36 263.13 208.14 248.33 218.54C247.92 218.82 247.86 219.2 247.91 219.52C248.02 220.27 248.8 220.75 249.53 220.55C250.07 220.4 250.51 220.07 250.51 220.07C266.49 208.76 269.15 185.37 269.15 185.37H277.02C277.02 185.37 274.27 210.88 256.5 224.79C255.94 225.23 255.71 225.5 255.53 225.86C255.28 226.36 255.23 227.06 255.9 227.55C256.4 227.92 257.2 227.75 257.66 227.42C258.36 226.92 259.08 226.3 259.74 225.75C277.65 210.68 279.75 186.02 279.82 185.38H287.96C287.96 185.38 285.53 222.6 254.08 242.23C254.08 242.23 238.27 252.43 223.22 248.1C214.55 245.61 208.18 238.38 206.64 229.49C205.29 221.67 206.74 210.32 218.53 196.86V196.84Z" fill="#E3D9D0"/>
<path d="M92.11 65.1702C92.81 64.3902 87.83 57.7802 87.16 56.8902C85.16 54.2202 83.11 51.5402 80.96 48.9302C80.11 47.9202 79.48 47.1602 78.34 46.5202C77.8 46.2102 77.23 45.8602 76.86 45.3602C76.07 44.3002 76.78 43.0502 77.71 42.3602L78.03 42.1702C79.94 40.9502 81.83 41.5402 83.84 42.1002C89.35 43.6302 94.85 45.0802 100.31 46.8102C101.18 47.0802 104.15 47.9002 104.85 47.3802C106.07 46.4702 102.82 42.9402 102.35 42.3102L96.24 34.1302C95.37 33.6502 94.12 33.1502 93.53 32.3502C92.79 31.3602 93.43 30.4202 94.28 29.7802C95.34 28.9902 97.83 27.5902 98.92 29.0402C99.54 29.8602 99.31 31.0102 99.52 31.9802C99.65 32.5002 105.76 40.6802 106.3 41.4102C106.82 42.1002 112.95 50.3202 113.07 50.8902C113.29 51.8002 113.17 52.6702 112.37 53.2602C111.81 53.6802 111.08 53.8102 110.38 53.7702C107.81 53.6302 87.29 46.4502 85.84 47.5302C85.81 47.5502 85.7 47.6902 85.66 47.7702C85.29 48.3002 87.15 50.6602 87.42 51.0302C89.03 53.3202 90.53 55.7502 92.23 58.0202C93.24 59.3702 94.5 61.0602 96.03 61.8102C96.61 62.1002 97.17 62.4502 97.57 62.9702C98.51 64.2202 97.52 65.5802 96.46 66.3702C95.4 67.1602 93.76 67.9802 92.77 66.6602C92.43 66.2002 92.24 65.6702 92.11 65.1502V65.1702Z" fill="#E3D9D0"/>
<path d="M131.5 32.2699L131.91 33.0799C134.18 37.5099 131.79 43.9599 127.43 46.1999C121.57 49.1999 115.61 46.2399 112.78 40.6999C109.95 35.1699 111.9 29.5899 117.44 26.7499C123.6 23.5999 128.54 26.6599 131.51 32.2699H131.5ZM127.5 34.0399C125.89 30.8899 122.6 27.7199 118.97 29.5699C115.34 31.4299 114.85 35.4299 116.61 38.8699C118.24 42.0599 121.96 45.2499 125.58 43.3899C129.32 41.4799 129.22 37.4099 127.5 34.0399Z" fill="#E3D9D0"/>
<path d="M137.95 32.4301C140.89 31.3701 141.31 36.2901 143.79 35.4001C145.22 34.8801 147.16 33.0901 146.54 31.3901C145.14 27.5201 135.5 32.7101 133.07 25.9701C131.57 21.8301 134.84 19.1101 138.4 17.8301C140.92 16.9201 144.81 17.2701 145.87 20.2101C146.29 21.3701 145.8 23.3001 144.53 23.7601C141.59 24.8201 141.1 20.5801 138.59 21.4801C137.35 21.9301 136.4 22.9301 136.9 24.3201C138.09 27.6101 147.8 22.7501 150.29 29.6401C151.79 33.7801 148.76 37.2801 145 38.6401C142.25 39.6301 137.66 39.4101 136.5 36.1901C136 34.8001 136.43 32.9701 137.94 32.4301H137.95Z" fill="#E3D9D0"/>
<path d="M165.1 28.74C165.56 27.01 165.42 25.24 165.17 23.49C164.38 18.03 163.5 12.58 162.67 7.13C162.18 6.37 161.06 4.95 160.94 4.09C160.65 2.09 163.86 1.58 165.25 1.38C167.16 1.1 176.77 -0.340004 177.96 0.0699957C179.32 0.579996 180.56 1.94 180.77 3.41C180.88 4.18 180.57 5.19 179.72 5.31C178.7 5.46 174.98 3.59 171.31 4.12C166.38 4.84 166.78 5.86 167.45 10.46C167.85 13.23 168.61 14.7 171.75 14.25C173.75 13.96 175.34 12.31 176.03 12.21C177.94 11.93 178.32 14.21 178.52 15.59C178.71 16.89 178.47 18.43 176.93 18.65C175.3 18.89 173.8 17.69 171.39 18.04C168.78 18.42 168.91 21.02 169.21 23.06C169.78 27.01 170.39 28.05 174.63 27.43L177.56 26.96C180.13 26.59 180.58 26.56 181.91 24.25C182.28 23.61 182.75 22.88 183.52 22.77C184.33 22.65 184.93 23.31 185.04 24.05C185.33 26.05 184.75 28.63 182.76 29.54C181.67 30.07 175.39 30.9 173.88 31.12C172.29 31.35 170.71 31.62 169.12 31.85C167.78 32.05 165.19 32.3 164.92 30.42C164.84 29.85 164.96 29.29 165.13 28.73L165.1 28.74Z" fill="#E3D9D0"/>
<path d="M203.46 24.9999C203.97 23.5199 203.87 21.7899 203.89 20.2299C203.93 16.8499 203.89 10.6799 199.19 10.6199C197.63 10.5999 196.5 11.4099 195.54 12.5899C193.7 14.8299 193.94 15.3699 193.79 18.1699C193.74 19.1199 193.69 20.0199 193.67 20.9699C193.65 22.2499 193.76 23.5699 194.16 24.8099C194.32 25.3099 194.44 25.7999 194.43 26.2999C194.41 27.9899 193.08 28.7099 191.56 28.6999C190.2 28.6799 188.48 28.1299 188.5 26.4799C188.5 25.7399 188.8 25.1199 189.1 24.4699C189.82 22.7899 189.93 20.5699 189.95 18.7599C189.98 16.2499 190.02 13.1199 189.02 10.7999C188.78 10.2199 188.5 9.59992 188.51 8.97992C188.52 7.78992 189.44 7.29992 190.51 7.31992C191.7 7.32992 192.81 7.95992 194 7.97992C195.77 7.99992 197.42 7.39992 199.61 7.42992C210.23 7.55992 205.73 19.4399 208.54 25.1599C208.78 25.6999 209.02 26.2799 209.01 26.8999C208.99 28.4599 207.34 29.0599 206.02 29.0499C204.54 29.0299 203.1 28.4399 203.12 26.7499C203.12 26.1299 203.3 25.5999 203.47 25.0199L203.46 24.9999Z" fill="#E3D9D0"/>
<path d="M213.91 14.0101C215.56 10.5801 220.5 8.8301 224.13 9.3401C225.07 9.4701 225.99 9.6901 226.86 10.0201C229.26 11.0201 231.24 14.0501 230.87 16.6501C230.67 18.0801 229.84 19.2501 228.25 19.0301C224.5 18.5001 228.78 13.2001 223.48 12.4501C219.77 11.9301 216.81 15.2101 216.33 18.6801C215.82 22.3101 217.3 26.8801 221.41 27.4601C224.79 27.9401 227.19 25.6501 228.58 25.8501C229.27 25.9501 229.59 26.6201 229.5 27.2701C229.33 28.4501 227.29 29.6601 226.3 30.1901C224.78 30.9701 222.69 31.0101 221.02 30.7801C214.78 29.9001 212.34 25.0701 212.34 19.2101C212.33 19.0001 212.35 18.8401 212.38 18.6301C212.6 17.0401 213.2 15.4601 213.9 14.0201L213.91 14.0101Z" fill="#E3D9D0"/>
<path d="M251.77 26.8902C251.4 28.2002 250.68 31.0302 250.76 32.2502C250.81 33.2902 251.58 34.9602 251.31 35.9102C251.02 36.9402 249.81 37.2802 248.86 37.0102C247.79 36.7102 246.92 35.8602 245.85 35.5602C244.94 35.3002 244.01 35.2502 243.08 35.2002C241.82 35.1002 240.53 34.8202 239.31 34.4702C238.4 34.2102 237.5 33.9102 236.68 33.4702C234.24 32.1002 232.61 28.9402 233.38 26.2402L233.49 25.8402C234.96 20.6502 238.36 21.6502 238.69 20.4702C238.93 19.6402 237.59 18.4502 238.12 16.5902C239.11 13.1002 243.82 13.0702 246.64 13.8702C252.19 15.4402 253 22.0902 251.77 26.8802V26.8902ZM246.78 28.9402C247.43 26.6402 244.59 25.6302 242.93 25.1502C240.87 24.5702 238.22 23.9502 237.45 26.6802C236.88 28.7002 237.95 30.6702 239.97 31.2402C242.31 31.9002 245.99 31.7502 246.79 28.9302L246.78 28.9402ZM242.15 19.9202C241.81 21.1102 244.48 21.8202 245.23 22.0302C246.18 22.3002 247.67 22.9302 248.05 21.5902C248.49 20.0502 246.99 17.6102 245.49 17.1802C243.95 16.7402 242.52 18.6102 242.15 19.9102V19.9202Z" fill="#E3D9D0"/>
<path d="M268.35 40.6699C269.4 39.5199 269.99 37.8899 270.63 36.4599C272 33.3799 274.4 27.6799 270.11 25.7699C268.68 25.1299 267.33 25.4299 265.98 26.1399C263.4 27.4699 263.41 28.0599 262.16 30.5699C261.74 31.4199 261.33 32.2299 260.95 33.0899C260.43 34.2599 260.01 35.5099 259.88 36.8099C259.83 37.3299 259.74 37.8299 259.54 38.2799C258.85 39.8199 257.35 39.9599 255.96 39.3399C254.72 38.7899 253.36 37.5999 254.03 36.0899C254.33 35.4099 254.85 34.9699 255.38 34.4799C256.71 33.2199 257.69 31.2199 258.42 29.5699C259.44 27.2799 260.71 24.4199 260.71 21.8899C260.71 21.2599 260.71 20.5799 260.96 20.0199C261.45 18.9299 262.47 18.8499 263.45 19.2799C264.54 19.7699 265.31 20.7799 266.4 21.2699C268.02 21.9899 269.77 22.0999 271.77 22.9799C281.47 27.2999 272.63 36.4299 272.95 42.7999C272.95 43.3899 272.95 44.0199 272.7 44.5799C272.06 46.0099 270.31 45.8999 269.1 45.3699C267.75 44.7699 266.66 43.6499 267.35 42.1099C267.6 41.5499 267.97 41.1199 268.35 40.6599V40.6699Z" fill="#E3D9D0"/>
<path d="M283.21 32.4699C283.15 31.8599 283.12 31.2599 283.44 30.7299C284.05 29.7099 288.57 28.0999 289.63 28.7299C291.08 29.5999 289.47 31.4699 291.64 33.5399C292.36 34.2599 293.5 35.3299 292.82 36.4599C291.85 38.0799 288.27 35.6499 287.11 36.6899C286.1 37.5699 284.46 40.2299 283.73 41.4399C283.18 42.3599 280.65 46.6499 281.42 47.6899C281.62 48.6299 282.06 49.1799 282.87 49.6699C284.11 50.4099 285.93 49.2999 286.99 49.9299C287.66 50.3299 287.67 51.1999 287.29 51.8399C285.98 54.0299 282.33 53.3799 280.53 52.2999C274.7 48.7999 278.67 43.0699 281.13 38.9799C282.38 36.8999 283.49 34.9699 283.2 32.4899L283.21 32.4699Z" fill="#E3D9D0"/>
<path d="M307.35 58.2399C306.52 59.3099 304.79 61.6699 304.41 62.8399C304.06 63.8199 304.15 65.6599 303.55 66.4399C302.89 67.2899 301.64 67.1499 300.86 66.5499C299.98 65.8699 299.49 64.7599 298.61 64.0799C297.86 63.4999 297.02 63.1099 296.18 62.7199C295.05 62.1599 293.96 61.4199 292.95 60.6299C292.2 60.0499 291.48 59.4399 290.89 58.7199C289.15 56.5299 288.82 52.9999 290.53 50.7799L290.78 50.4499C294.08 46.1899 296.86 48.3899 297.61 47.4099C298.14 46.7299 297.35 45.1199 298.54 43.5999C300.76 40.7399 305.15 42.4699 307.46 44.2599C312.02 47.7899 310.28 54.2599 307.35 58.2399ZM301.96 58.2699C303.42 56.3799 301.17 54.3799 299.81 53.3199C298.12 52.0099 295.89 50.4399 294.15 52.6899C292.86 54.3499 293.12 56.5799 294.78 57.8599C296.7 59.3499 300.17 60.5799 301.96 58.2699ZM301.03 48.1799C300.27 49.1599 302.48 50.8099 303.1 51.2899C303.88 51.8999 305.02 53.0399 305.88 51.9399C306.86 50.6699 306.39 47.8599 305.15 46.8999C303.88 45.9199 301.86 47.1099 301.03 48.1899V48.1799Z" fill="#E3D9D0"/>
<path d="M116.41 278.64C117.18 279.19 119.09 280.63 118.33 281.7L115.79 285.3C114.97 288.75 114.08 292.16 113.6 295.64C113.41 296.77 113.28 297.88 112.97 298.97C112.68 300.02 111.76 303.05 112.84 303.81C113.82 304.5 115.88 302.93 116.67 302.38C117.48 301.8 118.34 301.29 119.23 300.81C120.23 300.25 121.18 299.61 122.12 298.92C124.11 297.45 126.29 296.22 128.48 295.04C129.22 293.85 129.96 292.66 130.79 291.48C131.71 290.17 133.33 290.95 134.37 291.69C135.38 292.4 136.73 293.7 135.8 295.02C135.28 295.76 133.69 296.15 132.86 296.48C129.54 297.62 126.85 300 123.96 301.9C121.09 303.76 118.19 305.59 115.32 307.45C113.79 308.48 110.16 311.06 108.34 309.78C107.97 309.52 107.69 309.12 107.48 308.72C106.73 307.28 107.42 304.09 107.82 302.51C109.11 297.53 110.19 292.5 111.29 287.43C111.74 285.28 112.17 283.11 112.29 280.93C112.32 280.1 112.25 279.19 112.73 278.52C113.58 277.31 115.47 277.98 116.42 278.65L116.41 278.64Z" fill="#E3D9D0"/>
<path d="M144.3 316.01C143.07 318.57 140.2 317.69 138.2 316.73C136.53 315.93 130.32 312.21 129.31 314.33C128.38 316.26 130.29 319.14 132.03 319.98C135.04 321.43 138.12 319.94 139.46 320.58C140.2 320.94 140.35 321.87 140.01 322.58C138.69 325.33 132.35 324.06 130.16 323.01C129.71 322.8 129.31 322.51 128.95 322.2C124.81 318.93 123.84 314.21 126.12 309.46C128.92 303.63 134.97 300.93 140.99 303.82C145.59 306.03 146.34 311.78 144.31 316.01H144.3ZM136.24 311.59C137.24 312.07 140.66 313.71 141.39 312.19C142.16 310.59 140.66 307.73 139.17 307.01C137.43 306.17 133.68 305.88 132.67 307.99C131.78 309.85 135.02 310.99 136.24 311.58V311.59Z" fill="#E3D9D0"/>
<path d="M146.9 326.05C147.97 324.83 149.03 321.58 149.53 319.97C150.15 317.97 151.27 314.26 151 312.19C150.88 311.59 150.88 310.9 151.07 310.31C151.4 309.25 152.44 308.97 153.46 309.29C154.29 309.55 154.92 310.13 155.75 310.39C157.75 311.01 159.94 310.92 161.95 311.54C163.44 312.01 165.26 313.39 164.69 315.2C164.37 316.22 163.2 316.94 162.14 316.6C161.12 316.28 160.31 315.43 159.32 315.12C159.01 315.02 158.63 314.99 158.35 315.03C154.47 315.29 153.42 319.36 152.45 322.46C151.9 324.23 151.6 325.6 151.71 327.45C151.76 327.85 151.83 328.74 151.71 329.13C151.26 330.58 149.34 330.5 148.2 330.15C146.98 329.77 145.61 328.91 146.08 327.42C146.24 326.91 146.56 326.45 146.9 326.04V326.05Z" fill="#E3D9D0"/>
<path d="M168.64 317.22C168.36 316.67 168.12 316.13 168.22 315.52C168.42 314.34 172.05 311.2 173.27 311.41C174.93 311.69 174.12 314.02 176.89 315.16C177.82 315.57 179.27 316.15 179.05 317.45C178.73 319.32 174.51 318.35 173.82 319.73C173.2 320.92 172.63 324 172.4 325.38C172.22 326.44 171.42 331.35 172.51 332.04C173.04 332.84 173.65 333.2 174.58 333.35C176 333.59 177.29 331.89 178.51 332.1C179.28 332.23 179.6 333.04 179.48 333.77C179.05 336.29 175.42 337 173.35 336.65C166.65 335.51 168.27 328.72 169.08 324.02C169.49 321.63 169.82 319.43 168.65 317.22H168.64Z" fill="#E3D9D0"/>
<path d="M203.07 326.42C202.97 329.26 200 329.61 197.77 329.54C195.92 329.48 188.74 328.57 188.66 330.92C188.59 333.06 191.49 334.93 193.42 335C196.75 335.11 198.98 332.51 200.47 332.56C201.29 332.59 201.8 333.39 201.77 334.17C201.67 337.22 195.36 338.61 192.93 338.53C192.44 338.51 191.95 338.41 191.5 338.28C186.4 336.95 183.6 333.03 183.78 327.76C184 321.3 188.45 316.38 195.12 316.61C200.22 316.78 203.23 321.75 203.07 326.44V326.42ZM193.91 325.62C195.02 325.66 198.81 325.79 198.86 324.1C198.92 322.33 196.39 320.31 194.75 320.25C192.82 320.18 189.27 321.42 189.19 323.77C189.12 325.83 192.55 325.57 193.91 325.62Z" fill="#E3D9D0"/>
<path d="M242.55 322.08C244.27 329.84 238.77 332.96 232.25 334.78C230.74 335.2 229.2 335.67 227.63 336.02C226.06 336.37 222.24 337.22 221.74 334.92C221.57 334.16 222.07 332.61 222.27 331.81C221.78 329.05 221.26 326.3 220.64 323.53C219.81 319.79 218.78 316.1 217.95 312.36C217.58 310.67 216.4 310.68 216.03 309.03C215.58 307.02 219.07 306.2 220.44 305.9C221.93 305.57 223.43 305.32 224.93 305.03C228.96 304.18 232.02 303.54 235.13 306.9C235.73 307.53 236.08 308.33 236.27 309.18C236.64 310.83 236.13 312.54 236.5 314.19C237.24 317.53 241.47 317.18 242.55 322.08ZM222.73 312.78C223.29 315.31 223.83 317.17 226.93 316.49C229.86 315.84 232.65 313.95 231.9 310.58C231.16 307.24 228.24 307.98 225.75 308.53C223.02 309.14 222.08 309.85 222.73 312.79V312.78ZM233.36 330.66C237.54 329.14 239.46 327.54 238.41 322.83C237.52 318.81 232.27 319.13 229.18 319.82C224.44 320.87 224.49 322.08 225.47 326.46C226.13 329.43 226.85 332.31 230.63 331.47C231.55 331.26 232.46 330.98 233.36 330.65V330.66Z" fill="#E3D9D0"/>
<path d="M241.77 304.85C241.07 303.79 241.86 302.01 243.21 301.51C246.86 300.33 247.43 306.14 243.82 306.11C243.21 306.11 242.13 305.46 241.77 304.85ZM249.39 322.58C248.29 319.61 247.1 316.62 245.9 313.64C245.2 312.93 244.02 311.88 243.69 310.99C243.32 309.99 244.29 309.19 245.11 308.88C246.38 308.41 247.57 308.88 248.35 309.92C249.25 311.04 252.57 320.48 253.41 322.62C254.21 323.47 255.41 324.34 255.82 325.46C256.35 326.89 255.08 327.84 253.88 328.29C252.72 328.72 250.55 329.13 249.97 327.59C249.41 326.08 250.05 324.36 249.39 322.58Z" fill="#E3D9D0"/>
<path d="M272.91 306.17C274.2 308.7 271.76 310.45 269.78 311.46C268.13 312.3 261.41 314.98 262.48 317.08C263.45 318.99 266.9 319.22 268.62 318.34C271.59 316.83 272.28 313.47 273.61 312.8C274.34 312.43 275.18 312.88 275.53 313.58C276.91 316.29 272.07 320.57 269.9 321.67C269.46 321.89 268.98 322.05 268.52 322.14C263.41 323.45 259.07 321.36 256.68 316.67C253.75 310.91 255.26 304.45 261.21 301.43C265.76 299.11 270.79 302 272.92 306.18L272.91 306.17ZM264.51 309.89C265.5 309.39 268.88 307.67 268.11 306.16C267.31 304.58 264.12 304.04 262.65 304.78C260.93 305.66 258.42 308.46 259.49 310.55C260.42 312.38 263.3 310.5 264.51 309.89Z" fill="#E3D9D0"/>
<path d="M294 301.22C293.51 299.74 292.38 298.42 291.44 297.17C289.42 294.46 285.63 289.59 281.87 292.4C280.62 293.34 280.22 294.66 280.17 296.18C280.07 299.08 280.59 299.36 282.17 301.68C282.7 302.46 283.21 303.21 283.78 303.97C284.54 304.99 285.43 305.98 286.5 306.72C286.93 307.02 287.32 307.34 287.62 307.74C288.63 309.09 288.02 310.47 286.8 311.39C285.71 312.2 284.01 312.81 283.02 311.49C282.58 310.9 282.44 310.23 282.28 309.53C281.83 307.76 280.57 305.93 279.48 304.48C277.98 302.47 276.11 299.96 273.9 298.73C273.36 298.42 272.76 298.09 272.39 297.6C271.68 296.64 272.11 295.71 272.96 295.07C273.92 294.36 275.18 294.19 276.13 293.47C277.55 292.41 278.5 290.93 280.25 289.63C288.76 283.28 292.41 295.46 298.12 298.29C298.64 298.57 299.18 298.89 299.55 299.38C300.49 300.63 299.54 302.11 298.48 302.9C297.29 303.79 295.79 304.19 294.78 302.83C294.41 302.34 294.22 301.81 294.01 301.25L294 301.22Z" fill="#E3D9D0"/>
</g>
<defs>
<clipPath id="clip0_69_2399">
<rect width="404.13" height="338.52" fill="white"/>
</clipPath>
</defs>
</svg>
