<svg width="111" height="129" viewBox="0 0 111 129" fill="none" xmlns="http://www.w3.org/2000/svg">
<g style="mix-blend-mode:multiply">
<path d="M48.6599 121.776C47.6299 123.118 46.1999 124.386 45.6399 124.752C45.4399 124.878 45.2299 124.993 45.0099 125.067H44.9899C44.4999 125.255 44.5799 126.031 45.1099 126.094C45.1099 126.094 45.1199 126.094 45.1299 126.094L56.9599 127.362C57.3499 127.403 57.5999 127.456 57.7899 127.456C58.0499 127.456 58.0999 127.11 58.0999 127.11C58.1699 126.722 57.8299 126.597 57.5799 126.439C56.9499 126.052 56.5399 125.454 56.1299 124.847C54.9099 123.076 54.1399 120.928 53.7699 118.79C53.5799 117.7 53.4899 116.59 53.5399 115.489C53.7299 111.56 54.3299 107.693 54.6499 103.774C54.7299 102.758 54.8099 101.752 54.8899 100.746C54.9199 100.358 54.9499 99.9808 54.9799 99.5931C55.3099 95.6636 57.4799 94.029 57.4799 94.029L66.3399 86.0861C70.7999 82.3662 74.5199 77.5775 76.9599 72.1705C77.5599 70.8292 79.3899 65.8414 76.0199 67.2141C74.1099 67.9895 73.2299 69.8233 72.1799 71.5208C71.2199 73.0716 70.2699 74.633 69.2999 76.1733C67.3799 79.2226 65.3899 82.2195 63.1399 85.0068C61.1499 87.4798 59.1999 90.2776 56.8399 92.3629C56.7199 92.4676 56.5999 92.562 56.4499 92.6039C55.5899 92.8344 55.7599 91.5455 55.8099 91.0845L56.7199 82.209C56.9499 79.9771 57.7499 77.8394 59.0799 76.079C59.8899 75.0102 60.8099 74.0357 61.7299 73.0926C65.2599 69.4775 68.9299 65.9671 72.2399 62.1215C74.6899 59.2713 76.7499 56.201 78.7699 53.0155C81.0699 49.3689 80.5499 45.429 80.5499 45.429C80.4299 44.7793 80.4299 43.5638 80.4299 43.5638C80.3099 42.3378 79.3799 42.4949 79.3799 42.4949C78.6599 42.8093 78.0699 43.6266 77.5599 44.2134C76.9199 44.9365 76.3099 45.6805 75.7099 46.4454C74.5199 47.9753 73.4099 49.568 72.3499 51.2027C70.1799 54.5663 68.1199 58.0243 66.1399 61.5242C64.3199 64.6259 62.5399 67.4446 60.5299 70.4206C60.0599 71.1017 59.6199 71.8771 58.7699 72.0028C57.5899 72.1705 57.2299 70.8816 57.4299 70.0433C58.2399 66.7006 60.4399 64.0391 61.8999 61.0212C62.5099 59.7533 63.0999 58.4644 63.6399 57.1651C64.8799 54.4616 65.1899 51.2132 65.2699 48.2582C65.2699 48.0905 65.3699 46.2149 64.7499 46.634C63.3399 47.5666 62.4099 49.7671 62.4099 49.7671C61.0499 52.7116 59.6199 59.9943 59.6199 59.9943C59.2899 61.7128 58.7899 61.5766 58.7899 61.5766C58.1599 61.5137 58.4099 60.6125 58.4099 60.6125L60.0999 43.3123C60.2399 41.8348 60.2699 40.2944 60.8799 38.9322C61.4099 37.7481 62.4099 36.9832 63.2599 36.0715C64.0599 35.2123 64.6199 34.133 65.1299 33.0641C65.6199 32.0372 66.0699 30.9789 66.4399 29.8891C67.2799 27.4685 68.8599 26.3473 68.8599 26.3473C69.8799 25.75 69.7599 24.9432 69.7599 24.9432C69.6299 24.2202 68.6399 24.3669 68.6399 24.3669C68.8199 21.7262 70.0899 19.0332 72.9099 18.8341C73.9599 18.7608 74.9199 19.1904 75.7899 19.7458C76.6199 20.2697 77.4399 21.0556 78.4099 21.2547C78.9099 21.3595 79.4599 21.2966 79.8999 21.0137C80.5399 20.605 80.7899 19.7667 80.6199 19.0332C80.5499 18.7293 80.4499 18.415 80.4899 18.1006C80.5999 17.1052 81.3699 16.0992 80.3299 15.3028C80.0699 15.0933 79.7399 14.9885 79.4199 14.957C77.6999 14.7684 75.9899 15.4914 74.2799 15.5019C73.9499 15.5019 73.5999 15.4181 73.3399 15.1876C73.1599 15.0304 73.0299 14.7894 73.0499 14.5379C73.1099 13.6158 74.7699 13.27 75.4099 13.0185C76.2499 12.6936 77.3899 12.0754 77.5299 11.0275C77.6699 9.96919 76.7999 9.50813 75.9399 9.45574C75.2299 9.41383 74.4799 9.30904 73.9299 8.79558C73.3699 8.28213 73.2499 7.43336 72.6099 7.00373C71.4599 6.22831 70.2299 7.23426 69.5299 8.18782C68.4199 9.70723 67.5599 11.3524 66.6999 13.029C66.4899 13.4481 65.7399 14.0663 65.2899 13.3852C64.9599 12.8718 65.3199 12.1278 65.5699 11.6143C66.4599 9.79106 67.4499 8.04112 68.1399 6.11305C68.5199 5.04423 69.1499 3.64009 68.4599 2.57126C67.6599 1.3243 66.5199 1.93207 65.3999 2.14164C64.3799 2.33025 63.5599 1.51292 62.5999 1.33478C61.9399 1.21952 61.0899 1.19856 60.4399 1.46053C59.7799 1.72249 59.0999 1.60723 58.4799 1.29287C58.1299 1.11473 57.7799 0.905157 57.3999 0.80037C56.6899 0.601276 55.9999 0.936593 55.5799 1.54435C54.7899 2.69701 55.3099 4.98135 55.3099 4.98135C55.4699 5.58912 55.6399 6.1864 55.7999 6.79416C56.2299 8.3974 56.7799 10.0216 57.0999 11.6563C57.1399 11.8868 57.1599 12.1173 57.0999 12.3478C57.0099 12.6936 56.7499 12.9242 56.4199 12.767C56.0299 12.5993 55.8799 12.1173 55.7199 11.7506C55.2999 10.8284 54.9999 9.83297 54.6599 8.87941C54.3699 8.06208 54.1399 7.15043 53.7099 6.39597C53.4299 5.90348 53.0499 5.44241 52.5699 5.15949C51.5899 4.58316 50.6499 4.908 49.8099 5.58912C48.9499 6.29119 47.8999 6.05018 46.8999 5.9873C45.4399 5.88252 44.7699 7.50671 45.6399 8.6908C46.1799 9.41383 46.9299 9.90632 47.6899 10.3255C48.2299 10.6189 49.1799 10.8808 49.0399 11.7086C48.9499 12.264 48.3799 12.5155 47.8999 12.5469C46.4399 12.6622 45.3599 11.9601 44.0799 11.3733C43.2499 10.9961 42.1899 10.7341 41.4699 11.5619C41.0299 12.0754 41.0599 12.7356 40.9599 13.3643C40.8699 13.972 40.4499 14.4331 40.3099 15.0199C39.9899 16.424 41.5899 17.2099 42.6899 17.1995C43.5799 17.1995 44.2799 16.7174 45.0999 16.445C45.9599 16.1621 46.8699 16.0782 47.7699 16.1935C48.5699 16.3088 49.4499 16.6755 50.1199 17.1471C51.4899 18.1111 51.6999 20.2592 51.5699 21.9358C51.5499 22.1978 51.3599 22.4178 51.1099 22.4493C50.4399 22.5226 50.1299 23.3504 50.5099 23.9163C50.6299 24.0944 50.7799 24.2516 50.9199 24.3669C52.5199 25.75 52.4899 28.6841 52.9599 30.6331C53.4399 32.624 54.2399 34.0911 55.3399 35.8096C55.8599 36.6269 56.6199 37.3394 57.0799 38.2196C57.6499 39.3094 57.5999 40.5773 57.4899 41.7719L56.3099 53.1517L55.4699 63.2951C55.3699 64.3429 54.9699 64.1438 54.9699 64.1438C54.5699 63.9867 54.5299 63.2741 54.5299 63.2741L53.5799 58.7997C52.5199 54.231 51.9599 49.5576 51.3499 44.905C50.8099 40.7869 50.5399 36.5955 49.1799 32.6555C48.7799 31.5133 47.9299 29.2499 46.5599 29.1032C45.0099 28.9356 46.6199 41.8872 46.8199 43.0817C48.2899 52.0619 51.5799 60.5601 54.2299 69.1945C54.5899 70.3682 55.0799 71.657 54.8599 72.9145C54.6099 74.3605 53.2699 73.8995 52.5799 73.1136C49.1599 69.2469 44.7899 61.7233 44.7899 61.7233C42.3399 57.2279 40.5399 52.3658 37.5599 48.1953C37.0399 47.4618 36.4799 46.7598 35.9299 46.0577C35.2899 45.2403 34.8699 44.0563 34.0299 43.4485C32.7599 42.5264 33.0099 44.9574 33.0699 45.4709C33.2099 46.613 33.4199 47.7343 33.6899 48.845C34.2299 51.0141 35.0199 53.1098 35.9499 55.1322C38.2799 60.2248 41.3399 64.5839 45.1399 68.5658C47.4099 70.934 49.7499 73.2393 52.1599 75.4503C54.3699 77.5984 53.9499 80.1028 53.9499 80.1028L53.1299 87.5217C53.0699 88.7687 52.2999 89.8899 51.0099 89.1564C49.7799 88.4543 48.6999 86.8092 47.7899 85.7089C46.7099 84.4096 45.6799 83.0578 44.6799 81.6851C42.6699 78.8978 40.8399 75.9742 39.1599 72.9669C37.4099 69.8233 35.8199 66.4911 34.3299 63.2427C33.9399 62.3834 32.3699 59.3132 31.0499 60.1829C29.7499 61.0317 30.5599 63.5466 30.7899 64.7621C31.1499 66.6587 31.6199 68.5239 32.2099 70.3577C33.3599 73.9309 34.9999 77.3574 37.1399 80.3962C39.0099 83.0368 41.3399 85.3212 43.7899 87.3436C45.3699 88.6534 47.0399 89.827 48.7399 90.9482C50.7499 92.2685 52.2699 93.6098 52.4899 95.6846C52.7199 97.8222 52.5199 100.473 52.2999 102.569C52.2999 102.569 51.0799 114.819 50.5999 117.218C50.5999 117.218 50.0599 120.006 48.6899 121.797L48.6599 121.776ZM56.1199 27.8772C56.5599 28.7469 57.5599 31.1046 57.6599 34.9503C57.6599 35.097 57.4799 35.1599 57.4099 35.0341C56.8399 34.0596 55.5699 31.4504 55.8699 27.9401C55.8799 27.8039 56.0599 27.7619 56.1199 27.8877V27.8772ZM58.1899 25.3833C57.9699 25.3623 57.8099 25.1528 57.8399 24.9222C57.8599 24.7336 57.8799 24.5555 57.8899 24.3669C57.9099 24.1154 57.9299 23.8744 57.9399 23.6229C57.9499 23.3295 57.9599 23.0256 57.9599 22.7322C57.9599 22.3969 57.9499 22.0616 57.9199 21.7262C57.8999 21.3595 57.8599 21.0032 57.8099 20.6365C57.7499 20.2592 57.6799 19.882 57.5899 19.5048C57.5499 19.3476 57.5099 19.1799 57.4599 19.0227C57.4499 18.9808 57.4399 18.9389 57.4199 18.9075C57.3999 18.8446 57.3399 18.8027 57.2699 18.7922C57.2299 18.7922 57.1999 18.7922 57.1599 18.7817C57.1099 18.7817 57.0699 18.7608 57.0199 18.7503C57.0199 18.7503 57.0199 18.7503 57.0099 18.7503C56.8799 18.7189 56.7499 18.656 56.6299 18.5931C56.3999 18.4569 56.2099 18.2473 56.0799 18.0063C55.9499 17.7653 55.8799 17.4719 55.8999 17.1785C55.8999 17.1471 55.8999 17.1156 55.8999 17.0842C55.9799 16.2459 56.7299 15.6067 57.5299 15.6905C58.3299 15.7744 58.9399 16.5393 58.8599 17.3986C58.8199 17.7967 58.6399 18.1425 58.3699 18.394C58.1799 18.5722 58.1099 18.8341 58.1999 19.0751C58.5399 19.9763 58.9799 21.8729 58.6199 25.027C58.5899 25.2471 58.3999 25.4147 58.1799 25.3938L58.1899 25.3833ZM63.4899 28.8936C63.3899 29.8158 62.9099 32.7603 60.9199 35.2647C60.8499 35.3485 60.7399 35.2856 60.7499 35.1704C60.8499 34.112 61.3299 30.8532 63.3199 28.7889C63.3899 28.7155 63.4899 28.7889 63.4799 28.8936H63.4899ZM59.0299 35.9982C58.8199 34.8665 58.2399 30.7588 59.6699 27.0599C59.7099 26.9446 59.8799 26.9551 59.9099 27.0808C60.1699 28.1601 60.5199 31.6914 59.1899 36.0086C59.1699 36.0925 59.0499 36.082 59.0399 36.0086L59.0299 35.9982ZM60.0799 25.0061C60.3499 21.2757 61.2599 18.3416 61.6699 17.189C61.7499 16.9585 61.7399 16.707 61.6099 16.4974C61.3699 16.1306 61.2799 15.6591 61.4099 15.1771C61.5799 14.5484 62.1299 14.0873 62.7599 14.0559C63.8999 14.0035 64.7699 15.219 64.1299 16.4031C63.8499 16.9165 63.4999 17.0737 62.8899 17.0947C62.8899 17.0947 62.6299 17.0842 62.4899 17.3462C61.1899 20.1125 60.9699 23.7905 60.8899 25.0689C60.8799 25.2995 60.6799 25.4776 60.4599 25.4462C60.2499 25.4252 60.0899 25.2261 60.1099 25.0061H60.0799Z" fill="#595280"/>
<path d="M42.1599 91.294L35.9099 90.6234C35.8099 92.0694 36.4899 93.1068 37.1999 93.9346C38.5999 95.5798 40.9099 97.7803 39.5099 99.7817C38.5399 101.175 37.1999 100.819 35.9499 100.253C25.0899 95.255 24.3099 81.8737 24.3099 81.8737L19.9699 81.4127C19.9199 81.8528 20.5699 91.9961 26.8999 99.0692C26.8999 99.0692 26.9999 99.2159 26.9999 99.2264C27.3499 99.9494 26.6199 100.735 25.8999 100.4C25.5999 100.253 25.3299 99.9075 25.3299 99.9075C18.1199 91.5036 18.1599 81.224 18.1599 81.224L13.5299 80.7315C13.5299 80.7315 13.9099 95.6636 22.3899 103.376C22.6199 103.585 22.6399 103.837 22.5899 104.036C22.4799 104.518 21.9599 104.77 21.5199 104.591C21.1999 104.455 20.9399 104.214 20.9399 104.214C11.7899 95.8418 11.6299 80.522 11.6299 80.522L6.76995 79.998C6.76995 79.998 6.84995 96.6905 16.9499 106.865C17.2699 107.18 17.3899 107.379 17.4799 107.62C17.5999 107.955 17.5899 108.416 17.1399 108.689C16.8099 108.898 16.3299 108.731 16.0599 108.489C15.6599 108.123 15.2499 107.672 14.8799 107.274C4.76995 96.3343 5.03995 80.239 5.03995 79.8199L-5.15203e-05 79.2645C-5.15203e-05 79.2645 -0.860052 103.512 17.3299 118.298C17.3299 118.298 26.4499 125.947 36.0199 124.145C41.5299 123.107 45.9199 118.853 47.4299 113.205C48.7599 108.238 48.5799 100.798 42.1499 91.3045L42.1599 91.294Z" fill="#595280"/>
<path d="M66.69 93.9347L72.94 94.6053C72.75 96.0409 71.89 96.9106 71.04 97.5708C69.35 98.8911 66.67 100.547 67.65 102.81C68.33 104.382 69.71 104.319 71.05 104.026C82.65 101.437 86.01 88.5067 86.01 88.5067L90.35 88.9678C90.31 89.4079 87.72 99.2054 80.15 104.78C80.15 104.78 80.03 104.906 80.02 104.916C79.54 105.545 80.1 106.478 80.87 106.299C81.19 106.226 81.52 105.943 81.52 105.943C90.21 99.2473 92.15 89.1669 92.15 89.1669L96.78 89.6594C96.78 89.6594 93.52 104.204 83.72 109.957C83.45 110.114 83.39 110.355 83.4 110.564C83.42 111.057 83.87 111.424 84.34 111.34C84.68 111.277 84.98 111.088 84.98 111.088C95.57 104.832 98.68 89.8689 98.68 89.8689L103.54 90.3929C103.54 90.3929 100.23 106.719 88.37 114.536C88 114.777 87.84 114.944 87.7 115.164C87.51 115.468 87.44 115.919 87.82 116.286C88.1 116.558 88.61 116.506 88.92 116.317C89.38 116.045 89.87 115.688 90.31 115.374C102.32 106.813 105.18 90.9902 105.26 90.5815L110.29 91.1159C110.29 91.1159 106.44 115.039 85.77 125.654C85.77 125.654 75.36 131.207 66.34 127.403C61.14 125.213 57.66 120.121 57.28 114.263C56.94 109.118 58.55 101.867 66.69 93.9451V93.9347Z" fill="#595280"/>
<g style="mix-blend-mode:multiply" opacity="0.15">
<path d="M48.6599 121.776C47.6299 123.118 46.1999 124.386 45.6399 124.752C45.4399 124.878 45.2299 124.993 45.0099 125.067H44.9899C44.4999 125.255 44.5799 126.031 45.1099 126.094C45.1099 126.094 45.1199 126.094 45.1299 126.094L56.9599 127.362C57.3499 127.403 57.5999 127.456 57.7899 127.456C58.0499 127.456 58.0999 127.11 58.0999 127.11C58.1699 126.722 57.8299 126.597 57.5799 126.439C56.9499 126.052 56.5399 125.454 56.1299 124.847C54.9099 123.076 54.1399 120.928 53.7699 118.79C53.5799 117.7 53.4899 116.59 53.5399 115.489C53.7299 111.56 54.3299 107.693 54.6499 103.774C54.7299 102.758 54.8099 101.752 54.8899 100.746C54.9199 100.358 54.9499 99.9808 54.9799 99.5931C55.3099 95.6636 57.4799 94.029 57.4799 94.029L66.3399 86.0861C70.7999 82.3662 74.5199 77.5775 76.9599 72.1705C77.5599 70.8292 79.3899 65.8414 76.0199 67.2141C74.1099 67.9895 73.2299 69.8233 72.1799 71.5208C71.2199 73.0716 70.2699 74.633 69.2999 76.1733C67.3799 79.2226 65.3899 82.2195 63.1399 85.0068C61.1499 87.4798 59.1999 90.2776 56.8399 92.3629C56.7199 92.4676 56.5999 92.562 56.4499 92.6039C55.5899 92.8344 55.7599 91.5455 55.8099 91.0845L56.7199 82.209C56.9499 79.9771 57.7499 77.8394 59.0799 76.079C59.8899 75.0102 60.8099 74.0357 61.7299 73.0926C65.2599 69.4775 68.9299 65.9671 72.2399 62.1215C74.6899 59.2713 76.7499 56.201 78.7699 53.0155C81.0699 49.3689 80.5499 45.429 80.5499 45.429C80.4299 44.7793 80.4299 43.5638 80.4299 43.5638C80.3099 42.3378 79.3799 42.4949 79.3799 42.4949C78.6599 42.8093 78.0699 43.6266 77.5599 44.2134C76.9199 44.9365 76.3099 45.6805 75.7099 46.4454C74.5199 47.9753 73.4099 49.568 72.3499 51.2027C70.1799 54.5663 68.1199 58.0243 66.1399 61.5242C64.3199 64.6259 62.5399 67.4446 60.5299 70.4206C60.0599 71.1017 59.6199 71.8771 58.7699 72.0028C57.5899 72.1705 57.2299 70.8816 57.4299 70.0433C58.2399 66.7006 60.4399 64.0391 61.8999 61.0212C62.5099 59.7533 63.0999 58.4644 63.6399 57.1651C64.8799 54.4616 65.1899 51.2132 65.2699 48.2582C65.2699 48.0905 65.3699 46.2149 64.7499 46.634C63.3399 47.5666 62.4099 49.7671 62.4099 49.7671C61.0499 52.7116 59.6199 59.9943 59.6199 59.9943C59.2899 61.7128 58.7899 61.5766 58.7899 61.5766C58.1599 61.5137 58.4099 60.6125 58.4099 60.6125L60.0999 43.3123C60.2399 41.8348 60.2699 40.2944 60.8799 38.9322C61.4099 37.7481 62.4099 36.9832 63.2599 36.0715C64.0599 35.2123 64.6199 34.133 65.1299 33.0641C65.6199 32.0372 66.0699 30.9789 66.4399 29.8891C67.2799 27.4685 68.8599 26.3473 68.8599 26.3473C69.8799 25.75 69.7599 24.9432 69.7599 24.9432C69.6299 24.2202 68.6399 24.3669 68.6399 24.3669C68.8199 21.7262 70.0899 19.0332 72.9099 18.8341C73.9599 18.7608 74.9199 19.1904 75.7899 19.7458C76.6199 20.2697 77.4399 21.0556 78.4099 21.2547C78.9099 21.3595 79.4599 21.2966 79.8999 21.0137C80.5399 20.605 80.7899 19.7667 80.6199 19.0332C80.5499 18.7293 80.4499 18.415 80.4899 18.1006C80.5999 17.1052 81.3699 16.0992 80.3299 15.3028C80.0699 15.0933 79.7399 14.9885 79.4199 14.957C77.6999 14.7684 75.9899 15.4914 74.2799 15.5019C73.9499 15.5019 73.5999 15.4181 73.3399 15.1876C73.1599 15.0304 73.0299 14.7894 73.0499 14.5379C73.1099 13.6158 74.7699 13.27 75.4099 13.0185C76.2499 12.6936 77.3899 12.0754 77.5299 11.0275C77.6699 9.96919 76.7999 9.50813 75.9399 9.45574C75.2299 9.41383 74.4799 9.30904 73.9299 8.79558C73.3699 8.28213 73.2499 7.43336 72.6099 7.00373C71.4599 6.22831 70.2299 7.23426 69.5299 8.18782C68.4199 9.70723 67.5599 11.3524 66.6999 13.029C66.4899 13.4481 65.7399 14.0663 65.2899 13.3852C64.9599 12.8718 65.3199 12.1278 65.5699 11.6143C66.4599 9.79106 67.4499 8.04112 68.1399 6.11305C68.5199 5.04423 69.1499 3.64009 68.4599 2.57126C67.6599 1.3243 66.5199 1.93207 65.3999 2.14164C64.3799 2.33025 63.5599 1.51292 62.5999 1.33478C61.9399 1.21952 61.0899 1.19856 60.4399 1.46053C59.7799 1.72249 59.0999 1.60723 58.4799 1.29287C58.1299 1.11473 57.7799 0.905157 57.3999 0.80037C56.6899 0.601276 55.9999 0.936593 55.5799 1.54435C54.7899 2.69701 55.3099 4.98135 55.3099 4.98135C55.4699 5.58912 55.6399 6.1864 55.7999 6.79416C56.2299 8.3974 56.7799 10.0216 57.0999 11.6563C57.1399 11.8868 57.1599 12.1173 57.0999 12.3478C57.0099 12.6936 56.7499 12.9242 56.4199 12.767C56.0299 12.5993 55.8799 12.1173 55.7199 11.7506C55.2999 10.8284 54.9999 9.83297 54.6599 8.87941C54.3699 8.06208 54.1399 7.15043 53.7099 6.39597C53.4299 5.90348 53.0499 5.44241 52.5699 5.15949C51.5899 4.58316 50.6499 4.908 49.8099 5.58912C48.9499 6.29119 47.8999 6.05018 46.8999 5.9873C45.4399 5.88252 44.7699 7.50671 45.6399 8.6908C46.1799 9.41383 46.9299 9.90632 47.6899 10.3255C48.2299 10.6189 49.1799 10.8808 49.0399 11.7086C48.9499 12.264 48.3799 12.5155 47.8999 12.5469C46.4399 12.6622 45.3599 11.9601 44.0799 11.3733C43.2499 10.9961 42.1899 10.7341 41.4699 11.5619C41.0299 12.0754 41.0599 12.7356 40.9599 13.3643C40.8699 13.972 40.4499 14.4331 40.3099 15.0199C39.9899 16.424 41.5899 17.2099 42.6899 17.1995C43.5799 17.1995 44.2799 16.7174 45.0999 16.445C45.9599 16.1621 46.8699 16.0782 47.7699 16.1935C48.5699 16.3088 49.4499 16.6755 50.1199 17.1471C51.4899 18.1111 51.6999 20.2592 51.5699 21.9358C51.5499 22.1978 51.3599 22.4178 51.1099 22.4493C50.4399 22.5226 50.1299 23.3504 50.5099 23.9163C50.6299 24.0944 50.7799 24.2516 50.9199 24.3669C52.5199 25.75 52.4899 28.6841 52.9599 30.6331C53.4399 32.624 54.2399 34.0911 55.3399 35.8096C55.8599 36.6269 56.6199 37.3394 57.0799 38.2196C57.6499 39.3094 57.5999 40.5773 57.4899 41.7719L56.3099 53.1517L55.4699 63.2951C55.3699 64.3429 54.9699 64.1438 54.9699 64.1438C54.5699 63.9867 54.5299 63.2741 54.5299 63.2741L53.5799 58.7997C52.5199 54.231 51.9599 49.5576 51.3499 44.905C50.8099 40.7869 50.5399 36.5955 49.1799 32.6555C48.7799 31.5133 47.9299 29.2499 46.5599 29.1032C45.0099 28.9356 46.6199 41.8872 46.8199 43.0817C48.2899 52.0619 51.5799 60.5601 54.2299 69.1945C54.5899 70.3682 55.0799 71.657 54.8599 72.9145C54.6099 74.3605 53.2699 73.8995 52.5799 73.1136C49.1599 69.2469 44.7899 61.7233 44.7899 61.7233C42.3399 57.2279 40.5399 52.3658 37.5599 48.1953C37.0399 47.4618 36.4799 46.7598 35.9299 46.0577C35.2899 45.2403 34.8699 44.0563 34.0299 43.4485C32.7599 42.5264 33.0099 44.9574 33.0699 45.4709C33.2099 46.613 33.4199 47.7343 33.6899 48.845C34.2299 51.0141 35.0199 53.1098 35.9499 55.1322C38.2799 60.2248 41.3399 64.5839 45.1399 68.5658C47.4099 70.934 49.7499 73.2393 52.1599 75.4503C54.3699 77.5984 53.9499 80.1028 53.9499 80.1028L53.1299 87.5217C53.0699 88.7687 52.2999 89.8899 51.0099 89.1564C49.7799 88.4543 48.6999 86.8092 47.7899 85.7089C46.7099 84.4096 45.6799 83.0578 44.6799 81.6851C42.6699 78.8978 40.8399 75.9742 39.1599 72.9669C37.4099 69.8233 35.8199 66.4911 34.3299 63.2427C33.9399 62.3834 32.3699 59.3132 31.0499 60.1829C29.7499 61.0317 30.5599 63.5466 30.7899 64.7621C31.1499 66.6587 31.6199 68.5239 32.2099 70.3577C33.3599 73.9309 34.9999 77.3574 37.1399 80.3962C39.0099 83.0368 41.3399 85.3212 43.7899 87.3436C45.3699 88.6534 47.0399 89.827 48.7399 90.9482C50.7499 92.2685 52.2699 93.6098 52.4899 95.6846C52.7199 97.8222 52.5199 100.473 52.2999 102.569C52.2999 102.569 51.0799 114.819 50.5999 117.218C50.5999 117.218 50.0599 120.006 48.6899 121.797L48.6599 121.776ZM56.1199 27.8772C56.5599 28.7469 57.5599 31.1046 57.6599 34.9503C57.6599 35.097 57.4799 35.1599 57.4099 35.0341C56.8399 34.0596 55.5699 31.4504 55.8699 27.9401C55.8799 27.8039 56.0599 27.7619 56.1199 27.8877V27.8772ZM58.1899 25.3833C57.9699 25.3623 57.8099 25.1528 57.8399 24.9222C57.8599 24.7336 57.8799 24.5555 57.8899 24.3669C57.9099 24.1154 57.9299 23.8744 57.9399 23.6229C57.9499 23.3295 57.9599 23.0256 57.9599 22.7322C57.9599 22.3969 57.9499 22.0616 57.9199 21.7262C57.8999 21.3595 57.8599 21.0032 57.8099 20.6365C57.7499 20.2592 57.6799 19.882 57.5899 19.5048C57.5499 19.3476 57.5099 19.1799 57.4599 19.0227C57.4499 18.9808 57.4399 18.9389 57.4199 18.9075C57.3999 18.8446 57.3399 18.8027 57.2699 18.7922C57.2299 18.7922 57.1999 18.7922 57.1599 18.7817C57.1099 18.7817 57.0699 18.7608 57.0199 18.7503C57.0199 18.7503 57.0199 18.7503 57.0099 18.7503C56.8799 18.7189 56.7499 18.656 56.6299 18.5931C56.3999 18.4569 56.2099 18.2473 56.0799 18.0063C55.9499 17.7653 55.8799 17.4719 55.8999 17.1785C55.8999 17.1471 55.8999 17.1156 55.8999 17.0842C55.9799 16.2459 56.7299 15.6067 57.5299 15.6905C58.3299 15.7744 58.9399 16.5393 58.8599 17.3986C58.8199 17.7967 58.6399 18.1425 58.3699 18.394C58.1799 18.5722 58.1099 18.8341 58.1999 19.0751C58.5399 19.9763 58.9799 21.8729 58.6199 25.027C58.5899 25.2471 58.3999 25.4147 58.1799 25.3938L58.1899 25.3833ZM63.4899 28.8936C63.3899 29.8158 62.9099 32.7603 60.9199 35.2647C60.8499 35.3485 60.7399 35.2856 60.7499 35.1704C60.8499 34.112 61.3299 30.8532 63.3199 28.7889C63.3899 28.7155 63.4899 28.7889 63.4799 28.8936H63.4899ZM59.0299 35.9982C58.8199 34.8665 58.2399 30.7588 59.6699 27.0599C59.7099 26.9446 59.8799 26.9551 59.9099 27.0808C60.1699 28.1601 60.5199 31.6914 59.1899 36.0086C59.1699 36.0925 59.0499 36.082 59.0399 36.0086L59.0299 35.9982ZM60.0799 25.0061C60.3499 21.2757 61.2599 18.3416 61.6699 17.189C61.7499 16.9585 61.7399 16.707 61.6099 16.4974C61.3699 16.1306 61.2799 15.6591 61.4099 15.1771C61.5799 14.5484 62.1299 14.0873 62.7599 14.0559C63.8999 14.0035 64.7699 15.219 64.1299 16.4031C63.8499 16.9165 63.4999 17.0737 62.8899 17.0947C62.8899 17.0947 62.6299 17.0842 62.4899 17.3462C61.1899 20.1125 60.9699 23.7905 60.8899 25.0689C60.8799 25.2995 60.6799 25.4776 60.4599 25.4462C60.2499 25.4252 60.0899 25.2261 60.1099 25.0061H60.0799Z" fill="#232323"/>
<path d="M42.1599 91.294L35.9099 90.6234C35.8099 92.0694 36.4899 93.1068 37.1999 93.9346C38.5999 95.5798 40.9099 97.7803 39.5099 99.7817C38.5399 101.175 37.1999 100.819 35.9499 100.253C25.0899 95.255 24.3099 81.8737 24.3099 81.8737L19.9699 81.4127C19.9199 81.8528 20.5699 91.9961 26.8999 99.0692C26.8999 99.0692 26.9999 99.2159 26.9999 99.2264C27.3499 99.9494 26.6199 100.735 25.8999 100.4C25.5999 100.253 25.3299 99.9075 25.3299 99.9075C18.1199 91.5036 18.1599 81.224 18.1599 81.224L13.5299 80.7315C13.5299 80.7315 13.9099 95.6636 22.3899 103.376C22.6199 103.585 22.6399 103.837 22.5899 104.036C22.4799 104.518 21.9599 104.77 21.5199 104.591C21.1999 104.455 20.9399 104.214 20.9399 104.214C11.7899 95.8418 11.6299 80.522 11.6299 80.522L6.76995 79.998C6.76995 79.998 6.84995 96.6905 16.9499 106.865C17.2699 107.18 17.3899 107.379 17.4799 107.62C17.5999 107.955 17.5899 108.416 17.1399 108.689C16.8099 108.898 16.3299 108.731 16.0599 108.489C15.6599 108.123 15.2499 107.672 14.8799 107.274C4.76995 96.3343 5.03995 80.239 5.03995 79.8199L-5.15203e-05 79.2645C-5.15203e-05 79.2645 -0.860052 103.512 17.3299 118.298C17.3299 118.298 26.4499 125.947 36.0199 124.145C41.5299 123.107 45.9199 118.853 47.4299 113.205C48.7599 108.238 48.5799 100.798 42.1499 91.3045L42.1599 91.294Z" fill="#232323"/>
<path d="M66.69 93.9347L72.94 94.6053C72.75 96.0409 71.89 96.9106 71.04 97.5708C69.35 98.8911 66.67 100.547 67.65 102.81C68.33 104.382 69.71 104.319 71.05 104.026C82.65 101.437 86.01 88.5067 86.01 88.5067L90.35 88.9678C90.31 89.4079 87.72 99.2054 80.15 104.78C80.15 104.78 80.03 104.906 80.02 104.916C79.54 105.545 80.1 106.478 80.87 106.299C81.19 106.226 81.52 105.943 81.52 105.943C90.21 99.2473 92.15 89.1669 92.15 89.1669L96.78 89.6594C96.78 89.6594 93.52 104.204 83.72 109.957C83.45 110.114 83.39 110.355 83.4 110.564C83.42 111.057 83.87 111.424 84.34 111.34C84.68 111.277 84.98 111.088 84.98 111.088C95.57 104.832 98.68 89.8689 98.68 89.8689L103.54 90.3929C103.54 90.3929 100.23 106.719 88.37 114.536C88 114.777 87.84 114.944 87.7 115.164C87.51 115.468 87.44 115.919 87.82 116.286C88.1 116.558 88.61 116.506 88.92 116.317C89.38 116.045 89.87 115.688 90.31 115.374C102.32 106.813 105.18 90.9902 105.26 90.5815L110.29 91.1159C110.29 91.1159 106.44 115.039 85.77 125.654C85.77 125.654 75.36 131.207 66.34 127.403C61.14 125.213 57.66 120.121 57.28 114.263C56.94 109.118 58.55 101.867 66.69 93.9451V93.9347Z" fill="#232323"/>
</g>
</g>
</svg>
