<svg width="765" height="125" viewBox="0 0 765 125" fill="none" xmlns="http://www.w3.org/2000/svg">
<g clip-path="url(#clip0_69_2388)">
<path d="M40.4399 3.44998C48 1.64998 55.74 0.32998 63.52 0.15998C79.4699 -0.18002 97.6799 5.92998 103.92 22.05C107.09 30.25 106.05 39.71 105.97 48.3C105.81 65.37 103.64 83.05 106.1 100.03C107 106.25 110.47 112.74 117.12 114.08C131.83 117.05 135.38 100.18 136.07 89.15C137.01 74.34 136.88 59.14 135.86 44.35C135.36 37.05 134.67 29.58 132.59 22.53C132.59 22.53 129.89 15.39 136.7 11.95L153.53 2.80998C154.67 2.18998 155.96 1.85998 157.24 2.00998C158.34 2.12998 159.55 2.58998 160.42 3.81998C160.94 4.54998 161.17 5.44998 161.2 6.33998L161.41 12.62C161.41 12.62 161.14 17.79 167.37 14.48C171.33 12.37 178.51 6.77998 187.94 3.05998C198.39 -1.06002 210.08 -1.00002 220.47 3.25998C230.05 7.18998 241.48 15.09 244.63 30.78C247.53 45.22 247.23 60.03 247.04 74.69C246.88 87.03 245.21 100.82 251.19 112.16C251.19 112.16 253.28 115.39 252.68 119.32C252.68 119.32 251.73 122.89 248.51 123.25H218.16C215.06 123.25 212.97 120.64 212.83 117.68C212.71 115.08 214.33 113.12 215.89 111.23C221.92 103.94 221.51 93.77 221.25 84.87C220.93 73.55 220.81 62.25 220.02 50.96C219.36 41.62 217.15 31.66 210.11 24.97C200.22 15.58 183.83 17.26 173.63 25.27C162.49 34.01 161.63 49.25 161.38 62.28C161.2 71.86 161.01 81.44 160.83 91.02C160.83 91.02 160.77 93.1 160.9 95.95C161.19 102.58 163.89 108.8 168.1 113.93C171.27 117.79 169.07 123.25 164.02 123.25H94.5699C91.8599 123.25 89.16 122.47 86.9999 120.81C84.6299 118.99 82.3399 115.82 81.9599 110.34C81.9599 110.34 81.9599 102.78 81.9599 102.73C81.8199 100.26 80.0799 98.07 77.5999 97.66C74.5899 97.17 72.2899 99.4 70.7399 101.7C65.6099 109.29 60.38 115.72 52.1199 120.12C41.4399 125.81 27.8699 126.76 17.0299 120.58C6.61995 114.64 -0.210051 102.84 -5.10463e-05 90.84C0.269949 75.55 11.6199 65.24 24.7499 59.38C39.1699 52.95 54.6799 49.16 69.5999 44.1C76.6099 41.72 76.8799 33.44 74.5699 27.55C71.5599 19.89 64.75 15.52 56.66 15.02C52.7099 14.78 48.7299 15.34 44.9199 16.36C37.6399 18.29 30.5599 21.08 23.4499 23.53C20.41 24.58 15.7499 24.53 13.2299 22.54C12.5599 22.01 12.0099 21.45 11.6099 20.94C11.6099 20.94 8.02995 17.21 14.2799 13.27C14.2799 13.27 24.13 7.34998 40.45 3.45998L40.4399 3.44998ZM24.7199 88.05C25.5999 95.65 31.4799 101.59 39.09 102.77C45.9599 103.84 52.36 102.9 57.88 98.75C68.2599 90.94 73.9899 78.45 79.7499 67.2C80.6199 65.5 81.5299 62.97 81.9599 61.81C83.5799 57.4 81.2999 53.4 76.1099 54.5C67.7799 56.26 61.8899 57.85 55.11 59.82C48.07 61.86 41.1199 64.47 34.9399 68.46C27.9799 72.95 23.6799 79.14 24.7199 88.06V88.05Z" fill="#595280"/>
<path d="M761.37 114.08C754.96 111.85 751.25 106.26 750.34 100.03C747.88 83.06 750.05 65.38 750.21 48.3C750.3 39.7 751.34 30.24 748.16 22.05C741.93 5.93 723.71 -0.189995 707.77 0.160005C699.99 0.330005 692.24 1.65001 684.68 3.45001C668.37 7.35001 658.52 13.26 658.52 13.26C652.27 17.2 655.85 20.94 655.85 20.94C656.25 21.45 656.79 22 657.47 22.53C660.01 24.52 664.65 24.58 667.7 23.53C674.82 21.07 681.9 18.29 689.18 16.36C693 15.35 696.97 14.78 700.92 15.03C709.01 15.52 715.82 19.9 718.84 27.56C721.16 33.45 720.87 41.73 713.87 44.1C698.94 49.16 683.44 52.95 669.02 59.39C655.88 65.25 644.53 75.56 644.27 90.85C644.06 102.85 650.88 114.66 661.31 120.58C672.14 126.75 685.71 125.81 696.39 120.13C704.66 115.72 709.89 109.3 715.02 101.71C716.57 99.41 718.86 97.17 721.88 97.66C724.37 98.06 726.11 100.26 726.24 102.73V110.33C726.62 115.81 728.91 118.98 731.28 120.8C733.44 122.46 736.13 123.23 738.85 123.23H756.77C761.29 123.14 762.26 123.09 763.58 121.16C765.28 118.7 763.81 114.93 761.39 114.08H761.37ZM726.21 61.79C725.78 62.97 724.88 65.49 724.01 67.19C718.24 78.45 712.52 90.93 702.13 98.75C696.62 102.91 690.21 103.84 683.33 102.76C675.72 101.58 669.84 95.65 668.96 88.05C667.92 79.12 672.22 72.93 679.19 68.44C685.37 64.45 692.32 61.84 699.36 59.81C706.14 57.84 712.03 56.25 720.37 54.49C725.55 53.39 727.84 57.39 726.21 61.79Z" fill="#595280"/>
<path d="M628.46 33.74C621.91 20.72 610.35 11.06 596.41 6.80001C589.33 4.63001 580 4.03001 572.59 4.03001H529.01C529.01 4.03001 528.27 3.89001 527.27 3.95001C524.62 4.09001 522.51 6.47001 522.93 9.10001C523.01 9.57001 523.16 10.01 523.44 10.38C523.44 10.38 524.66 12.49 525.15 14.07C525.15 14.07 528.19 22.34 528.46 36.15L529.22 92.36C529.22 92.36 529.28 105.43 526.8 112.06C526.8 112.06 524.61 117.21 527.55 119.76C527.55 119.76 529.06 121.21 533.01 120.9C535.53 120.71 538.06 120.54 540.58 120.59C540.58 120.59 576.49 120.88 576.54 120.88C598.92 121.06 619.09 111.07 628.63 90.19C636.71 72.53 637.26 51.25 628.45 33.74H628.46ZM583.87 110.5C578.19 112.92 565.81 113.54 561.71 112.75C552.22 110.94 553.24 100.7 553.24 100.7V25.12C553.24 22.7 553.73 20.28 554.87 18.14C556.23 15.59 558.68 13 563 12.79C563 12.79 596.45 8.26001 604.94 48.35C609.47 69.79 606.73 100.71 583.87 110.5Z" fill="#595280"/>
<path d="M511.2 112.15C505.22 100.8 506.88 87.01 507.04 74.68C507.23 60.03 507.53 45.22 504.63 30.77C501.48 15.08 490.05 7.18001 480.48 3.25001C470.09 -1.00999 458.38 -1.06999 447.94 3.06001C438.5 6.78001 431.33 12.37 427.37 14.48C421.14 17.79 421.4 12.63 421.4 12.63L421.19 6.35001C421.16 5.46001 420.93 4.55 420.41 3.83001C419.54 2.60001 418.33 2.15001 417.24 2.02001C415.95 1.88001 414.66 2.21001 413.53 2.82001L396.7 11.96C389.89 15.42 392.58 22.55 392.58 22.55C394.66 29.59 395.35 37.07 395.85 44.38C396.87 59.16 396.99 74.37 396.06 89.18C395.36 100.2 391.81 117.08 377.11 114.1C370.46 112.77 366.99 106.28 366.09 100.05C363.62 83.08 365.79 65.4 365.95 48.32C366.04 39.72 367.08 30.26 363.9 22.07C357.69 5.94001 339.47 -0.189995 323.53 0.160005C315.75 0.330005 308.01 1.65001 300.45 3.45001C284.14 7.35001 274.28 13.26 274.28 13.26C268.03 17.2 271.61 20.94 271.61 20.94C271.99 21.42 272.49 21.92 273.1 22.43C275.68 24.53 279.21 24.97 282.36 23.91C289.85 21.37 297.29 18.4 304.94 16.36C308.76 15.35 312.73 14.78 316.68 15.03C324.77 15.52 331.58 19.9 334.6 27.56C336.92 33.45 336.63 41.73 329.63 44.1C314.7 49.16 299.2 52.95 284.78 59.39C271.64 65.25 260.3 75.56 260.03 90.85C259.82 102.85 266.64 114.66 277.06 120.58C287.89 126.75 301.46 125.81 312.14 120.13C320.41 115.72 325.64 109.3 330.77 101.71C332.32 99.41 334.63 97.17 337.63 97.66C340.12 98.06 341.86 100.26 341.99 102.73V110.33C342.38 115.81 344.67 118.98 347.04 120.8C349.19 122.46 351.88 123.23 354.6 123.23H424.05C429.1 123.24 431.3 117.78 428.13 113.91C423.92 108.78 421.23 102.57 420.93 95.93C420.8 93.08 420.87 91.01 420.87 91.01C421.05 81.43 421.23 71.85 421.41 62.26C421.67 49.24 422.52 33.99 433.67 25.25C443.87 17.25 460.26 15.55 470.15 24.95C477.19 31.63 479.41 41.6 480.07 50.94C480.86 62.24 480.98 73.54 481.3 84.86C481.56 93.75 481.97 103.93 475.94 111.22C474.37 113.11 472.76 115.08 472.87 117.67C473.01 120.63 475.1 123.24 478.2 123.24H508.55C509.95 123.08 510.92 122.32 511.58 121.49C512.5 120.34 512.87 118.84 512.81 117.36C512.65 114.37 511.22 112.16 511.22 112.16L511.2 112.15ZM341.97 61.79C341.53 62.97 340.62 65.49 339.76 67.19C333.99 78.45 328.27 90.93 317.88 98.75C312.37 102.91 305.96 103.84 299.1 102.76C291.49 101.58 285.6 95.65 284.72 88.05C283.68 79.12 287.99 72.93 294.95 68.44C301.12 64.45 308.09 61.84 315.12 59.81C321.9 57.84 327.79 56.25 336.13 54.49C341.32 53.39 343.6 57.39 341.98 61.79H341.97Z" fill="#595280"/>
</g>
<defs>
<clipPath id="clip0_69_2388">
<rect width="764.29" height="124.81" fill="white"/>
</clipPath>
</defs>
</svg>
