<svg width="246" height="41" viewBox="0 0 246 41" fill="none" xmlns="http://www.w3.org/2000/svg">
<g clip-path="url(#clip0_70_2594)">
<path d="M12.9799 1.11011C15.4099 0.530107 17.8999 0.100107 20.3999 0.0501067C25.5199 -0.0598933 31.3699 1.90011 33.3699 7.08011C34.3899 9.71011 34.0499 12.7501 34.0299 15.5101C33.9799 20.9901 33.2799 26.6701 34.0699 32.1201C34.3599 34.1201 35.4699 36.2001 37.6099 36.6301C42.3299 37.5801 43.4699 32.1701 43.6999 28.6301C43.9999 23.8701 43.9599 18.9901 43.6299 14.2401C43.4699 11.9001 43.2499 9.50011 42.5799 7.23011C42.5799 7.23011 41.7099 4.94011 43.8999 3.83011L49.2999 0.900107C49.6599 0.700107 50.0799 0.600107 50.4899 0.640107C50.8399 0.680107 51.2299 0.830107 51.5099 1.22011C51.6799 1.45011 51.7499 1.74011 51.7599 2.03011L51.8299 4.05011C51.8299 4.05011 51.7399 5.71011 53.7399 4.65011C55.0099 3.97011 57.3199 2.18011 60.3499 0.980107C63.6999 -0.339893 67.4599 -0.319893 70.7999 1.04011C73.8799 2.30011 77.5499 4.84011 78.5599 9.88011C79.4899 14.5201 79.3999 19.2701 79.3299 23.9801C79.2799 27.9401 78.7399 32.3701 80.6599 36.0101C80.6599 36.0101 81.3299 37.0501 81.1399 38.3101C81.1399 38.3101 80.8299 39.4601 79.7999 39.5701H70.0499C69.0499 39.5701 68.3799 38.7301 68.3399 37.7801C68.2999 36.9501 68.8199 36.3101 69.3199 35.7101C71.2599 33.3701 71.1199 30.1001 71.0399 27.2501C70.9399 23.6201 70.8999 19.9901 70.6399 16.3601C70.4299 13.3601 69.7199 10.1601 67.4599 8.02011C64.2799 5.00011 59.0199 5.55011 55.7499 8.12011C52.1699 10.9301 51.8999 15.8201 51.8199 20.0001L51.6399 29.2301C51.6399 29.2301 51.6199 29.9001 51.6599 30.8101C51.7499 32.9401 52.6199 34.9301 53.9699 36.5801C54.9899 37.8201 54.2799 39.5701 52.6599 39.5701H30.3599C29.4899 39.5701 28.6199 39.3201 27.9299 38.7901C27.1699 38.2001 26.4299 37.1901 26.3099 35.4301C26.3099 35.4301 26.3099 33.0001 26.3099 32.9901C26.2699 32.2001 25.7099 31.4901 24.9099 31.3601C23.9399 31.2001 23.2099 31.9201 22.7099 32.6601C21.0599 35.1001 19.3799 37.1601 16.7299 38.5701C13.2999 40.4001 8.93991 40.7001 5.45991 38.7201C2.12991 36.8101 -0.0700858 33.0201 -8.58386e-05 29.1701C0.0899142 24.2601 3.72991 20.9501 7.94991 19.0701C12.5799 17.0001 17.5599 15.7901 22.3499 14.1601C24.5999 13.4001 24.6899 10.7401 23.9399 8.85011C22.9699 6.39011 20.7899 4.99011 18.1899 4.83011C16.9199 4.75011 15.6499 4.93011 14.4199 5.26011C12.0799 5.88011 9.80991 6.77011 7.52991 7.56011C6.54991 7.90011 5.05991 7.88011 4.24991 7.24011C4.02991 7.07011 3.85991 6.89011 3.72991 6.73011C3.72991 6.73011 2.57991 5.53011 4.58991 4.27011C4.58991 4.27011 7.74991 2.37011 12.9899 1.12011L12.9799 1.11011ZM7.93991 28.2701C8.21991 30.7101 10.1099 32.6201 12.5499 33.0001C14.7599 33.3401 16.8099 33.0401 18.5799 31.7101C21.9099 29.2001 23.7499 25.1901 25.5999 21.5801C25.8799 21.0301 26.1699 20.2201 26.3099 19.8501C26.8299 18.4301 26.0999 17.1501 24.4299 17.5001C21.7599 18.0701 19.8599 18.5801 17.6899 19.2101C15.4299 19.8701 13.1999 20.7001 11.2099 21.9801C8.97991 23.4201 7.59991 25.4101 7.92991 28.2701H7.93991Z" fill="#E3D9D0"/>
<path d="M244.47 36.6302C242.41 35.9102 241.22 34.1202 240.93 32.1202C240.14 26.6702 240.84 20.9902 240.89 15.5102C240.92 12.7502 241.25 9.71024 240.23 7.08024C238.23 1.91024 232.38 -0.0597591 227.26 0.0502409C224.76 0.100241 222.27 0.530241 219.84 1.11024C214.6 2.36024 211.44 4.26024 211.44 4.26024C209.43 5.52024 210.58 6.72024 210.58 6.72024C210.71 6.88024 210.88 7.06024 211.1 7.23024C211.91 7.87024 213.41 7.89024 214.38 7.55024C216.67 6.76024 218.94 5.87024 221.28 5.25024C222.51 4.93024 223.78 4.74024 225.05 4.82024C227.65 4.98024 229.83 6.38024 230.8 8.84024C231.54 10.7302 231.45 13.3902 229.2 14.1502C224.41 15.7802 219.43 16.9902 214.8 19.0602C210.58 20.9402 206.94 24.2502 206.85 29.1602C206.78 33.0102 208.97 36.8002 212.32 38.7102C215.8 40.6902 220.15 40.3902 223.58 38.5602C226.24 37.1402 227.92 35.0802 229.56 32.6502C230.06 31.9102 230.79 31.1902 231.76 31.3502C232.56 31.4802 233.12 32.1902 233.16 32.9802V35.4202C233.28 37.1802 234.02 38.2002 234.78 38.7802C235.47 39.3102 236.34 39.5602 237.21 39.5602H242.96C244.41 39.5302 244.72 39.5102 245.15 38.9002C245.69 38.1102 245.22 36.9002 244.45 36.6302H244.47ZM233.18 19.8402C233.04 20.2202 232.75 21.0302 232.47 21.5702C230.62 25.1902 228.78 29.1902 225.45 31.7002C223.68 33.0302 221.62 33.3302 219.41 32.9902C216.97 32.6102 215.08 30.7102 214.8 28.2702C214.47 25.4002 215.85 23.4202 218.08 21.9702C220.06 20.6902 222.29 19.8502 224.56 19.2002C226.74 18.5702 228.63 18.0602 231.31 17.4902C232.97 17.1402 233.71 18.4202 233.18 19.8302V19.8402Z" fill="#E3D9D0"/>
<path d="M201.8 10.8298C199.7 6.64984 195.99 3.54984 191.51 2.17984C189.24 1.47984 186.24 1.28984 183.86 1.28984H169.87C169.87 1.28984 169.63 1.23984 169.31 1.26984C168.46 1.31984 167.78 2.07984 167.92 2.91984C167.94 3.06984 167.99 3.20984 168.08 3.32984C168.08 3.32984 168.47 4.00984 168.63 4.50984C168.63 4.50984 169.61 7.16984 169.69 11.5998L169.94 29.6498C169.94 29.6498 169.96 33.8498 169.16 35.9798C169.16 35.9798 168.46 37.6298 169.4 38.4498C169.4 38.4498 169.89 38.9198 171.15 38.8198C171.96 38.7598 172.77 38.6998 173.58 38.7198C173.58 38.7198 185.11 38.8098 185.13 38.8098C192.32 38.8698 198.79 35.6598 201.86 28.9498C204.45 23.2798 204.63 16.4498 201.8 10.8198V10.8298ZM187.48 35.4798C185.66 36.2598 181.68 36.4598 180.36 36.1998C177.31 35.6198 177.64 32.3298 177.64 32.3298V8.06984C177.64 7.28984 177.8 6.51984 178.16 5.82984C178.6 5.00984 179.38 4.17984 180.77 4.10984C180.77 4.10984 191.51 2.65984 194.24 15.5298C195.69 22.4098 194.81 32.3398 187.47 35.4898L187.48 35.4798Z" fill="#E3D9D0"/>
<path d="M164.14 36.0098C162.22 32.3598 162.75 27.9398 162.81 23.9798C162.87 19.2698 162.97 14.5198 162.04 9.87979C161.03 4.83979 157.36 2.30979 154.28 1.03979C150.94 -0.330207 147.18 -0.350207 143.83 0.979793C140.8 2.16979 138.5 3.96979 137.23 4.64979C135.23 5.70979 135.31 4.05979 135.31 4.05979L135.24 2.03979C135.24 1.74979 135.16 1.45979 134.99 1.22979C134.71 0.839793 134.32 0.689793 133.97 0.649793C133.55 0.599793 133.14 0.709793 132.78 0.909793L127.38 3.83979C125.19 4.94979 126.06 7.23979 126.06 7.23979C126.73 9.49979 126.95 11.8998 127.11 14.2498C127.44 18.9998 127.48 23.8798 127.18 28.6398C126.96 32.1798 125.82 37.5998 121.09 36.6398C118.95 36.2098 117.84 34.1298 117.55 32.1298C116.76 26.6798 117.45 20.9998 117.5 15.5198C117.53 12.7598 117.86 9.71979 116.84 7.08979C114.85 1.90979 109 -0.0602074 103.88 0.0497926C101.38 0.0997926 98.8999 0.529793 96.4699 1.10979C91.2299 2.35979 88.0699 4.25979 88.0699 4.25979C86.0599 5.51979 87.2099 6.71979 87.2099 6.71979C87.3299 6.86979 87.4899 7.03979 87.6899 7.19979C88.5199 7.86979 89.6499 8.00979 90.6599 7.66979C93.0699 6.85979 95.4499 5.89979 97.9099 5.24979C99.1399 4.92979 100.41 4.73979 101.68 4.81979C104.28 4.97979 106.46 6.37979 107.43 8.83979C108.17 10.7298 108.08 13.3898 105.83 14.1498C101.04 15.7798 96.0599 16.9898 91.4299 19.0598C87.2099 20.9398 83.5699 24.2498 83.4799 29.1598C83.4099 33.0098 85.5999 36.7998 88.9499 38.7098C92.4299 40.6898 96.7799 40.3898 100.21 38.5598C102.87 37.1398 104.55 35.0798 106.19 32.6498C106.69 31.9098 107.43 31.1898 108.39 31.3498C109.19 31.4798 109.75 32.1898 109.79 32.9798V35.4198C109.91 37.1798 110.65 38.1998 111.41 38.7798C112.1 39.3098 112.96 39.5598 113.84 39.5598H136.14C137.76 39.5598 138.47 37.8098 137.45 36.5698C136.1 34.9198 135.23 32.9298 135.14 30.7998C135.1 29.8898 135.12 29.2198 135.12 29.2198C135.18 26.1398 135.24 23.0698 135.29 19.9898C135.37 15.8098 135.65 10.9098 139.23 8.10979C142.51 5.53979 147.77 4.99979 150.94 8.00979C153.2 10.1498 153.91 13.3598 154.12 16.3598C154.37 19.9898 154.41 23.6198 154.51 27.2498C154.59 30.1098 154.73 33.3698 152.79 35.7098C152.29 36.3198 151.77 36.9498 151.8 37.7798C151.85 38.7298 152.51 39.5698 153.51 39.5698H163.26C163.71 39.5198 164.02 39.2698 164.23 39.0098C164.53 38.6398 164.65 38.1598 164.62 37.6798C164.57 36.7198 164.11 36.0098 164.11 36.0098H164.14ZM109.81 19.8398C109.67 20.2198 109.38 21.0298 109.1 21.5698C107.25 25.1898 105.41 29.1898 102.08 31.6998C100.31 33.0298 98.2499 33.3298 96.0499 32.9898C93.6099 32.6098 91.7099 30.7098 91.4299 28.2698C91.0999 25.3998 92.4799 23.4198 94.7099 21.9698C96.6899 20.6898 98.9299 19.8498 101.19 19.1998C103.37 18.5698 105.26 18.0598 107.94 17.4898C109.61 17.1398 110.34 18.4198 109.82 19.8298L109.81 19.8398Z" fill="#E3D9D0"/>
</g>
<defs>
<clipPath id="clip0_70_2594">
<rect width="245.41" height="40.08" fill="white"/>
</clipPath>
</defs>
</svg>
