<svg width="70" height="100" viewBox="0 0 70 100" fill="none" xmlns="http://www.w3.org/2000/svg">
<path d="M65.41 82.97C61.63 79.77 56.54 78.95 52.02 77.3C50.8 76.85 49.29 76.21 49.09 74.77C48.93 73.54 49.57 72.25 50.39 71.4C53.9 67.77 59.08 69.92 63.25 70.82C64.35 71.06 65.74 71.29 66.46 70.13C67.2 68.95 64.17 67.26 63.3 66.84C59.04 64.8 54.05 63.82 49.45 65.24C46.82 66.05 44.33 67.66 42.74 69.95C40.89 72.62 40.33 75.94 40.02 79.11C39.97 79.63 39.93 80.16 39.89 80.68C39.73 83.02 39.69 85.36 39.69 87.71C39.69 89.26 39.73 90.8 39.7 92.35C39.7 92.89 39.7 93.45 39.59 93.98C39.46 94.61 39.17 95.41 38.45 95.56C37.97 95.66 37.47 95.42 37.21 95.01C36.75 94.29 36.78 93.31 36.76 92.49C36.75 91.7 36.73 90.9 36.72 90.11C36.7 89.02 36.68 87.93 36.66 86.84C36.64 85.6 36.62 84.37 36.6 83.13C36.58 81.9 36.56 80.67 36.54 79.45C36.52 78.38 36.5 77.32 36.48 76.25C36.47 75.5 36.45 74.74 36.44 73.99C36.44 73.7 36.44 73.42 36.42 73.13C36.38 70.2 37.93 68.83 37.93 68.83L44.18 62.27C47.35 59.17 49.86 55.35 51.34 51.16C51.71 50.12 52.74 46.3 50.24 47.58C48.82 48.3 48.28 49.73 47.6 51.06C46.98 52.28 46.36 53.5 45.72 54.72C44.47 57.12 43.16 59.49 41.63 61.73C40.28 63.71 38.98 65.93 37.31 67.66C37.23 67.75 37.14 67.83 37.03 67.87C36.38 68.11 36.42 67.14 36.42 66.8L36.46 60.18C36.47 58.51 36.93 56.87 37.82 55.47C38.36 54.62 39.01 53.82 39.65 53.05C42.11 50.1 44.68 47.22 46.94 44.12C48.62 41.82 49.98 39.39 51.3 36.88C52.81 34.01 52.1 31.14 52.1 31.14C51.96 30.67 51.86 29.78 51.86 29.78C51.67 28.89 50.97 29.07 50.97 29.07C50.44 29.36 50.04 30.01 49.69 30.48C49.25 31.07 48.83 31.66 48.43 32.28C47.62 33.5 46.89 34.77 46.19 36.06C44.76 38.72 43.43 41.43 42.17 44.17C40.99 46.61 39.84 48.83 38.5 51.18C38.19 51.72 37.9 52.33 37.26 52.49C36.36 52.71 35.98 51.78 36.08 51.15C36.46 48.62 37.96 46.48 38.85 44.14C39.23 43.16 39.58 42.16 39.9 41.16C40.65 39.07 40.65 36.65 40.49 34.46C40.49 34.34 40.41 32.95 39.96 33.3C38.94 34.1 38.39 35.8 38.39 35.8C37.56 38.08 37 43.57 37 43.57C36.88 44.87 36.48 44.8 36.48 44.8C35.99 44.8 36.11 44.12 36.11 44.12V31.22C36.11 30.12 36.01 28.98 36.38 27.92C36.7 27 37.41 26.36 38 25.62C38.55 24.92 38.91 24.08 39.22 23.25C39.52 22.45 39.79 21.63 39.99 20.81C40.45 18.96 41.59 18 41.59 18C42.33 17.48 42.18 16.89 42.18 16.89C42.03 16.37 41.27 16.55 41.27 16.55C41.21 14.59 41.99 12.5 44.15 12.13C44.95 11.99 45.73 12.23 46.45 12.57C47.13 12.89 47.83 13.41 48.59 13.48C48.99 13.52 49.41 13.43 49.73 13.19C50.19 12.84 50.33 12.2 50.14 11.67C50.06 11.45 49.96 11.23 49.97 10.99C49.98 10.25 50.5 9.45 49.64 8.94C49.42 8.81 49.16 8.75 48.91 8.75C47.56 8.75 46.3 9.41 44.97 9.56C44.71 9.59 44.44 9.55 44.22 9.4C44.07 9.3 43.95 9.13 43.94 8.94C43.92 8.26 45.17 7.87 45.65 7.63C46.28 7.32 47.11 6.78 47.14 5.99C47.17 5.2 46.46 4.92 45.79 4.96C45.24 4.99 44.65 4.96 44.18 4.63C43.71 4.3 43.55 3.68 43.02 3.41C42.07 2.93 41.2 3.77 40.73 4.53C39.99 5.74 39.44 7.02 38.91 8.33C38.78 8.66 38.24 9.17 37.85 8.71C37.55 8.36 37.78 7.78 37.94 7.38C38.49 5.96 39.12 4.6 39.51 3.12C39.73 2.3 40.1 1.22 39.49 0.48C38.78 -0.37 37.94 0.16 37.09 0.4C36.32 0.62 35.62 0.08 34.86 0.03C34.34 -1.21072e-08 33.68 0.05 33.2 0.29C32.71 0.54 32.18 0.51 31.67 0.32C31.38 0.22 31.1 0.09 30.8 0.04C30.23 -0.05 29.72 0.25 29.45 0.73C28.93 1.64 29.5 3.29 29.5 3.29C29.67 3.72 29.84 4.16 30.02 4.59C30.48 5.74 31.02 6.89 31.39 8.07C31.44 8.23 31.47 8.41 31.44 8.58C31.4 8.84 31.22 9.03 30.94 8.95C30.63 8.85 30.47 8.51 30.32 8.25C29.93 7.6 29.62 6.89 29.28 6.21C28.99 5.63 28.75 4.98 28.36 4.45C28.1 4.11 27.78 3.8 27.38 3.63C26.58 3.28 25.87 3.59 25.28 4.17C24.67 4.76 23.83 4.66 23.06 4.69C21.92 4.73 21.53 5.98 22.29 6.78C22.76 7.27 23.38 7.58 24 7.83C24.44 8.01 25.2 8.12 25.15 8.75C25.12 9.17 24.7 9.4 24.33 9.46C23.21 9.66 22.32 9.23 21.29 8.9C20.62 8.68 19.78 8.57 19.29 9.24C18.99 9.65 19.06 10.14 19.03 10.61C19 11.07 18.72 11.44 18.66 11.89C18.52 12.95 19.82 13.4 20.67 13.31C21.36 13.24 21.87 12.83 22.47 12.56C23.11 12.28 23.81 12.15 24.51 12.17C25.13 12.19 25.85 12.39 26.4 12.69C27.53 13.29 27.86 14.86 27.88 16.11C27.88 16.3 27.75 16.49 27.56 16.53C27.05 16.64 26.87 17.27 27.2 17.66C27.31 17.78 27.44 17.88 27.55 17.96C28.89 18.85 29.09 21.02 29.6 22.42C30.12 23.85 30.85 24.87 31.83 26.05C32.3 26.61 32.93 27.08 33.36 27.69C33.89 28.45 33.94 29.39 33.94 30.28L33.88 38.77L34 46.32C34 47.1 33.68 46.99 33.68 46.99C33.36 46.9 33.27 46.38 33.27 46.38L32.19 43.15C31.02 39.86 30.24 36.46 29.42 33.07C28.69 30.08 28.17 27.01 26.82 24.2C26.43 23.39 25.6 21.78 24.53 21.78C23.32 21.78 25.55 31.21 25.79 32.07C27.61 38.58 30.79 44.59 33.49 50.75C33.86 51.59 34.34 52.5 34.26 53.44C34.17 54.53 33.11 54.29 32.52 53.77C29.59 51.18 25.63 45.98 25.63 45.98C23.39 42.86 21.64 39.41 19.02 36.57C18.56 36.07 18.07 35.6 17.6 35.12C17.05 34.57 16.63 33.73 15.93 33.35C14.88 32.77 15.25 34.54 15.34 34.92C15.53 35.75 15.78 36.56 16.08 37.36C16.66 38.92 17.43 40.4 18.3 41.82C20.49 45.4 23.18 48.37 26.42 51.01C28.35 52.58 30.34 54.1 32.37 55.54C34.24 56.95 34.11 58.83 34.11 58.83L34.04 64.37C34.09 65.29 33.58 66.19 32.53 65.75C31.52 65.33 30.57 64.2 29.78 63.46C28.85 62.58 27.95 61.67 27.07 60.73C25.31 58.83 23.67 56.82 22.15 54.73C20.56 52.55 19.08 50.22 17.68 47.93C17.31 47.33 15.87 45.19 14.91 45.93C13.97 46.66 14.79 48.45 15.06 49.33C15.48 50.7 15.98 52.04 16.58 53.35C17.74 55.9 19.26 58.29 21.15 60.37C22.79 62.17 24.77 63.67 26.81 64.97C28.13 65.81 29.51 66.55 30.91 67.24C32.57 68.06 33.84 68.92 34.17 70.44C34.51 72 34.56 73.97 34.54 75.53C34.53 77.33 34.5 79.14 34.45 80.95C34.39 83.11 34.32 85.27 34.23 87.43C34.16 89.18 34.16 90.95 33.98 92.69C33.88 93.71 33.58 95.44 32.21 95.33C31.68 95.29 31.18 94.92 30.96 94.42C30.85 94.16 30.77 93.86 30.77 93.58C30.77 88.76 30.89 83.91 30.42 79.11C30.11 75.95 29.55 72.62 27.7 69.95C26.12 67.66 23.63 66.06 20.99 65.25C16.39 63.83 11.4 64.81 7.14002 66.85C6.27002 67.27 3.25002 68.96 3.98002 70.13C4.70002 71.29 6.09002 71.06 7.19002 70.82C11.36 69.92 16.54 67.76 20.05 71.4C20.87 72.25 21.52 73.54 21.35 74.77C21.16 76.22 19.64 76.85 18.42 77.3C13.9 78.95 8.80002 79.77 5.03002 82.97C0.82002 86.53 -0.999979 93.88 3.91002 97.69C8.28002 101.09 15.5 99.94 18.78 95.54C19.29 94.86 19.59 93.97 20.21 93.39C20.79 92.85 21.98 92.78 22.67 93.51C23.22 94.09 23.22 94.96 23.41 95.7C23.68 96.76 24.08 97.75 25.02 98.39C25.66 98.83 26.43 99.03 27.21 99.03H43.21C43.98 99.03 44.75 98.82 45.4 98.38C46.34 97.74 46.74 96.75 47.01 95.69C47.2 94.95 47.2 94.08 47.75 93.5C48.44 92.77 49.63 92.84 50.2 93.38C50.83 93.96 51.13 94.85 51.64 95.53C54.92 99.92 62.14 101.07 66.51 97.68C71.41 93.87 69.6 86.53 65.39 82.96L65.41 82.97ZM31.91 20.13C32.32 20.73 33.27 22.39 33.63 25.22C33.64 25.33 33.51 25.39 33.44 25.3C32.93 24.63 31.75 22.8 31.71 20.19C31.71 20.09 31.84 20.04 31.9 20.13H31.91ZM33.32 18.12C33.15 18.12 33.01 17.98 33.01 17.81C33.01 17.67 33.01 17.53 33.01 17.4C33.01 17.22 33.01 17.03 32.99 16.85C32.98 16.63 32.96 16.41 32.94 16.19C32.91 15.94 32.88 15.69 32.84 15.45C32.79 15.18 32.74 14.92 32.67 14.66C32.6 14.38 32.51 14.11 32.41 13.84C32.37 13.72 32.32 13.61 32.27 13.49C32.26 13.46 32.25 13.43 32.23 13.41C32.21 13.36 32.16 13.34 32.11 13.34C32.08 13.34 32.05 13.34 32.03 13.34C31.99 13.34 31.96 13.34 31.92 13.33C31.92 13.33 31.92 13.33 31.91 13.33C31.8 13.31 31.7 13.28 31.61 13.24C31.42 13.16 31.26 13.02 31.14 12.85C31.02 12.68 30.95 12.47 30.94 12.26C30.94 12.24 30.94 12.22 30.94 12.19C30.94 11.57 31.47 11.04 32.09 11.04C32.73 11.04 33.24 11.56 33.24 12.19C33.24 12.49 33.13 12.76 32.94 12.96C32.81 13.1 32.77 13.31 32.86 13.48C33.19 14.12 33.68 15.48 33.64 17.83C33.64 18 33.5 18.13 33.33 18.13L33.32 18.12ZM23.87 81.38C23.79 81.71 23.51 82.37 23.28 82.83C21.13 87.02 18.11 93.59 12.25 92.68C10.58 92.42 9.00002 91.39 8.37002 89.76C7.91002 88.59 8.03002 87.26 8.56002 86.14C9.15002 84.9 10.24 84.08 11.38 83.37C14.17 81.64 17.91 80.56 19.87 80.04C20.05 79.99 20.24 79.94 20.42 79.9C20.94 79.77 21.61 79.64 22.25 79.59C23.3 79.51 24.11 80.37 23.87 81.39V81.38ZM37.69 20.29C37.68 20.98 37.53 23.19 36.19 25.2C36.15 25.27 36.05 25.23 36.05 25.14C36.05 24.35 36.17 21.91 37.56 20.23C37.61 20.17 37.69 20.22 37.69 20.3V20.29ZM34.77 25.89C34.53 25.07 33.76 22.09 34.59 19.25C34.62 19.16 34.74 19.16 34.77 19.25C35.05 20.03 35.59 22.6 34.89 25.89C34.88 25.95 34.79 25.96 34.77 25.89ZM34.76 17.69C34.69 14.91 35.17 12.68 35.4 11.79C35.44 11.62 35.42 11.43 35.3 11.29C35.09 11.04 34.98 10.7 35.04 10.33C35.12 9.85 35.52 9.47 36 9.4C36.88 9.27 37.64 10.1 37.23 11.02C37.05 11.43 36.79 11.56 36.32 11.63C36.32 11.63 36.12 11.63 36.03 11.84C35.23 13.98 35.34 16.72 35.37 17.67C35.37 17.84 35.24 17.99 35.06 17.99C34.89 17.99 34.76 17.86 34.75 17.69H34.76ZM61.98 89.76C61.34 91.39 59.77 92.42 58.09 92.68C52.24 93.59 49.21 87.03 47.06 82.83C46.83 82.37 46.54 81.71 46.47 81.38C46.23 80.36 47.04 79.5 48.09 79.58C48.72 79.63 49.4 79.76 49.92 79.89C50.11 79.94 50.29 79.98 50.48 80.03C52.43 80.55 56.18 81.63 58.97 83.36C60.11 84.07 61.2 84.88 61.79 86.13C62.32 87.25 62.44 88.58 61.98 89.75V89.76Z" fill="#000000"/>
</svg>
