<svg width="58" height="57" viewBox="0 0 58 57" fill="none" xmlns="http://www.w3.org/2000/svg">
<path d="M38.45 20.4599C38.45 21.3899 37.6899 22.1499 36.7599 22.1499C35.8299 22.1499 35.07 21.3899 35.07 20.4599C35.07 19.5299 35.8299 18.7699 36.7599 18.7699C37.6899 18.7699 38.45 19.5299 38.45 20.4599ZM36.34 28.0499C36.34 31.9699 33.15 35.1599 29.2299 35.1599C25.3099 35.1599 22.1199 31.9699 22.1199 28.0499C22.1199 24.1299 25.3099 20.9399 29.2299 20.9399C33.15 20.9399 36.34 24.1299 36.34 28.0499ZM33.7899 28.0499C33.7899 25.5399 31.75 23.4999 29.24 23.4999C26.73 23.4999 24.69 25.5399 24.69 28.0499C24.69 30.5599 26.73 32.5999 29.24 32.5999C31.75 32.5999 33.7899 30.5599 33.7899 28.0499ZM43.63 22.3399C43.63 17.5499 39.75 13.6699 34.96 13.6699H23.13C18.34 13.6699 14.46 17.5499 14.46 22.3399V34.1699C14.46 38.9599 18.34 42.8399 23.13 42.8399H34.96C39.75 42.8399 43.63 38.9599 43.63 34.1699V22.3399ZM40.78 34.0399C40.78 37.3299 38.11 39.9999 34.82 39.9999H23.25C19.96 39.9999 17.2899 37.3299 17.2899 34.0399V22.4699C17.2899 19.1799 19.96 16.5099 23.25 16.5099H34.82C38.11 16.5099 40.78 19.1799 40.78 22.4699V34.0399Z" fill="#E3D9D0"/>
<path d="M29.04 0C13.46 0 0.780029 12.68 0.780029 28.26C0.780029 43.84 13.46 56.52 29.04 56.52C44.62 56.52 57.3 43.84 57.3 28.26C57.3 12.68 44.62 0 29.04 0ZM29.04 52.89C15.46 52.89 4.41003 41.84 4.41003 28.26C4.41003 14.68 15.46 3.63 29.04 3.63C42.62 3.63 53.67 14.68 53.67 28.26C53.67 41.84 42.62 52.89 29.04 52.89Z" fill="#E3D9D0"/>
</svg>
