<svg width="58" height="57" viewBox="0 0 58 57" fill="none" xmlns="http://www.w3.org/2000/svg">
<path fill-rule="evenodd" clip-rule="evenodd" d="M27.16 33.5401C27.13 33.6301 27.11 33.7101 27.09 33.7801C25.93 38.3401 25.8 39.3501 24.6 41.4701C24.03 42.4801 23.39 43.4301 22.68 44.3401C22.6 44.4401 22.52 44.5801 22.36 44.5401C22.18 44.5001 22.17 44.3501 22.15 44.2001C21.96 42.8101 21.85 41.4301 21.9 40.0301C21.96 38.2101 22.19 37.5801 24.53 27.7001C24.56 27.5501 24.53 27.4201 24.48 27.2901C23.92 25.7701 23.81 24.2301 24.3 22.6701C25.36 19.3001 29.18 19.0401 29.85 21.8201C30.26 23.5401 29.17 25.7901 28.34 29.1101C27.65 31.8501 30.88 33.8001 33.64 31.8001C36.19 29.9501 37.17 25.5301 36.99 22.3901C36.62 16.1301 29.76 14.7801 25.41 16.8001C20.42 19.1101 19.29 25.2901 21.54 28.1201C21.83 28.4801 22.05 28.7001 21.95 29.0601C21.8 29.6301 21.68 30.2001 21.52 30.7601C21.4 31.1801 21.05 31.3301 20.63 31.1601C19.8 30.8201 19.11 30.2901 18.55 29.6001C16.64 27.2301 16.09 22.5501 18.62 18.5801C21.42 14.1801 26.63 12.4101 31.39 12.9501C37.07 13.6001 40.67 17.4801 41.34 21.8901C41.65 23.9001 41.43 28.8501 38.61 32.3401C35.37 36.3601 30.11 36.6301 27.69 34.1601C27.5 33.9701 27.35 33.7501 27.17 33.5201L27.16 33.5401Z" fill="#E3D9D0"/>
<path d="M28.9399 0C13.3599 0 0.679932 12.68 0.679932 28.26C0.679932 43.84 13.3599 56.52 28.9399 56.52C44.5199 56.52 57.1999 43.84 57.1999 28.26C57.1999 12.68 44.5199 0 28.9399 0ZM28.9399 52.89C15.3599 52.89 4.30993 41.84 4.30993 28.26C4.30993 14.68 15.3499 3.62 28.9399 3.62C42.5299 3.62 53.5699 14.67 53.5699 28.25C53.5699 41.83 42.5199 52.88 28.9399 52.88V52.89Z" fill="#E3D9D0"/>
</svg>
