<svg width="57" height="57" viewBox="0 0 57 57" fill="none" xmlns="http://www.w3.org/2000/svg">
<path fill-rule="evenodd" clip-rule="evenodd" d="M24.54 28.3702V42.1902C24.54 42.3902 24.7 42.5502 24.9 42.5502H30.03C30.23 42.5502 30.39 42.3902 30.39 42.1902V28.1402H34.11C34.3 28.1402 34.45 28.0002 34.47 27.8102L34.83 23.5802C34.85 23.3702 34.68 23.1902 34.47 23.1902H30.39V20.1902C30.39 19.4902 30.96 18.9202 31.66 18.9202H34.53C34.73 18.9202 34.89 18.7602 34.89 18.5602V14.3302C34.89 14.1302 34.73 13.9702 34.53 13.9702H29.68C26.84 13.9702 24.53 16.2802 24.53 19.1202V23.2002H21.96C21.76 23.2002 21.6 23.3602 21.6 23.5602V27.7902C21.6 27.9902 21.76 28.1502 21.96 28.1502H24.53V28.3802L24.54 28.3702Z" fill="#E3D9D0"/>
<path d="M28.26 0C12.68 0 0 12.68 0 28.26C0 43.84 12.68 56.52 28.26 56.52C43.84 56.52 56.52 43.84 56.52 28.26C56.52 12.68 43.84 0 28.26 0ZM52.89 28.26C52.89 41.84 41.84 52.89 28.26 52.89C14.68 52.89 3.62 41.84 3.62 28.26C3.62 14.68 14.67 3.62 28.26 3.62C41.85 3.62 52.89 14.67 52.89 28.25V28.26Z" fill="#E3D9D0"/>
</svg>
