<svg width="81" height="81" viewBox="0 0 81 81" fill="none" xmlns="http://www.w3.org/2000/svg">
<g clip-path="url(#clip0_3_15)">
<path d="M66.2799 32.69C66.4199 34.57 66.4899 36.54 66.0599 38.5C65.4199 41.44 64.6299 44.34 63.4099 47.11C62.7199 48.66 61.9399 50.16 60.8899 51.5C58.9099 54.05 56.3299 55.73 53.2599 56.68C52.1099 57.04 50.9199 57.22 49.7299 57.41C47.9499 57.69 46.1599 57.94 44.3699 58.22C42.9299 58.45 41.4899 58.72 40.0499 58.97C39.2099 59.11 38.5399 59.5 38.1299 60.26C37.8699 60.73 37.4899 61.05 36.9999 61.28C36.1899 61.65 35.4699 62.18 34.7199 62.65C34.0899 63.05 33.5099 63.5 32.9299 63.95C32.7699 64.07 32.5999 64.18 32.4099 64.25C32.0999 64.36 31.7399 64.05 31.8199 63.73C31.8599 63.54 31.9499 63.35 32.0599 63.19C32.2499 62.9 32.4699 62.64 32.6799 62.36C33.5499 61.23 34.1399 59.97 34.3999 58.56C34.5999 57.49 34.7999 56.42 34.9899 55.35C35.5899 51.93 36.4599 48.58 37.6699 45.32C38.5799 42.86 39.7199 40.52 41.3499 38.45C42.9199 36.45 44.7499 34.73 46.9899 33.48C48.0499 32.89 49.1799 32.49 50.3199 32.12C52.0499 31.56 53.6199 30.68 55.0899 29.62C55.3499 29.44 55.5999 29.25 55.8399 29.05C57.1999 27.94 58.7899 27.43 60.4999 27.24C61.3099 27.15 62.0999 27.24 62.8799 27.46C63.9599 27.76 64.7599 28.4 65.2799 29.4C65.7999 30.4 66.0899 31.48 66.2599 32.69H66.2799ZM35.4099 61.5C35.8199 61.3 36.2099 61.08 36.6299 60.92C37.1899 60.7 37.6099 60.36 37.9099 59.84C38.2899 59.2 38.8599 58.76 39.5599 58.54C40.3199 58.29 41.0899 58.04 41.8699 57.89C44.1199 57.44 46.3699 57.03 48.6299 56.6C49.8699 56.37 51.1099 56.11 52.2899 55.68C55.0299 54.67 57.2599 52.98 58.9499 50.6C59.8399 49.36 60.5599 48.03 61.1899 46.64C62.3499 44.07 63.2599 41.42 64.0799 38.73C64.5699 37.13 64.8299 35.49 64.8499 33.82C64.8599 32.73 64.7999 31.65 64.4999 30.59C64.0799 29.14 63.1599 28.37 61.6899 28.22C61.5199 28.2 61.3499 28.18 61.1799 28.19C59.4499 28.25 57.8499 28.66 56.4499 29.75C55.9099 30.17 55.3499 30.59 54.7399 30.89C53.2699 31.6 51.8099 32.32 50.2399 32.82C49.6999 32.99 49.1599 33.21 48.6399 33.45C46.6699 34.35 45.0899 35.74 43.7099 37.39C42.1899 39.21 41.0699 41.28 40.2099 43.48C39.2299 45.99 38.3899 48.55 37.7099 51.16C37.2099 53.08 36.9199 55.03 36.5899 56.98C36.3299 58.51 36.0699 60.03 35.3999 61.52L35.4099 61.5Z" fill="#595280"/>
<path d="M32.1701 28.1401C33.0801 29.9501 33.8101 31.8101 34.2101 33.7901C34.5601 35.5401 34.4801 37.2701 33.9501 38.9701C33.7301 39.6801 33.4501 40.3801 33.1601 41.0601C32.7501 42.0101 32.3001 42.9401 31.8701 43.8701C31.6701 44.3101 31.4901 44.7701 31.2801 45.2101C30.6101 46.6501 30.4101 48.1601 30.5201 49.7401C30.5901 50.7101 30.6101 51.6801 30.6601 52.6601C30.6801 53.0601 30.7401 53.4601 30.9901 53.8001C31.0601 53.8901 31.1001 54.0101 31.1201 54.1101C31.1901 54.4301 30.9401 54.7601 30.6101 54.7601C30.4101 54.7601 30.2101 54.7301 30.0301 54.6501C29.7201 54.5201 29.4101 54.3601 29.1201 54.1701C27.2901 52.9801 25.8101 51.4401 24.6301 49.6101C24.1801 48.9001 23.8901 48.1201 23.6701 47.3201C23.4401 46.4601 23.2201 45.6001 22.9501 44.7601C22.3801 42.9401 21.4901 41.2801 20.4301 39.7001C19.3801 38.1301 18.2501 36.6101 17.3101 34.9601C15.9701 32.6001 14.9401 30.1201 14.4501 27.4401C14.3501 26.8801 14.2901 26.3101 14.2501 25.7301C14.1801 24.7201 14.4501 23.8001 15.0301 22.9701C15.9901 21.6101 17.1901 20.5301 18.7301 19.8501C19.7901 19.3901 20.8901 19.2901 22.0101 19.5701C23.9301 20.0401 25.6901 20.8401 27.2201 22.1101C28.4801 23.1601 29.5801 24.3701 30.5301 25.7001C31.0901 26.4901 31.6101 27.3201 32.1401 28.1301L32.1701 28.1401ZM30.4501 52.9901C30.2801 51.3201 30.1601 49.8401 29.9801 48.3601C29.8901 47.6301 29.9201 46.9301 30.1401 46.2401C30.5001 45.1201 30.8701 44.0101 31.2301 42.8901C31.6101 41.7201 32.0301 40.5601 32.3301 39.3701C32.8001 37.5301 32.7401 35.6801 32.2601 33.8501C31.4401 30.7001 29.9901 27.8601 27.9601 25.3301C27.0201 24.1601 25.9801 23.1101 24.7501 22.2401C23.7801 21.5601 22.7401 21.0201 21.6001 20.7101C20.7801 20.4801 19.9501 20.4801 19.1601 20.8101C17.8101 21.3801 16.6901 22.2501 15.8101 23.4201C15.3101 24.0801 15.0501 24.8301 15.0901 25.6701C15.1101 26.2401 15.1501 26.8201 15.2501 27.3801C15.8101 30.4701 17.0001 33.3101 18.7801 35.8801C19.6901 37.2001 20.6901 38.4501 21.6601 39.7301C22.8001 41.2401 23.8601 42.8101 24.5901 44.5701C24.8501 45.2001 25.1001 45.8501 25.3401 46.4901C25.6601 47.3601 26.1001 48.1601 26.6401 48.9001C27.6301 50.2401 28.7501 51.4701 29.9601 52.6001C30.0601 52.6901 30.1801 52.7701 30.4501 52.9901Z" fill="#595280"/>
<path d="M46.3102 39.5C46.5902 39.72 46.6002 40.04 46.6502 40.34C46.7602 41.08 46.8802 41.81 47.0002 42.55C47.0302 42.71 47.0802 42.87 47.1102 42.99C47.3602 43.08 47.4302 42.93 47.5102 42.83C48.5602 41.51 49.8402 40.46 51.2502 39.58C53.0002 38.48 54.6402 37.24 56.1802 35.86C56.9702 35.16 57.8302 34.53 58.6702 33.88C58.8602 33.73 59.0702 33.55 59.4102 33.71C59.2902 33.86 59.2002 34.01 59.0802 34.12C57.9402 35.17 56.8102 36.22 55.6502 37.24C54.6602 38.11 53.6502 38.95 52.6302 39.79C51.8102 40.47 51.0102 41.16 50.3502 41.99C50.1802 42.21 50.0202 42.45 49.8002 42.76C50.0302 42.79 50.1602 42.84 50.2802 42.83C51.8202 42.68 53.3602 42.53 54.9002 42.37C55.1802 42.34 55.4602 42.3 55.7102 42.26C55.8502 42.48 55.7502 42.59 55.6202 42.65C55.3902 42.76 55.1502 42.87 54.9102 42.93C53.1802 43.34 51.4302 43.62 49.6402 43.63C49.5302 43.63 49.4102 43.65 49.2402 43.66C48.4202 44.99 47.8902 46.46 47.4702 48.05C48.2302 48.07 48.9202 48.1 49.6002 48.11C50.8602 48.13 52.1202 48.13 53.3802 48.15C53.6102 48.15 53.8302 48.2 54.0502 48.25C54.2102 48.29 54.2602 48.57 54.1102 48.67C53.9502 48.78 53.7802 48.9 53.5902 48.94C53.3102 49.01 53.0202 49.04 52.7402 49.05C50.9402 49.13 49.1402 49.27 47.3402 48.99C47.2902 48.99 47.2302 49.01 47.1302 49.03C47.0402 49.23 46.9302 49.46 46.8302 49.7C45.3402 53.13 42.8702 55.62 39.5202 57.24C39.2902 57.35 39.0502 57.46 38.8002 57.52C38.2102 57.66 37.7702 57.17 37.9902 56.6C38.1002 56.32 38.3002 56.05 38.5102 55.83C38.8502 55.48 39.2402 55.19 39.6002 54.86C40.3702 54.17 41.1502 53.5 41.8902 52.78C43.0302 51.66 43.8702 50.34 44.4902 48.87C44.7502 48.24 44.9802 47.59 45.2502 46.95C45.5602 46.21 45.8802 45.48 46.2402 44.76C46.4002 44.43 46.4502 44.15 46.3702 43.78C46.2002 42.94 46.0702 42.09 45.9702 41.24C45.9202 40.82 45.9702 40.38 45.9902 39.96C45.9902 39.81 46.0502 39.76 46.3102 39.5Z" fill="#595280"/>
<path d="M60.43 38.24C60.4 38.34 60.39 38.46 60.33 38.52C60.21 38.63 60.06 38.73 59.9 38.78C59.42 38.94 58.93 39.11 58.44 39.22C58.21 39.27 57.94 39.21 57.69 39.16C57.62 39.15 57.55 38.99 57.54 38.89C57.53 38.83 57.6 38.74 57.66 38.68C57.72 38.63 57.8 38.58 57.88 38.57C58.66 38.43 59.44 38.3 60.23 38.17C60.28 38.17 60.33 38.2 60.43 38.23V38.24Z" fill="#595280"/>
<path d="M57.3905 46.66C56.9905 46.67 56.6505 46.71 56.3105 46.69C56.1505 46.69 55.9905 46.59 55.8505 46.51C55.7405 46.45 55.7705 46.2 55.8905 46.14C55.9705 46.1 56.0505 46.06 56.1305 46.06C56.7805 46.04 57.4405 46.03 58.1005 46.02C58.1305 46.02 58.1605 46.02 58.1805 46.04C58.2505 46.12 58.3705 46.2 58.3705 46.28C58.3705 46.36 58.2705 46.49 58.1805 46.52C58.0305 46.59 57.8505 46.61 57.6805 46.64C57.5705 46.66 57.4505 46.66 57.3905 46.67V46.66Z" fill="#595280"/>
<path d="M42.5298 47.29C42.3398 47.18 42.1698 47.14 42.0798 47.03C41.6798 46.58 41.4198 46.05 41.2298 45.48C41.2098 45.43 41.2098 45.36 41.2298 45.32C41.2598 45.25 41.3098 45.16 41.3698 45.14C41.4298 45.12 41.5298 45.14 41.5898 45.18C41.6598 45.22 41.6998 45.31 41.7398 45.38C41.9898 45.92 42.2498 46.4501 42.4898 46.9901C42.5198 47.0601 42.5098 47.15 42.5198 47.3L42.5298 47.29Z" fill="#595280"/>
<path d="M27.6903 46.79C27.5503 46.64 27.4503 46.58 27.4003 46.49C27.2303 46.16 27.0503 45.83 26.9303 45.48C26.1503 43.22 25.7403 40.88 25.4303 38.52C25.3503 37.87 25.3403 37.2 25.4103 36.55C25.5403 35.26 25.1803 34.12 24.4903 33.02C22.6703 32.79 21.1803 31.83 19.8003 30.68C19.1803 30.17 18.6003 29.62 18.0103 29.08C17.8503 28.93 17.7903 28.74 18.0603 28.54C18.4003 28.7 18.6403 29.04 18.9503 29.27C19.2503 29.49 19.5303 29.74 19.8203 29.97C20.1403 30.21 20.4603 30.45 20.7903 30.68C21.1203 30.91 21.4603 31.12 21.8103 31.32C22.1303 31.51 22.4603 31.69 22.8003 31.84C23.1503 32 23.4903 32.22 24.0003 32.23C23.8903 32 23.8403 31.85 23.7603 31.71C23.4603 31.19 23.1503 30.67 22.8603 30.14C22.7003 29.84 22.5603 29.52 22.4303 29.2C22.3803 29.07 22.3503 28.92 22.3403 28.78C22.3303 28.45 22.6403 28.24 22.9303 28.4C23.1503 28.52 23.3503 28.7 23.5503 28.86C23.7503 29.02 23.9303 29.18 24.2103 29.42C24.2103 29.03 24.2103 28.75 24.2103 28.47C24.2103 27.41 24.2003 26.35 24.2103 25.29C24.2103 25.07 24.2703 24.84 24.3503 24.63C24.3803 24.55 24.5403 24.48 24.6303 24.49C24.7203 24.49 24.8303 24.59 24.8903 24.66C24.9403 24.72 24.9603 24.82 24.9703 24.9C25.1103 26.09 25.3503 27.28 25.2803 28.49C25.2503 29.12 25.1603 29.74 25.0903 30.49C25.2303 30.69 25.4503 30.99 25.6603 31.3C26.0303 31.85 26.4003 32.39 26.7403 32.96C27.0503 33.48 27.2903 34.03 27.4103 34.63C27.4403 34.76 27.4903 34.89 27.5603 35.12C27.7203 34.89 27.8203 34.75 27.9103 34.61C28.1603 34.2 28.4103 33.77 28.6703 33.36C28.7903 33.17 28.9303 32.98 29.1003 32.82C29.2403 32.68 29.4203 32.56 29.6403 32.66C29.8003 32.73 29.8603 33.01 29.7303 33.28C29.2403 34.28 28.7503 35.29 28.2303 36.28C28.1003 36.53 27.9103 36.77 27.6903 36.93C27.4203 37.12 27.3303 37.36 27.3103 37.65C27.2903 38.25 27.2703 38.85 27.2603 39.45C27.2503 40.42 27.2903 41.4 27.2203 42.37C27.1403 43.56 27.3103 44.71 27.6503 45.84C27.7303 46.11 27.8703 46.37 27.6903 46.78V46.79Z" fill="#595280"/>
<path d="M20.6298 26.22C20.4398 26.22 20.2798 26.27 20.1698 26.22C19.6098 25.95 19.0498 25.66 18.5098 25.35C18.3998 25.29 18.3198 25.14 18.2598 25.02C18.1898 24.88 18.3398 24.65 18.5098 24.65C18.5698 24.65 18.6298 24.63 18.6798 24.65C19.3398 24.98 19.9998 25.33 20.5198 25.87C20.5898 25.94 20.5898 26.07 20.6398 26.23L20.6298 26.22Z" fill="#595280"/>
<path d="M20.3798 35.38C20.8898 35.21 21.3598 35.12 21.8498 35.26C21.9098 35.28 21.9898 35.38 21.9898 35.44C21.9898 35.51 21.9398 35.63 21.8798 35.65C21.4398 35.78 20.9998 35.9 20.5598 35.98C20.4398 36 20.2598 35.91 20.2598 35.74C20.2598 35.61 20.3398 35.49 20.3798 35.38Z" fill="#595280"/>
<path d="M28.0297 28.61C28.1397 28.8 28.2197 28.9 28.2297 28.99C28.2797 29.4 28.1597 29.77 27.9797 30.13C27.8897 30.3 27.7297 30.36 27.5497 30.3C27.3597 30.24 27.2597 30.1 27.2997 29.92C27.3997 29.45 27.5797 29.02 28.0297 28.61Z" fill="#595280"/>
<path d="M21.8704 25.35C21.7504 25.29 21.6104 25.27 21.5704 25.2C21.3404 24.8 21.1904 24.38 21.1904 23.91C21.1904 23.88 21.1904 23.85 21.2104 23.83C21.2704 23.77 21.3204 23.69 21.3904 23.67C21.4604 23.65 21.5704 23.67 21.6204 23.72C21.7004 23.79 21.7804 23.9 21.8004 24C21.8804 24.43 22.1304 24.86 21.8804 25.35H21.8704Z" fill="#595280"/>
<path d="M31.0704 39.14C30.9204 39.5 30.8304 39.76 30.7104 40.01C30.6804 40.06 30.5704 40.11 30.5004 40.1C30.4304 40.1 30.3504 40.02 30.3104 39.96C30.2704 39.89 30.2504 39.8 30.2604 39.72C30.3104 39.37 30.4504 39.26 31.0704 39.14Z" fill="#595280"/>
<path d="M40.1 79.2C61.6943 79.2 79.2 61.6943 79.2 40.1C79.2 18.5057 61.6943 1 40.1 1C18.5057 1 1 18.5057 1 40.1C1 61.6943 18.5057 79.2 40.1 79.2Z" stroke="#595280" stroke-width="2" stroke-miterlimit="10"/>
</g>
<defs>
<clipPath id="clip0_3_15">
<rect width="80.2" height="80.2" fill="white"/>
</clipPath>
</defs>
</svg>
