<svg width="81" height="81" viewBox="0 0 81 81" fill="none" xmlns="http://www.w3.org/2000/svg">
<g clip-path="url(#clip0_3_29)">
<path d="M40.1 79.2C61.6943 79.2 79.2 61.6943 79.2 40.1C79.2 18.5057 61.6943 1 40.1 1C18.5057 1 1 18.5057 1 40.1C1 61.6943 18.5057 79.2 40.1 79.2Z" stroke="#595280" stroke-width="2" stroke-miterlimit="10"/>
<path d="M10.9199 50.77C10.9799 49.08 12.0599 47.93 13.7899 48.03C14.6199 48.08 15.4299 48.33 16.1999 48.63C16.6299 48.8 17.6399 49 17.8499 49.4C15.9599 46.64 14.5099 43.14 15.1199 39.79C15.6499 36.8 18.2299 34.22 20.8399 32.97C24.9899 30.99 29.4799 30.85 34.0299 30.95C38.2299 31.05 41.1999 32.16 45.2599 33.02C44.8099 32.53 42.1999 30.05 41.5299 29.13C40.4399 27.64 39.1599 26.13 38.8799 24.29C38.2599 20.31 42.2799 23.17 43.4899 23.9C46.0099 25.42 48.3199 27.28 50.6499 29.07C49.6599 27.22 48.5699 25.25 47.9499 23.25C47.4799 21.75 46.1699 17.76 47.9699 16.55C49.5699 15.48 51.7699 17.89 52.6899 18.96C54.6199 21.22 55.6399 23.82 56.3099 26.67C56.7499 28.57 57.2499 30.45 58.2299 32.16C59.5299 34.42 61.5199 36.04 63.5099 37.66C66.9599 40.47 72.2699 45.56 67.2999 49.54C68.1999 49.12 67.0199 49.88 66.8199 50.01C66.5599 50.18 65.6899 50.45 65.5399 50.7C65.5499 50.68 65.9399 50.67 65.9299 50.68C65.8399 51.25 63.3399 51.51 62.8899 51.57C61.6499 51.72 60.3799 51.68 59.1499 51.94C58.3499 52.07 57.2699 52.53 57.1599 53.47C57.1199 54.5 58.2999 55.44 59.0299 55.96C59.1899 56.13 59.1999 56.35 59.3099 56.54C59.8099 56.83 60.3299 57.11 60.8699 57.33C61.6099 57.63 60.9299 58.42 60.2899 58.14C58.7499 57.46 57.0499 56.5 56.0999 55.06C56.2099 55.33 56.3799 55.57 56.5199 55.82C56.3799 55.67 55.4199 53.98 55.3899 53.98C55.2999 53.98 55.5099 54.69 55.4899 54.63C55.3099 54.23 55.2199 53.78 55.2399 53.34C55.1799 53.57 55.1599 53.81 55.1599 54.04C54.3299 50.23 59.2499 49.6 61.8099 49.39C63.9099 49.22 66.6399 48.58 67.4199 46.33C67.6499 45.11 67.1099 43.89 66.4099 42.91C66.0299 42.37 65.5099 41.94 65.1499 41.39C64.7599 40.8 64.1399 40.33 63.5899 39.83C61.2699 37.73 58.9399 36.11 57.3299 33.34C55.8399 30.77 55.5799 27.72 54.7599 24.88C54.2999 23.29 53.5299 21.8 52.5599 20.46C52.0499 19.76 49.6499 16.59 48.5299 17.44C47.4499 18.26 48.7599 21.39 49.0599 22.41C49.5099 23.95 50.0499 25.46 50.7099 26.92C51.0499 27.68 51.3399 28.43 51.7499 29.15C52.0399 29.66 52.9799 30.59 52.9499 31.19C52.8999 32.27 51.7399 31.16 51.4999 30.97C50.7699 30.4 50.0399 29.83 49.3099 29.28C47.7299 28.08 46.1199 26.91 44.4599 25.81C43.3399 25.07 42.1499 24.19 40.8899 23.71C39.2299 22.99 40.1699 24.67 40.5599 25.38C42.7199 29.17 46.0699 32.25 49.7199 34.59C50.0099 34.77 50.6899 35.04 50.7099 35.45C50.7599 36.34 49.5599 35.76 49.1799 35.63C47.0399 34.91 44.8999 34.19 42.7299 33.57C36.4299 31.77 30.3399 31.23 24.0899 33.41C20.6699 34.6 16.9799 36.65 16.5599 40.6C16.1399 44.48 18.4199 48.17 20.4999 51.28C20.5699 51.39 20.6399 51.5 20.7199 51.6C20.9299 51.91 20.7199 52.34 20.3599 52.37C20.0599 52.39 19.7699 52.08 19.5499 51.93C18.3399 51.09 17.0399 50.41 15.6699 49.85C14.8399 49.5 13.5699 48.98 12.6799 49.42C11.6299 49.93 11.9899 51.63 12.3699 52.45C13.5799 55.03 16.8499 57.3 19.7299 57.41C21.5999 57.48 23.4699 57.49 25.3399 57.52C29.8099 57.59 33.4599 57.71 37.9299 57.81C36.8499 56.92 34.6699 55.63 34.5899 54.04C34.8899 51.98 38.7099 51.66 38.2399 49.19C37.7599 46.68 34.9599 45.48 32.7299 44.93C30.2299 44.32 27.3599 44.43 24.9999 45.51C27.4299 44.08 30.5399 44.06 33.1899 44.78C31.5199 44.3 29.7299 44.14 27.9999 44.37C27.1799 44.48 26.3799 44.68 25.6099 45C25.3499 45.11 23.6099 45.7 24.2599 44.64C24.8599 43.67 27.4899 43.36 28.4999 43.24C30.2799 43.03 32.1099 43.18 33.8199 43.71C36.3399 44.49 40.6799 46.71 40.0299 49.98C39.8199 51.05 39.0299 51.83 38.1999 52.47C37.7399 52.82 36.2799 53.52 36.6099 54.2C37.5899 56.23 39.9099 57.27 41.9299 57.9C42.5199 58.08 42.4299 58.86 41.7699 58.85C41.4499 58.85 41.1199 58.84 40.7999 58.83C37.3699 58.76 33.9499 58.68 30.5199 58.61C27.0499 58.54 23.5799 58.46 20.1199 58.39C16.3699 58.31 10.7999 55.03 10.9299 50.74C10.9299 50.79 10.9399 50.38 10.9299 50.74L10.9199 50.77Z" fill="#595280"/>
</g>
<defs>
<clipPath id="clip0_3_29">
<rect width="80.2" height="80.2" fill="white"/>
</clipPath>
</defs>
</svg>
